<?xml version="1.0" encoding="UTF-8"?>
<svg id="uuid-8dde84ba-4bb7-4e96-98c6-414291c0749e" xmlns="http://www.w3.org/2000/svg" version="1.1" viewBox="0 0 666.3 748">
  <!-- Generator: Adobe Illustrator 30.1.0, SVG Export Plug-In . SVG Version: 2.1.1 Build 136)  -->
  <defs>
    <style>
      .st0 {
        fill: #006eff;
      }
    </style>
  </defs>
  <g id="uuid-ee426132-6c1c-4611-aaee-616250d8e603">
    <path class="st0" d="M594.9,30.3l-128.4,65.2c-14,7.1-30.5,7.1-44.5,0L244.4,5.3c-14-7.1-30.5-7.1-44.5,0L26.9,93.1C10.4,101.4,0,118.4,0,136.9v536.9c0,36.7,38.7,60.5,71.4,43.8l128.4-65.2c14-7.1,30.5-7.1,44.5,0l177.6,90.1c14,7.1,30.5,7.1,44.5,0l172.9-87.7c16.5-8.4,26.9-25.3,26.9-43.8V74.1c0-36.7-38.7-60.5-71.4-43.8h0Z"/>
  </g>
</svg>