<?xml version="1.0" encoding="UTF-8"?>
<svg id="uuid-8dde84ba-4bb7-4e96-98c6-414291c0749e" xmlns="http://www.w3.org/2000/svg" version="1.1" viewBox="0 0 1080 1350">
  <!-- Generator: Adobe Illustrator 30.1.0, SVG Export Plug-In . SVG Version: 2.1.1 Build 136)  -->
  <defs>
    <style>
      .st0 {
        fill: #ff7345;
      }
    </style>
  </defs>
  <path class="st0" d="M0,0v1350h1080V0H0ZM924.2,948.4c0,21.4-12,40.9-31,50.6l-199.4,101.2c-16.1,8.2-35.2,8.2-51.3,0l-204.8-103.9c-16.1-8.2-35.2-8.2-51.3,0l-148.1,75.1c-37.7,19.1-82.4-8.3-82.4-50.6V401.6c0-21.4,12-40.9,31-50.6l199.4-101.2c16.1-8.2,35.2-8.2,51.3,0l204.8,103.9c16.1,8.2,35.2,8.2,51.3,0l148.1-75.1h0c37.7-19.1,82.4,8.3,82.4,50.6v619.2Z"/>
</svg>