<?xml version="1.0" encoding="UTF-8"?>
<svg id="Capa_1" data-name="Capa 1" xmlns="http://www.w3.org/2000/svg" viewBox="0 0 4028.42 577.22">
  <defs>
    <style>
      .cls-1 {
        fill: #f7f3eb;
      }
    </style>
  </defs>
  <g>
    <path class="cls-1" d="M138.27,429.42c-5.35,0-8.02-2.67-8.02-8.02v-251.42c0-5.35,2.67-8.02,8.02-8.02h172.71c5.35,0,8.02,2.67,8.02,8.02v62.28c0,5.35-2.67,8.02-8.02,8.02h-82.92c-5.35,0-8.02,2.67-8.02,8.02v4.2c0,5.35,2.67,8.02,8.02,8.02h72.6c5.35,0,8.02,2.67,8.02,8.02v55.79c0,5.35-2.67,8.02-8.02,8.02h-72.6c-5.35,0-8.02,2.67-8.02,8.02v2.67c0,5.35,2.67,8.02,8.02,8.02h82.92c5.35,0,8.02,2.67,8.02,8.02v62.28c0,5.35-2.67,8.02-8.02,8.02h-172.71Z"/>
    <path class="cls-1" d="M496.28,247.54c.38.76,1.53,1.15,2.67,1.15.38,0,3.44.38,3.44-2.29v-75.27c0-6.11,2.67-9.17,8.02-9.17h73.74c5.35,0,8.02,2.67,8.02,8.02v251.42c0,5.35-3.06,8.02-8.79,8.02h-69.16c-1.91,0-6.11-2.67-7.26-4.2l-64.57-83.68c-1.15-1.53-2.29-2.29-3.82-2.29-.38,0-3.06-.38-3.06,3.06v79.09c0,6.5-5.73,8.02-11.46,8.02h-70.31c-5.35,0-8.02-2.67-8.02-8.02v-251.42c0-5.35,3.06-8.02,9.17-8.02h67.25c7.64,0,8.41.38,15.67,9.55l58.46,76.04Z"/>
    <path class="cls-1" d="M730.11,429.42c-5.35,0-8.02-2.67-8.02-8.02v-251.42c0-5.35,2.68-8.02,8.02-8.02h101.25c77.57,0,120.36,32.86,120.36,92.08s-40.88,92.85-119.98,92.85h-11.85c-5.35,0-8.02,3.06-8.02,9.55v64.96c0,5.35-2.67,8.02-8.02,8.02h-73.75ZM829.08,278.11c29.8,0,33.24-9.93,33.24-19.1s-3.44-19.11-33.24-19.11h-11.46c-3.82,0-5.73,2.67-5.73,8.02v30.19h17.19Z"/>
    <path class="cls-1" d="M968.92,169.98c0-5.35,2.67-8.02,8.02-8.02h74.13c4.97,0,7.64,2.67,7.64,8.02v173.09c0,5.35,2.67,8.02,8.02,8.02h66.87c5.35,0,8.02,2.67,8.02,8.02v62.28c0,5.35-2.68,8.02-8.02,8.02h-156.66c-1.91,0-4.2-.76-6.11-1.91-1.15-1.15-1.91-3.44-1.91-6.11v-251.42Z"/>
    <path class="cls-1" d="M1161.49,429.42c-5.73,0-8.41-2.29-8.41-5.73,0-.76,0-1.53.38-2.29l83.68-251.42c1.91-5.73,2.29-8.02,8.02-8.02h89.41c5.73,0,6.11,2.29,8.02,8.02l83.68,251.42c.38,1.15.38,1.91.38,2.67,0,3.06-2.67,5.35-8.41,5.35h-77.57c-5.73,0-6.11-2.29-8.02-8.02l-6.11-20.25c-.76-1.91-1.91-3.06-3.82-3.06h-64.96c-3.44,0-3.44.76-4.59,3.44l-6.11,19.87c-1.53,5.73-2.29,8.02-8.02,8.02h-77.57ZM1276.12,327.4c-.38,1.15-.38,1.91-.38,2.67,0,1.15.76,1.91,1.91,1.91h23.69c1.91,0,2.67-.76,2.67-2.67,0-.38,0-1.15-.38-2.29l-10.7-34.39c-.76-2.67-1.53-4.2-2.67-4.2,0,0-1.53-1.15-3.44,4.58l-10.7,34.39Z"/>
    <path class="cls-1" d="M1596.69,247.54c.38.76,1.53,1.15,2.67,1.15.38,0,3.44.38,3.44-2.29v-75.27c0-6.11,2.67-9.17,8.02-9.17h73.74c5.35,0,8.02,2.67,8.02,8.02v251.42c0,5.35-3.06,8.02-8.79,8.02h-69.16c-1.91,0-6.11-2.67-7.26-4.2l-64.57-83.68c-1.15-1.53-2.29-2.29-3.82-2.29-.38,0-3.06-.38-3.06,3.06v79.09c0,6.5-5.73,8.02-11.46,8.02h-70.31c-5.35,0-8.02-2.67-8.02-8.02v-251.42c0-5.35,3.06-8.02,9.17-8.02h67.25c7.64,0,8.41.38,15.67,9.55l58.46,76.04Z"/>
    <path class="cls-1" d="M1830.52,429.42c-5.35,0-8.02-2.67-8.02-8.02v-251.42c0-5.35,2.67-8.02,8.02-8.02h113.1c79.09,0,133.35,51.96,133.35,133.73s-54.64,133.73-132.97,133.73h-113.48ZM1940.95,351.09c28.66,0,42.41-29.04,42.41-55.4,0-28.28-14.14-55.4-41.65-55.4h-19.49c-7.26,0-9.93,4.2-9.93,11.46v87.5c0,8.02,3.44,11.85,9.93,11.85h18.72Z"/>
    <path class="cls-1" d="M2106.01,429.42c-5.35,0-8.02-2.67-8.02-8.02v-251.42c0-5.35,2.67-8.02,8.02-8.02h172.71c5.35,0,8.02,2.67,8.02,8.02v62.28c0,5.35-2.67,8.02-8.02,8.02h-82.91c-5.35,0-8.02,2.67-8.02,8.02v4.2c0,5.35,2.67,8.02,8.02,8.02h72.6c5.35,0,8.02,2.67,8.02,8.02v55.79c0,5.35-2.67,8.02-8.02,8.02h-72.6c-5.35,0-8.02,2.67-8.02,8.02v2.67c0,5.35,2.67,8.02,8.02,8.02h82.91c5.35,0,8.02,2.67,8.02,8.02v62.28c0,5.35-2.67,8.02-8.02,8.02h-172.71Z"/>
    <path class="cls-1" d="M2496.88,161.95c5.73,0,6.5,2.29,8.02,8.02l35.92,103.55c3.44,10.32,6.88,8.41,7.26,8.41,2.29,0,4.58-2.67,6.5-8.41l35.92-103.55c1.91-5.73,2.29-8.02,8.02-8.02h79.48c5.73,0,8.41,2.29,8.41,5.35,0,.76,0,1.53-.38,2.67l-87.5,251.42c-1.91,5.73-2.29,8.02-8.02,8.02h-85.59c-5.73,0-6.5-2.29-8.02-8.02l-87.5-251.42c-.38-.76-.38-1.53-.38-2.29,0-3.44,2.67-5.73,8.41-5.73h79.48Z"/>
    <path class="cls-1" d="M2710.47,429.42c-5.35,0-8.02-2.67-8.02-8.02v-251.42c0-5.35,2.67-8.02,8.02-8.02h73.74c5.35,0,8.02,2.67,8.02,8.02v251.42c0,5.35-2.67,8.02-8.02,8.02h-73.74Z"/>
    <path class="cls-1" d="M2819.75,429.42c-5.73,0-8.41-2.29-8.41-5.73,0-.76,0-1.53.38-2.29l83.68-251.42c1.91-5.73,2.29-8.02,8.02-8.02h89.41c5.73,0,6.11,2.29,8.02,8.02l83.68,251.42c.38,1.15.38,1.91.38,2.67,0,3.06-2.68,5.35-8.41,5.35h-77.57c-5.73,0-6.11-2.29-8.02-8.02l-6.11-20.25c-.76-1.91-1.91-3.06-3.82-3.06h-64.96c-3.44,0-3.44.76-4.58,3.44l-6.11,19.87c-1.53,5.73-2.29,8.02-8.02,8.02h-77.57ZM2934.38,327.4c-.38,1.15-.38,1.91-.38,2.67,0,1.15.76,1.91,1.91,1.91h23.69c1.91,0,2.67-.76,2.67-2.67,0-.38,0-1.15-.38-2.29l-10.7-34.39c-.76-2.67-1.53-4.2-2.67-4.2,0,0-1.53-1.15-3.44,4.58l-10.7,34.39Z"/>
    <path class="cls-1" d="M3173.57,240.28c-7.26,0-9.17-2.67-9.17-7.64v-63.43c0-5.73,2.29-7.26,10.32-7.26h137.94c6.5,0,9.93,3.06,9.93,8.79v185.32c0,47.76-41.27,77.18-108.13,77.18-79.86,0-117.69-33.24-117.69-103.17v-19.49c0-5.35,2.68-8.02,8.02-8.02h70.31c5.35,0,8.02,2.67,8.02,8.02v14.14c0,22.54,11.85,30.19,25.22,30.19,10.7,0,24.45-.38,24.45-21.78v-89.41c0-2.29-1.15-3.44-3.06-3.44h-56.17Z"/>
    <path class="cls-1" d="M3357.35,429.42c-5.35,0-8.02-2.67-8.02-8.02v-251.42c0-5.35,2.67-8.02,8.02-8.02h172.71c5.35,0,8.02,2.67,8.02,8.02v62.28c0,5.35-2.67,8.02-8.02,8.02h-82.92c-5.35,0-8.02,2.67-8.02,8.02v4.2c0,5.35,2.67,8.02,8.02,8.02h72.6c5.35,0,8.02,2.67,8.02,8.02v55.79c0,5.35-2.67,8.02-8.02,8.02h-72.6c-5.35,0-8.02,2.67-8.02,8.02v2.67c0,5.35,2.67,8.02,8.02,8.02h82.92c5.35,0,8.02,2.67,8.02,8.02v62.28c0,5.35-2.67,8.02-8.02,8.02h-172.71Z"/>
    <path class="cls-1" d="M3676.77,236.46h-4.2c-5.73,0-12.99,1.53-12.99,6.88,0,7.26,11.46,11.08,42.03,19.1,65.34,17.19,87.88,38.21,87.88,80.62,0,57.7-40.5,90.56-113.48,90.56-45.85,0-87.5-12.99-111.95-34.77-1.91-1.91-2.68-3.82-2.68-5.73,0-1.15.38-2.67,1.15-4.2l35.54-56.93c1.91-2.67,3.82-4.2,6.11-4.2,1.91,0,3.82.76,5.73,2.29,22.92,16.81,47.38,25.22,72.98,25.22,14.9,0,20.63-2.67,20.63-6.88,0-5.35-5.73-6.88-36.68-14.14-67.25-17.19-89.79-35.92-89.79-81,0-60.75,39.74-95.14,107.37-95.14,50.82,0,85.59,22.54,101.64,36.68,2.29,1.91,3.44,3.82,3.44,5.73s-.76,3.44-2.29,5.35l-41.65,51.96c-1.91,2.29-3.82,3.44-6.11,3.44-1.91,0-3.82-.76-5.73-2.67-16.81-14.14-37.45-22.16-56.93-22.16Z"/>
  </g>
  <path class="cls-1" d="M3905.83,389.86c-21.73,6.56-30.48,15.32-37.05,37.05-1.54,5.08-8.69,5.08-10.22,0-6.56-21.73-15.32-30.48-37.05-37.05-5.08-1.54-5.08-8.69,0-10.22,21.73-6.56,30.48-15.32,37.05-37.05,1.54-5.08,8.69-5.08,10.22,0,6.56,21.73,15.32,30.48,37.05,37.05,5.08,1.54,5.08,8.69,0,10.22Z"/>
</svg>