<?xml version="1.0" encoding="UTF-8"?>
<svg id="Capa_1" data-name="Capa 1" xmlns="http://www.w3.org/2000/svg" viewBox="0 0 645.73 645.73">
  <defs>
    <style>
      .cls-1 {
        fill: #fff;
      }
    </style>
  </defs>
  <g>
    <g>
      <path class="cls-1" d="M83.58,229.48l8.19,2.7-8.87,26.91-38.56-12.72,8.87-26.91,8.19,2.7-5.93,17.98,7.33,2.42,5.47-16.58,8.19,2.7-5.47,16.58,6.66,2.2,5.93-17.98Z"/>
      <path class="cls-1" d="M113.5,189.7l-4.52,8.24-28.68,3.86,20.41,11.2-4.52,8.24-35.6-19.53,4.25-7.75,29.75-3.92-21.21-11.64,4.52-8.24,35.6,19.53Z"/>
      <path class="cls-1" d="M115.22,123.97s10.97-11.35,21.46-1.21c10.44,10.09-.53,21.44-.53,21.44l-4.78,4.94,8.27,7.99-6.53,6.76-29.2-28.22,11.31-11.7ZM121.12,129.97l-4.63,4.79,8.83,8.53,4.63-4.79c2.24-2.32,2.83-5.36-.34-8.43-3.23-3.12-6.24-2.42-8.48-.1Z"/>
      <path class="cls-1" d="M165.92,121.72l15.23-11.25,5.13,6.94-22.79,16.84-24.13-32.66,7.56-5.59,19.01,25.72Z"/>
      <path class="cls-1" d="M215.2,94.27l-13.22,6.49.79,7.19-9.38,4.61-4.61-42.97,9.82-4.82,31.18,29.93-9.38,4.61-5.2-5.02ZM208.82,87.79l-9.78-9.89,1.78,13.81,8-3.93Z"/>
      <path class="cls-1" d="M273.75,82.25l-9.08,2.41-22.58-18.09,5.97,22.5-9.08,2.41-10.42-39.24,8.54-2.27,23.36,18.83-6.21-23.38,9.08-2.41,10.42,39.24Z"/>
      <path class="cls-1" d="M306.49,37.88l15.99.3c12.06.23,20.17,9.15,19.95,20.72-.22,11.57-8.65,20.11-20.72,19.88l-15.99-.3.76-40.6ZM315.72,46.68l-.44,23.35,6.59.12c6.66.12,10.68-4.71,10.81-11.44.13-6.73-3.71-11.78-10.37-11.91l-6.59-.12Z"/>
      <path class="cls-1" d="M383.01,77.95l-1.68,8.46-27.79-5.53,7.93-39.83,27.79,5.53-1.69,8.46-18.57-3.7-1.51,7.57,17.13,3.41-1.69,8.46-17.13-3.41-1.37,6.88,18.57,3.7Z"/>
      <path class="cls-1" d="M421.82,101.38l4.66-42.97,9.38,4.62-3.77,30.04,21.51-21.3,9.38,4.62-31.21,29.89-9.94-4.89Z"/>
      <path class="cls-1" d="M476.72,85.8l7.73,5.34-23.08,33.41-7.73-5.34,23.08-33.41Z"/>
      <path class="cls-1" d="M495.25,144.22l-10.77-10.04-6.43,3.3-7.64-7.12,38.51-19.61,8,7.46-16.86,39.79-7.64-7.12,2.84-6.65ZM499.02,135.95l5.76-12.66-12.27,6.58,6.51,6.07Z"/>
      <path class="cls-1" d="M524.94,171.11l23-17.38,5.67,7.5-23.5,17.76c-5.09,3.85-13.1,2.43-18.39-4.56-5.71-7.55-1.91-15.44-1.91-15.44l7.98,3.46c-.76,1.9-.63,4.87,1.02,7.05,2.2,2.91,5.41,2.15,6.14,1.6Z"/>
      <path class="cls-1" d="M549.19,217.62l-7.62,4.04-13.28-25.03,35.87-19.04,13.28,25.03-7.62,4.04-8.88-16.73-6.81,3.62,8.19,15.43-7.62,4.04-8.19-15.43-6.19,3.29,8.88,16.73Z"/>
      <path class="cls-1" d="M558.93,244.44c1.56,4.73,4.2,4.89,4.87,4.67,5.86-1.93-3.84-21.48,10.48-26.21,3.73-1.23,11.96-.92,15.63,10.2,3.6,10.92-2.93,16.85-2.93,16.85l-6.86-4.68c2.45-2.65,2.17-6.62,1.14-9.75-.79-2.4-2.76-4.11-4.49-3.54-6.79,2.24,3.91,21.46-10.41,26.18-4,1.32-12.38.1-16.11-11.22-3.36-10.19,1.18-16.34,3.27-18.51l7.53,5.12c-1.07,1.02-3.88,5.49-2.09,10.88Z"/>
    </g>
    <g>
      <path class="cls-1" d="M78.76,403.39l7.93-3.39,13,31.45-7.93,3.39-4.69-11.35-29.4,12.55-3.62-8.75,29.4-12.55-4.69-11.35Z"/>
      <path class="cls-1" d="M83.3,482.95l4.52-14.33-2.15-3.36-9.64,6.31-5.05-7.91,34.04-22.26,8.74,13.69s8.48,13.28-3.75,21.28c-6.53,4.27-11.94,2.45-15.61-.17l-5.38,15.73-5.73-8.97ZM92.73,460.64l3.58,5.61c1.73,2.72,4.54,3.98,8.24,1.55,3.76-2.46,3.78-5.57,2.05-8.28l-3.58-5.61-10.29,6.73Z"/>
      <path class="cls-1" d="M122.1,519.33l-10.08-10.66-6.6,2.96-7.16-7.57,39.48-17.56,7.49,7.92-19.22,38.98-7.16-7.57,3.24-6.51ZM126.37,511.25l6.5-12.38-12.6,5.93,6.1,6.45Z"/>
      <path class="cls-1" d="M143.64,547.44l12.47-41.63,8.32,6.23-9.22,29.02,24.97-17.22,8.32,6.23-36.04,23.98-8.82-6.61Z"/>
      <path class="cls-1" d="M208.24,576.26l-3.87,7.77-25.19-12.62,18.2-36.55,25.19,12.62-3.87,7.77-16.83-8.43-3.46,6.94,15.52,7.78-3.87,7.77-15.52-7.78-3.14,6.31,16.83,8.43Z"/>
      <path class="cls-1" d="M233.17,585.36l17.97,5.62-2.6,8.28-26.88-8.42,12.25-38.96,8.92,2.79-9.64,30.69Z"/>
      <path class="cls-1" d="M306.72,566.6s15.68.91,14.73,15.54c-.94,14.56-16.62,13.64-16.62,13.64l-6.83-.4-.75,11.53-9.34-.54,2.64-40.71,16.16.94ZM305.97,575.03l-6.62-.39-.8,12.31,6.62.39c3.2.19,5.89-1.35,6.18-5.78.29-4.5-2.18-6.34-5.38-6.52Z"/>
      <path class="cls-1" d="M345.3,597.79l18.76-2.05.86,8.61-28.07,3.07-4.06-40.55,9.31-1.02,3.2,31.93Z"/>
      <path class="cls-1" d="M405.13,587.18l-14.09,4.21-.47,7.25-9.99,2.99,2.93-43.33,10.46-3.13,25.37,34.86-9.99,2.99-4.23-5.85ZM400,579.7l-7.87-11.43-.65,13.98,8.52-2.55Z"/>
      <path class="cls-1" d="M467.44,566.4l-8.32,4.38-25.81-12.71,10.6,20.72-8.32,4.38-18.49-36.13,7.82-4.12,26.73,13.26-11.02-21.53,8.32-4.38,18.49,36.13Z"/>
      <path class="cls-1" d="M512.72,532.19l-7.3,5.95-27.84-7.27,14.48,18.15-7.31,5.95-25.26-31.65,6.87-5.6,28.84,7.62-15.05-18.86,7.3-5.95,25.26,31.65Z"/>
      <path class="cls-1" d="M538.93,490.27l6.51,5.6-18.4,21.71-30.64-26.37,18.4-21.71,6.51,5.6-12.3,14.51,5.82,5.01,11.34-13.38,6.51,5.6-11.34,13.38,5.29,4.56,12.3-14.51Z"/>
      <path class="cls-1" d="M568.19,460.4l-14.7,2.45-2.03,3.47,9.85,5.82-4.78,8.15-34.77-20.56,8.27-14.12s8.02-13.69,20.51-6.31c6.67,3.94,7.45,9.65,6.75,14.15l16.31-2.32-5.42,9.25ZM544.26,462.06l3.39-5.78c1.64-2.8,1.52-5.9-2.27-8.14-3.84-2.27-6.6-.87-8.24,1.93l-3.39,5.78,10.51,6.21Z"/>
      <path class="cls-1" d="M577.96,418.91c1.75-4.69-.19-6.47-.84-6.71-5.75-2.15-10.47,19.28-24.51,14.04-3.66-1.36-9.83-6.76-5.71-17.79,4.04-10.84,12.81-11.4,12.81-11.4l2.39,7.97c-3.56.56-5.83,3.85-6.99,6.95-.89,2.38-.44,4.96,1.26,5.59,6.66,2.49,10.4-19.31,24.45-14.06,3.92,1.46,9.64,7.66,5.45,18.9-3.77,10.11-11.14,12.1-14.12,12.5l-2.62-8.73c1.46-.13,6.44-1.89,8.43-7.24Z"/>
    </g>
    <path class="cls-1" d="M395.81,219.86l-38.32,19.45c-4.17,2.12-9.11,2.12-13.28,0l-53-26.89c-4.17-2.12-9.11-2.12-13.28,0l-51.61,26.19c-4.93,2.5-8.03,7.56-8.03,13.09v160.23c0,10.95,11.55,18.04,21.32,13.09l38.32-19.45c4.17-2.12,9.11-2.12,13.28,0l53,26.89c4.17,2.12,9.11,2.12,13.28,0l51.6-26.19c4.93-2.5,8.03-7.56,8.03-13.09v-160.23c0-10.95-11.55-18.04-21.32-13.09ZM371.49,328.95c-27.72,8.37-38.89,19.54-47.26,47.26-1.96,6.48-11.08,6.48-13.04,0-8.37-27.72-19.54-38.89-47.26-47.26-6.48-1.96-6.48-11.08,0-13.04,27.72-8.37,38.89-19.54,47.26-47.26,1.96-6.48,11.08-6.48,13.04,0,8.37,27.72,19.54,38.89,47.26,47.26,6.48,1.96,6.48,11.08,0,13.04Z"/>
  </g>
  <path class="cls-1" d="M602.58,324.8c-9.8,3.27-13.67,7.36-16.37,17.33-.63,2.33-3.89,2.42-4.65.13-3.27-9.8-7.36-13.67-17.33-16.37-2.33-.63-2.42-3.89-.13-4.65,9.8-3.27,13.67-7.36,16.37-17.33.63-2.33,3.89-2.42,4.65-.13,3.27,9.8,7.36,13.67,17.33,16.37,2.33.63,2.42,3.89.13,4.65Z"/>
  <path class="cls-1" d="M81.63,324.8c-9.8,3.27-13.67,7.36-16.37,17.33-.63,2.33-3.89,2.42-4.65.13-3.27-9.8-7.36-13.67-17.33-16.37-2.33-.63-2.42-3.89-.13-4.65,9.8-3.27,13.67-7.36,16.37-17.33.63-2.33,3.89-2.42,4.65-.13,3.27,9.8,7.36,13.67,17.33,16.37,2.33.63,2.42,3.89.13,4.65Z"/>
</svg>