<?xml version="1.0" encoding="UTF-8"?>
<svg id="Capa_1" data-name="Capa 1" xmlns="http://www.w3.org/2000/svg" viewBox="0 0 1621.66 997.28">
  <g>
    <path d="M95.06,378.67c-1.83,0-2.75-.92-2.75-2.75v-86.13c0-1.83.92-2.75,2.75-2.75h59.17c1.83,0,2.75.92,2.75,2.75v21.34c0,1.83-.92,2.75-2.75,2.75h-28.4c-1.83,0-2.75.92-2.75,2.75v1.44c0,1.83.92,2.75,2.75,2.75h24.87c1.83,0,2.75.92,2.75,2.75v19.11c0,1.83-.92,2.75-2.75,2.75h-24.87c-1.83,0-2.75.92-2.75,2.75v.92c0,1.83.92,2.75,2.75,2.75h28.4c1.83,0,2.75.92,2.75,2.75v21.34c0,1.83-.92,2.75-2.75,2.75h-59.17Z"/>
    <path d="M217.71,316.36c.13.26.52.39.92.39.13,0,1.18.13,1.18-.79v-25.79c0-2.09.92-3.14,2.75-3.14h25.26c1.83,0,2.75.92,2.75,2.75v86.13c0,1.83-1.05,2.75-3.01,2.75h-23.69c-.65,0-2.09-.92-2.49-1.44l-22.12-28.67c-.39-.52-.79-.79-1.31-.79-.13,0-1.05-.13-1.05,1.05v27.1c0,2.23-1.96,2.75-3.93,2.75h-24.09c-1.83,0-2.75-.92-2.75-2.75v-86.13c0-1.83,1.05-2.75,3.14-2.75h23.04c2.62,0,2.88.13,5.37,3.27l20.03,26.05Z"/>
  </g>
  <g>
    <path d="M314.58,448.3c-5.55,0-8.32-2.77-8.32-8.32V179.28c0-5.55,2.77-8.32,8.32-8.32h104.99c80.43,0,124.8,34.07,124.8,95.48s-42.39,96.28-124.41,96.28h-12.28c-5.55,0-8.32,3.17-8.32,9.91v67.35c0,5.55-2.77,8.32-8.32,8.32h-76.47ZM417.19,291.41c30.9,0,34.47-10.3,34.47-19.81s-3.57-19.81-34.47-19.81h-11.89c-3.96,0-5.94,2.77-5.94,8.32v31.3h17.83Z"/>
    <path d="M562.21,179.28c0-5.55,2.77-8.32,8.32-8.32h76.86c5.15,0,7.92,2.77,7.92,8.32v179.48c0,5.55,2.77,8.32,8.32,8.32h69.34c5.55,0,8.32,2.77,8.32,8.32v64.58c0,5.55-2.77,8.32-8.32,8.32h-162.44c-1.98,0-4.36-.79-6.34-1.98-1.19-1.19-1.98-3.57-1.98-6.34V179.28Z"/>
    <path d="M761.89,448.3c-5.94,0-8.72-2.38-8.72-5.94,0-.79,0-1.58.4-2.38l86.77-260.7c1.98-5.94,2.38-8.32,8.32-8.32h92.71c5.94,0,6.34,2.38,8.32,8.32l86.77,260.7c.4,1.19.4,1.98.4,2.77,0,3.17-2.77,5.55-8.72,5.55h-80.43c-5.94,0-6.34-2.38-8.32-8.32l-6.34-21c-.79-1.98-1.98-3.17-3.96-3.17h-67.35c-3.57,0-3.57.79-4.75,3.57l-6.34,20.6c-1.58,5.94-2.38,8.32-8.32,8.32h-80.43ZM880.76,342.52c-.4,1.19-.4,1.98-.4,2.77,0,1.19.79,1.98,1.98,1.98h24.56c1.98,0,2.77-.79,2.77-2.77,0-.4,0-1.19-.4-2.38l-11.09-35.66c-.79-2.77-1.58-4.36-2.77-4.36,0,0-1.59-1.19-3.57,4.75l-11.09,35.66Z"/>
    <path d="M1213.18,259.71c.4.79,1.58,1.19,2.77,1.19.4,0,3.57.4,3.57-2.38v-78.05c0-6.34,2.77-9.51,8.32-9.51h76.47c5.55,0,8.32,2.77,8.32,8.32v260.7c0,5.55-3.17,8.32-9.11,8.32h-71.71c-1.98,0-6.34-2.77-7.53-4.36l-66.96-86.77c-1.19-1.58-2.38-2.38-3.96-2.38-.4,0-3.17-.4-3.17,3.17v82.01c0,6.74-5.94,8.32-11.89,8.32h-72.9c-5.55,0-8.32-2.77-8.32-8.32V179.28c0-5.55,3.17-8.32,9.51-8.32h69.73c7.92,0,8.72.4,16.24,9.91l60.62,78.84Z"/>
  </g>
  <g>
    <path d="M1367.88,378.67c-1.83,0-2.75-.92-2.75-2.75v-86.13c0-1.83.92-2.75,2.75-2.75h38.75c27.1,0,45.68,17.8,45.68,45.81s-18.72,45.81-45.55,45.81h-38.88ZM1405.71,351.84c9.82,0,14.53-9.95,14.53-18.98,0-9.69-4.84-18.98-14.27-18.98h-6.68c-2.49,0-3.4,1.44-3.4,3.93v29.97c0,2.75,1.18,4.06,3.4,4.06h6.41Z"/>
    <path d="M1462.25,378.67c-1.83,0-2.75-.92-2.75-2.75v-86.13c0-1.83.92-2.75,2.75-2.75h59.17c1.83,0,2.75.92,2.75,2.75v21.34c0,1.83-.92,2.75-2.75,2.75h-28.4c-1.83,0-2.75.92-2.75,2.75v1.44c0,1.83.92,2.75,2.75,2.75h24.87c1.83,0,2.75.92,2.75,2.75v19.11c0,1.83-.92,2.75-2.75,2.75h-24.87c-1.83,0-2.75.92-2.75,2.75v.92c0,1.83.92,2.75,2.75,2.75h28.4c1.83,0,2.75.92,2.75,2.75v21.34c0,1.83-.92,2.75-2.75,2.75h-59.17Z"/>
  </g>
  <g>
    <path d="M184.79,508.06c6-.02,6.78,2.67,8.35,9.38,12.34,40.36,24.63,79.65,36.89,117.94,3.52,11.45,7.11,8.9,7.51,8.87,2.39-.23,4.8-3.5,6.83-10.17,12.73-40.18,25.5-79.32,38.3-117.53,2.04-6.34,2.46-8.86,8.46-8.89,27.72-.09,55.45-.18,83.17-.26,6-.02,8.78,2.36,8.75,5.53,0,.79-.01,1.58-.42,2.78-31.28,87.3-62.54,179.08-93.59,276.76-2.04,6.67-2.45,9.27-8.42,10.43-29.69,5.82-59.31,12.13-88.85,18.93-5.93,1.37-6.71-1.14-8.26-7.55-29.78-92.08-59.78-190.17-90.28-295.7-.4-.96-.4-1.93-.4-2.89,0-4.35,2.8-7.26,8.79-7.29,27.72-.13,55.44-.25,83.15-.36Z"/>
    <path d="M405.88,781.35c-5.6.84-8.38-1.49-8.33-7,.76-86.25,1.51-172.51,2.27-258.76.05-5.5,2.87-8.26,8.47-8.28,25.73-.07,51.45-.13,77.18-.18,5.6-.01,8.38,2.61,8.33,7.87-.7,82.37-1.4,164.74-2.1,247.1-.04,5.26-2.88,8.21-8.49,8.88-25.81,3.09-51.59,6.55-77.33,10.37Z"/>
    <path d="M520.54,766.78c-6.03.64-8.82-1.28-8.79-4.64,0-.74.01-1.49.42-2.28,29.99-84.76,59.89-166.11,89.62-245.36,2.04-5.42,2.45-7.58,8.45-7.59,31.19-.04,62.39-.07,93.58-.09,6,0,6.39,2.11,8.37,7.39,28.94,77.16,58.1,153.36,87.52,229.91.4,1.06.4,1.75.4,2.44,0,2.79-2.82,4.9-8.88,4.94-27.3.19-54.6.8-81.88,1.8-6.05.22-6.45-1.88-8.44-7.08-2.13-6.15-4.25-12.3-6.37-18.45-.8-1.73-2-2.75-4.02-2.67-22.82.88-45.64,2.02-68.44,3.41-3.62.22-3.62.94-4.85,3.53-2.18,6.36-4.37,12.73-6.56,19.12-1.65,5.51-2.46,7.73-8.5,8.18-27.24,2.07-54.46,4.54-81.64,7.42ZM641.77,661.39c-.41,1.08-.41,1.8-.41,2.51,0,1.07.79,1.75,2,1.71,8.3-.33,16.61-.63,24.91-.91,2.01-.07,2.82-.8,2.83-2.57,0-.36,0-1.06-.39-2.12-3.7-10.52-7.4-21.05-11.09-31.61-.79-2.46-1.58-3.86-2.79-3.83,0,0-1.6-1.03-3.63,4.37-3.8,10.78-7.61,21.6-11.42,32.45Z"/>
    <path d="M893.19,578.81c-7.62-.07-9.63-2.54-9.64-7.1-.05-19.42-.1-38.83-.15-58.24-.01-5.27,2.38-6.66,10.78-6.66,48.13.03,96.25.07,144.38.14,6.8,0,10.42,2.93,10.46,8.39.43,58.87.85,117.74,1.28,176.61.34,45.9-42.88,69.43-113.45,65.88-84.31-3.71-124.28-33.08-124.25-97.27,0-5.94,0-11.88,0-17.82,0-4.89,2.81-7.34,8.44-7.33,24.64.05,49.28.27,73.92.68,5.62.09,8.44,2.61,8.46,7.53.01,4.34.03,8.68.04,13.01.06,20.75,12.56,28.07,26.64,28.53,11.26.34,25.74.56,25.64-19.33-.13-27.68-.27-55.36-.4-83.03-.01-2.13-1.22-3.22-3.22-3.25-19.64-.31-39.28-.56-58.93-.74Z"/>
    <path d="M1087.39,765.3c-5.63-.57-8.46-3.41-8.5-8.56-.63-80.67-1.26-161.33-1.88-242-.04-5.14,2.74-7.71,8.34-7.71,60.25.11,120.51.25,180.75.43,5.6.02,8.42,2.86,8.47,8.53.18,22.01.37,44.02.55,66.03.05,5.67-2.73,8.36-8.32,8.07-28.91-1.48-57.84-2.82-86.78-4.02-5.6-.23-8.38,2.34-8.33,7.7.01,1.4.02,2.81.04,4.21.05,5.37,2.87,8.18,8.47,8.47,25.34,1.31,50.67,2.75,75.99,4.32,5.6.35,8.42,3.34,8.47,8.98.17,19.59.33,39.18.5,58.77.05,5.64-2.72,8.15-8.32,7.56-25.3-2.67-50.64-5.11-75.99-7.32-5.6-.48-8.38,1.96-8.34,7.32,0,.89.02,1.79.02,2.68.05,5.36,2.88,8.3,8.48,8.85,28.96,2.8,57.89,5.93,86.78,9.38,5.59.66,8.41,3.85,8.46,9.52.18,22.01.37,44.02.55,66.03.05,5.68-2.72,8.03-8.31,7.08-60.14-10.11-120.54-18.21-181.09-24.3Z"/>
    <path d="M1404.13,593.18c-1.46-.02-2.92-.03-4.38-.05-5.97-.07-13.42,1.6-13,7.7.56,8.33,12.82,12.76,45.24,23.27,69.28,22.63,94.07,51.58,97.08,105.67,4,74.57-35.13,107.57-110.51,93.3-47.4-8.49-91.71-29.63-118.93-56.03-2.14-2.3-3.09-4.46-3.24-6.52-.09-1.24.18-2.86.86-4.42,10.82-19.23,21.63-38.82,32.45-58.82,1.78-2.8,3.64-4.34,6.03-4.17,1.99.14,4.04,1.14,6.15,2.99,25.19,20.5,51.25,32.92,77.79,35.87,15.45,1.73,21.18-.76,20.86-5.79-.41-6.31-6.44-9-39.14-20.39-71.2-26-96.29-46.64-99.89-95.44-4.88-65.04,33.84-103.44,104.5-107.72,53.1-3.09,91.11,22.3,108.85,39.83,2.53,2.33,3.86,4.7,4,7.1.14,2.4-.55,4.33-2,6.75-13.21,21.92-26.39,43.18-39.53,63.83-1.81,2.73-3.72,4.05-6.1,3.97-1.99-.08-4.03-1.06-6.16-3.44-18.54-17.68-40.65-27.25-60.95-27.48Z"/>
  </g>
</svg>