<?xml version="1.0" encoding="UTF-8"?><svg id="uuid-7687f409-8cae-423d-90ef-a59252e009ca" xmlns="http://www.w3.org/2000/svg" viewBox="0 0 214.49 187.4"><defs><style>.uuid-d72ada0d-5fd5-47d0-bc2f-29342af34814{fill:#f7f3eb;}.uuid-cc909d1f-5506-4404-902e-6875214075c2{fill:#ff7345;}</style></defs><g id="uuid-f7574e0e-b49f-4de3-9e4f-7ad654837317"><rect class="uuid-cc909d1f-5506-4404-902e-6875214075c2" x="32.05" y="104.28" width="152.62" height="45.7" rx="8.36" ry="8.36"/><rect class="uuid-cc909d1f-5506-4404-902e-6875214075c2" x="16.61" y="141.7" width="183.5" height="45.7" rx="8.36" ry="8.36"/><path class="uuid-d72ada0d-5fd5-47d0-bc2f-29342af34814" d="M59.1,136.16h-5.97l-.96,5.88h-6.93l6.88-30.2h9l6.98,30.2h-8.08l-.92-5.88ZM58.37,131.52l-2.16-13.49h-.18l-2.16,13.49h4.5Z"/><path class="uuid-d72ada0d-5fd5-47d0-bc2f-29342af34814" d="M70.53,111.83h9.36l5.65,19.05h.05l-.69-19.05h6.24v30.2h-7.57l-7.34-22.44h-.05l.6,22.44h-6.24v-30.2Z"/><path class="uuid-d72ada0d-5fd5-47d0-bc2f-29342af34814" d="M94.66,111.83h6.79v30.2h-6.79v-30.2Z"/><path class="uuid-d72ada0d-5fd5-47d0-bc2f-29342af34814" d="M104.99,111.83h9.59l2.94,18.13h.09l2.98-18.13h9.64v30.2h-6.79l.41-22.58h-.14l-4.18,22.58h-4.82l-4.18-22.58h-.09l.41,22.58h-5.88v-30.2Z"/><path class="uuid-d72ada0d-5fd5-47d0-bc2f-29342af34814" d="M146.57,136.16h-5.97l-.96,5.88h-6.93l6.88-30.2h9l6.98,30.2h-8.08l-.92-5.88ZM145.83,131.52l-2.16-13.49h-.18l-2.16,13.49h4.5Z"/><path class="uuid-d72ada0d-5fd5-47d0-bc2f-29342af34814" d="M157.99,111.83h6.79v24.33h6.75v5.88h-13.54v-30.2Z"/><path class="uuid-d72ada0d-5fd5-47d0-bc2f-29342af34814" d="M33.24,148.43h6.79v14.37h.09l6.52-14.37h7.57l-7.07,13.63,7.71,16.57h-8.17l-4.36-11.2-2.29,4.08v7.11h-6.79v-30.2Z"/><path class="uuid-d72ada0d-5fd5-47d0-bc2f-29342af34814" d="M57.2,148.43h6.79v30.2h-6.79v-30.2Z"/><path class="uuid-d72ada0d-5fd5-47d0-bc2f-29342af34814" d="M67.52,148.43h9.36l5.65,19.05h.05l-.69-19.05h6.24v30.2h-7.57l-7.34-22.44h-.05l.6,22.44h-6.24v-30.2Z"/><path class="uuid-d72ada0d-5fd5-47d0-bc2f-29342af34814" d="M110.06,178.63h-5.32s.18-2.02.18-4.22h-.05c-.64,3.17-2.34,4.59-5.37,4.59-5.78,0-8.45-4.73-8.45-15.1s3.12-15.83,9.96-15.83c6.15,0,8.95,3.3,8.95,10.56,0,.96-.05,2.2-.09,2.85h-5.78c.05-1.01.05-1.97.05-2.43,0-3.49-.87-5.09-2.8-5.09-2.34,0-3.4,3.17-3.4,10.05,0,6.38,1.01,9.32,3.26,9.32,1.88,0,2.75-1.56,2.75-5v-.6h-3.08v-4.22h9.18v15.15Z"/><path class="uuid-d72ada0d-5fd5-47d0-bc2f-29342af34814" d="M113.18,148.43h8.35c7.76,0,10.83,4.27,10.83,15.01s-2.94,15.19-10.24,15.19h-8.95v-30.2ZM121.99,172.76c2.57,0,3.53-2.66,3.53-9.32s-1.01-9.13-3.76-9.13h-1.79v18.45h2.02Z"/><path class="uuid-d72ada0d-5fd5-47d0-bc2f-29342af34814" d="M134.89,163.39c0-10.51,3.21-15.33,10.24-15.33s10.19,4.82,10.19,15.33-3.21,15.61-10.19,15.61-10.24-4.91-10.24-15.61ZM148.38,163.39c0-6.47-1.01-9.46-3.26-9.46s-3.26,2.98-3.26,9.46,1.01,9.73,3.26,9.73,3.26-3.08,3.26-9.73Z"/><path class="uuid-d72ada0d-5fd5-47d0-bc2f-29342af34814" d="M158.25,148.43h9.59l2.94,18.13h.09l2.98-18.13h9.64v30.2h-6.79l.41-22.58h-.14l-4.18,22.58h-4.82l-4.18-22.58h-.09l.41,22.58h-5.88v-30.2Z"/><g id="uuid-eb274eb0-a61b-492f-be75-0ee045271768"><path class="uuid-cc909d1f-5506-4404-902e-6875214075c2" d="M67.88,113.18s13.31-22.5,11.84-37.87c-.69-7.22-1.45-3.68-5.38-4.72-.84-.22-1.92-1.44-2.95-1.86-2.22-.92-5.4-1.32-7.31-2.32-3.67-1.93-6.01-6.21-10.3-7.66-1.99-.67-3.93-.91-6.04-.75l.03,2.41c-.62.54-3.33,1.15-4.2,1.14-2.62-.05-6.34-5.33-6.27.77,1.86.56,3.39,2.18,5.42,1.42,1.01-.38,1.95-1.82,2.99-1.71.78.08,1.38,1.16,2.24,1.2.76.04,1.78-.73,2.69-.83,1.52-.16,5.33,1.06,4.13,2.84-1.97,2.93-5.26-.09-6.41,1.49-1.44,1.99,3.9,4,1.33,7.02-1.93,2.27-6.18-2.32-8.36-3.43-1.18-.6-7.31-2.9-8.21-2.65-.72.2-.87,1.31-.74,1.9.12.5,3.44.76,2.53,3.23-.03.09-1.41,1.18-1.58,1.23-4.5,1.18-3.06-3.85-7.43-2.82-.56,1.01-.38,2.02.16,3.01l3.71,1.55c.49,2.62-4.78,1.81-4.8,3.05.47.96,3.36,1.02,3.06,2.19-.24.93-6.11,4.37-7.34,4.92-6.26,2.82-4.74.12-7.98-4.52-1.87-.33-7.11,1.75-7.79-.5-1.81-6,4.04-7.05,8.66-6.26-1.8-5.03-4.38-1.84-7.19-2.2-1.94-.25-3.53-3.25-6.39-2.18.27-2.96.81-4.06,3.94-3.5-.11-2.11-.37-4.3,2.19-4.83-.79-1.83-2.16-3.3-.46-5.05,2.36-2.43,3.04-.68,4.62-.66.96.01,1.9-1.12,2.7-1.19,1.28-.11,3.79,3.45,4.87.03,1.72-5.45-6.56-1.06-8.01-1.06-1.82,0-6.7-2.59-3.27-4.11,1.2-.53,2.02.39,2.77.19s1.67-3.79,4.22-3.03c-.9-2.56-3.59-2.04-5.48-.88-3.32-.42-.08-7.02,1.74-6.55.48.12.49,1.19.99,1.32,1.72.45,3.15-1.04,4.18-.82.71.15,2.79,1.81,3.21,2.56l1.93-.45c.38-1.26-1.04-.79-1.28-1.57-.74-2.36,3.3-3.62,5.07-2.39.53.37.2,1.06.33,1.22,1.05,1.4,2.82,2.8,4.6,1.81,1.06-3.23-3.03-2.85-3.46-5.02-.36-1.8,3.18-1.59,2.61-3.43-.12-.38-3.96-2.31-3.92-4.2l1.28.41c.12-1.97,4.36-4.02,5.86-3.07.55.35.61,1.45,1.48,1.72,2.96.9,1.97-4.2,3.19-5l4.39-.21c-2.06-5.85,3.6-4.76,7.61-4.87l.5-.38c.24-4.16,3.64-2.9,5.6-4.03.86-.5,1.2-2.02,2.73-2l1.94,3.83c-.19-1.28,1.13-.64,1.97-1.31.16-.13,2.54-2.85,2.61-3.04.28-.76-.68-1.63.49-3.06,3.34-4.13,9.49.2,13.46.43l2.51-3.74c4.62-1.65,6.81,1.95,10.94,2.4.76-.71-3.66-3.14-1.11-5.71,2.28-2.3,4.36-.14,6.69.35s2.06.25,4.16,1.11c2.72,1.11,4.95.06,7.78.31l-.41,3.23c.32,1.13,2.91.66,3.89.69-.51-4.68,3.97-2.37,4.34-2.64.4-.29,1.63-3.61,3-3.85,1.21-.31,4.43,2.3,6.07,2.55,1.88.28,3.58-.61,5.44-.42l-.44,4.38c2.63-.59,5.23,1,7.67.92,2.45-.08,3.5-2.1,6.37-1.16.92.3,1.89,1.55,2.84,2l-.61,3.64c1.12,1.92,3.78,2.18,5.43.74.79-1.31-1.39-2.23,1.27-3.53,2.14-1.05,4.47-1.04,6.26.61.47.43,1.56,2.87,2.77,3.55,1.35.75,3.58.36,4.61,1.09.78.56,1.48,2.99,2.36,3.78.6.35,3.88-1.78,5.18-1.03.16.09,1.17,2,1.67,2.49,1.42,1.4,5.22,2.66.61,4.21-2.46.83-6.21.83-8.61-.12s-4.1-4.61-8.03-2.08c.87.84,2.03,3.04,3.08,3.51,1.54.7,3.18-.97,4.69-.38,1.36,1.97,1.53,4.32,4.79,4.43,1.75.06,3.4-2.42,6.75-1.45.96.28,1.08,1.32,1.99,1.94.79.54,3.34,1.66,4.1,1.18.52-.33.56-1.39,1.51-1.8.37-.16,2.63-.28,3.1-.23,2.23.24,1.58,2.12,2.62,3.53s5.04,2.5,3.82,4.7c-.81,1.46-3.74,1.8-5.36,1.88-.29,1.63,3.81,1.81,3.89,2.84l-2.13,3.72c1.26.08,2.17,1.63,3.31,1.76,1.95.22,1.97-1.45,2.66-1.69,2.43-.84,3.14,2.38,4.77,2.59l.59-.09c.51-2.09,2.02-.92,3.57-.8-1.06,3.16-.92,4.01.8,6.72-2.95,4.77-8.51-1.16-12.53.62-1.35.6.76,2.27,1.55,2.62,2.82,1.25,7.07-.16,8.77,3.85-.3,1.15-3.41,2.07-2.77,3.29,1.7,2.46,4.88.42,6.78,1.1.91.33,4.37,3.5,4.3,4.36l-3.82,3.06c1.74,1.04,4.66,6.32,2.53,7.57-1.83,1.08-4.24-2.15-4.73-1.66l.81,3.3c-2.71,3.28-4.58-.27-7.55-1.08l-2.56,4.05-9.33.22c-.93-3.11-4.37-5.1-4.15-8.25l-5.39,1.26c-1.81-.46-.98-3.38-2.18-3.74-1.12-.34-2.27.03-3.41-.33-1.2-.37-1.85-1.86-3.75-1.99-2.79-.19-3.73,3.7-7.15,2.37-1.5-.58-4.72-4.77-3.75-6.32.5-.27,2.39-1.75,2.64-1.75h8.1c-.6-1.74-3.86-.09-4.35-1.58-.64-2.21,2.16-1.74,1.72-3.67-11.49-1.56-23.6,12.21-21.34,23.31.29,1.44,12.68,23.25,10.85,28.18l-89.81.19ZM122.93,9.96c-1.17-.84-5.86-.46-5.56.95,1,1.37,3.29,2.01,4.35,3.1.86.89,1.26,3.28,2.43,3.27.95,0,3.87-2.34,3.33-3.7-2.51-.23-3.35-2.77-4.54-3.63ZM119.46,33.57l-3.61-.98c-1.35.94.68,1.79.69,3.28.03,4.18-5.8,1.25-6.99,2.03-.51,1.24-.6,3.77-2.11,4.24-2.8.86-2.46-1.4-3.85-1.68-2.02-.41-3.09,1.23-5.04.88-.43-2.4,3.24-2.94,2.59-4.98-.92-2.88-6.72,4.35-6.86,5.28-.11.75.71,1.9.81,2.73,1.62.52,2.51-1.39,4.09-1.27.98.07,1.72,1.01,2.64,1.33s4.99,1.23,5.04,1.95c-.65,2.3-2.98,1.52-4.18,2.38-1.25.9-.34,3.24-3.23,1.98-.2-.09-4.35-3.54-3.52-1.3,1.34,3.58,8.41,5.91,11.2,8.56.55.52.3,1.14.47,1.31.93.96,2.61,1.43,2.79,3.06l.87-.22c.72-3.5-3.06-8.13-2.55-11.27.42-2.62,3.85-4.16,5.37-6.05.79-.99,5.75-8.77,5.86-9.49.08-.53-.09-1.41-.46-1.76ZM169.85,34.41c-1.96-1.1-4.19-1.87-6.49-1.81.72,1.05,1.04,2.26,1.51,3.38.04.09.67.11.7.39.2,1.79-1.59,4.13,1.57,5.81,2.79-.56,1.99-3.31,1.09-5.37l1.62-1.22v-1.18ZM91.1,33.47h-7.01l1.28,3.68-3.27,2c-1.6,2.31,3.44,3.43,5.06,3.09.05-1.23-.21-4.24.55-5.15.56-.68,3.68-1.39,3.39-3.62ZM134.45,41.8c-2.47-.29-1.39-3.08-2.6-4.63-4.7-.22-5.93,1.96-8.08,5.55-1.49,2.47-3.7,6.39-3.23,9.26.05.33,1.23,3.58,1.35,3.73.22.28,1,.47,1.41.95,1.16,1.38,6.2,7.27,7.45,7.47,2.32.37,3.6-1.22,5.15-1.85,4.08-1.67,8.3-3.17,12.57-4.29l-4.61-.45c-2.28.82-6.78.02-8.65,1.31-.52.36-.63,1.27-1.17,1.57-2.02,1.11-1.55-1.52-1.99-2.42s-2.61-1.17-2.4-2.63c3.5-.84,6.64.61,8.95-2.99,1.87.24,2.47,2.36,4.36,2.14l1.24-3.43c1.03-1.07,3.03.29,3.4-.77.47-1.32-1.01-1.45-1.96-1.53s-7.91.52-8.36.84c-1.63,1.17-2.85,6.23-6.75,2.86-.65-.56-.28-.6.07-1.22.78-1.35,2.96-2.18,2.15-3.98l-4.44-.05c-1.56-1.29-1.13-3.78.88-4.39.51-.16,5.9-.18,5.28-1.07ZM73.08,39.64l-3.22,1.25.22,1.78.8-.37c1.23,1.56.7,2.52.51,4.31,1.46.14,3.65-.37,4.95.41.73.44,1.62,3.11,2.36,3.55.99.6,2.1.17,2.89.44.35.12.34.62.43.66.92.42,1.48.13,2.05,1.73-2.73,2.37-6.74,1-10.29,1.07-1.31.03-2.79.64-3.9.47-1.56-.25-1.69-2.45-3.19-2.97-3.25-1.12-8.12-.15-11.2-1.06-1.08-.32-1-1.94-2.28-2.13-.77-.12-6.57,1.16-6.34,2.65.47.51,11.72.98,13.69,1.42,3.28.74,5.93,3.79,9.34,4.24,4.69.62,10.38-.93,14.87.9,1.61.65,2.74,2.32,4.58,2.2.1-1.05-.75-1.83-1.07-2.67-.18-.48.16-.99.07-1.18-.38-.83-3.92-6.48-4.7-7.31-2.97-3.17-9.26-4.03-10.57-9.38ZM184.5,51.76c-.7-1.65,1.46-4.97-.99-6.68-1.45-.67-2.84.02-4.23.18-.52.06-1.02-.34-1.27-.33s-.18.6-.53.77c-.75.35-1.75.28-2.3,1.14.65,2.43,3.01,1.31,4.81,1.09.09,1.54.2,2.73-.87,3.94,2.78.13,5.15,1.13,7.44,2.63.33-1.02-1.97-2.53-2.06-2.74Z"/></g></g></svg>