<?xml version="1.0" encoding="UTF-8"?><svg id="uuid-ad914a4e-6cc5-42b2-a84e-25b8d1ba8dd7" xmlns="http://www.w3.org/2000/svg" viewBox="0 0 256.72 67.34"><defs><style>.uuid-a31e23e8-d029-4dd6-b476-672892932680{fill:#f7f3eb;}.uuid-e5e230e8-08f1-4081-96c1-b2235395a203{fill:#ff7345;}</style></defs><g id="uuid-d478b101-cd61-4cc8-9fc2-f258d2b62215"><rect class="uuid-e5e230e8-08f1-4081-96c1-b2235395a203" x="0" y="0" width="256.72" height="67.34" rx="33.67" ry="33.67"/><path class="uuid-a31e23e8-d029-4dd6-b476-672892932680" d="M29.28,33.26c0-11.98,3.48-17.48,11-17.48,7,0,10.22,3.94,10.22,12.5,0,.99-.05,2.49-.1,3.48h-6.54c.05-1.25.05-2.33.05-3.11,0-4.46-.99-6.23-3.06-6.23-2.59,0-3.74,2.75-3.74,10.84s1.14,10.84,3.89,10.84c1.92,0,2.96-1.56,2.96-6.02,0-.73-.05-1.76-.1-2.44h6.59c.05.62.1,1.61.1,2.59,0,8.09-3.27,12.5-10.32,12.5s-10.95-5.71-10.95-17.48Z"/><path class="uuid-a31e23e8-d029-4dd6-b476-672892932680" d="M52.88,16.19h7.68v13.33h7.47v-13.33h7.68v34.14h-7.68v-14.27h-7.47v14.27h-7.68V16.19Z"/><path class="uuid-a31e23e8-d029-4dd6-b476-672892932680" d="M78.5,16.19h16.6v6.64h-8.92v7.78h7v5.08h-7v7.99h9.29v6.64h-16.96V16.19Z"/><path class="uuid-a31e23e8-d029-4dd6-b476-672892932680" d="M96.76,33.26c0-11.98,3.48-17.48,11-17.48,7,0,10.22,3.94,10.22,12.5,0,.99-.05,2.49-.1,3.48h-6.54c.05-1.25.05-2.33.05-3.11,0-4.46-.99-6.23-3.06-6.23-2.59,0-3.74,2.75-3.74,10.84s1.14,10.84,3.89,10.84c1.92,0,2.96-1.56,2.96-6.02,0-.73-.05-1.76-.1-2.44h6.59c.05.62.1,1.61.1,2.59,0,8.09-3.27,12.5-10.32,12.5s-10.95-5.71-10.95-17.48Z"/><path class="uuid-a31e23e8-d029-4dd6-b476-672892932680" d="M120.37,16.19h7.68v16.24h.1l7.37-16.24h8.56l-7.99,15.41,8.72,18.73h-9.23l-4.93-12.66-2.59,4.62v8.04h-7.68V16.19Z"/><path class="uuid-a31e23e8-d029-4dd6-b476-672892932680" d="M142.74,29.51h14.16v7.41h-14.16v-7.41Z"/><path class="uuid-a31e23e8-d029-4dd6-b476-672892932680" d="M159.79,33.1c0-11.88,3.63-17.33,11.57-17.33s11.52,5.45,11.52,17.33-3.63,17.64-11.52,17.64-11.57-5.55-11.57-17.64ZM175.04,33.1c0-7.32-1.14-10.69-3.68-10.69s-3.68,3.37-3.68,10.69,1.14,11,3.68,11,3.68-3.48,3.68-11Z"/><path class="uuid-a31e23e8-d029-4dd6-b476-672892932680" d="M185.1,39.12v-22.93h7.68v22.93c0,3.11,1.19,4.77,3.48,4.77s3.32-1.66,3.32-4.77v-22.93h6.64v22.93c0,7.63-3.63,11.62-10.53,11.62s-10.58-4-10.58-11.62Z"/><path class="uuid-a31e23e8-d029-4dd6-b476-672892932680" d="M213.63,22.83h-5.86v-6.64h19.35v6.64h-5.81v27.5h-7.68v-27.5Z"/></g></svg>