<?xml version="1.0" encoding="UTF-8"?><svg id="uuid-7e7eedc9-43fd-4cdc-be85-25e5ac5d0f0d" xmlns="http://www.w3.org/2000/svg" viewBox="0 0 223.59 67.34"><defs><style>.uuid-a69feac4-eddd-4777-b640-1c48ad0769ca{fill:#f7f3eb;}.uuid-5a51b5ca-7043-489b-8d06-532f412a72d6{fill:#ff7345;}</style></defs><g id="uuid-5b41c911-a183-4962-a375-282aa4eb486a"><rect class="uuid-5a51b5ca-7043-489b-8d06-532f412a72d6" x="0" y="0" width="223.59" height="67.34" rx="33.67" ry="33.67"/><path class="uuid-a69feac4-eddd-4777-b640-1c48ad0769ca" d="M29.35,33.26c0-11.98,3.48-17.48,11-17.48,7,0,10.22,3.94,10.22,12.5,0,.99-.05,2.49-.1,3.48h-6.54c.05-1.25.05-2.33.05-3.11,0-4.46-.99-6.23-3.06-6.23-2.59,0-3.74,2.75-3.74,10.84s1.14,10.84,3.89,10.84c1.92,0,2.96-1.56,2.96-6.02,0-.73-.05-1.76-.1-2.44h6.59c.05.62.1,1.61.1,2.59,0,8.09-3.27,12.5-10.32,12.5s-10.95-5.71-10.95-17.48Z"/><path class="uuid-a69feac4-eddd-4777-b640-1c48ad0769ca" d="M52.96,16.19h7.68v13.33h7.47v-13.33h7.68v34.14h-7.68v-14.27h-7.47v14.27h-7.68V16.19Z"/><path class="uuid-a69feac4-eddd-4777-b640-1c48ad0769ca" d="M78.58,16.19h16.6v6.64h-8.92v7.78h7v5.08h-7v7.99h9.29v6.64h-16.96V16.19Z"/><path class="uuid-a69feac4-eddd-4777-b640-1c48ad0769ca" d="M96.84,33.26c0-11.98,3.48-17.48,11-17.48,7,0,10.22,3.94,10.22,12.5,0,.99-.05,2.49-.1,3.48h-6.54c.05-1.25.05-2.33.05-3.11,0-4.46-.99-6.23-3.06-6.23-2.59,0-3.74,2.75-3.74,10.84s1.14,10.84,3.89,10.84c1.92,0,2.96-1.56,2.96-6.02,0-.73-.05-1.76-.1-2.44h6.59c.05.62.1,1.61.1,2.59,0,8.09-3.27,12.5-10.32,12.5s-10.95-5.71-10.95-17.48Z"/><path class="uuid-a69feac4-eddd-4777-b640-1c48ad0769ca" d="M120.44,16.19h7.68v16.24h.1l7.37-16.24h8.56l-7.99,15.41,8.72,18.73h-9.23l-4.93-12.66-2.59,4.62v8.04h-7.68V16.19Z"/><path class="uuid-a69feac4-eddd-4777-b640-1c48ad0769ca" d="M142.81,29.52h14.16v7.41h-14.16v-7.41Z"/><path class="uuid-a69feac4-eddd-4777-b640-1c48ad0769ca" d="M159.8,16.19h7.68v34.14h-7.68V16.19Z"/><path class="uuid-a69feac4-eddd-4777-b640-1c48ad0769ca" d="M170.48,16.19h10.58l6.38,21.53h.05l-.78-21.53h7.06v34.14h-8.56l-8.3-25.37h-.05l.67,25.37h-7.06V16.19Z"/></g></svg>