<?xml version="1.0" encoding="UTF-8"?><svg id="uuid-fbd9bd41-73da-4fdc-a8a4-1bf2b1cdf4f6" xmlns="http://www.w3.org/2000/svg" viewBox="0 0 262.88 67.34"><defs><style>.uuid-e85e7957-bcb8-4a19-bf33-d624e905acad{fill:#1b2e4d;}.uuid-e5c41d58-b1af-4463-82bc-a4de2d8f73de{fill:#f7f3eb;}</style></defs><g id="uuid-31df55bc-0f99-483f-9ec7-911becba6438"><rect class="uuid-e85e7957-bcb8-4a19-bf33-d624e905acad" x="0" y="0" width="262.88" height="67.34" rx="10.38" ry="10.38"/><path class="uuid-e5c41d58-b1af-4463-82bc-a4de2d8f73de" d="M15.62,33.26c0-11.98,3.48-17.48,11-17.48,7,0,10.22,3.94,10.22,12.5,0,.99-.05,2.49-.1,3.48h-6.54c.05-1.25.05-2.33.05-3.11,0-4.46-.99-6.23-3.06-6.23-2.59,0-3.74,2.75-3.74,10.84s1.14,10.84,3.89,10.84c1.92,0,2.96-1.56,2.96-6.02,0-.73-.05-1.76-.1-2.44h6.59c.05.62.1,1.61.1,2.59,0,8.09-3.27,12.5-10.32,12.5s-10.95-5.71-10.95-17.48Z"/><path class="uuid-e5c41d58-b1af-4463-82bc-a4de2d8f73de" d="M39.74,33.1c0-11.88,3.63-17.33,11.57-17.33s11.52,5.45,11.52,17.33-3.63,17.64-11.52,17.64-11.57-5.55-11.57-17.64ZM54.99,33.1c0-7.32-1.14-10.69-3.68-10.69s-3.68,3.37-3.68,10.69,1.14,11,3.68,11,3.68-3.48,3.68-11Z"/><path class="uuid-e5c41d58-b1af-4463-82bc-a4de2d8f73de" d="M66.14,16.19h10.84l3.32,20.49h.1l3.37-20.49h10.9v34.14h-7.68l.47-25.52h-.16l-4.72,25.52h-5.45l-4.72-25.52h-.1l.47,25.52h-6.64V16.19Z"/><path class="uuid-e5c41d58-b1af-4463-82bc-a4de2d8f73de" d="M98.46,16.19h9.91c7.31,0,10.69,3.84,10.69,12.35s-3.06,12.19-9.81,12.19h-3.11v9.6h-7.68V16.19ZM108.73,35.23c2.18,0,3.16-1.92,3.16-6.12s-1.09-6.28-3.48-6.28h-2.28v12.4h2.59Z"/><path class="uuid-e5c41d58-b1af-4463-82bc-a4de2d8f73de" d="M122.17,16.19h10.38c7.73,0,11.26,3.16,11.26,10.06,0,4.67-1.25,7.16-4.51,8.15v.05c3.22.73,4.51,2.8,4.51,6.02v9.86h-7.73v-9.6c0-2.23-1.04-3.22-3.32-3.22h-2.91v12.81h-7.68V16.19ZM132.54,32.63c2.54,0,3.74-1.45,3.74-4.98s-1.19-4.82-3.84-4.82h-2.59v9.8h2.7Z"/><path class="uuid-e5c41d58-b1af-4463-82bc-a4de2d8f73de" d="M162.11,43.69h-6.74l-1.09,6.64h-7.83l7.78-34.14h10.17l7.89,34.14h-9.13l-1.04-6.64ZM161.28,38.45l-2.44-15.25h-.21l-2.44,15.25h5.08Z"/><path class="uuid-e5c41d58-b1af-4463-82bc-a4de2d8f73de" d="M174.56,38.39h6.8c0,4.93.88,6.33,3.63,6.33,2.23,0,3.16-1.3,3.16-3.48,0-1.82-.47-2.59-1.3-3.22-.67-.52-1.97-1.09-4.46-2.02-2.28-.83-4.15-1.82-5.24-2.85-1.56-1.3-2.65-3.79-2.65-7.21,0-6.17,3.89-10.17,10.48-10.17,7.68,0,10.12,3.74,10.12,12.61h-6.69c0-5.4-.88-6.59-3.27-6.59-1.82,0-2.96,1.3-2.96,3.42s.47,2.91,1.19,3.53c.73.62,2.44,1.35,4.57,2.18,2.44.93,3.84,1.61,5.19,2.75,1.71,1.45,2.7,3.89,2.7,7,0,6.07-3.74,10.06-10.84,10.06-8.4,0-10.43-4.83-10.43-12.35Z"/><path class="uuid-e5c41d58-b1af-4463-82bc-a4de2d8f73de" d="M245.24,50.4c-.19-6.24-.71-12.58-1.06-18.82-.12-2.19-.04-4.72-.33-6.86-.08-.63-.78-1.44-1.42-1.44h-26.95c-.71,0-1.35.86-1.43,1.53-.39,3.41-.34,7.23-.53,10.68-.26,4.85-.73,9.86-.85,14.69-.03,1.38-.01,2.42,1.64,2.6h29.17c1.57-.12,1.78-1,1.74-2.39Z"/><polygon class="uuid-e5c41d58-b1af-4463-82bc-a4de2d8f73de" points="236.8 24.18 233.65 24.18 233.65 18.72 231.66 16.72 226.27 16.72 224.27 18.72 224.27 23.86 221.13 23.86 221.13 17.42 224.96 13.58 232.96 13.58 236.8 17.42 236.8 24.18"/></g></svg>