<?xml version="1.0" encoding="UTF-8"?><svg id="uuid-c946a598-11e0-4d84-865b-842539b9678c" xmlns="http://www.w3.org/2000/svg" viewBox="0 0 202.94 163.69"><defs><style>.uuid-d62fd70e-92ed-4b62-9289-45383cd70c93{fill:#1b2e4d;}.uuid-bd808b43-c66b-4756-8125-a096aae2c58c{fill:#f7f3eb;}</style></defs><g id="uuid-cdf9bd4b-5892-4463-aa95-980b76df2dfc"><path class="uuid-d62fd70e-92ed-4b62-9289-45383cd70c93" d="M132.14,106.75c7.92,1.69,15.72,3.02,23.48,3.89h6.82c12.87-11.74,21.23-28.04,29.19-43.37-3.4-.41-7.19-1.04-10.6-1.2-30.07-1.41-63.2,3.78-93.42,6.15-23.01,1.8-46.08,3.11-69.1,4.72v22.36c8.12-3.14,16.82-5.2,25.14-6.22,31.44-3.83,58.69,7.33,88.5,13.68Z"/><path class="uuid-d62fd70e-92ed-4b62-9289-45383cd70c93" d="M20.15,70.33l129.26-13.21c2.04-.11,4.11.1,6.15.01,1.12-.05,2.15-.47,3.26-.51,12.38-.42,24.9-.04,37.21.98l2.63-5.93c-.13-1.35-14.75-2.98-16.69-3.08-35.74-1.84-76.26,6.92-111.88,11.75-16.51,2.24-33.09,3.99-49.58,6.31-.21.18-1.93,4.07-.35,3.67Z"/><path class="uuid-d62fd70e-92ed-4b62-9289-45383cd70c93" d="M126.05,31.64l-4.01-5.66h-20.05c6.14-8.68-10.15-9.2-4.72,0h-9.67c-1.24,0-7.91,2.62-8.25,2.36l-3.31-16.51h-12.74l.9,20.71-18.98,4.84-2.19,5.11,44.57-10.85h38.44Z"/><path class="uuid-d62fd70e-92ed-4b62-9289-45383cd70c93" d="M137.14,45.32c.47-.06,1.02.12.69-.7-.42-1.04-3.44-5.22-4.48-5.42h-33.95s-71.13,13.77-71.13,13.77l-2.22,5.09,71.94-12.73c12.17-1.19,27.35,1.56,39.15,0Z"/><path class="uuid-d62fd70e-92ed-4b62-9289-45383cd70c93" d="M47.49,9.96c1.15.53,6.56,2.27,7.6,2.32,2.28.11,6.06-2.43,8.49-2.77,1.23-.17,12,.32,11.99-.28,0-1.07-.82-1.1-1.63-1.2-3.02-.37-6.77.28-9.92.02-2.73-.22-6.82-1.92-8.98-1.89-2.21.03-6.2,2.76-8.71,2.85.05.67.69.74,1.16.96Z"/><path class="uuid-d62fd70e-92ed-4b62-9289-45383cd70c93" d="M74.63,5.22c-.11-.97-.38-2.25-1.25-2.76C72.65,2.04,64.53,0,63.55,0c-2.86,0-5.89,2.44-8.72,2.87l6.84,2.35h12.97Z"/><path class="uuid-d62fd70e-92ed-4b62-9289-45383cd70c93" d="M126.66,113.89c-29.81-6.35-57.06-17.51-88.5-13.68-13.03,1.59-26.99,5.74-38.17,12.57,8.06-.56,16.03-3.2,24.07-4.11,56.67-6.42,111.08,30.67,167.37,11.4l11.49-4.94c-25.96,6.03-50.48,4.25-76.28-1.24Z"/><rect class="uuid-d62fd70e-92ed-4b62-9289-45383cd70c93" x="13.2" y="118" width="171.03" height="45.7" rx="7.27" ry="7.27"/><path class="uuid-bd808b43-c66b-4756-8125-a096aae2c58c" d="M25.17,140.64c0-10.6,3.08-15.47,9.73-15.47,6.2,0,9.04,3.49,9.04,11.06,0,.87-.05,2.2-.09,3.08h-5.78c.05-1.1.05-2.07.05-2.75,0-3.95-.87-5.51-2.71-5.51-2.29,0-3.3,2.43-3.3,9.59s1.01,9.59,3.44,9.59c1.7,0,2.62-1.38,2.62-5.32,0-.64-.05-1.56-.09-2.16h5.83c.05.55.09,1.42.09,2.29,0,7.16-2.89,11.06-9.13,11.06s-9.68-5.05-9.68-15.47Z"/><path class="uuid-bd808b43-c66b-4756-8125-a096aae2c58c" d="M46.92,125.54h9.18c6.84,0,9.96,2.8,9.96,8.9,0,4.13-1.1,6.33-3.99,7.21v.05c2.85.64,3.99,2.48,3.99,5.32v8.72h-6.84v-8.49c0-1.97-.92-2.85-2.94-2.85h-2.57v11.34h-6.79v-30.2ZM56.1,140.09c2.25,0,3.3-1.29,3.3-4.41s-1.06-4.27-3.4-4.27h-2.29v8.67h2.39Z"/><path class="uuid-bd808b43-c66b-4756-8125-a096aae2c58c" d="M69.18,145.83v-20.29h6.79v20.29c0,2.75,1.06,4.22,3.08,4.22s2.94-1.47,2.94-4.22v-20.29h5.88v20.29c0,6.75-3.21,10.28-9.32,10.28s-9.36-3.53-9.36-10.28Z"/><path class="uuid-bd808b43-c66b-4756-8125-a096aae2c58c" d="M90.7,140.64c0-10.6,3.08-15.47,9.73-15.47,6.2,0,9.04,3.49,9.04,11.06,0,.87-.05,2.2-.09,3.08h-5.78c.05-1.1.05-2.07.05-2.75,0-3.95-.87-5.51-2.71-5.51-2.29,0-3.3,2.43-3.3,9.59s1.01,9.59,3.44,9.59c1.7,0,2.62-1.38,2.62-5.32,0-.64-.05-1.56-.09-2.16h5.83c.05.55.09,1.42.09,2.29,0,7.16-2.89,11.06-9.13,11.06s-9.68-5.05-9.68-15.47Z"/><path class="uuid-bd808b43-c66b-4756-8125-a096aae2c58c" d="M112.45,125.54h14.69v5.88h-7.89v6.88h6.2v4.5h-6.2v7.07h8.22v5.88h-15.01v-30.2Z"/><path class="uuid-bd808b43-c66b-4756-8125-a096aae2c58c" d="M129.89,125.54h9.18c6.84,0,9.96,2.8,9.96,8.9,0,4.13-1.1,6.33-3.99,7.21v.05c2.85.64,3.99,2.48,3.99,5.32v8.72h-6.84v-8.49c0-1.97-.92-2.85-2.94-2.85h-2.57v11.34h-6.79v-30.2ZM139.07,140.09c2.25,0,3.3-1.29,3.3-4.41s-1.06-4.27-3.4-4.27h-2.29v8.67h2.39Z"/><path class="uuid-bd808b43-c66b-4756-8125-a096aae2c58c" d="M151.83,140.51c0-10.51,3.21-15.33,10.24-15.33s10.19,4.82,10.19,15.33-3.21,15.61-10.19,15.61-10.24-4.91-10.24-15.61ZM165.32,140.51c0-6.47-1.01-9.46-3.26-9.46s-3.26,2.98-3.26,9.46,1.01,9.73,3.26,9.73,3.26-3.08,3.26-9.73Z"/></g></svg>