<?xml version="1.0" encoding="UTF-8"?><svg id="uuid-3ae6997b-635a-44c4-8d8e-7a74fe2a253d" xmlns="http://www.w3.org/2000/svg" viewBox="0 0 187.95 211.52"><defs><style>.uuid-bdd36cff-ebad-42f0-a803-33dd65328d0d{fill:#f7f3eb;}.uuid-756465f7-3642-4a8d-8919-bec3051d14ad{fill:#ff7345;}</style></defs><g id="uuid-654471c2-db57-41a0-8b81-c80e6153c443"><path class="uuid-756465f7-3642-4a8d-8919-bec3051d14ad" d="M120.03,152.68c-.11.53-1.45,1.93-1.93,2.34-2.93,2.56-7.75,3.74-11.52,4.46-15.39,2.93-31.2.44-45.5-5.57-1.11-1.44,1.23-1.15,2.25-1.31.32-.05,1.34-.07,1.32-.47-1.44-.16-7.61-3.81-8.54-3.03.02.38.74,2.16-.13,1.92-1.18-.33-5.19-3.22-6.34-4.13-2.46-1.96-4.46-4.48-7.03-6.33l3.81,4.86c.38.9.72,1.95.54,2.92-.27,1.38-3.91,7.53-4.86,9.2-1.04,1.83-3.74,7.01-5.02,8.2-.77.71-2.09,1.23-3.14,1.27-8.47-.57-17.83.72-26.19,0-.88-.08-1.51-.35-2.33-.57.33-1.06.83-1.91,1.43-2.84,3.47-5.37,8.55-11.5,12.51-16.69,4.61-6.03,9.15-12.1,14.18-17.8l-.05-.37c-3.47-2.58-7.06-5.2-9.44-8.87-6.23-9.6-9.51-22.29-8.69-33.72.45-6.24,3.04-12.71,4.13-18.87-.57-.12-.64.28-.88.63-1.22,1.81-2.02,4.46-3.39,6.25-1.22-3.14-.78-7.04.27-10.19,1.25-3.72,3.13-2.87,6.47-3.58l-.84-.42c-.06-3.41-1.15-6.75-.8-10.17.39-3.85,4.47-10.14,6.66-13.45,1.91-2.89,4.4-7.63,8.35-7.63h10.88l-1.28-7.18-1.57.34-8.58,6.02-.68-1.37c7.31-5.33,13.97-11.65,21.78-16.37,24.56-14.85,58.69-13.17,81.87,3.47,5.64,4.04,11.45,8.54,15.89,13.86l-10.74-7.03c.47,1.79-.86,6.49.11,7.73,1.26,1.6,3.4.37,4.98.26,9.32-.63,12.56,5.07,16.61,12.31,2.58,4.61,4.27,9.12,3.33,14.51-.23,1.3-1.34,3.58-1.02,4.66.37,1.24,4.17.55,5.47,1.98,1.73,1.9,1.95,9.95,1.36,12.41-.1.41.19.49-.54.41-1.12-2.3-2.23-4.64-3.44-6.89-.11-.21-.64-1.5-.97-1.23,1.21,7.33,3.73,14.56,4.15,22.02.67,11.97-5.45,29.49-14.61,37.48-1.04.91-5.18,3.53-5.46,4.46-.19.61-.09,1.35.16,1.94l24.98,33.14.15,1.64c-5.64-.09-11.31.11-16.95.01-3.96-.07-8.47.09-12.39-.28-1.84-.17-2.72-.88-3.71-2.35-2.51-3.7-4.52-8.75-6.93-12.62-2.09-3.35-5.46-3.77-5.46-3.77-3.82,1.83-8.39,4.06-12.67,4.41.34-1.59.37-4.9-1.8-4.98-2.27-.08-8.08,3.65-10.6,4.29l.17.69c3.98-.24,8.3.31,12.23,0ZM94.15,5.58c.16.11,2.37-2.27,1.67-3.18-1.02-1.33-2.47-.96-3.05.56l1.38,2.62ZM91.39,6.96c-3.19-4.37-7.44-3.16-11.02,0h11.02ZM97.45,7.24h11.29l-4.96-2.61c-2.93-1.49-5.1-.21-6.33,2.61ZM120.31,6.41l-7.99-2.48c.44,1.97,2.14,3.59,4.26,3.31l3.73-.83ZM68.25,7.24h5.37c.1,0,1.48-1.34,1.24-1.65-1.79-.94-4.2.28-6,1.03-.41.17-.75-.17-.61.62ZM112.32,27.89c1.24-4.54,2.74-9.08,2.18-13.88-.11-.91-.93-3.63-1.49-4.3-.31-.36-.24-.32-.53,0-1.53,1.76-2.83,4.36-5.52,4.42-1.88.04-4.47-2-6.29-2.82-2.78-1.26-4.52-1.74-1.83,1.56,3.72,4.57,8.61,10.42,12.67,14.6.26.27.36.52.82.42ZM75.33,10.03c-1.57.45-1.68,6.67-1.57,8.09.12,1.56,1.41,7.7,2.23,8.78.18.24.28.49.65.46l14.74-16.95c-.4-.57-.53-.36-1.04-.23-2.43.62-7.23,4.51-9.43,3.82-.35-.11-1.01-.62-1.34-.87-.93-.69-3.18-3.41-4.24-3.11ZM67.42,11.65c-2.98.03-8.72,5.8-7.99-.55-4.95,3.74-9.08,9.09-10.74,15.15l18.73-14.59ZM140.14,26.79c-1.83-5.94-5.46-11.29-10.33-15.15-.59-.1-.32.12-.43.38-.65,1.49-.68,2.53-2.74,1.97-.71-.19-3.4-2.2-3.85-1.11l17.35,13.91ZM78.72,28.72h30.3l-.17-.85c-2.29-.99-4.35-2.43-6.53-3.61-2.37-1.28-6.41-3.99-9-3.4-2.24.51-10.1,5.03-12.58,6.43-.65.37-1.58.83-2.02,1.42ZM114.8,28.72h24.24c.13-.65-.08-.44-.36-.62-2.73-1.76-7.09-3.82-10.1-5.32-1.59-.79-4.29-2.59-5.9-1.74-1.14.6-5.93,5.21-7.06,6.43-.34.37-.89.68-.82,1.25ZM73.76,28.72c.12-.48-.2-.55-.41-.83-.64-.84-6.66-6.38-7.37-6.68-1.26-.52-2.25-.14-3.42.29-4.01,1.47-8.01,4.53-12.03,6.15l-.45,1.06h23.69ZM72.1,32.58l-16.11,7.73-1.53-.7-7.43-8.13c-1.06,6.01-.28,11.95,1.01,17.85.32,1.47,2,8.44,2.69,9.15.63.65,1.23.5,1.8-.15,5.4-7.23,11.21-14.17,16.64-21.38.35-.46,3.19-4.13,2.92-4.38ZM109.56,32.03l-13.43,7.92c-1.9.73-2.71.39-4.38-.43-1.88-.92-12.91-8.14-13.69-7.99-.24.05-.44.33-.61.51l16.82,28.64c5.54-9.26,12.3-18.1,15.28-28.65ZM141.24,31.75c-.66.45-1.25,1.07-1.79,1.65-1.52,1.64-3.76,5.01-5.36,6.21-1.36,1.01-2.02.81-3.5.18-4.56-2.2-9.37-5.88-13.96-7.81-.35-.15-.74-.16-.73.19l20.93,27.13.54-.18c3.72-8.63,4.84-18.03,3.85-27.37ZM158.88,36.16c-.32,1.25-.31,3.78-2.05,3.58s-7.16-5.09-9.12-6.06l-.13.41,17.35,23.28c-.11-6.3-1.75-12.67-4.36-18.37-.42-.93-.93-2.21-1.7-2.84ZM23.9,57.09l16.53-22.86c-1.88.51-8.25,6.09-9.51,6.06-1.21-.03-.89-2.37-.98-3.14-.04-.29-.11-1.29-.52-1.27-3.14,5.79-5.17,12.59-5.75,19.18-.04.44-.29,1.9.24,2.03ZM91.11,60.4c-4.48-3.07-9.11-6.16-13.8-8.93-1.64-.97-3.85-2.84-5.75-2.21l-17.37,10.32c-.16.21.26.82.41.82h36.5ZM25.42,60.4h23.28l-9.66-10.31c-1.23-.84-1.5-.79-2.72,0l-11.46,9.48c-.23.21.51.82.56.83ZM134.08,60.4l-.28-.96c-2.79-1.6-5.6-3.2-8.34-4.88-2.71-1.66-6.11-4.93-9.42-4.93-3.68,0-6.77,3.73-9.8,5.37l-9.07,5.39h36.91ZM163.28,60.4c-1.89-1.98-3.75-4.09-5.78-5.93-1.17-1.05-5.46-4.83-6.75-4.83-.52,0-1.01.21-1.39.57-2.52,3.31-6.3,6.09-8.81,9.36-.21.28-.53.35-.41.83h23.14ZM91.94,63.43l-18.65,10.68c-2.56.87-4.21.3-6.42-.9-4.64-2.52-8.95-6.63-13.59-9.21l-.6.53,17.78,33.05,21.48-34.15ZM97.45,63.71c-.36.39,1.53,3.69,1.88,4.32,4.41,8.04,10.03,16.9,14.98,24.69.49.78,2.25,3.85,2.89,4.02.24.09.42.02.64-.09.51-.27,3.89-6.04,4.52-7.06,4.84-7.89,9.4-15.97,12.82-24.6l-.67-.45-15.84,10.62c-.83.3-1.71.1-2.45-.32l-18.76-11.12ZM23.9,65.36c.57,7.77,2.68,15.36,5.73,22.5.5,1.18,3.44,8.07,4.59,7.8,4.08-7.68,6.46-16.42,10.2-24.24.46-.96,3.56-5.99,3.44-6.47-.16-.66-.84-.3-1.19-.1-1.88,1.05-5.11,3.75-6.92,5.2-1.66,1.32-4.87,5.1-6.9,4.97-2.41-.15-6.63-8.21-8.95-9.66ZM164.93,64.53c-2.49,2.45-4.17,5.98-6.47,8.54-.7.78-1.67,1.9-2.76,1.94-1.9.07-5.78-3.97-7.44-5.25-2.37-1.82-4.81-3.57-7.29-5.24l13.5,31.4c1.54-1.89,2.81-4.54,3.81-6.79,3.44-7.7,5.67-16.22,6.65-24.61ZM156.12,98.14h13.36c.27,0,1.92-1.94,1.5-2.58l-2.88-9.82-11.98,12.4ZM68.52,98.14c.12-.51-.17-.53-.46-.78-1.85-1.59-5.26-3.5-7.44-4.95-2.71-1.8-6.06-4.28-8.81-5.79-1.14-.63-1.89-.95-3.11-.17l-12.68,10.73.46.64c8.61.18,17.24-.08,25.86.03.79.01,1.57.29,2.47.31,1.26.02,2.38-.65,3.71-.02ZM120.03,97.86h31.54l.28-.83c-2.82-2.57-5.5-5.37-8.4-7.85-1.75-1.5-3.98-4.12-6.43-2.85l-16.98,11.53ZM113.97,98.14c-.09-.26.22-.57.21-.7-.05-.46-5.89-3.55-6.8-4.15-5.2-3.39-8.73-8.01-15.78-6.37-3.86.9-6.28,3.64-9.44,5.71-2.57,1.69-5.36,3.05-7.86,4.82l.41.69h39.25ZM32.44,98.14c-2.24-2.21-4.17-4.75-6.33-7.03-.73-.78-3.33-3.62-3.99-4-.82-.48-1.61-.41-2.02.49-.23,1.86-2.9,8.13-2.49,9.52.07.23.84,1.03.92,1.03h13.91ZM38.23,102.55l.27,1.25c6.51,7.11,11.94,16.48,18.47,23.4.56.6,1.28,1.68,2.2,1.11.46-.59.83-1.22,1.12-1.92,1.47-3.67,2.15-8.45,3.56-12.41,1.57-4.42,3.84-8.59,5.24-13.08-4.69,2.42-8.58,6.49-12.85,9.32-1.24.82-2.66,1.84-4.23,1.29l-13.76-8.96ZM129.95,129.26l21.48-26.03-.82-.84-14.07,9.09c-1.32.43-2.61.19-3.65-.72l-13.13-9.86,10.19,28.37ZM95.72,128.08c5.6-8.46,12.61-16.54,18.04-25.06.44-.69.86-.97.49-1.85-5.51,2.71-10.78,6.51-16.24,9.23-2.24,1.11-3.47,1.76-6.03.79-2.59-.98-7.04-4.16-9.76-5.66-2.4-1.33-4.83-2.72-7.35-3.81,5.67,9.11,12.09,17.71,18.34,26.42.65.81,1.74.29,2.52-.06ZM33.81,125.96l-1.51-23.41c-1.72,1.24-4.22,7.75-5.66,8.4-1.77.8-3.29-2.6-4.58-3.13-.35-.14-.79-.16-.64.36.66,2.32,3.43,6.82,4.84,8.94,2.05,3.09,4.67,6.56,7.55,8.84ZM154.47,127.33c.52-.36.95-1.04,1.32-1.57,3.88-5.36,8.4-11.76,11.84-17.36.26-.42,1.34-1.79.46-2.01l-.98.39c-1.04,1.12-3.03,3.86-4.24,4.58-1.96,1.17-2.72-2.57-3.41-3.78-.95-1.69-2.11-3.55-3.35-5.04l-1.65,24.79ZM89.73,129.81l-.45-1.07c-4.05-2-7.88-4.55-11.94-6.52-1.59-.77-2.94-1.85-4.79-.92s-6.54,4.68-8.41,6.19c-.61.49-1.2,1.02-1.83,1.48l.15.83h27.27ZM98.55,129.81h27.13c.32-.31.53-.34.28-.83-.3-.59-4.13-3.47-4.97-4.12-1.61-1.23-4.61-3.9-6.6-3.89-1.14,0-3.15,1.25-4.27,1.81-3.86,1.92-7.48,4.35-11.39,6.18l-.17.85ZM132.98,130.09h15.56c.61,0,1.87-.85,2.02-1.58.28-1.41-1.76-7.39-3.95-7.2-3.92,2.12-7.98,4.27-11.68,6.74-.38.25-2.57,1.43-1.95,2.04ZM40.29,130.09h15.01l-.18-1.13-12.02-7.2c-3.23-1.39-4.08,2.21-4.52,4.69-.29,1.62-.42,3.26,1.71,3.64ZM105.44,151.3l17.76-15.43c.8-.35.12-1.41-.4-1.24l-11.1,5.71c-3.04,1.05-5.52-1.73-7.94-3.21-.68-.41-6.31-4-6.59-3.74l8.27,17.9ZM141.79,137.53c-1.49.39-5.75,3.59-6.96,3.26-1.11-.3-3.49-6.44-4.88-7.4l-4.69,16.52,16.75-11.47-.23-.93ZM63.29,149.92l-4.96-16.25c-1.87,1.18-2.88,6.19-4.67,6.76s-3.47-1.34-5.15-2.04c-.81-.34-2.58-1.28-2.03.36l16.8,11.17ZM66.16,136.59c3.89,3.76,9.84,9.34,14.08,12.5.76.57,1.75,1.56,2.74,1.4,1.22-.2,2.3-4.76,2.85-5.99,1.56-3.51,3.81-6.72,5.28-10.28-1.96.77-3.94,1.58-5.79,2.61-2.69,1.5-5.02,4.46-8.27,3.59l-12.25-5.93c-.95.07,1.18,1.92,1.35,2.09ZM102.13,152.4c-2.1-1.82-4.62-4.85-7.57-4.97-3.39-.14-5.85,2.85-8.13,4.97h15.7ZM70.59,152.68c2.98.44,6.96-.33,10.05,0l-.17-.85c-2.64-.77-9.02-4.82-11.51-4.13-1.02,2.25-1.44,4.52,1.62,4.97Z"/><rect class="uuid-756465f7-3642-4a8d-8919-bec3051d14ad" x="0" y="165.82" width="187.95" height="45.7" rx="7.4" ry="7.4"/><path class="uuid-bdd36cff-ebad-42f0-a803-33dd65328d0d" d="M45.05,173.37h14.69v5.88h-7.89v6.88h6.2v4.5h-6.2v7.07h8.22v5.88h-15.01v-30.2Z"/><path class="uuid-bdd36cff-ebad-42f0-a803-33dd65328d0d" d="M62.49,173.37h8.77c6.47,0,9.46,3.4,9.46,10.92s-2.71,10.79-8.67,10.79h-2.75v8.49h-6.79v-30.2ZM71.58,190.21c1.93,0,2.8-1.7,2.8-5.42s-.96-5.55-3.08-5.55h-2.02v10.97h2.29Z"/><path class="uuid-bdd36cff-ebad-42f0-a803-33dd65328d0d" d="M83.05,188.47c0-10.6,3.08-15.47,9.73-15.47,6.2,0,9.04,3.49,9.04,11.06,0,.87-.05,2.2-.09,3.08h-5.78c.05-1.1.05-2.07.05-2.75,0-3.95-.87-5.51-2.71-5.51-2.29,0-3.3,2.43-3.3,9.59s1.01,9.59,3.44,9.59c1.7,0,2.62-1.38,2.62-5.32,0-.64-.05-1.56-.09-2.16h5.83c.05.55.09,1.42.09,2.29,0,7.16-2.89,11.06-9.13,11.06s-9.68-5.05-9.68-15.47Z"/><path class="uuid-bdd36cff-ebad-42f0-a803-33dd65328d0d" d="M104.39,188.33c0-10.51,3.21-15.33,10.24-15.33s10.19,4.82,10.19,15.33-3.21,15.61-10.19,15.61-10.24-4.91-10.24-15.61ZM117.88,188.33c0-6.47-1.01-9.46-3.26-9.46s-3.26,2.98-3.26,9.46,1.01,9.73,3.26,9.73,3.26-3.08,3.26-9.73Z"/><path class="uuid-bdd36cff-ebad-42f0-a803-33dd65328d0d" d="M131.93,179.24h-5.19v-5.88h17.12v5.88h-5.14v24.33h-6.79v-24.33Z"/></g></svg>