<?xml version="1.0" encoding="UTF-8"?><svg id="uuid-86dde40c-e505-4a7e-a7db-7fdaaea61f06" xmlns="http://www.w3.org/2000/svg" viewBox="0 0 202.16 209.93"><defs><style>.uuid-2c13f20e-ef7d-4bc7-bf03-ed9e0c01d3c0{fill:#006eff;}.uuid-f378697f-4cf7-4468-a1a7-5ea346b3d3db{fill:#f7f3eb;}</style></defs><g id="uuid-1a8ea5b4-9679-4d0c-805c-f09228cb09c1"><path class="uuid-2c13f20e-ef7d-4bc7-bf03-ed9e0c01d3c0" d="M189.38,90.91l12.77-11.91h-15.15v-.78c0-1.16-.94-2.1-2.1-2.1h-3.65s0-.02,0-.02c-.19-.17-1.65-.05-2.98.02h-2.06c-.07-.02-.12-.04-.15-.07-.47-.53-.83-6-1.78-7.25.65-1.59,2.05-2.58,2.64-4.3.91-2.66-1.08-1.46-3.06-2.82-3.27.11-2.02-.3-2.94-2.26-.72-1.53-1.53-3.16-2.34-4.64-1.04-1.88-6.21-8.93-6.41-9.86-.09-.41,2.09-5.14,1.07-6-.15-.12-3.58-.57-3.81-.56-.93.03-1.41,1.25-2,.89-1.49-.91-3.89-4.16-5.53-5.55-2.93-2.51-6.23-4.67-9.33-6.98,0-1.29.2-5.42-1.18-5.78-1.75-.46-4.57,2.09-5.17,2.13-.54.03-8.37-3.74-10.02-4.34-1.68-.6-7.01-1.67-7.73-2.15-.38-.26-1.63-6.64-2.97-8.65-6.83-10.21-20.52-10.59-28.1-.98-1.91,2.43-3.3,9.34-3.74,9.63-.94.62-5.68,1.41-7.31,1.98-3.56,1.26-7.07,2.86-10.45,4.54-.53-1.15-4.99-2.66-5.49-2.19-.92.86-.6,5.5-1.12,6.11-3.31,2.25-6.62,4.62-9.64,7.24-1.45,1.26-3.63,4.17-4.94,4.97-.59.36-1.07-.86-2-.89-.23,0-3.66.44-3.81.56-.92.75,1.19,5.22,1.05,6.01-.13.69-5.96,9.11-6.96,11.02-.59,1.13-2.04,5.39-2.29,5.56-.25.16-4.75.73-5.74,1.23-.7,2.08,2.86,4.86,2.89,6.06.01.37-1.52,6.98-1.76,7.26-.02.03-.08.05-.15.06h-2.11c-1.33-.07-2.78-.18-2.93-.03,0,0,0,.02,0,.03h-3.62c-1.16,0-2.1.94-2.1,2.1v.66c-2.52-.24-13.29.46-15.17.11l12.77,11.91L0,103.4h15.17v.96c0,1.16.94,2.1,2.1,2.1h8.88c.39.98,1.8,7.25,1.76,7.63-.04.43-.9.28-1.21.73-.29.43-1.78,3.7-1.73,3.94.29,1.35,5.24,1.72,5.51,2.02,1.27,1.43,3.05,6.46,4.26,8.57.91,1.59,5.36,7.52,5.23,8.52-.08.64-.88,1.41-1.04,2.43-.09.57-.13,3.07-.02,3.18.6.59,5.84-.66,6.39-.33.74.43.96,1.55,1.49,2.04,2.7,2.47,5.86,5.35,8.77,7.49.82.61,4.09,2.27,4.24,2.48.18.25-.52,1.53-.44,2.41.04.44.91,3.78,1.05,3.93.55.56,5.39-2.3,6-2.24.82.08,3.81,2.02,5.04,2.52,1.68.68,3.78,1.49,5.49,2.06,1.68.56,7.37,1.39,7.79,2.67.27.83.02,2.06.33,3.15,5.26,18.33,31.52,14.81,32.93-4.03,3.13-.53,6.39-1.44,9.37-2.53,1.68-.61,8.86-4.35,9.62-3.8.13.09.01.78.5,1.02.42.2,4.08,1.34,4.24,1.18.54-.54,1.38-5.28.61-6.34,2.53-1.15,5.07-2.97,7.23-4.71,1.71-1.37,5.05-4.23,6.43-5.79.51-.58.83-1.67.9-1.73.26-.19,5.59,1.29,6.33.55.31-.31.15-4.99-1.06-5.62,1.95-3.89,4.89-7.5,6.98-11.41.84-1.57,1.53-4.58,2.51-5.67.31-.34,5.07-.57,5.49-2.05.2-.71-.75-2.79-1.21-3.37-.54-.69-1.68-.92-1.72-1.29-.04-.37,1.38-6.64,1.77-7.61h8.91c1.16,0,2.1-.94,2.1-2.1v-.96h15.15l-12.77-12.49ZM145.72,90.86c0,11.92-4.64,23.14-13.08,31.57-8.43,8.43-19.64,13.08-31.57,13.08s-23.14-4.64-31.57-13.08c-8.43-8.43-13.08-19.64-13.08-31.57s4.64-23.14,13.08-31.57c8.43-8.43,19.64-13.08,31.57-13.08s23.14,4.64,31.57,13.08c8.43,8.43,13.08,19.64,13.08,31.57ZM171.66,68.55c1.11.03,1.87,6.48,2.61,7.54-.49-.07-1.92-.02-3.23.03h-2.47s-.08-.02-.09-.04c-.1-.12-.01-1.3-.15-1.86-.22-.88-1.8-4.92-1.6-5.09.31-.28,1.78.63,2.58.59,1.03-.05,2.22-1.17,2.36-1.17ZM157.48,47.94c1.03-.24,2.38-2.04,2.56-2.04,1.32,0,8.59,13,9.33,15.07.17.47.48,1.4.24,1.74-.07.1-1.61.39-2.29.9-.84.64-1.07,2.39-1.75,1.74-.86-.82-2.65-5.77-3.59-7.45-2.01-3.6-4.54-6.88-6.86-10.27.8-.19,1.63.48,2.38.3ZM139.71,30.79c.67-.67.72-2.16.87-2.33.56-.63,5.84,3.44,6.67,4.08,1.36,1.06,8.64,7.26,8.4,8.35-.2.92-3.24,2.22-2.3,4.42-5.2-4.44-9.71-10.33-16.26-12.78.26-1.24,1.86-.97,2.62-1.73ZM117.93,18.58c.32-.44,7.71,2.04,8.86,2.47,1.26.47,8.51,3.45,8.52,4.21,0,.31-1.28,1.82-1.42,2.57-.15.79.44,1.57.29,2.38-5.48-2.85-11.28-5.35-17.43-6.39.59-.88,1.01-5.01,1.17-5.23ZM108.6,6.13c3.04,2.12,6,7.24,5.87,10.99-.02.72-1.03,5.31-1.26,5.47-.5.35-5.37-.21-5.75-.52-.25-.2,2.07-3.12,1.71-6.05-1.26-10.16-17.01-8.68-16.22,1.64.1,1.28,1.92,4.26,1.73,4.41-.38.32-5.49.86-5.77.54-.19-.21-1.15-4.97-1.17-5.53-.32-10.35,12.44-16.81,20.85-10.95ZM84.23,18.58c.16.22.57,4.34,1.17,5.23-6.15,1.04-11.95,3.54-17.43,6.39-.14-.81.44-1.58.29-2.38-.14-.75-1.42-2.26-1.42-2.57.02-1.31,16.83-7.43,17.39-6.68ZM46.74,40.07c.72-1.39,6.57-6.3,8.17-7.54.82-.64,6.11-4.71,6.67-4.08.15.17.21,1.66.87,2.33.75.76,2.36.49,2.62,1.73-6.41,2.56-11.11,8.36-16.26,12.78-.09-.82.16-1.76.02-2.53-.12-.65-3-.95-2.08-2.71ZM37.87,51.51c.55-.86,3.82-5.6,4.25-5.59.23,0,1.95,1.74,2.6,1.97.7.25,1.54-.43,2.33-.26-3.91,5.56-8.1,10.99-9.88,17.65-.62,2.32-1.32-1.23-1.43-1.39-.59-.88-2.95-.91-3.21-1.18-.7-.74,4.42-9.78,5.33-11.21ZM27.88,76.09c.76-1.11,1.49-7.49,2.61-7.54.13,0,1.33,1.11,2.36,1.17.78.04,2.34-.84,2.58-.59.42.42-2.16,5.38-1.74,5.81.27.28,3.1-1.09,3.48-1.45.87-.81,2.08-6,2.8-7.66,23.94-55.78,103.16-53.77,123.54,3.31.31.86,2.3,6.71,2.04,6.96-.01,0-.03.02-.05.03h-1.72c-.64-.09-1.25-.28-1.45-.58-.56-.86-1.52-5.53-2.14-7.15-19.44-50.98-91.54-54.45-115.76-5.65-1.75,3.53-2.98,9.77-4.45,12.39-.27.48-.71.75-1.13,1h-7.49s0-.01,0-.02h-3.48ZM15.13,80.96c-.06-.23-.03-.47.04-.71v.82s-.03-.07-.04-.11ZM29.63,113.28c-.07-.1,0-1.31-.14-1.88-.19-.79-1.51-4.16-1.62-4.93h5.77c-.07,1.41,2.04,6.52,1.79,6.81-.16.18-1.34-.94-2.02-.96-.72-.02-3.39,1.5-3.78.96ZM44.15,134.47c-.61.3-1.72,2.03-2.03,2.03-.72,0-6.84-10.08-7.58-11.59-.42-.85-1.84-3.84-1.95-4.48-.23-1.34,2.06-1.54,2.85-2.25.31-.27.95-2.56,1.73-1.43.06.09.14,1.44.46,2.15,2.41,5.28,5.41,10.79,9.42,14.99-.74.59-1.87.07-2.9.58ZM60.71,153.89c-.72-.02-10.04-7.76-11.34-8.95-.68-.62-3.02-2.73-2.86-3.43.14-.65,1.64-1.37,2.01-2.1.58-1.16-.38-2.73,1.44-2.32.43,2.13,2.78,3.3,4.06,4.95l11.05,8.41c-2.14-.86-3.55,3.47-4.35,3.45ZM84.92,160.73c-.17.79.11,3.11-.41,3.09-1.04-.03-4.67-1.19-5.96-1.59-1.98-.62-4.03-1.38-5.93-2.2-1.03-.44-4.71-1.92-5.23-2.32-1.48-1.12.55-1.96.93-3.18.28-.91-1.09-2.85.51-2.33,2.41.79,5.48,3.35,8.28,3.92l8.86,2.47c.12.1-.91,1.51-1.05,2.14ZM106.89,177.47c-10.4,4.4-20.8-3.71-19.05-14.98.06-.41.92-3.21,1.04-3.33.15-.14,1.92.53,2.59.6.75.07,3.06-.16,3.21-.01.21.2-1.73,3.52-1.78,4.95-.37,11.09,16.71,11.09,16.33,0-.07-2.05-1.36-3.16-1.78-4.95,3.88.63,6.25-2.51,6.93,2.66.78,5.92-1.75,12.63-7.51,15.06ZM134.76,157.71c-2.05,1.15-16.75,6.81-17.42,6.1-.19-.2.25-4.26-1.16-5.22l8.86-2.47c1.36-.18,8.76-4.31,9.14-3.93.21.22-.5,1.36-.45,1.95.12,1.37,2.6,2.42,1.03,3.56ZM68.36,148.6c-15.87-9.11-27-24.41-31.76-42.01.04-.05.12-.09.21-.13h3.28c.05.42.1,1.62.25,2.18,7.91,29.7,38.84,49.3,69.1,45.24,24.91-3.34,47.5-22.57,52.61-47.42h3.46c-3.86,14.68-12.09,27.7-24.07,37.01-20.77,16.14-50.22,18.25-73.08,5.13ZM155.65,141.96c-.14.63-6.72,6.45-7.82,7.32-.83.66-5.99,4.64-6.38,4.65-.41,0-2.32-4.37-4.35-3.48l7.25-5.23,9.01-8.13c-1,2.12,2.53,3.82,2.3,4.87ZM160.04,136.5c-.31,0-1.41-1.71-2.04-2.03-1.06-.53-2.63.28-2.32-1.16,3.73-4.21,6.47-9.35,8.83-14.41.22-.47.6-3.43,1.61-2.15.19.24-.02,1.06.92,1.69.83.55,2.44.54,2.58.64,1.39,1.05-8.58,17.42-9.59,17.42ZM172.53,113.27c-.4.53-3.06-.98-3.78-.96-.69.02-1.87,1.14-2.02.96-.25-.29,1.86-5.4,1.79-6.81h5.65c-.9,1.44-1.14,6.16-1.64,6.81ZM187,95.84v-.93s.02.06.03.1c.06.22.04.5-.03.83Z"/><rect class="uuid-2c13f20e-ef7d-4bc7-bf03-ed9e0c01d3c0" x="53.47" y="126.81" width="95.21" height="45.7" rx="7.52" ry="7.52"/><rect class="uuid-2c13f20e-ef7d-4bc7-bf03-ed9e0c01d3c0" x="9.84" y="164.23" width="182.48" height="45.7" rx="7.05" ry="7.05"/><path class="uuid-f378697f-4cf7-4468-a1a7-5ea346b3d3db" d="M67.62,134.36h14.69v5.88h-7.89v6.88h6.2v4.5h-6.2v7.07h8.22v5.88h-15.01v-30.2Z"/><path class="uuid-f378697f-4cf7-4468-a1a7-5ea346b3d3db" d="M85.06,134.36h8.77c6.47,0,9.46,3.4,9.46,10.92s-2.71,10.79-8.67,10.79h-2.75v8.49h-6.79v-30.2ZM94.15,151.2c1.93,0,2.8-1.7,2.8-5.42s-.96-5.55-3.08-5.55h-2.02v10.97h2.29Z"/><path class="uuid-f378697f-4cf7-4468-a1a7-5ea346b3d3db" d="M106.22,134.36h6.79v30.2h-6.79v-30.2Z"/><path class="uuid-f378697f-4cf7-4468-a1a7-5ea346b3d3db" d="M116.13,149.46c0-10.6,3.08-15.47,9.73-15.47,6.2,0,9.04,3.49,9.04,11.06,0,.87-.05,2.2-.09,3.08h-5.78c.05-1.1.05-2.07.05-2.75,0-3.95-.87-5.51-2.71-5.51-2.29,0-3.3,2.43-3.3,9.59s1.01,9.59,3.44,9.59c1.7,0,2.62-1.38,2.62-5.32,0-.64-.05-1.56-.09-2.16h5.83c.05.55.09,1.42.09,2.29,0,7.16-2.89,11.06-9.13,11.06s-9.68-5.05-9.68-15.47Z"/><path class="uuid-f378697f-4cf7-4468-a1a7-5ea346b3d3db" d="M23.18,191.24v-20.29h6.79v20.29c0,2.75,1.06,4.22,3.08,4.22s2.94-1.47,2.94-4.22v-20.29h5.88v20.29c0,6.75-3.21,10.28-9.32,10.28s-9.36-3.53-9.36-10.28Z"/><path class="uuid-f378697f-4cf7-4468-a1a7-5ea346b3d3db" d="M45.11,170.96h9.36l5.65,19.05h.05l-.69-19.05h6.24v30.2h-7.57l-7.34-22.44h-.05l.6,22.44h-6.24v-30.2Z"/><path class="uuid-f378697f-4cf7-4468-a1a7-5ea346b3d3db" d="M69.25,170.96h6.79v30.2h-6.79v-30.2Z"/><path class="uuid-f378697f-4cf7-4468-a1a7-5ea346b3d3db" d="M78.66,170.96h7.89l3.86,23.27h.18l3.72-23.27h6.98l-6.88,30.2h-8.9l-6.84-30.2Z"/><path class="uuid-f378697f-4cf7-4468-a1a7-5ea346b3d3db" d="M103.72,170.96h14.69v5.88h-7.89v6.88h6.2v4.5h-6.2v7.07h8.22v5.88h-15.01v-30.2Z"/><path class="uuid-f378697f-4cf7-4468-a1a7-5ea346b3d3db" d="M121.15,170.96h9.18c6.84,0,9.96,2.8,9.96,8.9,0,4.13-1.1,6.33-3.99,7.21v.05c2.85.64,3.99,2.48,3.99,5.32v8.72h-6.84v-8.49c0-1.97-.92-2.85-2.94-2.85h-2.57v11.34h-6.79v-30.2ZM130.33,185.51c2.25,0,3.3-1.29,3.3-4.41s-1.06-4.27-3.4-4.27h-2.29v8.67h2.39Z"/><path class="uuid-f378697f-4cf7-4468-a1a7-5ea346b3d3db" d="M143.09,190.6h6.01c0,4.36.78,5.6,3.21,5.6,1.97,0,2.8-1.15,2.8-3.08,0-1.61-.41-2.29-1.15-2.85-.6-.46-1.74-.96-3.95-1.79-2.02-.73-3.67-1.61-4.64-2.52-1.38-1.15-2.34-3.35-2.34-6.38,0-5.46,3.44-9,9.27-9,6.79,0,8.95,3.3,8.95,11.15h-5.92c0-4.77-.78-5.83-2.89-5.83-1.61,0-2.62,1.15-2.62,3.03s.41,2.57,1.06,3.12,2.16,1.19,4.04,1.93c2.16.83,3.4,1.42,4.59,2.43,1.51,1.29,2.39,3.44,2.39,6.2,0,5.37-3.3,8.9-9.59,8.9-7.44,0-9.23-4.27-9.23-10.92Z"/><path class="uuid-f378697f-4cf7-4468-a1a7-5ea346b3d3db" d="M164.8,170.96h14.69v5.88h-7.89v6.88h6.2v4.5h-6.2v7.07h8.22v5.88h-15.01v-30.2Z"/></g></svg>