<?xml version="1.0" encoding="UTF-8"?><svg id="uuid-2fe5e6d9-b1a7-49d7-acd1-f53eb4b62b13" xmlns="http://www.w3.org/2000/svg" viewBox="0 0 220.77 199.36"><defs><style>.uuid-970a189f-7d40-444e-90c9-23fc47d0ba77{fill:#f7f3eb;}.uuid-9e2f2f7f-251f-4317-b6f8-56c849fb3028{fill:#ff7345;}</style></defs><g id="uuid-645bca67-52af-4e8e-8cfc-169b545fd603"><g id="uuid-3612f4d1-fff9-443b-9bc5-17f33a4ad6a9"><path class="uuid-9e2f2f7f-251f-4317-b6f8-56c849fb3028" d="M162.3,44.85c.06,0,.67.43.73.53l12.83,76.67c.18,2.43-1.75,4.95-4.17,5.31l-114.17,18.81c-2.2-.46-3.91-1.75-4.52-3.99l-12.48-75.33c-1.48-4.75-4.93-9.62-6.4-14.25-.15-.47-.35-1.28-.06-1.71s4.44-2.2,5.27-2.59C74.51,31.85,110.25,16.56,145.45.14c.53-.13,1.33-.32,1.69.19l6.97,15.22-.35,1.05L52.46,62.69l-.52.45,110.37-18.29ZM145.83,17.48l-10.97-9.54-13.23,6.14,10.93,9.27,13.28-5.87ZM119.25,29.62l-10.98-9.55-13.28,5.83,10.97,9.55,13.29-5.84ZM92.64,41.56l-11.01-9.46-13.21,5.95,10.95,9.54,13.28-6.04ZM66.06,53.7l-11.16-9.5-13.25,6.13,10.93,9.27,13.49-5.9ZM69.09,62.88l-14.12,2.34-3.99,14.2,14.12-2.34,3.99-14.2ZM97.96,58.09l-14.12,2.34-3.99,14.2,14.12-2.34,3.99-14.2ZM126.84,53.31l-14.12,2.34-3.99,14.2,14.12-2.34,3.99-14.2ZM155.71,48.52l-14.12,2.34-3.99,14.2,14.12-2.34,3.99-14.2Z"/></g><rect class="uuid-9e2f2f7f-251f-4317-b6f8-56c849fb3028" x="0" y="116.25" width="220.77" height="45.7" rx="4.51" ry="4.51"/><rect class="uuid-9e2f2f7f-251f-4317-b6f8-56c849fb3028" x="31.28" y="153.67" width="158.2" height="45.7" rx="5.79" ry="5.79"/><path class="uuid-970a189f-7d40-444e-90c9-23fc47d0ba77" d="M10.53,123.8h6.79v11.8h6.61v-11.8h6.79v30.2h-6.79v-12.62h-6.61v12.62h-6.79v-30.2Z"/><path class="uuid-970a189f-7d40-444e-90c9-23fc47d0ba77" d="M33.66,138.76c0-10.51,3.21-15.33,10.24-15.33s10.19,4.82,10.19,15.33-3.21,15.61-10.19,15.61-10.24-4.91-10.24-15.61ZM47.15,138.76c0-6.47-1.01-9.46-3.26-9.46s-3.26,2.98-3.26,9.46,1.01,9.73,3.26,9.73,3.26-3.08,3.26-9.73Z"/><path class="uuid-970a189f-7d40-444e-90c9-23fc47d0ba77" d="M57.01,123.8h6.79v24.33h6.75v5.88h-13.54v-30.2Z"/><path class="uuid-970a189f-7d40-444e-90c9-23fc47d0ba77" d="M72.98,123.8h6.79v24.33h6.75v5.88h-13.54v-30.2Z"/><path class="uuid-970a189f-7d40-444e-90c9-23fc47d0ba77" d="M95.56,143.16l-7.53-19.37h8.35l3.17,12.48h.14l3.12-12.48h7.07l-7.53,19.37v10.83h-6.79v-10.83Z"/><path class="uuid-970a189f-7d40-444e-90c9-23fc47d0ba77" d="M111.39,123.8h7.53l2.52,20.61h.14l2.8-20.65h6.61l2.8,20.65h.18l2.43-20.61h6.75l-5.55,30.2h-7.8l-2.48-18.96h-.18l-2.75,18.96h-7.48l-5.51-30.2Z"/><path class="uuid-970a189f-7d40-444e-90c9-23fc47d0ba77" d="M145.17,138.76c0-10.51,3.21-15.33,10.24-15.33s10.19,4.82,10.19,15.33-3.21,15.61-10.19,15.61-10.24-4.91-10.24-15.61ZM158.66,138.76c0-6.47-1.01-9.46-3.26-9.46s-3.26,2.98-3.26,9.46,1.01,9.73,3.26,9.73,3.26-3.08,3.26-9.73Z"/><path class="uuid-970a189f-7d40-444e-90c9-23fc47d0ba77" d="M168.12,138.76c0-10.51,3.21-15.33,10.24-15.33s10.19,4.82,10.19,15.33-3.21,15.61-10.19,15.61-10.24-4.91-10.24-15.61ZM181.61,138.76c0-6.47-1.01-9.46-3.26-9.46s-3.26,2.98-3.26,9.46,1.01,9.73,3.26,9.73,3.26-3.08,3.26-9.73Z"/><path class="uuid-970a189f-7d40-444e-90c9-23fc47d0ba77" d="M191.47,123.8h8.35c7.76,0,10.83,4.27,10.83,15.01s-2.94,15.19-10.24,15.19h-8.95v-30.2ZM200.29,148.12c2.57,0,3.53-2.66,3.53-9.32s-1.01-9.13-3.76-9.13h-1.79v18.45h2.02Z"/><path class="uuid-970a189f-7d40-444e-90c9-23fc47d0ba77" d="M42.4,180.04h6.01c0,4.36.78,5.6,3.21,5.6,1.97,0,2.8-1.15,2.8-3.08,0-1.61-.41-2.29-1.15-2.85-.6-.46-1.74-.96-3.95-1.79-2.02-.73-3.67-1.61-4.64-2.52-1.38-1.15-2.34-3.35-2.34-6.38,0-5.46,3.44-9,9.27-9,6.79,0,8.95,3.3,8.95,11.15h-5.92c0-4.77-.78-5.83-2.89-5.83-1.61,0-2.62,1.15-2.62,3.03s.41,2.57,1.06,3.12,2.16,1.19,4.04,1.93c2.16.83,3.4,1.42,4.59,2.43,1.51,1.29,2.39,3.44,2.39,6.2,0,5.37-3.3,8.9-9.59,8.9-7.44,0-9.23-4.27-9.23-10.92Z"/><path class="uuid-970a189f-7d40-444e-90c9-23fc47d0ba77" d="M68.28,166.27h-5.19v-5.88h17.12v5.88h-5.14v24.33h-6.79v-24.33Z"/><path class="uuid-970a189f-7d40-444e-90c9-23fc47d0ba77" d="M82.51,180.68v-20.29h6.79v20.29c0,2.75,1.06,4.22,3.08,4.22s2.94-1.47,2.94-4.22v-20.29h5.88v20.29c0,6.75-3.21,10.28-9.32,10.28s-9.36-3.53-9.36-10.28Z"/><path class="uuid-970a189f-7d40-444e-90c9-23fc47d0ba77" d="M104.44,160.39h8.35c7.76,0,10.83,4.27,10.83,15.01s-2.94,15.19-10.24,15.19h-8.95v-30.2ZM113.25,184.72c2.57,0,3.53-2.66,3.53-9.32s-1.01-9.13-3.76-9.13h-1.79v18.45h2.02Z"/><path class="uuid-970a189f-7d40-444e-90c9-23fc47d0ba77" d="M126.75,160.39h6.79v30.2h-6.79v-30.2Z"/><path class="uuid-970a189f-7d40-444e-90c9-23fc47d0ba77" d="M136.66,175.36c0-10.51,3.21-15.33,10.24-15.33s10.19,4.82,10.19,15.33-3.21,15.61-10.19,15.61-10.24-4.91-10.24-15.61ZM150.15,175.36c0-6.47-1.01-9.46-3.26-9.46s-3.26,2.98-3.26,9.46,1.01,9.73,3.26,9.73,3.26-3.08,3.26-9.73Z"/><path class="uuid-970a189f-7d40-444e-90c9-23fc47d0ba77" d="M159.6,180.04h6.01c0,4.36.78,5.6,3.21,5.6,1.97,0,2.8-1.15,2.8-3.08,0-1.61-.41-2.29-1.15-2.85-.6-.46-1.74-.96-3.95-1.79-2.02-.73-3.67-1.61-4.64-2.52-1.38-1.15-2.34-3.35-2.34-6.38,0-5.46,3.44-9,9.27-9,6.79,0,8.95,3.3,8.95,11.15h-5.92c0-4.77-.78-5.83-2.89-5.83-1.61,0-2.62,1.15-2.62,3.03s.41,2.57,1.06,3.12,2.16,1.19,4.04,1.93c2.16.83,3.4,1.42,4.59,2.43,1.51,1.29,2.39,3.44,2.39,6.2,0,5.37-3.3,8.9-9.59,8.9-7.44,0-9.23-4.27-9.23-10.92Z"/></g></svg>