<?xml version="1.0" encoding="UTF-8"?><svg id="uuid-e4276e87-a090-49d1-8fba-9293d43581f1" xmlns="http://www.w3.org/2000/svg" viewBox="0 0 214 236.68"><defs><style>.uuid-bbe4fb06-6cec-4345-b602-d2675caea29c{fill:#006eff;}.uuid-91cfdf93-d1f4-4638-ad65-5d629e75bd54{fill:#f7f3eb;}</style></defs><g id="uuid-e229bde9-b7a6-434a-a587-428d5f0c24e5"><g id="uuid-6c18e06e-0a4e-43d8-8473-5c6d97ed680d"><path class="uuid-bbe4fb06-6cec-4345-b602-d2675caea29c" d="M108.27.75l8.88,38.95c12.51,1.85,23.93,7.52,33.62,15.46l16.53-10.37c.61-.38,1.32.32.93.93l-10.42,16.59c6.21,7.47,10.93,15.79,13.66,25.16.59,2.04,1.79,5.99,1.82,7.97.01.69.08.43-.33.33-3.23-.74-6.48-1.45-9.72-2.12-2.95-9.66-7.17-19.31-14.1-26.78-10.8-11.65-26.83-18.61-42.77-18.62V.96c0-1.15,1.65-1.33,1.9-.21Z"/><path class="uuid-bbe4fb06-6cec-4345-b602-d2675caea29c" d="M106.37,220.92l-10.78-47.29c-12.46-1.84-23.98-7.49-33.56-15.52l-19.1,11.99,11.94-19.04c-5.53-6.91-10.21-14.54-12.98-23-.27-.83-3.04-10.69-2.27-10.67l9.88,2.27c4.76,17.25,16.42,33.32,33.09,40.61,7.5,3.28,15.62,4.48,23.78,4.78v55.87Z"/><path class="uuid-bbe4fb06-6cec-4345-b602-d2675caea29c" d="M95.64,39.75l-2.52,9.94c-26.04,6.12-45.34,30.05-45.13,56.97H.96c-1.15,0-1.33-1.65-.21-1.91l38.56-8.82c2.18-12.41,7.52-24.01,15.62-33.62l-10.15-16.32c-.38-.61.32-1.31.93-.93l16.32,10.15c9.6-7.94,21.18-13.65,33.61-15.47Z"/><path class="uuid-bbe4fb06-6cec-4345-b602-d2675caea29c" d="M211.72,108.56l-38.43,8.52c-1.7,12.55-7.51,24.22-15.47,33.91l11.67,18.79-18.79-11.67c-9.64,7.86-21.03,13.6-33.44,15.47l2.07-10.08c26.2-5.46,45.66-30.08,45.43-56.84h46.75c1.15,0,1.33,1.66.21,1.9Z"/></g><g id="uuid-9440057a-bec8-48f1-a386-2d6251d4693b"><path class="uuid-bbe4fb06-6cec-4345-b602-d2675caea29c" d="M104.91,54.24c43.72-.91,70.04,48.82,43.99,84.25-24.24,32.97-75.35,27.05-91.38-10.5-14.66-34.36,10.2-72.97,47.39-73.74ZM103.94,59.51c-7.7,1.57-12.13,9.65-15.04,16.31h15.04v-16.31ZM123.57,75.82c-2.97-6.64-7.33-14.71-15.04-16.31v16.31h15.04ZM69.79,75.82h14.02c1.42-4.08,3.49-8.19,6.02-11.69.59-.82,1.35-1.47,1.89-2.19.15-.2.51-.44.12-.64-8.52,2.69-16.34,7.67-22.04,14.53ZM142.68,75.82c-5.79-6.8-13.48-11.87-22.04-14.53-.39.2-.03.44.12.64.58.77,1.38,1.46,2,2.34,2.47,3.49,4.48,7.52,5.91,11.55h14.02ZM82.02,80.66h-15.93c-2.98,4.22-4.91,9.07-6.4,14l.28.53h19.24l2.8-14.53ZM84.06,95.19h19.5l.38-.38v-13.76l-.38-.38h-16.44l-3.06,14.53ZM125.35,80.66h-16.44l-.38.38v13.76l.38.38h19.5l-3.06-14.53ZM133.25,95.19h19.24l.28-.53c-1.47-4.94-3.44-9.77-6.4-14h-15.93l2.8,14.53ZM78.71,100.03h-20.13c-.58,4.82-.58,9.45,0,14.27h20.13v-14.27ZM103.94,100.03h-20.39v14.27h20.39v-14.27ZM128.92,100.03h-20.39v14.27h20.39v-14.27ZM153.89,100.03h-20.13v14.27h20.13c.58-4.82.58-9.45,0-14.27ZM79.22,119.14h-19.24l-.28.53c1.45,4.95,3.47,9.75,6.4,14h15.93l-2.8-14.53ZM87.12,133.67h16.44l.38-.38v-13.76l-.38-.38h-19.5l3.06,14.53ZM128.41,119.14h-19.5l-.38.38v13.76l.38.38h16.44l3.06-14.53ZM130.45,133.67h15.93c2.9-4.27,4.93-9.05,6.4-14l-.28-.53h-19.24l-2.8,14.53ZM83.81,138.51h-14.02c4.55,5.25,10.13,9.55,16.47,12.45,1.13.52,4.26,1.92,5.31,2.08.15.02.42.07.38-.13-3.59-4.23-6.31-9.17-8.15-14.4ZM103.94,138.51h-15.04c2.9,6.57,7.36,14.89,15.04,16.31v-16.31ZM123.57,138.51h-15.04v16.31c7.7-1.48,12.1-9.74,15.04-16.31ZM142.68,138.51h-14.02c-1.87,5.23-4.57,10.15-8.15,14.4-.06.18.2.16.38.13,1.26-.22,4.51-1.72,5.82-2.33,6.14-2.87,11.54-7.1,15.96-12.2Z"/></g><rect class="uuid-bbe4fb06-6cec-4345-b602-d2675caea29c" x=".86" y="153.56" width="213.13" height="45.7" rx="6.91" ry="6.91"/><rect class="uuid-bbe4fb06-6cec-4345-b602-d2675caea29c" x="3.68" y="190.98" width="207.49" height="45.7" rx="5.22" ry="5.22"/><path class="uuid-91cfdf93-d1f4-4638-ad65-5d629e75bd54" d="M13.84,161.11h6.79v30.2h-6.79v-30.2Z"/><path class="uuid-91cfdf93-d1f4-4638-ad65-5d629e75bd54" d="M23.75,180.75h6.01c0,4.36.78,5.6,3.21,5.6,1.97,0,2.8-1.15,2.8-3.08,0-1.61-.41-2.29-1.15-2.85-.6-.46-1.74-.96-3.95-1.79-2.02-.73-3.67-1.61-4.64-2.52-1.38-1.15-2.34-3.35-2.34-6.38,0-5.46,3.44-9,9.27-9,6.79,0,8.95,3.3,8.95,11.15h-5.92c0-4.77-.78-5.83-2.89-5.83-1.61,0-2.62,1.15-2.62,3.03s.41,2.57,1.06,3.12,2.16,1.19,4.04,1.93c2.16.83,3.4,1.42,4.59,2.43,1.51,1.29,2.39,3.44,2.39,6.2,0,5.37-3.3,8.9-9.59,8.9-7.44,0-9.23-4.27-9.23-10.92Z"/><path class="uuid-91cfdf93-d1f4-4638-ad65-5d629e75bd54" d="M45.46,161.11h6.79v24.33h6.75v5.88h-13.54v-30.2Z"/><path class="uuid-91cfdf93-d1f4-4638-ad65-5d629e75bd54" d="M74.41,185.44h-5.97l-.96,5.88h-6.93l6.88-30.2h9l6.98,30.2h-8.08l-.92-5.88ZM73.68,180.8l-2.16-13.49h-.18l-2.16,13.49h4.5Z"/><path class="uuid-91cfdf93-d1f4-4638-ad65-5d629e75bd54" d="M85.84,161.11h9.36l5.65,19.05h.05l-.69-19.05h6.24v30.2h-7.57l-7.34-22.44h-.05l.6,22.44h-6.24v-30.2Z"/><path class="uuid-91cfdf93-d1f4-4638-ad65-5d629e75bd54" d="M109.79,161.11h8.35c7.76,0,10.83,4.27,10.83,15.01s-2.94,15.19-10.24,15.19h-8.95v-30.2ZM118.61,185.44c2.57,0,3.53-2.66,3.53-9.32s-1.01-9.13-3.76-9.13h-1.79v18.45h2.02Z"/><path class="uuid-91cfdf93-d1f4-4638-ad65-5d629e75bd54" d="M131.5,180.75h6.01c0,4.36.78,5.6,3.21,5.6,1.97,0,2.8-1.15,2.8-3.08,0-1.61-.41-2.29-1.15-2.85-.6-.46-1.74-.96-3.95-1.79-2.02-.73-3.67-1.61-4.64-2.52-1.38-1.15-2.34-3.35-2.34-6.38,0-5.46,3.44-9,9.27-9,6.79,0,8.95,3.3,8.95,11.15h-5.92c0-4.77-.78-5.83-2.89-5.83-1.61,0-2.62,1.15-2.62,3.03s.41,2.57,1.06,3.12,2.16,1.19,4.04,1.93c2.16.83,3.4,1.42,4.59,2.43,1.51,1.29,2.39,3.44,2.39,6.2,0,5.37-3.3,8.9-9.59,8.9-7.44,0-9.23-4.27-9.23-10.92Z"/><path class="uuid-91cfdf93-d1f4-4638-ad65-5d629e75bd54" d="M164.4,176.07c0-10.51,3.21-15.33,10.24-15.33s10.19,4.82,10.19,15.33-3.21,15.61-10.19,15.61-10.24-4.91-10.24-15.61ZM177.89,176.07c0-6.47-1.01-9.46-3.26-9.46s-3.26,2.98-3.26,9.46,1.01,9.73,3.26,9.73,3.26-3.08,3.26-9.73Z"/><path class="uuid-91cfdf93-d1f4-4638-ad65-5d629e75bd54" d="M187.76,161.11h14.46v5.88h-7.67v7.48h6.29v4.87h-6.29v11.98h-6.79v-30.2Z"/><path class="uuid-91cfdf93-d1f4-4638-ad65-5d629e75bd54" d="M26,222.03h-5.97l-.96,5.88h-6.93l6.88-30.2h9l6.98,30.2h-8.08l-.92-5.88ZM25.26,217.4l-2.16-13.49h-.18l-2.16,13.49h4.5Z"/><path class="uuid-91cfdf93-d1f4-4638-ad65-5d629e75bd54" d="M37.42,197.71h8.35c7.76,0,10.83,4.27,10.83,15.01s-2.94,15.19-10.24,15.19h-8.95v-30.2ZM46.23,222.03c2.57,0,3.53-2.66,3.53-9.32s-1.01-9.13-3.76-9.13h-1.79v18.45h2.02Z"/><path class="uuid-91cfdf93-d1f4-4638-ad65-5d629e75bd54" d="M58.62,197.71h7.89l3.86,23.27h.18l3.72-23.27h6.98l-6.88,30.2h-8.9l-6.84-30.2Z"/><path class="uuid-91cfdf93-d1f4-4638-ad65-5d629e75bd54" d="M83.68,197.71h14.69v5.88h-7.89v6.88h6.2v4.5h-6.2v7.07h8.22v5.88h-15.01v-30.2Z"/><path class="uuid-91cfdf93-d1f4-4638-ad65-5d629e75bd54" d="M101.12,197.71h9.36l5.65,19.05h.05l-.69-19.05h6.24v30.2h-7.57l-7.34-22.44h-.05l.6,22.44h-6.24v-30.2Z"/><path class="uuid-91cfdf93-d1f4-4638-ad65-5d629e75bd54" d="M129.25,203.58h-5.19v-5.88h17.12v5.88h-5.14v24.33h-6.79v-24.33Z"/><path class="uuid-91cfdf93-d1f4-4638-ad65-5d629e75bd54" d="M143.47,217.99v-20.29h6.79v20.29c0,2.75,1.06,4.22,3.08,4.22s2.94-1.47,2.94-4.22v-20.29h5.88v20.29c0,6.75-3.21,10.28-9.32,10.28s-9.36-3.53-9.36-10.28Z"/><path class="uuid-91cfdf93-d1f4-4638-ad65-5d629e75bd54" d="M165.41,197.71h9.18c6.84,0,9.96,2.8,9.96,8.9,0,4.13-1.1,6.33-3.99,7.21v.05c2.85.64,3.99,2.48,3.99,5.32v8.72h-6.84v-8.49c0-1.97-.92-2.85-2.94-2.85h-2.57v11.34h-6.79v-30.2ZM174.59,212.26c2.25,0,3.3-1.29,3.3-4.41s-1.06-4.27-3.4-4.27h-2.29v8.67h2.39Z"/><path class="uuid-91cfdf93-d1f4-4638-ad65-5d629e75bd54" d="M187.76,197.71h14.69v5.88h-7.89v6.88h6.2v4.5h-6.2v7.07h8.22v5.88h-15.01v-30.2Z"/></g></svg>