<?xml version="1.0" encoding="UTF-8"?><svg id="uuid-5bdf37d8-4e9f-41f1-82af-70936135117b" xmlns="http://www.w3.org/2000/svg" viewBox="0 0 258.93 67.34"><defs><style>.uuid-c5a7c025-e5c6-4e02-add7-09f8883d58bf{fill:none;stroke:#006eff;stroke-linecap:round;stroke-linejoin:round;stroke-width:2.76px;}.uuid-90e7260d-057f-428c-a6ec-4d56b8c6a451{fill:#006eff;}.uuid-c2ce0760-86f3-4350-97a2-87bd56d4dfbc{fill:#f7f3eb;}</style></defs><g id="uuid-93a394fe-e160-49f6-be63-a2579e67783b"><rect class="uuid-90e7260d-057f-428c-a6ec-4d56b8c6a451" x="0" y="0" width="258.93" height="67.34" rx="33.67" ry="33.67"/><circle class="uuid-c2ce0760-86f3-4350-97a2-87bd56d4dfbc" cx="224.04" cy="33.48" r="26.17"/><path class="uuid-c2ce0760-86f3-4350-97a2-87bd56d4dfbc" d="M26.16,16.19h7.68v27.5h7.63v6.64h-15.3V16.19Z"/><path class="uuid-c2ce0760-86f3-4350-97a2-87bd56d4dfbc" d="M44.21,16.19h7.68v27.5h7.63v6.64h-15.3V16.19Z"/><path class="uuid-c2ce0760-86f3-4350-97a2-87bd56d4dfbc" d="M62.26,16.19h16.6v6.64h-8.92v7.78h7v5.08h-7v7.99h9.29v6.64h-16.96V16.19Z"/><path class="uuid-c2ce0760-86f3-4350-97a2-87bd56d4dfbc" d="M102.99,50.33h-6.02c0-.05.21-2.28.21-4.77h-.05c-.73,3.58-2.65,5.19-6.07,5.19-6.54,0-9.55-5.34-9.55-17.07s3.53-17.9,11.26-17.9c6.95,0,10.12,3.74,10.12,11.93,0,1.09-.05,2.49-.1,3.22h-6.54c.05-1.14.05-2.23.05-2.75,0-3.94-.99-5.76-3.16-5.76-2.65,0-3.84,3.58-3.84,11.36,0,7.21,1.14,10.53,3.68,10.53,2.13,0,3.11-1.76,3.11-5.65v-.67h-3.48v-4.77h10.38v17.12Z"/><path class="uuid-c2ce0760-86f3-4350-97a2-87bd56d4dfbc" d="M121.19,43.69h-6.75l-1.09,6.64h-7.83l7.78-34.14h10.17l7.89,34.14h-9.13l-1.04-6.64ZM120.36,38.44l-2.44-15.25h-.21l-2.44,15.25h5.08Z"/><path class="uuid-c2ce0760-86f3-4350-97a2-87bd56d4dfbc" d="M134.11,16.19h9.44c8.77,0,12.24,4.82,12.24,16.96s-3.32,17.17-11.57,17.17h-10.12V16.19ZM144.07,43.69c2.91,0,4-3.01,4-10.53s-1.14-10.32-4.25-10.32h-2.02v20.86h2.28Z"/><path class="uuid-c2ce0760-86f3-4350-97a2-87bd56d4dfbc" d="M172.29,43.69h-6.75l-1.09,6.64h-7.83l7.78-34.14h10.17l7.89,34.14h-9.13l-1.04-6.64ZM171.46,38.44l-2.44-15.25h-.21l-2.44,15.25h5.08Z"/><g id="uuid-c96c0853-6906-4ee5-bcc5-59af181e1ee6"><path class="uuid-90e7260d-057f-428c-a6ec-4d56b8c6a451" d="M228.81,37.66l-14.5,6.61c-.21.04-.57-.12-.75-.24-.46-.31-2.22-1.81-2.29-2.26l.08-.26,7.69-6.46c.22-.18.15-.53-.12-.62l-6.01-1.92c-1.26-.4-2.46-.99-3.55-1.73l-2.84-1.94c-.17-.19-.12-.54-.11-.79.06-1.81.48-5.93.89-7.64.13-.54.11-.73.75-.76.2,0,1.84.19,1.99.25.16.06.3.13.41.27l1.5,5.16c.12.43.47.76.91.85l6.9,1.55c.21.05.4-.14.36-.35-.3-1.39-1.44-5.69-1.8-7.87-.3-1.83,1.8-.72,2.98-.43.25.06.47.21.6.42l6.31,9.96c.11.18.28.33.48.39,2.88.83,5.67,1.46,8.31,2.42,2.15.78,4,2.55,5.15,4.51.45.76.85,1.62.47,2.49-.75,1.73-2.32,1.52-3.9,1.27l-9.23-2.93c-.23-.07-.47-.06-.68.04Z"/></g><line class="uuid-c5a7c025-e5c6-4e02-add7-09f8883d58bf" x1="209.3" y1="49.47" x2="238.78" y2="49.47"/></g></svg>