<?xml version="1.0" encoding="UTF-8"?><svg id="uuid-916b3e1f-1c56-4434-8fe2-74d3ce79d471" xmlns="http://www.w3.org/2000/svg" viewBox="0 0 183.5 248.31"><defs><style>.uuid-5076cef6-0487-417a-9753-ab9520962d57{fill:#f7f3eb;}.uuid-a002e5a1-41d5-4e71-8d5a-5aa9de937647{fill:#ff7345;}</style></defs><g id="uuid-f74ea526-495f-4c0e-a4f5-0f7f7e59f5ac"><g id="uuid-93fa1581-cd00-4caa-a531-a0a23a989b9c"><path class="uuid-a002e5a1-41d5-4e71-8d5a-5aa9de937647" d="M101.94,0v11.77l6.09,20.5c-.4.67-.77.1-1.38.14v3.88h1.39v4.16h-1.39v58.45h2.49v-5.54c-.43-.1-1.54.34-1.37-.4l4.3-15.67c-1.52-.82-2.46-2.07-1.14-3.62,2.31-2.71,5.99,2.25,1.87,3.74l4.65,15.81-1.66.14v5.54h3.88v-11.91h-1.39v-4.43h1.39v-8.59c-.44-.14-2.44.38-2.21-.4,1.5-5.06,5.14-10.55,6.73-15.72-.02-4.55,0,0-.05-4.55l-8.97-3.56,9.76-3.47v11.22l6.92,16.48h-2.22v8.59h1.39v4.43h-1.39v12.88l9.42,6.65-2.23.58.29,10.36h3.88v-9.14l4.72-.12,4.66-9.81c-2.29-.74-1.68-4.16.73-4.16,2.29,0,3.05,3.44.73,4.16l4.68,9.93h4.7s0,14.13,0,14.13h-4.99l6.21,45.43h-61.34v-22.02c0-3.37-3.59-7.48-6.71-8.53-5.93-2-13.24,2.47-13.24,8.8v21.75H21.45l4.59-45.43h-4.99v-13.83l4.67-.06,5.02-10.07c-4.99-2.31,1.95-6.74,2.49-2.47.25,2-1.05,1.88-1.34,2.37-.38.65,4.32,8.56,4.69,9.99l4.55-.03.13,9.11h3.88l.29-10.37-2.23-.57,9.42-6.65v-12.88h-1.39v-4.43h1.39v-8.59c-.52-.16-2.34.42-2.22-.41l6.75-15.72.09-4.25-9.33-3.58,9.97-3.74v11.22l6.9,16.1c.17.78-1.71.22-2.19.38v8.59h1.39v4.43h-1.39v11.91h3.88v-5.54l-1.66-.14,4.68-15.8c-5.48-2.93,2.06-6.89,2.47-2.42.14,1.56-1.88,1.97-1.85,2.64l4.38,15.31c.17.74-.94.3-1.37.4v5.54h2.49v-42.66h-1.39v-4.43h1.39s0-3.6,0-3.6c-.42-.11-1.53.35-1.36-.38,1.53-6.68,4.41-13.6,6-20.32l.08-4.89-9.16-3.35,9.69-3.88v11.63s6.1,20.79,6.1,20.79c.21.81-1.2.22-1.38.41v3.6s1.39,0,1.39,0v4.43h-1.39v13.02l5.2-14.56c-1.48-1.01-2.76-2.31-1.05-3.88,2.69-2.47,5.47,2.56,1.71,3.89l5.23,14.27v-28.12l-1.4-.57.02-4.28.93.27c.68-.19,1.06-4.97-.93-3.59l.02-.67c1.22-6.48,5.1-14.26,6.01-20.59.2-1.4-.01-2.9.08-4.32l-9.43-3.78,9.97-3.33ZM90.31,92.81h-4.43v7.21h4.43v-7.21ZM96.4,92.81h-4.43l.02,7.21h4.41v-7.21ZM90.31,101.12h-4.43v7.2h4.43v-7.2ZM96.4,101.12h-4.43v7.2h4.43v-7.2ZM58.45,116.91h-4.43v6.09h4.43v-6.09ZM128.26,123l-.06-6.09h-4.38v6.09h4.43ZM58.45,127.99h-4.41c-.13,6.09,0,0-.14,6.09h4.55v-6.09ZM128.26,134.08l-.02-6.09h-4.42v6.09h4.43Z"/></g><rect class="uuid-a002e5a1-41d5-4e71-8d5a-5aa9de937647" x="15.44" y="165.2" width="152.62" height="45.7" rx="8.36" ry="8.36"/><rect class="uuid-a002e5a1-41d5-4e71-8d5a-5aa9de937647" x="0" y="202.61" width="183.5" height="45.7" rx="8.36" ry="8.36"/><path class="uuid-5076cef6-0487-417a-9753-ab9520962d57" d="M40.15,172.74h9.59l2.94,18.13h.09l2.98-18.13h9.64v30.2h-6.79l.41-22.58h-.14l-4.18,22.58h-4.82l-4.18-22.58h-.09l.41,22.58h-5.88v-30.2Z"/><path class="uuid-5076cef6-0487-417a-9753-ab9520962d57" d="M81.73,197.07h-5.97l-.96,5.88h-6.93l6.88-30.2h9l6.98,30.2h-8.08l-.92-5.88ZM80.99,192.43l-2.16-13.49h-.18l-2.16,13.49h4.5Z"/><path class="uuid-5076cef6-0487-417a-9753-ab9520962d57" d="M111.74,202.94h-5.32s.18-2.02.18-4.22h-.05c-.64,3.17-2.34,4.59-5.37,4.59-5.78,0-8.45-4.73-8.45-15.1s3.12-15.83,9.96-15.83c6.15,0,8.95,3.3,8.95,10.56,0,.96-.05,2.2-.09,2.85h-5.78c.05-1.01.05-1.97.05-2.43,0-3.49-.87-5.09-2.8-5.09-2.34,0-3.4,3.17-3.4,10.05,0,6.38,1.01,9.32,3.26,9.32,1.88,0,2.75-1.56,2.75-5v-.6h-3.08v-4.22h9.18v15.15Z"/><path class="uuid-5076cef6-0487-417a-9753-ab9520962d57" d="M115.04,172.74h6.79v30.2h-6.79v-30.2Z"/><path class="uuid-5076cef6-0487-417a-9753-ab9520962d57" d="M124.95,187.84c0-10.6,3.08-15.47,9.73-15.47,6.2,0,9.04,3.49,9.04,11.06,0,.87-.05,2.2-.09,3.08h-5.78c.05-1.1.05-2.07.05-2.75,0-3.95-.87-5.51-2.71-5.51-2.29,0-3.3,2.43-3.3,9.59s1.01,9.59,3.44,9.59c1.7,0,2.62-1.38,2.62-5.32,0-.64-.05-1.56-.09-2.16h5.83c.05.55.09,1.42.09,2.29,0,7.16-2.89,11.06-9.13,11.06s-9.68-5.05-9.68-15.47Z"/><path class="uuid-5076cef6-0487-417a-9753-ab9520962d57" d="M16.63,209.34h6.79v14.37h.09l6.52-14.37h7.57l-7.07,13.63,7.71,16.57h-8.17l-4.36-11.2-2.29,4.08v7.11h-6.79v-30.2Z"/><path class="uuid-5076cef6-0487-417a-9753-ab9520962d57" d="M40.58,209.34h6.79v30.2h-6.79v-30.2Z"/><path class="uuid-5076cef6-0487-417a-9753-ab9520962d57" d="M50.91,209.34h9.36l5.65,19.05h.05l-.69-19.05h6.24v30.2h-7.57l-7.34-22.44h-.05l.6,22.44h-6.24v-30.2Z"/><path class="uuid-5076cef6-0487-417a-9753-ab9520962d57" d="M93.45,239.54h-5.32s.18-2.02.18-4.22h-.05c-.64,3.17-2.34,4.59-5.37,4.59-5.78,0-8.45-4.73-8.45-15.1s3.12-15.83,9.96-15.83c6.15,0,8.95,3.3,8.95,10.56,0,.96-.05,2.2-.09,2.85h-5.78c.05-1.01.05-1.97.05-2.43,0-3.49-.87-5.09-2.8-5.09-2.34,0-3.4,3.17-3.4,10.05,0,6.38,1.01,9.32,3.26,9.32,1.88,0,2.75-1.56,2.75-5v-.6h-3.08v-4.22h9.18v15.15Z"/><path class="uuid-5076cef6-0487-417a-9753-ab9520962d57" d="M96.57,209.34h8.35c7.76,0,10.83,4.27,10.83,15.01s-2.94,15.19-10.24,15.19h-8.95v-30.2ZM105.38,233.66c2.57,0,3.53-2.66,3.53-9.32s-1.01-9.13-3.76-9.13h-1.79v18.45h2.02Z"/><path class="uuid-5076cef6-0487-417a-9753-ab9520962d57" d="M118.27,224.3c0-10.51,3.21-15.33,10.24-15.33s10.19,4.82,10.19,15.33-3.21,15.61-10.19,15.61-10.24-4.91-10.24-15.61ZM131.77,224.3c0-6.47-1.01-9.46-3.26-9.46s-3.26,2.98-3.26,9.46,1.01,9.73,3.26,9.73,3.26-3.08,3.26-9.73Z"/><path class="uuid-5076cef6-0487-417a-9753-ab9520962d57" d="M141.63,209.34h9.59l2.94,18.13h.09l2.98-18.13h9.64v30.2h-6.79l.41-22.58h-.14l-4.18,22.58h-4.82l-4.18-22.58h-.09l.41,22.58h-5.88v-30.2Z"/></g></svg>