<?xml version="1.0" encoding="UTF-8"?><svg id="uuid-13c26f14-9c7d-4b10-91c8-665fdd794b74" xmlns="http://www.w3.org/2000/svg" viewBox="0 0 199.88 67.34"><defs><style>.uuid-67ec7444-5f46-4a36-8001-a481ab766aca{fill:#1b2e4d;}.uuid-3922f8c0-7eab-48fd-8b21-0a2cdc740c9f{fill:#f7f3eb;}</style></defs><g id="uuid-32107c05-c258-4761-9f61-c6f3ce3c8400"><rect class="uuid-67ec7444-5f46-4a36-8001-a481ab766aca" x="0" y="0" width="199.88" height="67.34" rx="10.38" ry="10.38"/><path class="uuid-3922f8c0-7eab-48fd-8b21-0a2cdc740c9f" d="M19.59,16.19h10.84l3.32,20.49h.1l3.37-20.49h10.9v34.14h-7.68l.47-25.52h-.16l-4.72,25.52h-5.45l-4.72-25.52h-.1l.47,25.52h-6.64V16.19Z"/><path class="uuid-3922f8c0-7eab-48fd-8b21-0a2cdc740c9f" d="M52.12,16.19h7.68v34.14h-7.68V16.19Z"/><path class="uuid-3922f8c0-7eab-48fd-8b21-0a2cdc740c9f" d="M78.47,43.69h-6.74l-1.09,6.64h-7.83l7.78-34.14h10.17l7.89,34.14h-9.13l-1.04-6.64ZM77.64,38.45l-2.44-15.25h-.21l-2.44,15.25h5.08Z"/><path class="uuid-3922f8c0-7eab-48fd-8b21-0a2cdc740c9f" d="M91.38,16.19h10.84l3.32,20.49h.1l3.37-20.49h10.9v34.14h-7.68l.47-25.52h-.16l-4.72,25.52h-5.45l-4.72-25.52h-.1l.47,25.52h-6.64V16.19Z"/><path class="uuid-3922f8c0-7eab-48fd-8b21-0a2cdc740c9f" d="M123.91,16.19h7.68v34.14h-7.68V16.19Z"/><path class="uuid-3922f8c0-7eab-48fd-8b21-0a2cdc740c9f" d="M165.87,20.66c.15.03.17-.02.26-.11.2-.22.56-1.07.79-1.42,2.39-3.63,5.64-5.05,9.7-6.22.48-.14,2.35-.72,2.68-.68.55.05.89.73.58,1.2-2.79,3.16-5.89,6.26-8.29,9.73-.08.12-.51.7-.44.77.59-.25,1.14-.6,1.72-.86,4.05-1.79,8.06-1.48,12.14.02.7.26,3.24,1.03,2.47,2.15-.26.38-2.57.32-3.19.39-4.04.47-7.88,2.4-11.55,3.99-.15.15,0,.19.16.21.29.04.62-.02.94.01,5.2.6,9.25,4.05,11,8.92.16.46.65,1.88.63,2.28s-.44.82-.84.79-2.84-2-3.42-2.38c-3.86-2.57-8.18-4.65-12.68-5.82l2.17,18.44c-.15.3-.4.57-.75.62-2.42-.2-5.33.29-7.69,0-.33-.04-.74-.19-.83-.55l2.15-18.53c-5.77,1.48-11.04,4.44-15.73,8.03-2.34.89-.32-3.63.04-4.38,2.14-4.39,6.51-7.46,11.47-7.5-3.49-1.79-7.61-3.68-11.55-4.15-.88-.11-2.04,0-2.83-.12-.53-.09-.82-.71-.56-1.18.27-.5,2.42-1.39,3.04-1.6,4.45-1.49,9.56-.99,13.59,1.42.09-.1-.45-.84-.55-.98-2.35-3.48-5.55-6.55-8.29-9.73-.43-1.42.83-1.22,1.78-1.05,4.65.84,9.8,3.95,11.91,8.28Z"/></g></svg>