<?xml version="1.0" encoding="UTF-8"?><svg id="uuid-cf95df9a-a062-4a78-b5ca-8e9114c4759d" xmlns="http://www.w3.org/2000/svg" viewBox="0 0 282.89 67.34"><defs><style>.uuid-9b2c52d3-14e0-4bbb-9957-8f0a1d1fca89{fill:#1b2e4d;}.uuid-d8d07235-7dc7-4ef9-b51f-283bda936a65{fill:#f7f3eb;}</style></defs><g id="uuid-343da6f1-42c2-4418-8703-2dbc8849e686"><rect class="uuid-9b2c52d3-14e0-4bbb-9957-8f0a1d1fca89" x="0" y="0" width="282.89" height="67.34" rx="10.38" ry="10.38"/><path class="uuid-d8d07235-7dc7-4ef9-b51f-283bda936a65" d="M18.91,16.19h10.58l6.38,21.53h.05l-.78-21.53h7.06v34.14h-8.56l-8.3-25.37h-.05l.67,25.37h-7.06V16.19Z"/><path class="uuid-d8d07235-7dc7-4ef9-b51f-283bda936a65" d="M45.99,16.19h16.6v6.64h-8.92v7.78h7v5.08h-7v7.99h9.29v6.64h-16.96V16.19Z"/><path class="uuid-d8d07235-7dc7-4ef9-b51f-283bda936a65" d="M64.66,16.19h8.51l2.85,23.29h.16l3.16-23.35h7.47l3.16,23.35h.21l2.75-23.29h7.63l-6.28,34.14h-8.82l-2.8-21.43h-.21l-3.11,21.43h-8.46l-6.23-34.14Z"/><path class="uuid-d8d07235-7dc7-4ef9-b51f-283bda936a65" d="M123.9,38.08l-8.51-21.89h9.44l3.58,14.11h.16l3.53-14.11h7.99l-8.51,21.89v12.24h-7.68v-12.24Z"/><path class="uuid-d8d07235-7dc7-4ef9-b51f-283bda936a65" d="M142.36,33.1c0-11.88,3.63-17.33,11.57-17.33s11.52,5.45,11.52,17.33-3.63,17.64-11.52,17.64-11.57-5.55-11.57-17.64ZM157.62,33.1c0-7.32-1.14-10.69-3.68-10.69s-3.68,3.37-3.68,10.69,1.14,11,3.68,11,3.68-3.48,3.68-11Z"/><path class="uuid-d8d07235-7dc7-4ef9-b51f-283bda936a65" d="M168.77,16.19h10.38c7.73,0,11.26,3.16,11.26,10.06,0,4.67-1.25,7.16-4.51,8.15v.05c3.22.73,4.51,2.8,4.51,6.02v9.86h-7.73v-9.6c0-2.23-1.04-3.22-3.32-3.22h-2.91v12.81h-7.68V16.19ZM179.14,32.63c2.54,0,3.74-1.45,3.74-4.98s-1.19-4.82-3.84-4.82h-2.59v9.8h2.7Z"/><path class="uuid-d8d07235-7dc7-4ef9-b51f-283bda936a65" d="M194.03,16.19h7.68v16.24h.1l7.37-16.24h8.56l-7.99,15.41,8.72,18.73h-9.23l-4.93-12.66-2.59,4.62v8.04h-7.68V16.19Z"/><path class="uuid-d8d07235-7dc7-4ef9-b51f-283bda936a65" d="M263.15,24.97c-4.44-3.84-8.28-2.41-13.31-.9.19-3.49,2.1-6.21,4.9-7.98.63-.4.87-1.2.57-1.88h0c-.35-.81-1.32-1.16-2.1-.75-1.63.85-2.95,2.34-4.15,3.67-2.56-2.9-6.43-3.79-10.05-2.72-.47.14-.69.68-.48,1.12,1.48,3.15,5.71,4.69,9.08,4.29l-.78,3.81c-.26.35-.28.11-.51.05-2.99-.74-4.5-1.9-7.89-.84-11.91,3.72-7.74,22.74-.11,28.76,4.28,3.38,6.13-.06,10.28-.23,4.25-.18,6.62,3.52,10.76.46,6.86-5.08,11.09-20.56,3.8-26.86Z"/></g></svg>