<?xml version="1.0" encoding="UTF-8"?><svg id="uuid-d9b63e4d-3aaa-4762-a888-a77144ce86cd" xmlns="http://www.w3.org/2000/svg" viewBox="0 0 234.64 67.34"><defs><style>.uuid-c4dae8b4-d0dc-4910-83e7-c2b98e7341d9{fill:none;stroke:#006eff;stroke-linecap:round;stroke-linejoin:round;stroke-width:2.76px;}.uuid-e02f37c7-d530-4585-a107-ec13b2c4b05f{fill:#006eff;}.uuid-203e2b37-dade-4672-98e4-732612c3c108{fill:#f7f3eb;}</style></defs><g id="uuid-4264e2c9-c559-40b9-9001-14fe03810a11"><rect class="uuid-e02f37c7-d530-4585-a107-ec13b2c4b05f" x="0" y="0" width="234.64" height="67.34" rx="33.67" ry="33.67"/><circle class="uuid-203e2b37-dade-4672-98e4-732612c3c108" cx="199.74" cy="33.48" r="26.17"/><path class="uuid-203e2b37-dade-4672-98e4-732612c3c108" d="M27.22,38.39h6.8c0,4.93.88,6.33,3.63,6.33,2.23,0,3.16-1.3,3.16-3.48,0-1.82-.47-2.59-1.3-3.22-.67-.52-1.97-1.09-4.46-2.02-2.28-.83-4.15-1.82-5.24-2.85-1.56-1.3-2.65-3.79-2.65-7.21,0-6.17,3.89-10.17,10.48-10.17,7.68,0,10.12,3.74,10.12,12.61h-6.69c0-5.4-.88-6.59-3.27-6.59-1.82,0-2.96,1.3-2.96,3.42s.47,2.91,1.19,3.53,2.44,1.35,4.57,2.18c2.44.93,3.84,1.61,5.19,2.75,1.71,1.45,2.7,3.89,2.7,7,0,6.07-3.74,10.06-10.84,10.06-8.41,0-10.43-4.83-10.43-12.35Z"/><path class="uuid-203e2b37-dade-4672-98e4-732612c3c108" d="M65.45,43.69h-6.74l-1.09,6.64h-7.83l7.78-34.14h10.17l7.89,34.14h-9.13l-1.04-6.64ZM64.62,38.45l-2.44-15.25h-.21l-2.44,15.25h5.08Z"/><path class="uuid-203e2b37-dade-4672-98e4-732612c3c108" d="M78.36,16.19h7.68v27.5h7.63v6.64h-15.3V16.19Z"/><path class="uuid-203e2b37-dade-4672-98e4-732612c3c108" d="M96.62,16.19h7.68v34.14h-7.68V16.19Z"/><path class="uuid-203e2b37-dade-4672-98e4-732612c3c108" d="M108.29,16.19h9.44c8.77,0,12.24,4.82,12.24,16.96s-3.32,17.17-11.57,17.17h-10.12V16.19ZM118.25,43.69c2.91,0,3.99-3.01,3.99-10.53s-1.14-10.32-4.25-10.32h-2.02v20.86h2.28Z"/><path class="uuid-203e2b37-dade-4672-98e4-732612c3c108" d="M146.47,43.69h-6.75l-1.09,6.64h-7.83l7.78-34.14h10.17l7.89,34.14h-9.13l-1.04-6.64ZM145.64,38.45l-2.44-15.25h-.21l-2.44,15.25h5.08Z"/><g id="uuid-7c1a0f14-6a06-4bc2-81ca-1744a9ae1469"><path class="uuid-e02f37c7-d530-4585-a107-ec13b2c4b05f" d="M207.48,29.69l-5.58,14.93c-.12.18-.49.32-.7.36-.55.1-2.85.28-3.22.02l-.13-.24.87-10.01c.02-.28-.27-.48-.52-.35l-5.61,2.89c-1.18.61-2.44,1.04-3.74,1.29l-3.38.64c-.25-.01-.47-.3-.64-.48-1.24-1.33-3.86-4.53-4.78-6.03-.29-.47-.44-.6,0-1.07.14-.15,1.43-1.17,1.58-1.23.16-.07.31-.12.48-.1l4.71,2.59c.39.22.87.2,1.24-.04l5.98-3.78c.18-.12.18-.38,0-.5-1.2-.77-5.04-3.01-6.83-4.29-1.5-1.08.76-1.78,1.8-2.42.22-.13.48-.18.73-.13l11.5,2.58c.21.05.43.04.62-.07,2.62-1.45,5.05-2.98,7.59-4.17,2.08-.97,4.63-1.02,6.83-.45.86.22,1.74.54,2.09,1.43.69,1.75-.57,2.71-1.86,3.66l-8.6,4.45c-.21.11-.37.29-.45.51Z"/></g><line class="uuid-c4dae8b4-d0dc-4910-83e7-c2b98e7341d9" x1="185.01" y1="49.89" x2="214.48" y2="49.89"/></g></svg>