<?xml version="1.0" encoding="UTF-8"?>
<svg id="uuid-e41c8392-e2c3-4abb-a7c4-f14fdb66e019" xmlns="http://www.w3.org/2000/svg" version="1.1" viewBox="0 0 218.8 225.9">
  <!-- Generator: Adobe Illustrator 30.3.0, SVG Export Plug-In . SVG Version: 2.1.3 Build 182)  -->
  <defs>
    <style>
      .st0 {
        fill: none;
      }

      .st1 {
        fill: #006eff;
      }

      .st2 {
        fill: #f7f3eb;
      }
    </style>
  </defs>
  <g id="uuid-09137cd5-f88c-4da0-9fa7-db764977419f">
    <path class="st1" d="M211.6,95.6l7.4-6.9h-8.8v-.5c0-.7-.5-1.2-1.2-1.2h-2.1c-.1,0-1,0-1.7,0h-1.2c-.3-.3-.5-3.5-1-4.2.4-.9,1.2-1.5,1.5-2.5.5-1.5-.6-.8-1.8-1.6-1.9,0-1.2-.2-1.7-1.3-.4-.9-.9-1.8-1.4-2.7-.6-1.1-3.6-5.2-3.7-5.7,0-.2,1.2-3,.6-3.5,0,0-2.1-.3-2.2-.3-.5,0-.8.7-1.2.5-.9-.5-2.3-2.4-3.2-3.2-1.7-1.5-3.6-2.7-5.4-4,0-.7.1-3.1-.7-3.4-1-.3-2.7,1.2-3,1.2s-4.9-2.2-5.8-2.5c-1-.3-4.1-1-4.5-1.2-.2-.2-.9-3.9-1.7-5-4-5.9-11.9-6.1-16.3-.6-1.1,1.4-1.9,5.4-2.2,5.6-.5.4-3.3.8-4.2,1.1-2.1.7-4.1,1.7-6.1,2.6-.3-.7-2.9-1.5-3.2-1.3-.5.5-.3,3.2-.6,3.5-1.9,1.3-3.8,2.7-5.6,4.2-.8.7-2.1,2.4-2.9,2.9-.3.2-.6-.5-1.2-.5s-2.1.3-2.2.3c-.5.4.7,3,.6,3.5,0,.4-3.5,5.3-4,6.4-.3.7-1.2,3.1-1.3,3.2,0,0-2.8.4-3.3.7-.4,1.2,1.7,2.8,1.7,3.5s-.9,4-1,4.2h-1.2c-.8,0-1.6,0-1.7,0h-2.1c-.7,0-1.2.5-1.2,1.2v.4c-1.5,0-7.7.3-8.8,0l7.4,6.9-7.4,7.3h8.8v.6c0,.7.5,1.2,1.2,1.2h5.2c.2.6,1,4.2,1,4.4s-.5.2-.7.4c-.2.2-1,2.1-1,2.3.2.8,3,1,3.2,1.2.7.8,1.8,3.7,2.5,5,.5.9,3.1,4.4,3,4.9,0,.4-.5.8-.6,1.4v1.8c.3.3,3.4-.4,3.7-.2.4.2.6.9.9,1.2,1.6,1.4,3.4,3.1,5.1,4.3.5.4,2.4,1.3,2.5,1.4s-.3.9-.3,1.4.5,2.2.6,2.3c.3.3,3.1-1.3,3.5-1.3s2.2,1.2,2.9,1.5c1,.4,2.2.9,3.2,1.2,1,.3,4.3.8,4.5,1.5.2.5,0,1.2.2,1.8,3.1,10.6,18.3,8.6,19.1-2.3,1.8-.3,3.7-.8,5.4-1.5,1-.4,5.1-2.5,5.6-2.2,0,0,0,.5.3.6.2,0,2.4.8,2.5.7.3-.3.8-3.1.4-3.7,1.5-.7,2.9-1.7,4.2-2.7,1-.8,2.9-2.5,3.7-3.4.3-.3.5-1,.5-1,.2,0,3.2.7,3.7.3.2-.2,0-2.9-.6-3.3,1.1-2.3,2.8-4.4,4-6.6.5-.9.9-2.7,1.5-3.3s2.9-.3,3.2-1.2c.1-.4-.4-1.6-.7-2s-1-.5-1-.7.8-3.9,1-4.4h5.2c.7,0,1.2-.5,1.2-1.2v-.6h8.8l-7.4-7.2h0l-.4.3ZM186.3,95.6c0,6.9-2.7,13.4-7.6,18.3-4.9,4.9-11.4,7.6-18.3,7.6s-13.4-2.7-18.3-7.6c-4.9-4.9-7.6-11.4-7.6-18.3s2.7-13.4,7.6-18.3c4.9-4.9,11.4-7.6,18.3-7.6s13.4,2.7,18.3,7.6c4.9,4.9,7.6,11.4,7.6,18.3ZM201.3,82.6c.6,0,1.1,3.8,1.5,4.4h-3.3v-1.1c-.1-.5-1-2.9-.9-3,.2-.2,1,.4,1.5.3.6,0,1.3-.7,1.4-.7h-.2ZM193.1,70.7c.6-.1,1.4-1.2,1.5-1.2.8,0,5,7.5,5.4,8.7,0,.3.3.8.1,1,0,0-.9.2-1.3.5-.5.4-.6,1.4-1,1-.5-.5-1.5-3.3-2.1-4.3-1.2-2.1-2.6-4-4-6,.5-.1.9.3,1.4.2h0ZM182.8,60.7c.4-.4.4-1.3.5-1.4.3-.4,3.4,2,3.9,2.4.8.6,5,4.2,4.9,4.8-.1.5-1.9,1.3-1.3,2.6-3-2.6-5.6-6-9.4-7.4.2-.7,1.1-.6,1.5-1h0ZM170.2,53.6c.2-.3,4.5,1.2,5.1,1.4.7.3,4.9,2,4.9,2.4s-.7,1.1-.8,1.5c0,.5.3.9.2,1.4-3.2-1.7-6.5-3.1-10.1-3.7.3-.5.6-2.9.7-3h0ZM164.8,46.4c1.8,1.2,3.5,4.2,3.4,6.4,0,.4-.6,3.1-.7,3.2-.3.2-3.1-.1-3.3-.3-.1-.1,1.2-1.8,1-3.5-.7-5.9-9.9-5-9.4,1,0,.7,1.1,2.5,1,2.6-.2.2-3.2.5-3.3.3-.1-.1-.7-2.9-.7-3.2-.2-6,7.2-9.8,12.1-6.4h-.1ZM150.6,53.6c0,.1.3,2.5.7,3-3.6.6-6.9,2.1-10.1,3.7,0-.5.3-.9.2-1.4,0-.4-.8-1.3-.8-1.5,0-.8,9.8-4.3,10.1-3.9h0ZM128.9,66.1c.4-.8,3.8-3.7,4.7-4.4.5-.4,3.5-2.7,3.9-2.4,0,0,.1,1,.5,1.4s1.4.3,1.5,1c-3.7,1.5-6.4,4.8-9.4,7.4v-1.5c0-.4-1.7-.6-1.2-1.6h0ZM123.7,72.7c.3-.5,2.2-3.2,2.5-3.2s1.1,1,1.5,1.1c.4.1.9-.2,1.4-.2-2.3,3.2-4.7,6.4-5.7,10.2-.4,1.3-.8-.7-.8-.8-.3-.5-1.7-.5-1.9-.7-.4-.4,2.6-5.7,3.1-6.5h0ZM117.9,87c.4-.6.9-4.3,1.5-4.4,0,0,.8.6,1.4.7.5,0,1.4-.5,1.5-.3.2.2-1.3,3.1-1,3.4.2.2,1.8-.6,2-.8.5-.5,1.2-3.5,1.6-4.4,13.9-32.4,59.8-31.2,71.7,1.9.2.5,1.3,3.9,1.2,4h-1c-.4,0-.7-.2-.8-.3-.3-.5-.9-3.2-1.2-4.1-11.3-29.6-53.1-31.6-67.2-3.3-1,2-1.7,5.7-2.6,7.2-.2.3-.4.4-.7.6h-6.3v-.2ZM110.5,89.8v-.4.5h0ZM118.9,108.6v-1.1c0-.5-.9-2.4-.9-2.9h3.3c0,.8,1.2,3.8,1,4,0,0-.8-.5-1.2-.6-.4,0-2,.9-2.2.6ZM127.4,120.9c-.4.2-1,1.2-1.2,1.2-.4,0-4-5.8-4.4-6.7-.2-.5-1.1-2.2-1.1-2.6,0-.8,1.2-.9,1.7-1.3.2-.2.6-1.5,1-.8,0,0,0,.8.3,1.2,1.4,3.1,3.1,6.3,5.5,8.7-.4.3-1.1,0-1.7.3h-.1ZM137,132.1c-.4,0-5.8-4.5-6.6-5.2-.4-.4-1.8-1.6-1.7-2,0-.4,1-.8,1.2-1.2.3-.7-.2-1.6.8-1.3.2,1.2,1.6,1.9,2.4,2.9l6.4,4.9c-1.2-.5-2.1,2-2.5,2h0ZM151,136.1c0,.5,0,1.8-.2,1.8-.6,0-2.7-.7-3.5-.9-1.1-.4-2.3-.8-3.4-1.3-.6-.3-2.7-1.1-3-1.3-.9-.6.3-1.1.5-1.8.2-.5-.6-1.7.3-1.4,1.4.5,3.2,1.9,4.8,2.3l5.1,1.4s-.5.9-.6,1.2h0ZM163.8,145.8c-6,2.6-12.1-2.2-11.1-8.7,0-.2.5-1.9.6-1.9,0,0,1.1.3,1.5.3h1.9c.1,0-1,2-1,2.9-.2,6.4,9.7,6.4,9.5,0,0-1.2-.8-1.8-1-2.9,2.3.4,3.6-1.5,4,1.5.5,3.4-1,7.3-4.4,8.7h0ZM179.9,134.4c-1.2.7-9.7,4-10.1,3.5-.1,0,.1-2.5-.7-3l5.1-1.4c.8,0,5.1-2.5,5.3-2.3.1,0-.3.8-.3,1.1,0,.8,1.5,1.4.6,2.1h0ZM141.4,129.1c-9.2-5.3-15.7-14.2-18.4-24.4h2c0,.2,0,.9,0,1.3,4.6,17.2,22.5,28.6,40.1,26.2,14.5-1.9,27.6-13.1,30.5-27.5h2c-2.2,8.5-7,16.1-14,21.5-12,9.4-29.1,10.6-42.4,3h.1ZM192,125.2c0,.4-3.9,3.7-4.5,4.2-.5.4-3.5,2.7-3.7,2.7s-1.3-2.5-2.5-2l4.2-3,5.2-4.7c-.6,1.2,1.5,2.2,1.3,2.8h0ZM194.6,122c-.2,0-.8-1-1.2-1.2-.6-.3-1.5.2-1.3-.7,2.2-2.4,3.8-5.4,5.1-8.4.1-.3.3-2,.9-1.2.1,0,0,.6.5,1,.5.3,1.4.3,1.5.4.8.6-5,10.1-5.6,10.1h.1ZM201.8,108.6c-.2.3-1.8-.6-2.2-.6s-1.1.7-1.2.6c-.1-.2,1.1-3.1,1-4h3.3c-.5.8-.7,3.6-1,4h0ZM210.2,98.5v-.5h0v.5Z"/>
    <g>
      <g id="uuid-7a07a559-4634-4663-8a1e-3878e1516407">
        <path class="st1" d="M57.4,39.8l4.7,20.7c6.6,1,12.7,4,17.8,8.2l8.8-5.5c.3-.2.7.2.5.5l-5.5,8.8c3.3,4,5.8,8.4,7.2,13.4.3,1.1.9,3.2,1,4.2,0,.4,0,.2-.2.2-1.7-.4-3.4-.8-5.2-1.1-1.6-5.1-3.8-10.2-7.5-14.2-5.7-6.2-14.2-9.9-22.7-9.9v-25.2c0-.6.9-.7,1,0h0Z"/>
        <path class="st1" d="M55.6,152.8l-4.9-21.3c-6.6-1-12.7-4-17.8-8.2l-8.5,5.3c-.4.3-.9-.2-.6-.6l5.3-8.5c-2.9-3.7-5.4-7.7-6.9-12.2-.1-.4-1.6-5.7-1.2-5.7l5.2,1.2c2.5,9.2,8.7,17.7,17.6,21.5,4,1.7,8.3,2.4,12.6,2.5v25.7c0,.5-.7.6-.9,0h0v.3Z"/>
        <path class="st1" d="M50.7,60.5l-1.3,5.3c-13.8,3.2-24.1,15.9-24,30.2H.5c-.6,0-.7-.9,0-1l20.5-4.7c1.2-6.6,4-12.7,8.3-17.8l-5.4-8.7c-.2-.3.2-.7.5-.5l8.7,5.4c5.1-4.2,11.2-7.2,17.8-8.2h0Z"/>
        <path class="st1" d="M92,101.5c-.9,6.7-4,12.9-8.2,18l5.2,8.4c.2.4-.2.8-.6.6l-8.4-5.2c-5.1,4.2-11.2,7.2-17.7,8.2l1.1-5.3c13.9-2.9,24.2-16,24.1-30.2h21.5c.5,0,.6.7,0,.9l-17.1,4.7h0Z"/>
      </g>
      <g id="uuid-91291361-91ff-4adf-a653-355629d42dab">
        <path class="st1" d="M55.7,68.2c23.2-.5,37.2,25.9,23.3,44.7-12.9,17.5-40,14.4-48.5-5.6-7.8-18.2,5.4-38.7,25.1-39.1h.1ZM55.2,71c-4.1.8-6.4,5.1-8,8.7h8s0-8.7,0-8.7ZM65.6,79.6c-1.6-3.5-3.9-7.8-8-8.7v8.7h8ZM37,79.6h7.4c.8-2.2,1.8-4.3,3.2-6.2.3-.4.7-.8,1-1.2,0,0,.3-.2,0-.3-4.5,1.4-8.7,4.1-11.7,7.7h0ZM75.7,79.6c-3.1-3.6-7.2-6.3-11.7-7.7-.2,0,0,.2,0,.3.3.4.7.8,1.1,1.2,1.3,1.8,2.4,4,3.1,6.1h7.5ZM43.5,82.2h-8.5c-1.6,2.2-2.6,4.8-3.4,7.4v.3h10.4l1.5-7.7ZM44.6,89.9h10.3l.2-.2v-7.3l-.2-.2h-8.7l-1.6,7.7ZM66.5,82.2h-8.7l-.2.2v7.3l.2.2h10.3l-1.6-7.7ZM70.7,89.9h10.2v-.3c-.6-2.6-1.7-5.2-3.2-7.4h-8.5l1.5,7.7ZM41.8,92.5h-10.7c-.3,2.6-.3,5,0,7.6h10.7v-7.6ZM55.2,92.5h-10.8v7.6h10.8v-7.6ZM68.4,92.5h-10.8v7.6h10.8v-7.6ZM81.7,92.5h-10.7v7.6h10.7c.3-2.6.3-5,0-7.6ZM42,102.6h-10.2v.3c.6,2.6,1.7,5.2,3.2,7.4h8.5l-1.5-7.7ZM46.2,110.3h8.7l.2-.2v-7.3l-.2-.2h-10.3l1.6,7.7ZM68.1,102.6h-10.3l-.2.2v7.3l.2.2h8.7l1.6-7.7ZM69.2,110.3h8.5c1.5-2.3,2.6-4.8,3.4-7.4v-.3h-10.4l-1.5,7.7ZM44.5,112.9h-7.4c2.4,2.8,5.4,5.1,8.7,6.6.6.3,2.3,1,2.8,1.1h.2c-1.9-2.2-3.3-4.9-4.3-7.6h0ZM55.2,112.9h-8c1.5,3.5,3.9,7.9,8,8.7v-8.7ZM65.6,112.9h-8v8.7c4.1-.8,6.4-5.2,8-8.7ZM75.7,112.9h-7.4c-1,2.8-2.4,5.4-4.3,7.6h.2c.7,0,2.4-.9,3.1-1.2,3.3-1.5,6.1-3.8,8.5-6.5h0Z"/>
      </g>
    </g>
    <path class="st2" d="M109,84.2c17.9-1,35.8,9.9,44.3,25.3,13.8,25,2.8,56.7-23.3,67.9-29.2,12.5-63.2-6.2-67.3-37.9-3.7-29,17.1-53.6,46.3-55.3Z"/>
    <g id="uuid-b5b7c250-95cf-48b1-8e84-14a131d258d0">
      <path class="st1" d="M109,84.2c17.9-1,35.8,9.9,44.3,25.3,13.8,25,2.8,56.7-23.3,67.9-29.2,12.5-63.2-6.2-67.3-37.9-3.7-29,17.1-53.6,46.3-55.3ZM83.3,103.3h-7.3c-1,1.3-2.3,2.6-3.2,3.9-.6.8-2.3,3.8-2.5,4.6,0,.4.2.8.2,1.2,0,1.3-.8,4.2-1.3,5.4-.3.6-1.2,1.3-1.1,2,0,.3.3.7.3,1.1.2,2.4.3,4.9,1.9,6.9.9,0,.5-.2.4-.7,0-.3-.6-2.2.3-1.8.4.2,1.2,2.7,1.8,3.5,2,2.6,4.2,2.8,6.8,4.2,1,.6,1.9,1.6,3.1,1.8l-.2-1.5c-.3-.8-1-1.7-1.7-2.2-.3-.2-.6,0-.7-.2,0,0,.7-1.5.3-2.1,0-.2-.6.6-.9.7-3.9,1.1-4.3-3.9-.9-5.2,2.3-.9,4.5-.4,6.1,1.3,0-.6.3-1.2.6-1.7,1.5-2.7,3.5-4.6,5.9-6.5,1.7-1.3,4.6-2.1,4.1-4.6l3.2,1.8c.2-2.7-.5-5.2-.3-7.8-.9.2-1.6,1.5-2.5.9-.4-.2-.9-1.1-1.3-1.2-.9-.2-2.6,2.5-3.3,3-.8.6-2.3.8-3.2.4-.2,0-1.7-1.7-1.7-1.8-.3-1.6,3.5-3,4.8-3s.8.7,2.1-.7c0-.2,0-.5.2-.6s1.6-.7,1.9-.8c1.6-.3,1.1,1.1-.4,1.7-.4.2-1,.3-.5.8,0,0,2.1.7,2.2.7.7,0,3.3-1.9,3.1-2.6s-3-2.5-2.8-3.2c0-.3,2.9-2,3.4-2,.9,0,.8,1,1.2,1.3.6.4,2.2.3,2.5,1.1.4,1.5-.9,2.3-1,3.5-.4,2.8,1.1,2.9,3.3,2.2,3.4-1,7.5-4.1,9.8-6.8.3-.4,2.1-2.7,2.1-2.9,0-.4-1.2-1.8-1.6-1.9-.5,0-1.6,0-2.1,0-1.5.2-5.5,2.6-6.3,2.4-1.2-.2-2.9-2.2-4.3-2.1-.2,0-1.4.7-1.5.8-.2.2-.2.5-.4.8-.7.9-1.7.4-2.7.5-.4,0-.8.3-1.4.4-1.7.2-3.7-.7-2,1.4l-2.1-.3c.3,3.2-.7,1.3-2.3.7-.7-.2-.4.3-.7.7-.3.4-1.1.9-1.2,1.3-.2.4,1.4-.2,1.1.7-.5,1.3-1.4,1.8-2.8,1.6l.3-2.5c-2.2-.3-4.4-1.5-6.4.2l1.8.2v1.1h-.2ZM88.9,100.1h-2.7c-.4,0-1.3-.3-1.2.3.7,0,1.6.7,2.2.6.2,0,.5-.2.8-.3.6,0,1,.3.9-.7h0ZM156.6,136.2c.6-10.5-2.1-21.6-8.3-30.1-.5-.7-2.8-3.5-3.3-3.7-1.4-.7-3,.6-4.2,1.1-2.1.8-3.6.8-5.8.5-1.9-.2-3.6-1-5.7-.7-1.8.2-4.2,2.1-5.3,3.5-1.4,1.9-1.2,1.9,1.1,1.8.4,0,.9-.6,1.2.2,0,.4-.2,1.6.6,1.2.2,0,1.6-1.5,1.6-1.6.1-.5-.7-.9-.7-1,0-.3,2.2-1.9,2.5-1.6-.3,1.7.4,2.7-.8,4.4-1.4,2.1-3.2,2.2-4.7.2-.8,1.4-4.1,3.2-4.6,4.2-.3.6,0,1.7-.2,1.8,0,0-.8,0-1.3.3-2.7,1.2-1.8,5.9,1.6,4.1,1-.6,3.9-4.1,4.5-4,.2,0,2.9,2.8,3,3,.4.9-1.2.2-1.1.9,1.3.2,1.4-.7,1.8-1.6.4-1,.8.4,1.1.7.5.6,1,1,1.8.9v-1.1c.7.5,5.3,1.2,5.3,1.9s-1,1.7-1.2,2c-.4.4-2,1.1-2.5,1.1s-1.8-.6-2.5-.7c-.8,0-1.7.2-2.4,0-1.1-.3-2.3-2.3-3.2-2.4-1.5-.2-2.1.4-3.3.7-1,.2-2,0-3.1.5-.6.3-.9.9-1.6,1.1-.6,1.1-1.5,1.9-2.1,3-1.2,2-2.3,5-1.8,7.3,0,.5,1.5,2.4,1.9,2.7,2.3,1.5,4.9,0,7.4.4.2,0,1.8.7,1.9.8,0,0,.7,1.8.7,2,0,.4-.3.7-.3,1-.2,2,2.2,3.9,2.4,5.7,0,.6-.6,1.6-.7,2.4-.2,2.6,1.6,5.8,1.8,8.4,1.1,2.7,5.3-.7,6.3-2.1.3-.4,2.1-3.3,2.1-3.6.1-.5,0-1,.2-1.6.3-.7,1.7-1.7,2.1-2.8.9-2.1.2-2.9.1-4.8-.1-2.7,3.9-4.2,4.3-6.4.3-1.8-.4-1-1.8-1.4-.8-.2-2.1-1.3-2.6-2-.4-.6-.4-1.2-.7-1.8-1.1-1.7-3.2-3.6-2.3-5.7,2.9,1.1,2.8,4.6,4.3,6.9.5.8,1.3.7,2.2.5.8-.2,4.2-2.6,4.4-3.3.5-1.7-2.5-2.9-3.9-3.3l.6-.7c3.9.7,8.6,1.5,10.2,5.7.8,2,.6,4.6,3,5.3h0v-.2ZM119.4,113.2c3.3.9,1-4.2.2-4.2s-2.2,2.8-2.3,3c-.2.4,0,.7.5.5.6-.3,1.2-1.6,1.9-1.8l-.3,2.5h0ZM94.6,168c.2-.2-.6-1.8-.7-2.3-.7-5.2,5.3-11.2,7.8-15.5,1.8-3.1,3-6.2-.4-8.6-1.1-.8-2.8-1.2-3.9-1.8-1.2-.7-2.6-2.5-3.7-3.4-1.8-1.4-4.7-3.3-6.9-1.9-.4.3-.8,1.1-1.3,1.2-.7.2-1.6,0-2.3,0,0,.7,1.7.6,1.8.7.3.3-1.3,4-1.4,4.8-.2,1.3.2,2.1.3,3.2.2,1.1-.4,1.7.7,2.5.8.6,1.6.6,2.3,1.6,2.8,3.8,1.6,9.3,2.3,13.6.5,2.9,2,5.9,5.3,5.9h0Z"/>
    </g>
    <rect class="st1" x="11.3" y="155.2" width="198.9" height="45.7" rx="5.2" ry="5.2"/>
    <rect class="st1" x="30.4" y="192.6" width="160.8" height="33.3" rx="5.3" ry="5.3"/>
    <path class="st2" d="M21.4,183v-20.3h6.8v20.3c0,2.8,1.1,4.2,3.1,4.2s2.9-1.5,2.9-4.2v-20.3h5.9v20.3c0,6.8-3.2,10.3-9.3,10.3s-9.4-3.5-9.4-10.3h0Z"/>
    <path class="st2" d="M43.4,162.7h9.4l5.7,19h0l-.7-19.1h6.2v30.2h-7.6l-7.3-22.4h0l.6,22.4h-6.2v-30.2h0Z"/>
    <path class="st2" d="M67.5,162.7h6.8v30.2h-6.8v-30.2Z"/>
    <path class="st2" d="M76.9,162.7h7.9l3.9,23.3h.2l3.7-23.3h7l-6.9,30.2h-8.9l-6.8-30.2h0Z"/>
    <path class="st2" d="M102,162.7h14.7v5.9h-7.9v6.9h6.2v4.5h-6.2v7.1h8.2v5.9h-15v-30.2h0Z"/>
    <path class="st2" d="M119.4,162.7h9.2c6.8,0,10,2.8,10,8.9s-1.1,6.3-4,7.2h0c2.9.7,4,2.5,4,5.4v8.7h-6.8v-8.5c0-2-.9-2.9-2.9-2.9h-2.6v11.3h-6.8v-30.2h-.1ZM128.6,177.3c2.2,0,3.3-1.3,3.3-4.4s-1.1-4.3-3.4-4.3h-2.3v8.7h2.4Z"/>
    <path class="st2" d="M141.3,182.4h6c0,4.4.8,5.6,3.2,5.6s2.8-1.1,2.8-3.1-.4-2.3-1.1-2.9c-.6-.5-1.7-1-3.9-1.8-2-.7-3.7-1.6-4.6-2.5-1.4-1.1-2.3-3.4-2.3-6.4,0-5.5,3.4-9,9.3-9s8.9,3.3,8.9,11.1h-5.9c0-4.8-.8-5.8-2.9-5.8s-2.6,1.1-2.6,3,.4,2.6,1.1,3.1,2.2,1.2,4,1.9c2.2.8,3.4,1.4,4.6,2.4,1.5,1.3,2.4,3.4,2.4,6.2,0,5.4-3.3,8.9-9.6,8.9s-9.2-4.3-9.2-10.9h0l-.2.2Z"/>
    <path class="st2" d="M176,187h-6l-1,5.9h-6.9l6.9-30.2h9l7,30.2h-8.1l-.9-5.9ZM175.3,182.4l-2.2-13.5h-.2l-2.2,13.5h4.6Z"/>
    <path class="st2" d="M187.5,162.7h6.8v24.3h6.8v5.9h-13.5v-30.2h-.1Z"/>
    <path class="st2" d="M38,199.9h5.2c3.9,0,5.6,2,5.6,6.5s-1.6,6.4-5.2,6.4h-1.6v5.1h-4v-18h0ZM43.4,209.9c1.2,0,1.7-1,1.7-3.2s-.6-3.3-1.8-3.3h-1.2v6.5h1.4-.1Z"/>
    <path class="st2" d="M58.2,214.4h-3.6l-.6,3.5h-4.1l4.1-18h5.4l4.2,18h-4.8l-.5-3.5h-.1ZM57.8,211.6l-1.3-8h0l-1.3,8s2.7,0,2.7,0Z"/>
    <path class="st2" d="M65,199.9h5.5c4.1,0,5.9,1.7,5.9,5.3s-.7,3.8-2.4,4.3h0c1.7.4,2.4,1.5,2.4,3.2v5.2h-4.1v-5.1c0-1.2-.6-1.7-1.8-1.7h-1.5v6.8h-4.1v-18h0ZM70.5,208.5c1.3,0,2-.8,2-2.6s-.6-2.5-2-2.5h-1.4v5.2h1.4Z"/>
    <path class="st2" d="M78.3,199.9h4.1v8.6h0l3.9-8.6h4.5l-4.2,8.1,4.6,9.9h-4.9l-2.6-6.7-1.4,2.4v4.2h-4.1v-18h0Z"/>
    <path class="st2" d="M101.9,203.4h-3.1v-3.5h10.2v3.5h-3.1v14.5h-4.1v-14.5h0Z"/>
    <path class="st2" d="M110.2,208.8c0-6.3,1.9-9.1,6.1-9.1s6.1,2.9,6.1,9.1-1.9,9.3-6.1,9.3-6.1-2.9-6.1-9.3ZM118.3,208.8c0-3.9-.6-5.6-1.9-5.6s-1.9,1.8-1.9,5.6.6,5.8,1.9,5.8,1.9-1.8,1.9-5.8Z"/>
    <path class="st2" d="M131.1,199.9h5.2c3.9,0,5.6,2,5.6,6.5s-1.6,6.4-5.2,6.4h-1.6v5.1h-4.1v-18h.1ZM136.5,209.9c1.1,0,1.7-1,1.7-3.2s-.6-3.3-1.8-3.3h-1.2v6.5h1.4,0Z"/>
    <path class="st2" d="M151.3,214.4h-3.6l-.6,3.5h-4.1l4.1-18h5.4l4.2,18h-4.8l-.6-3.5h0ZM150.9,211.6l-1.3-8h-.1l-1.3,8h2.7Z"/>
    <path class="st2" d="M158.1,199.9h5.5c4.1,0,5.9,1.7,5.9,5.3s-.7,3.8-2.4,4.3h0c1.7.4,2.4,1.5,2.4,3.2v5.2h-4.1v-5.1c0-1.2-.6-1.7-1.8-1.7h-1.5v6.8h-4.1v-18h.1ZM163.6,208.5c1.3,0,2-.8,2-2.6s-.6-2.5-2-2.5h-1.4v5.2h1.4Z"/>
    <path class="st2" d="M171.5,199.9h4.1v8.6h0l3.9-8.6h4.5l-4.2,8.1,4.6,9.9h-4.9l-2.6-6.7-1.4,2.4v4.2h-4.1v-18h0Z"/>
  </g>
  <g>
    <path class="st0" d="M138.2,54.7c.2.3.8.8,1.2,1.3.2-.1.5-.2.7-.4-.8-.7-1.6-1.1-2.4-1.8-.1.5.3.6.5.9Z"/>
    <path class="st0" d="M136.5,56.9l.5.6c.1,0,.2-.2.4-.2-.3-.3-.6-.5-.9-.4Z"/>
    <path class="st0" d="M138.1,56.9c0,0,.1,0,.2-.1l-.8-.7.6.8Z"/>
    <path class="st1" d="M136.5,56.9c.2-.1.5,0,.9.4.2-.1.5-.3.7-.4l-.6-.8.8.7c.4-.2.8-.5,1.2-.7-.5-.5-1-1-1.2-1.3-.2-.3-.6-.4-.5-.9.8.7,1.7,1.1,2.4,1.8.2,0,.3-.2.5-.3-.5-1.1-2.2-1.9-2.6-3-.7-2-.8-1.6-2.1-3.3-7.1-9-12-19.2-15.9-29.9-.8-2.1-2-8.1-4-9.2-1.8-1-4.9,1.3-7.4.6-1.9-.6-3.2-3.9-4.7-5.2h0c-1.5-1.3-4-2.4-5.5-.4-.9,1.2-2.5,5.9-3.1,7.6-3.1,8-5.9,15.9-9.9,23.4-3.8,7.2-8.9,13.6-13.3,20.3l.5.2-.5.9,1.1-.7v1c1.1.4,1.4-.5,1.5-.5.4,0,.7.2,1.1.1,2-.7,4.4-3.6,5.8-5.1.4-.4,1.2-.9,1.3-1.1.5-.8,0-1.6,1.6-1.9l-.6,2c2.5-3.6,4.8-7.7,6.8-11.7,2.3-4.5,4.8-9.6,6.9-14.3,1.7-3.8,3-7.9,4.5-11.8,3.3,2.5,7,3.8,10.8,1.7,4.4,15.5,11.7,30.1,22.5,42.1l1.4.3s0,0,0,0l-.5-.6Z"/>
    <path class="st1" d="M105.2,44.2c7.3-.7,15.4,2.6,16,10.8.5,7.3-6.1,11.8-11.6,6l.6,1.2-1-.2h0c0,2.9,4.5,4.5,7,4.4,4.2,0,8.3-4.5,9.2-8.4,2.2-8.9-5.5-17.7-14.1-18.9-17-2.5-23.2,16.1-35.2,24-.9.6-1.7,1.1-2.6,1.5,1.8,1,3.5,2.2,5.1,3.5,3.2-2.2,6-5,8.6-7.9,4.6-5.3,10.4-15.4,18-16.1Z"/>
    <path class="st1" d="M113.4,48.8h0s0,0,0,0h0Z"/>
    <path class="st1" d="M104.5,63.8c-2-7.3,5.5-15.9,12.4-10.2l1.3,1.9-1.5-3.4,1.6,1.5c.2,0,.2-.2.1-.4-.7-1.6-3.8-3.4-5.6-3.5l.5-.5-2.4.2.4-.5,2.1-.2c-4.8-.6-7.9.6-10.7,4.6-7.5,11,2.2,23.3,13.8,25.1,1.1.2,2.1.3,3.1.3.7-1.7,1.4-3.3,2.3-4.9-7.5-.3-15.3-2.6-17.4-10Z"/>
    <path class="st1" d="M98.1,58.5c1-5.4,5-10.7,10.9-10.9l-2-.5,2.9-.5h0s-3.8,0-3.8,0c-.3,0-2.4.6-2.9.8-.8.3-1.6.8-2.3,1.2-.3,0,.2-.9-.5-.7-.5.2-2.4,2.1-2.8,2.6-5,5.9-5.7,14.1-3.2,21.2.5,1.3,3.2,7.5,4.3,7.8.3.1,1.1-.2,1.3,0,.4.3.9,1.4,1.1,1.8.8,0-1.8-3.7-1.3-4.1l2.1,2.9c.5.2.3-1,.3-1.1,0-.4-.5-.7-.4-1.1l1.5.4c-3.7-5.9-6.6-12.5-5.3-19.6Z"/>
    <path class="st1" d="M137,57.5s0,0,0,0h0s0,0,0,0Z"/>
    <path class="st1" d="M140.8,56.3c0-.3,0-.6-.1-.9-.2,0-.3.2-.5.3.2.2.4.4.6.7Z"/>
  </g>
</svg>