<?xml version="1.0" encoding="UTF-8"?><svg id="uuid-220b4112-1ed4-4c8e-921a-32e8c8ac6aab" xmlns="http://www.w3.org/2000/svg" viewBox="0 0 199.91 186.81"><defs><style>.uuid-faefcae2-e0fe-469f-8c7d-e8270bfe6373{fill:#006eff;}.uuid-6d4c6754-cf32-4ef9-9b15-9eb077055d5b{fill:#f7f3eb;}</style></defs><g id="uuid-c9eb3942-44ba-44be-9bdf-2449d6e79eee"><rect class="uuid-faefcae2-e0fe-469f-8c7d-e8270bfe6373" x="0" y="103.7" width="199.91" height="45.7" rx="4.99" ry="4.99"/><g id="uuid-a061f0ad-257a-4db0-9dcb-a04f7d1f7b1e"><path class="uuid-faefcae2-e0fe-469f-8c7d-e8270bfe6373" d="M95.62.1c25.6-1.5,51.32,14.11,63.51,36.26,19.75,35.88,4.03,81.3-33.41,97.37-41.84,17.96-90.6-8.9-96.45-54.3C23.92,37.87,53.77,2.54,95.62.1ZM58.71,27.4h-10.4c-1.4,1.86-3.27,3.69-4.56,5.59-.8,1.18-3.33,5.43-3.59,6.56-.13.56.35,1.09.3,1.77-.14,1.83-1.15,6.08-1.94,7.75-.42.88-1.66,1.92-1.64,2.93,0,.51.46,1.01.51,1.54.31,3.45.38,7.09,2.8,9.88,1.24.15.67-.28.52-1.03-.09-.45-.86-3.18.49-2.52.57.28,1.65,3.84,2.56,5.05,2.82,3.73,5.96,4.04,9.72,6.01,1.49.79,2.77,2.23,4.47,2.64l-.36-2.18c-.38-1.15-1.46-2.46-2.45-3.15-.38-.27-.88-.2-.99-.28-.13-.09,1.02-2.12.5-3.02-.2-.24-.88.82-1.34.95-5.56,1.63-6.13-5.55-1.36-7.45,3.31-1.32,6.42-.6,8.78,1.93.05-.85.51-1.66.92-2.38,2.21-3.89,4.96-6.55,8.46-9.3,2.38-1.87,6.56-2.95,5.85-6.59l4.57,2.54c.36-3.81-.75-7.38-.51-11.16-1.26.31-2.24,2.12-3.57,1.29-.55-.35-1.29-1.64-1.8-1.78-1.26-.35-3.67,3.53-4.8,4.29-1.19.81-3.26,1.2-4.57.53-.25-.13-2.46-2.43-2.5-2.6-.49-2.27,5.05-4.31,6.83-4.3,1.89,0,1.2,1.07,3.03-1.01.2-.23.18-.71.36-.88s2.28-1.04,2.69-1.11c2.33-.41,1.52,1.56-.61,2.45-.51.22-1.46.48-.66,1.11.13.1,3.06.98,3.22.95.97-.15,4.68-2.73,4.38-3.71s-4.34-3.57-4.05-4.6c.13-.46,4.14-2.81,4.82-2.82,1.23-.02,1.12,1.36,1.76,1.82.82.58,3.23.49,3.53,1.54.6,2.09-1.23,3.32-1.48,5.04-.59,4.08,1.51,4.17,4.71,3.19,4.88-1.49,10.79-5.9,14.07-9.78.44-.52,2.95-3.87,3.01-4.12.12-.53-1.78-2.52-2.32-2.68-.68-.2-2.22-.15-2.97-.05-2.18.28-7.83,3.67-9.07,3.48-1.73-.27-4.15-3.19-6.17-3.01-.25.02-2.03,1-2.18,1.15-.21.22-.27.79-.59,1.18-1.03,1.26-2.41.58-3.82.76-.64.08-1.21.45-2.02.52-2.44.22-5.36-1.05-2.81,2.01l-3.04-.51c.41,4.54-1.04,1.81-3.34,1.05-.98-.32-.58.38-.97.96-.43.63-1.55,1.32-1.77,1.8-.25.55,2.03-.29,1.52,1.01-.75,1.9-2.03,2.63-4.06,2.29l.51-3.55c-3.15-.46-6.31-2.17-9.14.25l2.54.25v1.52ZM66.83,22.83c-1.26.02-2.54-.03-3.81,0-.61.01-1.89-.38-1.78.51,1-.02,2.32,1,3.2.92.29-.03.71-.31,1.13-.4.91-.19,1.48.49,1.25-1.02ZM163.77,74.59c.83-15.03-2.95-30.89-11.95-43.11-.75-1.01-3.96-4.94-4.78-5.36-1.97-1.01-4.32.9-6.1,1.54-3.08,1.11-5.13,1.14-8.37.74-2.75-.33-5.17-1.38-8.12-1-2.65.35-5.99,3.01-7.6,5.09-2.08,2.67-1.77,2.72,1.5,2.51.64-.04,1.37-.91,1.74.3.17.55-.33,2.27.8,1.73.22-.1,2.23-2.16,2.28-2.32.2-.69-.98-1.26-.98-1.49.01-.37,3.17-2.66,3.52-2.28-.38,2.5.52,3.85-1.08,6.27-1.95,2.95-4.57,3.11-6.78.33-1.08,1.98-5.85,4.57-6.61,6.07-.43.86-.11,2.41-.25,2.54-.07.06-1.22.11-1.87.41-3.81,1.75-2.58,8.41,2.25,5.8,1.46-.79,5.64-5.93,6.46-5.68.29.09,4.21,4.02,4.34,4.3.62,1.31-1.75.24-1.52,1.27,1.9.32,2-.93,2.54-2.24.59-1.42,1.15.53,1.5.98.68.88,1.41,1.47,2.56,1.26v-1.53c1.06.66,7.61,1.73,7.6,2.79,0,.17-1.39,2.49-1.74,2.81-.58.52-2.88,1.51-3.57,1.5-.84,0-2.54-.85-3.57-1-1.1-.17-2.43.22-3.47-.08-1.56-.45-3.34-3.3-4.63-3.49-2.12-.31-3.02.61-4.68.93-1.46.28-2.88-.06-4.38.7-.82.42-1.26,1.32-2.27,1.53-.79,1.59-2.14,2.72-3.07,4.29-1.69,2.85-3.25,7.19-2.53,10.49.14.66,2.19,3.45,2.76,3.84,3.27,2.19,7.03.06,10.6.56.36.05,2.58.96,2.71,1.09.11.1.98,2.55,1,2.8.04.53-.37.95-.41,1.45-.27,2.92,3.23,5.61,3.46,8.19.07.79-.87,2.23-.95,3.45-.24,3.73,2.24,8.36,2.65,12.11,1.52,3.82,7.6-.97,8.98-3.03.4-.6,2.96-4.8,3.04-5.08.2-.71-.07-1.44.32-2.22.47-.95,2.41-2.37,3.08-4.03,1.23-3.03.34-4.23.2-6.86-.21-3.91,5.65-6.02,6.13-9.14.41-2.65-.58-1.44-2.57-2.02-1.18-.34-3.08-1.8-3.77-2.83-.57-.85-.61-1.8-1.05-2.51-1.54-2.48-4.6-5.15-3.28-8.14,4.2,1.51,4.04,6.53,6.15,9.84.7,1.1,1.91,1.02,3.16.74,1.18-.26,6.06-3.76,6.38-4.79.75-2.49-3.53-4.23-5.53-4.77l.8-1c5.61,1.04,12.3,2.2,14.69,8.1,1.15,2.84.83,6.54,4.31,7.62ZM110.48,41.6c4.78,1.24,1.49-6.07.25-6.09-.27,0-3.13,3.96-3.3,4.31-.28.58.18,1.03.76.76.81-.38,1.72-2.23,2.79-2.54l-.51,3.55ZM74.95,120.27c.26-.25-.91-2.56-1.01-3.31-1-7.53,7.67-16.05,11.26-22.22,2.55-4.39,4.25-8.81-.62-12.27-1.63-1.15-4.03-1.65-5.57-2.55-1.75-1.03-3.73-3.57-5.32-4.83-2.59-2.03-6.71-4.71-9.9-2.78-.64.39-1.17,1.51-1.84,1.71-.95.28-2.22-.05-3.23.06-.07,1.03,2.36.87,2.54,1.01.48.4-1.87,5.71-2.02,6.86-.25,1.89.25,2.97.49,4.57.23,1.51-.54,2.39,1.04,3.53,1.16.84,2.24.88,3.27,2.31,3.94,5.43,2.31,13.31,3.32,19.51.68,4.14,2.87,8.45,7.6,8.38Z"/></g><rect class="uuid-faefcae2-e0fe-469f-8c7d-e8270bfe6373" x="22.56" y="141.12" width="154.78" height="45.7" rx="5.9" ry="5.9"/><path class="uuid-6d4c6754-cf32-4ef9-9b15-9eb077055d5b" d="M10.58,131.53v-20.29h6.79v20.29c0,2.75,1.06,4.22,3.08,4.22s2.94-1.47,2.94-4.22v-20.29h5.88v20.29c0,6.75-3.21,10.28-9.32,10.28s-9.36-3.53-9.36-10.28Z"/><path class="uuid-6d4c6754-cf32-4ef9-9b15-9eb077055d5b" d="M32.52,111.24h9.36l5.65,19.05h.05l-.69-19.05h6.24v30.2h-7.57l-7.34-22.44h-.05l.6,22.44h-6.24v-30.2Z"/><path class="uuid-6d4c6754-cf32-4ef9-9b15-9eb077055d5b" d="M56.66,111.24h6.79v30.2h-6.79v-30.2Z"/><path class="uuid-6d4c6754-cf32-4ef9-9b15-9eb077055d5b" d="M66.07,111.24h7.89l3.86,23.27h.18l3.72-23.27h6.98l-6.88,30.2h-8.9l-6.84-30.2Z"/><path class="uuid-6d4c6754-cf32-4ef9-9b15-9eb077055d5b" d="M91.12,111.24h14.69v5.88h-7.89v6.88h6.2v4.5h-6.2v7.07h8.22v5.88h-15.01v-30.2Z"/><path class="uuid-6d4c6754-cf32-4ef9-9b15-9eb077055d5b" d="M108.56,111.24h9.18c6.84,0,9.96,2.8,9.96,8.9,0,4.13-1.1,6.33-3.99,7.21v.05c2.85.64,3.99,2.48,3.99,5.32v8.72h-6.84v-8.49c0-1.97-.92-2.85-2.94-2.85h-2.57v11.34h-6.79v-30.2ZM117.74,125.79c2.25,0,3.3-1.29,3.3-4.41s-1.06-4.27-3.4-4.27h-2.29v8.67h2.39Z"/><path class="uuid-6d4c6754-cf32-4ef9-9b15-9eb077055d5b" d="M130.5,130.89h6.01c0,4.36.78,5.6,3.21,5.6,1.97,0,2.8-1.15,2.8-3.08,0-1.61-.41-2.29-1.15-2.85-.6-.46-1.74-.96-3.95-1.79-2.02-.73-3.67-1.61-4.64-2.52-1.38-1.15-2.34-3.35-2.34-6.38,0-5.46,3.44-9,9.27-9,6.79,0,8.95,3.3,8.95,11.15h-5.92c0-4.77-.78-5.83-2.89-5.83-1.61,0-2.62,1.15-2.62,3.03s.41,2.57,1.06,3.12,2.16,1.19,4.04,1.93c2.16.83,3.4,1.42,4.59,2.43,1.51,1.29,2.39,3.44,2.39,6.2,0,5.37-3.3,8.9-9.59,8.9-7.44,0-9.23-4.27-9.23-10.92Z"/><path class="uuid-6d4c6754-cf32-4ef9-9b15-9eb077055d5b" d="M165.19,135.57h-5.97l-.96,5.88h-6.93l6.88-30.2h9l6.98,30.2h-8.08l-.92-5.88ZM164.46,130.93l-2.16-13.49h-.18l-2.16,13.49h4.5Z"/><path class="uuid-6d4c6754-cf32-4ef9-9b15-9eb077055d5b" d="M176.62,111.24h6.79v24.33h6.75v5.88h-13.54v-30.2Z"/><path class="uuid-6d4c6754-cf32-4ef9-9b15-9eb077055d5b" d="M31.97,167.49h6.01c0,4.36.78,5.6,3.21,5.6,1.97,0,2.8-1.15,2.8-3.08,0-1.61-.41-2.29-1.15-2.85-.6-.46-1.74-.96-3.95-1.79-2.02-.73-3.67-1.61-4.64-2.52-1.38-1.15-2.34-3.35-2.34-6.38,0-5.46,3.44-9,9.27-9,6.79,0,8.95,3.3,8.95,11.15h-5.92c0-4.77-.78-5.83-2.89-5.83-1.61,0-2.62,1.15-2.62,3.03s.41,2.57,1.06,3.12,2.16,1.19,4.04,1.93c2.16.83,3.4,1.42,4.59,2.43,1.51,1.29,2.39,3.44,2.39,6.2,0,5.37-3.3,8.9-9.59,8.9-7.44,0-9.23-4.27-9.23-10.92Z"/><path class="uuid-6d4c6754-cf32-4ef9-9b15-9eb077055d5b" d="M57.85,153.72h-5.19v-5.88h17.12v5.88h-5.14v24.33h-6.79v-24.33Z"/><path class="uuid-6d4c6754-cf32-4ef9-9b15-9eb077055d5b" d="M72.08,168.13v-20.29h6.79v20.29c0,2.75,1.06,4.22,3.08,4.22s2.94-1.47,2.94-4.22v-20.29h5.88v20.29c0,6.75-3.21,10.28-9.32,10.28s-9.36-3.53-9.36-10.28Z"/><path class="uuid-6d4c6754-cf32-4ef9-9b15-9eb077055d5b" d="M94.01,147.84h8.35c7.76,0,10.83,4.27,10.83,15.01s-2.94,15.19-10.24,15.19h-8.95v-30.2ZM102.83,172.17c2.57,0,3.53-2.66,3.53-9.32s-1.01-9.13-3.76-9.13h-1.79v18.45h2.02Z"/><path class="uuid-6d4c6754-cf32-4ef9-9b15-9eb077055d5b" d="M116.32,147.84h6.79v30.2h-6.79v-30.2Z"/><path class="uuid-6d4c6754-cf32-4ef9-9b15-9eb077055d5b" d="M126.23,162.8c0-10.51,3.21-15.33,10.24-15.33s10.19,4.82,10.19,15.33-3.21,15.61-10.19,15.61-10.24-4.91-10.24-15.61ZM139.72,162.8c0-6.47-1.01-9.46-3.26-9.46s-3.26,2.98-3.26,9.46,1.01,9.73,3.26,9.73,3.26-3.08,3.26-9.73Z"/><path class="uuid-6d4c6754-cf32-4ef9-9b15-9eb077055d5b" d="M149.17,167.49h6.01c0,4.36.78,5.6,3.21,5.6,1.97,0,2.8-1.15,2.8-3.08,0-1.61-.41-2.29-1.15-2.85-.6-.46-1.74-.96-3.95-1.79-2.02-.73-3.67-1.61-4.64-2.52-1.38-1.15-2.34-3.35-2.34-6.38,0-5.46,3.44-9,9.27-9,6.79,0,8.95,3.3,8.95,11.15h-5.92c0-4.77-.78-5.83-2.89-5.83-1.61,0-2.62,1.15-2.62,3.03s.41,2.57,1.06,3.12,2.16,1.19,4.04,1.93c2.16.83,3.4,1.42,4.59,2.43,1.51,1.29,2.39,3.44,2.39,6.2,0,5.37-3.3,8.9-9.59,8.9-7.44,0-9.23-4.27-9.23-10.92Z"/></g></svg>