<?xml version="1.0" encoding="UTF-8"?><svg id="uuid-9ee2af48-2d61-44cf-a248-f442bd80bdd9" xmlns="http://www.w3.org/2000/svg" viewBox="0 0 180.97 197.35"><defs><style>.uuid-d01dd300-da83-4f72-8276-e4f39a7dd670{fill:#006eff;}.uuid-07ac81ca-6ea5-423c-a6ad-20a4379bf85a{fill:#f7f3eb;}</style></defs><g id="uuid-0b65063a-996f-4ab2-b5a3-5f09b85c864e"><g id="uuid-f239fb4f-37e2-4e3c-b3ac-9d0ba95f63f9"><path class="uuid-d01dd300-da83-4f72-8276-e4f39a7dd670" d="M93.29,2.57c2.56,2.18,4.9,7.96,8.13,8.92,4.4,1.31,9.64-2.68,12.81-1.02,3.43,1.79,5.57,12.23,6.89,15.85,6.74,18.48,15.31,36.15,27.51,51.65,2.22,2.82,2.41,2.2,3.58,5.67.78,2.31,5.21,3.97,4.63,6.76-1.51-1.98-3.43-2.74-5.26-4.21-.18.79.44,1,.84,1.47.81.96,3.37,3.33,3.79,4.21.57,1.2-1.65-.42-1.47,1.05l-3.58-2.94,3.79,5.05c-1.22,1.08-4.24-4.38-5.47-3.58l.84,1.05-2.41-.54c-18.6-20.67-31.33-46-38.89-72.7-6.69,3.55-13.1,1.29-18.74-2.95-2.61,6.78-4.88,13.72-7.86,20.36-3.6,8.05-7.91,16.83-11.94,24.69-3.49,6.81-7.41,13.96-11.81,20.19l1.05-3.37c-2.66.59-1.88,1.97-2.76,3.34-.27.43-1.68,1.21-2.31,1.91-2.41,2.66-6.67,7.68-10.08,8.83-.57.19-1.23-.3-1.84-.2-.14.02-.78,1.57-2.39.86l-.21-1.69-1.89,1.26.84-1.48-.84-.41c7.66-11.69,16.37-22.78,22.97-35.15,7.02-13.13,11.82-26.72,17.16-40.52,1.14-2.94,3.88-11.01,5.43-13.09,2.53-3.39,6.84-1.54,9.48.71Z"/><path class="uuid-d01dd300-da83-4f72-8276-e4f39a7dd670" d="M102.28,100.08l1.68.42-1.06-2.1c9.45,10.04,20.91,2.32,20.03-10.33-.99-14.29-14.91-19.88-27.6-18.71-13.22,1.22-23.17,18.56-31.18,27.78-11.49,13.23-26.63,24.65-45.29,20.61l.84-1.25c-5.05.21-9.12-3.11-13.48-5.06-.41-1.56,1.62-.51,2.11-.84v-1.68c-1.87-.05-3.8-.49-4.63-2.32,1.6-.54,2.63.92,4.43,1.06,1.85.14-1.34-.89.37-.8l8.06,1.64.83-.42c-.4.19-2.49-.13-.83-.43,10.66,1.97,19.51.3,28.49-5.61,20.62-13.59,31.34-45.78,60.77-41.47,14.88,2.18,28.22,17.25,24.4,32.7-1.65,6.69-8.63,14.27-15.92,14.43-4.21.09-11.89-2.67-12.01-7.61Z"/><path class="uuid-d01dd300-da83-4f72-8276-e4f39a7dd670" d="M109.44,77.36l-3.59.42-.62.84,4.21-.41-.84.83c3.07.16,8.53,3.29,9.68,6.11.08.19.11.69-.2.62l-2.74-2.52,2.52,5.89-2.32-3.36c-11.95-9.86-24.94,5.01-21.4,17.6,5.32,18.92,32.06,18.72,47.4,15.95,7.36-1.33,16.1-4.78,23.3-5.34.46-.04,1.57-.31,1.46.41h-1.68c-.11.71,1.02.46,1.49.44,3.49-.11,7.18-1.08,10.73-.86l-7.16,1.25h4s3.58.84,3.58.84c-2.36-.03-5,.16-7.3.59-1.16.21-7.43,1.61-8.02,1.93-.5.27-.03,1.08-.54,1.3-.95.41-3.45.62-4.78,1.04-13.71,4.29-27.05,9.92-41.8,7.67-19.98-3.05-36.82-24.31-23.84-43.37,4.71-6.91,10.2-8.85,18.46-7.86Z"/><path class="uuid-d01dd300-da83-4f72-8276-e4f39a7dd670" d="M103.54,73.57l-5.05.85,3.37.83c-10.11.38-17.01,9.62-18.77,18.92-2.33,12.33,2.72,23.68,9.08,33.91l-2.52-.63c-.11.79.53,1.2.69,1.96.02.09.32,2.21-.48,1.83l-3.58-5.05c-.77.85,3.73,7.12,2.31,7.16-.36-.8-1.18-2.69-1.89-3.14-.41-.26-1.68.26-2.26.05-1.88-.66-6.62-11.21-7.45-13.54-4.42-12.35-3.24-26.46,5.47-36.64.73-.85,4.05-4.14,4.86-4.41,1.11-.37.34,1.38.83,1.26,1.21-.7,2.58-1.55,3.89-2.01.85-.3,4.36-1.36,4.96-1.36h6.53Z"/><path class="uuid-d01dd300-da83-4f72-8276-e4f39a7dd670" d="M158.31,95.03l-.84-1.25c.33.04.79-.1,1.04-.02.38.11,4.12,5.56,5.66,5.54l-.44,1.16c-1.03.81-4.79-2.88-5.65-3.73-.39-.39-2.77-2.5-2.3-2.96l2.52,1.26Z"/></g><rect class="uuid-d01dd300-da83-4f72-8276-e4f39a7dd670" x="0" y="114.24" width="180.97" height="45.7" rx="6.8" ry="6.8"/><rect class="uuid-d01dd300-da83-4f72-8276-e4f39a7dd670" x="40.88" y="151.65" width="99.21" height="45.7" rx="6.82" ry="6.82"/><path class="uuid-07ac81ca-6ea5-423c-a6ad-20a4379bf85a" d="M13.39,121.78h7.89l3.86,23.27h.18l3.72-23.27h6.98l-6.88,30.2h-8.9l-6.84-30.2Z"/><path class="uuid-07ac81ca-6ea5-423c-a6ad-20a4379bf85a" d="M38.03,136.75c0-10.51,3.21-15.33,10.24-15.33s10.19,4.82,10.19,15.33-3.21,15.61-10.19,15.61-10.24-4.91-10.24-15.61ZM51.53,136.75c0-6.47-1.01-9.46-3.26-9.46s-3.26,2.98-3.26,9.46,1.01,9.73,3.26,9.73,3.26-3.08,3.26-9.73Z"/><path class="uuid-07ac81ca-6ea5-423c-a6ad-20a4379bf85a" d="M61.39,121.78h6.79v24.33h6.75v5.88h-13.54v-30.2Z"/><path class="uuid-07ac81ca-6ea5-423c-a6ad-20a4379bf85a" d="M76.95,136.88c0-10.6,3.08-15.47,9.73-15.47,6.2,0,9.04,3.49,9.04,11.06,0,.87-.05,2.2-.09,3.08h-5.78c.05-1.1.05-2.07.05-2.75,0-3.95-.87-5.51-2.71-5.51-2.29,0-3.3,2.43-3.3,9.59s1.01,9.59,3.44,9.59c1.7,0,2.62-1.38,2.62-5.32,0-.64-.05-1.56-.09-2.16h5.83c.05.55.09,1.42.09,2.29,0,7.16-2.89,11.06-9.13,11.06s-9.68-5.05-9.68-15.47Z"/><path class="uuid-07ac81ca-6ea5-423c-a6ad-20a4379bf85a" d="M111.69,146.11h-5.97l-.96,5.88h-6.93l6.88-30.2h9l6.98,30.2h-8.08l-.92-5.88ZM110.95,141.47l-2.16-13.49h-.18l-2.16,13.49h4.5Z"/><path class="uuid-07ac81ca-6ea5-423c-a6ad-20a4379bf85a" d="M123.11,121.78h9.36l5.65,19.05h.05l-.69-19.05h6.24v30.2h-7.57l-7.34-22.44h-.05l.6,22.44h-6.24v-30.2Z"/><path class="uuid-07ac81ca-6ea5-423c-a6ad-20a4379bf85a" d="M146.65,136.75c0-10.51,3.21-15.33,10.24-15.33s10.19,4.82,10.19,15.33-3.21,15.61-10.19,15.61-10.24-4.91-10.24-15.61ZM160.15,136.75c0-6.47-1.01-9.46-3.26-9.46s-3.26,2.98-3.26,9.46,1.01,9.73,3.26,9.73,3.26-3.08,3.26-9.73Z"/><path class="uuid-07ac81ca-6ea5-423c-a6ad-20a4379bf85a" d="M57.49,158.38h8.81c6.24,0,9.09,2.43,9.09,7.8,0,3.76-1.15,5.83-3.67,6.52v.05c3.08.73,4.5,2.94,4.5,7.07,0,6.01-2.89,8.77-9.23,8.77h-9.5v-30.2ZM66.49,171.05c1.97,0,2.85-1.1,2.85-3.53,0-2.57-.92-3.76-2.98-3.76h-2.07v7.3h2.2ZM66.85,183.21c1.93,0,2.8-1.33,2.8-4.27,0-2.43-.92-3.58-2.98-3.58h-2.39v7.85h2.57Z"/><path class="uuid-07ac81ca-6ea5-423c-a6ad-20a4379bf85a" d="M92.05,182.71h-5.97l-.96,5.88h-6.93l6.88-30.2h9l6.98,30.2h-8.08l-.92-5.88ZM91.31,178.07l-2.16-13.49h-.18l-2.16,13.49h4.5Z"/><path class="uuid-07ac81ca-6ea5-423c-a6ad-20a4379bf85a" d="M110.08,177.75l-7.53-19.37h8.35l3.17,12.48h.14l3.12-12.48h7.07l-7.53,19.37v10.83h-6.79v-10.83Z"/></g></svg>