<?xml version="1.0" encoding="UTF-8"?><svg id="uuid-5e626548-63ca-491e-b78f-d84797752826" xmlns="http://www.w3.org/2000/svg" viewBox="0 0 219.73 67.34"><defs><style>.uuid-39a3df19-5f4c-47c0-8596-be4a0be2eb91{fill:#006eff;}.uuid-52346d65-2ae7-44a6-ae22-339f7753ee88{fill:#f7f3eb;}</style></defs><g id="uuid-d1f4f73f-ff20-41f8-93c4-c2d1df83cb43"><rect class="uuid-39a3df19-5f4c-47c0-8596-be4a0be2eb91" x="0" y="0" width="219.73" height="67.34" rx="33.67" ry="33.67"/><circle class="uuid-52346d65-2ae7-44a6-ae22-339f7753ee88" cx="184.83" cy="33.48" r="26.17"/><path class="uuid-52346d65-2ae7-44a6-ae22-339f7753ee88" d="M29.69,16.19h8.92l4.36,26.3h.21l4.2-26.3h7.89l-7.78,34.14h-10.06l-7.73-34.14Z"/><path class="uuid-52346d65-2ae7-44a6-ae22-339f7753ee88" d="M57.91,39.12v-22.93h7.68v22.93c0,3.11,1.19,4.77,3.48,4.77s3.32-1.66,3.32-4.77v-22.93h6.64v22.93c0,7.63-3.63,11.62-10.53,11.62s-10.58-4-10.58-11.62Z"/><path class="uuid-52346d65-2ae7-44a6-ae22-339f7753ee88" d="M82.7,16.19h16.6v6.64h-8.92v7.78h7v5.08h-7v7.99h9.29v6.64h-16.96V16.19Z"/><path class="uuid-52346d65-2ae7-44a6-ae22-339f7753ee88" d="M102.42,16.19h7.68v27.5h7.63v6.64h-15.3V16.19Z"/><path class="uuid-52346d65-2ae7-44a6-ae22-339f7753ee88" d="M120,33.1c0-11.88,3.63-17.33,11.57-17.33s11.52,5.45,11.52,17.33-3.63,17.64-11.52,17.64-11.57-5.55-11.57-17.64ZM135.25,33.1c0-7.32-1.14-10.69-3.68-10.69s-3.68,3.37-3.68,10.69,1.14,11,3.68,11,3.68-3.48,3.68-11Z"/><g id="uuid-57eec958-208a-4eeb-b864-7461a901b3dd"><path class="uuid-39a3df19-5f4c-47c0-8596-be4a0be2eb91" d="M192.27,37.44l-12.23,10.21c-.2.09-.58.03-.79-.04-.53-.18-2.62-1.16-2.81-1.58v-.27s5.71-8.27,5.71-8.27c.16-.23,0-.55-.28-.56l-6.3-.26c-1.32-.05-2.63-.3-3.88-.73l-3.25-1.12c-.21-.14-.26-.49-.32-.73-.42-1.77-1.11-5.85-1.17-7.61-.02-.55-.08-.74.53-.93.19-.06,1.82-.3,1.99-.29.17.02.33.04.47.16l2.81,4.58c.23.38.66.6,1.1.58l7.07-.33c.22-.01.35-.24.25-.43-.66-1.26-2.9-5.11-3.82-7.11-.77-1.68,1.54-1.17,2.76-1.21.26,0,.5.08.69.25l8.72,7.93c.16.14.36.24.57.25,2.99.03,5.86-.09,8.66.13,2.28.18,4.53,1.4,6.16,2.99.63.62,1.25,1.33,1.11,2.28-.27,1.86-1.84,2.08-3.43,2.26l-9.68-.38c-.24,0-.47.07-.65.22Z"/></g></g></svg>