<?xml version="1.0" encoding="UTF-8"?><svg id="uuid-0199103e-8782-46fd-aa7c-ded5999ee1ae" xmlns="http://www.w3.org/2000/svg" xmlns:xlink="http://www.w3.org/1999/xlink" viewBox="0 0 470.2 153.54"><defs><style>.uuid-08786c16-0925-40ff-8e69-0777983d9cca,.uuid-f83d2bce-8230-446a-a04a-5c907127998e{fill:none;}.uuid-6a717705-2ae2-4f6f-b961-d5ca57bd5d76{clip-path:url(#uuid-5f2f0561-fcaf-47ea-a17c-b71c55c1ba82);}.uuid-f83d2bce-8230-446a-a04a-5c907127998e{stroke:#006eff;stroke-linecap:round;stroke-linejoin:round;stroke-width:28.4px;}.uuid-32c43acf-b34c-4a3b-b5e5-1a0e2a030d77{fill:#006eff;}.uuid-528092e9-ef55-4ac7-b058-6ff8644a1997{fill:#f7f3eb;}</style><clipPath id="uuid-5f2f0561-fcaf-47ea-a17c-b71c55c1ba82"><circle class="uuid-08786c16-0925-40ff-8e69-0777983d9cca" cx="78.55" cy="76.77" r="58.6"/></clipPath></defs><g id="uuid-91456940-462e-40fa-a8b8-89eea94ca35a"><path class="uuid-32c43acf-b34c-4a3b-b5e5-1a0e2a030d77" d="M456.28,130.12l-360.94,1.1c-.18,0-.18-108.93,0-108.93l370.14-9.62c3.44-.1,5.76,3.49,4.25,6.58l-23.42,45.71c-.47.96-.59,2.05-.34,3.08l14.76,56.44c.7,2.88-1.48,5.65-4.45,5.65Z"/><path class="uuid-32c43acf-b34c-4a3b-b5e5-1a0e2a030d77" d="M157.11,76.77c0,5.76-7.14,10.64-8.36,16.03s3.02,13.05.6,18.07c-2.46,5.1-11.01,6.41-14.51,10.79-3.52,4.4-2.9,13.02-7.3,16.54-4.38,3.5-12.64.99-17.74,3.45-5.02,2.42-8.19,10.47-13.75,11.73-5.39,1.22-11.72-4.62-17.48-4.62s-12.09,5.84-17.48,4.62c-5.56-1.26-8.74-9.31-13.75-11.73-5.1-2.46-13.36.05-17.74-3.45-4.4-3.52-3.79-12.13-7.3-16.54s-12.05-5.69-14.51-10.79c-2.42-5.02,1.86-12.5.6-18.07S0,82.53,0,76.77s7.14-10.64,8.36-16.03c1.26-5.56-3.02-13.05-.6-18.07,2.46-5.1,11.01-6.41,14.51-10.79,3.52-4.4,2.9-13.02,7.3-16.54,4.38-3.5,12.64-.99,17.74-3.45,5.02-2.42,8.19-10.47,13.75-11.73,5.39-1.22,11.72,4.62,17.48,4.62S90.65-1.06,96.04.17c5.56,1.26,8.74,9.31,13.75,11.73s13.36-.05,17.74,3.45,3.79,12.13,7.3,16.54,12.05,5.69,14.51,10.79-1.86,12.5-.6,18.07c1.22,5.39,8.36,10.27,8.36,16.03Z"/><circle class="uuid-528092e9-ef55-4ac7-b058-6ff8644a1997" cx="78.55" cy="76.77" r="55.63"/><g class="uuid-6a717705-2ae2-4f6f-b961-d5ca57bd5d76"><polyline class="uuid-f83d2bce-8230-446a-a04a-5c907127998e" points="51.57 71.25 75.5 98.82 135.72 30.31"/></g><path class="uuid-528092e9-ef55-4ac7-b058-6ff8644a1997" d="M184.93,69.58h-8.42l-1.36,8.29h-9.78l9.72-42.63h12.7l9.85,42.63h-11.4l-1.29-8.29ZM183.89,63.03l-3.04-19.05h-.26l-3.04,19.05h6.35Z"/><path class="uuid-528092e9-ef55-4ac7-b058-6ff8644a1997" d="M201.12,35.24h12.38c9.13,0,13.35,4.79,13.35,15.42s-3.82,15.22-12.24,15.22h-3.89v11.99h-9.59v-42.63ZM213.95,59.02c2.72,0,3.95-2.4,3.95-7.65s-1.36-7.84-4.34-7.84h-2.85v15.48h3.24Z"/><path class="uuid-528092e9-ef55-4ac7-b058-6ff8644a1997" d="M230.8,35.24h12.96c9.65,0,14.06,3.95,14.06,12.57,0,5.83-1.56,8.94-5.64,10.17v.07c4.02.91,5.64,3.5,5.64,7.52v12.31h-9.65v-11.99c0-2.79-1.3-4.02-4.15-4.02h-3.63v16h-9.59v-42.63ZM243.76,55.78c3.17,0,4.67-1.81,4.67-6.22s-1.49-6.03-4.79-6.03h-3.24v12.25h3.37Z"/><path class="uuid-528092e9-ef55-4ac7-b058-6ff8644a1997" d="M261.83,56.36c0-14.84,4.54-21.64,14.45-21.64s14.38,6.8,14.38,21.64-4.54,22.03-14.38,22.03-14.45-6.93-14.45-22.03ZM280.88,56.36c0-9.14-1.42-13.35-4.6-13.35s-4.6,4.21-4.6,13.35,1.42,13.74,4.6,13.74,4.6-4.34,4.6-13.74Z"/><path class="uuid-528092e9-ef55-4ac7-b058-6ff8644a1997" d="M294.88,35.24h12.44c8.81,0,12.83,3.43,12.83,11.01,0,5.31-1.62,8.23-5.18,9.2v.06c4.34,1.04,6.35,4.15,6.35,9.98,0,8.49-4.08,12.38-13.02,12.38h-13.41v-42.63ZM307.57,53.12c2.79,0,4.02-1.56,4.02-4.99,0-3.63-1.29-5.31-4.21-5.31h-2.92v10.3h3.11ZM308.09,70.29c2.72,0,3.95-1.88,3.95-6.03,0-3.43-1.29-5.05-4.21-5.05h-3.37v11.08h3.63Z"/><path class="uuid-528092e9-ef55-4ac7-b058-6ff8644a1997" d="M343.73,69.58h-8.42l-1.36,8.29h-9.78l9.72-42.63h12.7l9.85,42.63h-11.4l-1.29-8.29ZM342.69,63.03l-3.04-19.05h-.26l-3.05,19.05h6.35Z"/><path class="uuid-528092e9-ef55-4ac7-b058-6ff8644a1997" d="M359.92,35.24h11.79c10.95,0,15.29,6.03,15.29,21.19s-4.15,21.45-14.45,21.45h-12.63v-42.63ZM372.36,69.58c3.63,0,4.99-3.76,4.99-13.15s-1.42-12.89-5.31-12.89h-2.53v26.04h2.85Z"/><path class="uuid-528092e9-ef55-4ac7-b058-6ff8644a1997" d="M390.64,56.36c0-14.84,4.54-21.64,14.45-21.64s14.38,6.8,14.38,21.64-4.54,22.03-14.38,22.03-14.45-6.93-14.45-22.03ZM409.68,56.36c0-9.14-1.42-13.35-4.6-13.35s-4.6,4.21-4.6,13.35,1.42,13.74,4.6,13.74,4.6-4.34,4.6-13.74Z"/><path class="uuid-528092e9-ef55-4ac7-b058-6ff8644a1997" d="M165.78,85.88h7.53c5.56,0,8.12,2.92,8.12,9.38s-2.33,9.27-7.45,9.27h-2.37v7.29h-5.83v-25.94ZM173.59,100.35c1.66,0,2.41-1.46,2.41-4.65s-.83-4.77-2.64-4.77h-1.74v9.42h1.97Z"/><path class="uuid-528092e9-ef55-4ac7-b058-6ff8644a1997" d="M183.48,98.74c0-9.03,2.76-13.17,8.79-13.17s8.75,4.14,8.75,13.17-2.76,13.41-8.75,13.41-8.79-4.22-8.79-13.41ZM195.08,98.74c0-5.56-.87-8.12-2.8-8.12s-2.8,2.56-2.8,8.12.87,8.36,2.8,8.36,2.8-2.64,2.8-8.36Z"/><path class="uuid-528092e9-ef55-4ac7-b058-6ff8644a1997" d="M203.59,85.88h7.88c5.88,0,8.56,2.41,8.56,7.65,0,3.55-.95,5.44-3.43,6.19v.04c2.44.55,3.43,2.13,3.43,4.57v7.49h-5.88v-7.29c0-1.7-.79-2.45-2.52-2.45h-2.21v9.74h-5.83v-25.94ZM211.48,98.38c1.93,0,2.84-1.1,2.84-3.79s-.91-3.67-2.92-3.67h-1.97v7.45h2.05Z"/><path class="uuid-528092e9-ef55-4ac7-b058-6ff8644a1997" d="M229.06,85.88h6.78l3.31,19.99h.16l3.19-19.99h5.99l-5.92,25.94h-7.65l-5.88-25.94Z"/><path class="uuid-528092e9-ef55-4ac7-b058-6ff8644a1997" d="M250.63,85.88h12.62v5.05h-6.78v5.91h5.32v3.86h-5.32v6.07h7.06v5.05h-12.89v-25.94Z"/><path class="uuid-528092e9-ef55-4ac7-b058-6ff8644a1997" d="M265.65,85.88h7.89c5.88,0,8.56,2.41,8.56,7.65,0,3.55-.95,5.44-3.43,6.19v.04c2.44.55,3.43,2.13,3.43,4.57v7.49h-5.88v-7.29c0-1.7-.79-2.45-2.52-2.45h-2.21v9.74h-5.83v-25.94ZM273.54,98.38c1.93,0,2.84-1.1,2.84-3.79s-.91-3.67-2.92-3.67h-1.97v7.45h2.05Z"/><path class="uuid-528092e9-ef55-4ac7-b058-6ff8644a1997" d="M284.54,98.74c0-9.03,2.76-13.17,8.79-13.17s8.75,4.14,8.75,13.17-2.76,13.41-8.75,13.41-8.79-4.22-8.79-13.41ZM296.13,98.74c0-5.56-.87-8.12-2.8-8.12s-2.8,2.56-2.8,8.12.87,8.36,2.8,8.36,2.8-2.64,2.8-8.36Z"/><path class="uuid-528092e9-ef55-4ac7-b058-6ff8644a1997" d="M329.45,107.18l-.04,4.69c-.16.08-.63.2-1.18.2-1.58,0-3.08-.43-4.61-1.77-1.46,1.22-3.08,1.85-4.89,1.85-4.97,0-7.25-3.19-7.25-8.71,0-3.23,1.22-5.95,4.26-6.98-.67-1.97-1.06-3.67-1.06-4.93,0-3.43,1.81-5.95,5.95-5.95,3.83,0,5.72,2.09,5.72,5.76s-1.78,6.07-4.77,6.58l-.04.04c.55,1.3,1.34,2.88,2.13,4.22.55-1.5.99-3.27,1.22-4.97h4.46c-.55,3-1.5,6.31-2.76,9.03.87.79,1.5.99,2.21.99.16,0,.39,0,.67-.04ZM319.12,107.41c.59,0,1.14-.16,1.66-.55-1.14-1.66-2.33-3.67-3.47-6.27h-.04c-.35.43-.67,1.34-.67,2.6,0,2.88.99,4.22,2.52,4.22ZM319.99,91.88c0,.79.16,1.85.47,3.04,1.22-.55,1.58-1.62,1.58-3.15,0-1.46-.35-2.05-1.02-2.05-.71,0-1.03.63-1.03,2.17Z"/><path class="uuid-528092e9-ef55-4ac7-b058-6ff8644a1997" d="M338.99,85.88h7.18c6.66,0,9.31,3.67,9.31,12.89s-2.52,13.05-8.79,13.05h-7.69v-25.94ZM346.56,106.78c2.21,0,3.04-2.29,3.04-8s-.87-7.85-3.23-7.85h-1.54v15.85h1.73Z"/><path class="uuid-528092e9-ef55-4ac7-b058-6ff8644a1997" d="M358.2,85.88h5.83v25.94h-5.83v-25.94Z"/><path class="uuid-528092e9-ef55-4ac7-b058-6ff8644a1997" d="M367.11,85.88h12.62v5.05h-6.78v5.91h5.32v3.86h-5.32v6.07h7.06v5.05h-12.89v-25.94Z"/><path class="uuid-528092e9-ef55-4ac7-b058-6ff8644a1997" d="M398.1,111.83h-4.57s.16-1.74.16-3.63h-.04c-.55,2.72-2.01,3.94-4.61,3.94-4.97,0-7.26-4.06-7.26-12.97s2.68-13.6,8.56-13.6c5.28,0,7.69,2.84,7.69,9.07,0,.83-.04,1.89-.08,2.44h-4.97c.04-.87.04-1.7.04-2.09,0-3-.75-4.38-2.41-4.38-2.01,0-2.92,2.72-2.92,8.63,0,5.48.87,8,2.8,8,1.62,0,2.37-1.34,2.37-4.3v-.51h-2.64v-3.63h7.89v13.01Z"/><path class="uuid-528092e9-ef55-4ac7-b058-6ff8644a1997" d="M400.46,98.74c0-9.03,2.76-13.17,8.79-13.17s8.75,4.14,8.75,13.17-2.76,13.41-8.75,13.41-8.79-4.22-8.79-13.41ZM412.05,98.74c0-5.56-.87-8.12-2.8-8.12s-2.8,2.56-2.8,8.12.87,8.36,2.8,8.36,2.8-2.64,2.8-8.36Z"/></g></svg>