<?xml version="1.0" encoding="UTF-8"?><svg id="uuid-4660a71e-0b6f-4d63-9850-3548fc76a0de" xmlns="http://www.w3.org/2000/svg" viewBox="0 0 263.57 178.51"><defs><style>.uuid-13e3fb04-64d8-40a0-a408-d31df7614e2d{fill:#006eff;}.uuid-025ff8f8-fff3-4252-96b5-e2bbf7586988{fill:#f7f3eb;}</style></defs><g id="uuid-e7dc205e-bec0-4e9f-9d09-e0a7c75dd3e3"><path class="uuid-13e3fb04-64d8-40a0-a408-d31df7614e2d" d="M44.67,20.42h0c54.8-27.23,119.43-27.23,174.23,0h0c60.79,30.21,59.2,110.9-2.73,139.07l-3.15,1.43c-51.55,23.44-110.91,23.44-162.46,0l-3.15-1.43c-61.94-28.17-63.52-108.86-2.73-139.07Z"/><path class="uuid-025ff8f8-fff3-4252-96b5-e2bbf7586988" d="M30.9,47.76c4.25-3.03,8.61-5.84,13.06-8.44,0,13.18,0,26.35,0,39.53,2.49-.28,5.02-.55,7.56-.8v-42.9c4.55-2.36,9.17-4.51,13.87-6.44v119.01c-4.7-1.94-9.33-4.08-13.87-6.44v-46.12c-2.55-.17-5.07-.35-7.56-.55,0,14.17,0,28.33,0,42.5-4.45-2.6-8.81-5.41-13.06-8.44V47.76Z"/><path class="uuid-025ff8f8-fff3-4252-96b5-e2bbf7586988" d="M93.51,128.96c-2.28-.31-4.56-.64-6.82-1-.34,8.94-.67,17.83-1.01,26.7-4.9-1.34-9.75-2.91-14.54-4.68,3.32-39.94,6.66-82.44,10.04-126.88,6.74-2.05,13.59-3.68,20.49-4.9,3.54,46.06,7.09,93.48,10.65,141.6-5.97-.68-11.9-1.66-17.79-2.95-.34-9.32-.68-18.61-1.02-27.87ZM92.88,111.04c-.8-22.4-1.6-44.61-2.41-66.63-.21.03-.42.07-.63.1-.84,22.23-1.68,44.26-2.52,66.08,1.85.16,3.7.32,5.56.46Z"/><path class="uuid-025ff8f8-fff3-4252-96b5-e2bbf7586988" d="M117.6,88.22c0-61.39,5.29-74.32,17.85-74.22,13.2.46,16.4,14.97,16.41,50.71,0,6.31-.26,14.36-.39,18.72-4.12-.03-8.26-.05-12.4-.06.13-4.41.26-11.69.26-18.08,0-23.82-.39-27.37-2.98-27.42-2.85-.04-3.75,4.39-3.75,50.35,0,46.18.52,50.39,3.62,50.35,2.46-.04,3.1-4.04,3.1-26.53,0-4.19-.13-9.93-.26-13.23,4.18-.02,8.36-.07,12.53-.14.13,3.26.26,8.27.26,13.28,0,36.62-4.24,50.12-16.67,50.5-13.85.03-17.59-13.73-17.59-74.23Z"/><path class="uuid-025ff8f8-fff3-4252-96b5-e2bbf7586988" d="M159.05,17.56c5,.77,9.97,1.75,14.9,2.95v66.68s.08,0,.13,0c2.82-22.21,5.63-43.73,8.43-64.37,4.96,1.48,9.87,3.18,14.7,5.1-3.29,16.89-6.62,35.08-9.97,54.27,3.77,23.43,7.5,45.51,11.19,65.82-5.19,2.11-10.46,3.96-15.8,5.56-1.96-15.97-3.93-32.42-5.9-49.27-.92,5.96-1.85,11.99-2.78,18.07v33.55c-4.93,1.2-9.9,2.19-14.9,2.95,0-47.11,0-94.22,0-141.32Z"/><path class="uuid-025ff8f8-fff3-4252-96b5-e2bbf7586988" d="M202.42,105.18c4.1-.52,8.15-1.09,12.13-1.71,0,19.41.59,22.37,3.26,21.27,2.32-.96,2.89-3,2.89-13.07,0-6.37-.46-8.79-1.61-10.74-1.04-1.66-3.13-3.41-5.36-5.5-1.99-1.76-5.07-4.61-7.11-8.57-2.15-3.91-4.2-11.83-4.2-24.6-.02-24.1,5.75-31.35,15.74-25.38,12.21,7.59,14.44,16.03,14.49,40.59-3.64-.67-7.36-1.29-11.15-1.88,0-20.1-.34-22.47-2.42-23.36-2.08-.87-2.9,1.15-2.9,11.16,0,8.28.59,11.67,1.74,13.64,1.04,1.82,3.36,4.33,5.86,6.62,2.62,2.45,5.31,5.05,6.76,7.68,2,3.67,3.1,8.1,3.1,15.21-.04,16.61-4.17,26.05-15.49,33.03-12.83,7.47-15.79-3.57-15.74-34.39Z"/><path class="uuid-025ff8f8-fff3-4252-96b5-e2bbf7586988" d="M245.04,106.39v-34.98c0-2.74.94-4.27,1.58-2.57h0c4.18,11.04,4.18,29.1,0,40.13h0c-.64,1.69-1.58.16-1.58-2.57Z"/><path class="uuid-025ff8f8-fff3-4252-96b5-e2bbf7586988" d="M20.61,71.4v34.98c0,2.74-.94,4.27-1.58,2.57h0c-4.18-11.04-4.18-29.1,0-40.13h0c.64-1.69,1.58-.16,1.58,2.57Z"/></g></svg>