<?xml version="1.0" encoding="UTF-8"?><svg id="uuid-bf7ce9c6-5970-4fdd-983a-c8c706fc4a2a" xmlns="http://www.w3.org/2000/svg" viewBox="0 0 219.64 90.2"><defs><style>.uuid-987172bf-139e-4f08-ba1f-0bf66ce5dc2b{fill:#006eff;}.uuid-90bb2787-e20f-4aa5-9ba3-5df5030814c3{fill:#f7f3eb;}</style></defs><g id="uuid-5327fe59-6c1e-4631-8ac1-4ff5b1f54a2b"><path class="uuid-987172bf-139e-4f08-ba1f-0bf66ce5dc2b" d="M219.64,45.1c0,3.58-8.1,4.98-10.28,8.29-1.83,2.79,1.14,10.5-2.04,13.03-2.66,2.11-9.91-2.17-13.41-.29-3.05,1.65-3.19,10.04-6.81,11.49-3.26,1.31-9.26-4.6-12.94-3.46-3.39,1.04-4.97,9.31-8.68,10.19-3.48.82-8.63-5.83-12.35-5.17s-6.04,8.67-9.77,9.15-8.04-6.68-11.78-6.37-6.83,8.08-10.56,8.23-7.47-7.34-11.2-7.34-7.57,7.49-11.2,7.34-6.95-7.93-10.56-8.23-8.2,6.83-11.78,6.37-6.23-8.52-9.77-9.15c-3.73-.67-8.88,5.99-12.36,5.17-3.71-.88-5.28-9.14-8.68-10.19-3.68-1.13-9.68,4.77-12.94,3.46-3.62-1.45-3.76-9.85-6.81-11.49-3.5-1.89-10.75,2.39-13.41.29-3.18-2.53-.21-10.24-2.04-13.03C8.1,50.08,0,48.68,0,45.1c0-3.58,8.1-4.98,10.28-8.29,1.83-2.79-1.14-10.5,2.04-13.03,2.66-2.11,9.91,2.17,13.41.29,3.05-1.65,3.19-10.04,6.81-11.49,3.26-1.31,9.26,4.6,12.94,3.46,3.39-1.04,4.97-9.31,8.68-10.19,3.48-.82,8.63,5.83,12.35,5.17s6.04-8.67,9.77-9.15,8.04,6.68,11.78,6.37S94.88.15,98.62,0s7.47,7.34,11.2,7.34S117.39-.15,121.02,0s6.95,7.93,10.56,8.23,8.2-6.83,11.78-6.37,6.23,8.52,9.77,9.15c3.73.67,8.88-5.99,12.36-5.17,3.71.88,5.28,9.14,8.68,10.19,3.68,1.13,9.68-4.77,12.94-3.46,3.62,1.45,3.76,9.85,6.81,11.49,3.5,1.89,10.75-2.39,13.41-.29,3.18,2.53.21,10.24,2.04,13.03,2.17,3.31,10.28,4.71,10.28,8.29Z"/><path class="uuid-90bb2787-e20f-4aa5-9ba3-5df5030814c3" d="M62.56,34.37c2.07-.31,4.04.2,5.68,1.35.82.57,1.9.54,2.67-.09.71-.58,1.47-1.08,2.37-1.4,7.37-2.56,13.58,6.06,8.65,12.3l-9.89,10.73c-.82.89-2.2.95-3.09.13l-10.9-10.03c-.07-.06-.13-.13-.19-.2-3.98-4.55-1.24-11.91,4.7-12.79Z"/><path class="uuid-90bb2787-e20f-4aa5-9ba3-5df5030814c3" d="M40,31.6l6.4-.08.36,28.44-6.4.08-.36-28.44Z"/><path class="uuid-90bb2787-e20f-4aa5-9ba3-5df5030814c3" d="M91.06,31.6l9.03-.11,2.98,17.04h.09s2.59-17.11,2.59-17.11l9.08-.12.36,28.44-6.4.08.12-21.27h-.13s-3.66,21.32-3.66,21.32l-4.54.06-4.2-21.22h-.09s.66,21.26.66,21.26l-5.53.07-.36-28.44Z"/><path class="uuid-90bb2787-e20f-4aa5-9ba3-5df5030814c3" d="M129.69,54.03l-5.62.07-.84,5.54-6.53.08,6.12-28.52,8.47-.11,6.93,28.36-7.61.1-.93-5.52ZM128.94,49.67l-2.19-12.68h-.17s-1.87,12.73-1.87,12.73l4.24-.05Z"/><path class="uuid-90bb2787-e20f-4aa5-9ba3-5df5030814c3" d="M157.21,59.21l-5.01.06s.15-1.9.12-3.98h-.04c-.57,2.99-2.15,4.35-5,4.39-5.44.07-8.01-4.35-8.13-14.12-.13-10.24,2.75-14.95,9.19-15.03,5.79-.07,8.47,3.01,8.55,9.83.01.91-.02,2.08-.05,2.68l-5.45.07c.03-.95.02-1.86.01-2.29-.04-3.29-.88-4.79-2.7-4.76-2.2.03-3.16,3.02-3.08,9.51.08,6.01,1.06,8.76,3.18,8.74,1.77-.02,2.58-1.5,2.53-4.74v-.56s-2.9.04-2.9.04l-.05-3.98,8.64-.11.18,14.26Z"/><path class="uuid-90bb2787-e20f-4aa5-9ba3-5df5030814c3" d="M159.14,30.74l6.4-.08.36,28.44-6.4.08-.36-28.44Z"/><path class="uuid-90bb2787-e20f-4aa5-9ba3-5df5030814c3" d="M167.83,44.85c-.13-9.98,2.71-14.6,8.98-14.68,5.84-.07,8.56,3.18,8.65,10.31,0,.82-.02,2.07-.05,2.9l-5.45.07c.03-1.04.02-1.95.01-2.59-.05-3.72-.89-5.18-2.62-5.16-2.16.03-3.08,2.33-3,9.07.08,6.61,1.07,9.02,3.36,8.99,1.6-.02,2.45-1.33,2.4-5.05,0-.61-.06-1.47-.11-2.03l5.49-.07c.05.52.1,1.34.12,2.16.09,6.74-2.59,10.45-8.47,10.53-6.14.08-9.18-4.64-9.3-14.45Z"/></g></svg>