<?xml version="1.0" encoding="UTF-8"?><svg id="uuid-f090a82e-f1bf-4874-93c8-9ced08596944" xmlns="http://www.w3.org/2000/svg" viewBox="0 0 190.82 82.57"><defs><style>.uuid-3630413d-34a4-4059-a935-6fc867e3b324{fill:#f7f3eb;}.uuid-799515b2-15d7-4648-9e3f-deada1d096d6{fill:#ff7345;}</style></defs><g id="uuid-ad76e108-6976-44ad-ae11-75835259f75e"><rect class="uuid-799515b2-15d7-4648-9e3f-deada1d096d6" x="0" y=".27" width="190.82" height="82.04" rx="41.02" ry="41.02" transform="translate(.2 -.47) rotate(.28)"/><path class="uuid-3630413d-34a4-4059-a935-6fc867e3b324" d="M65.52,19.45l-3.8-2.09c-.08-.04-.17,0-.18.1l-.53,7.44c-.01.15-.22.15-.24,0l-1.24-11.67c-.01-.1.09-.16.18-.12l3.8,2.08c.08.04.17,0,.18-.1l.65-8.13c.01-.15.22-.15.24,0l1.13,12.35c0,.1-.09.16-.18.12Z"/><path class="uuid-3630413d-34a4-4059-a935-6fc867e3b324" d="M130.78,20.87l-3.8-2.09c-.08-.04-.17,0-.18.1l-.53,7.44c-.01.15-.22.15-.24,0l-1.24-11.67c-.01-.1.09-.16.18-.12l3.8,2.08c.08.04.17,0,.18-.1l.65-8.13c.01-.15.22-.15.24,0l1.13,12.35c0,.1-.09.16-.18.12Z"/><path class="uuid-3630413d-34a4-4059-a935-6fc867e3b324" d="M78.61,9.17l4.67.06,7.97,13.08h.05s.11-12.98.11-12.98l2.93.04-.21,17.09-3.69-.04-8.94-14.6h-.03s-.15,14.49-.15,14.49l-2.93-.04.21-17.09Z"/><path class="uuid-3630413d-34a4-4059-a935-6fc867e3b324" d="M96.19,17.85c.07-5.43,4-8.68,8.96-8.62,4.98.06,8.84,3.41,8.78,8.83-.07,5.53-4,8.83-8.99,8.77-4.96-.06-8.82-3.46-8.75-8.99ZM110.76,18.03c.05-3.82-2.47-6.16-5.64-6.2-3.14-.04-5.72,2.24-5.76,6.06-.05,3.92,2.47,6.31,5.61,6.35,3.17.04,5.74-2.29,5.79-6.22Z"/><path class="uuid-3630413d-34a4-4059-a935-6fc867e3b324" d="M21.65,31.42l10.08.12,3.29,9.42h.03s3.46-9.33,3.46-9.33l9.17.11-.21,17.09-6.47-.08.17-11.92h-.03s-4.48,11.87-4.48,11.87l-5.17-.06-4.19-11.97h-.05s-.12,11.92-.12,11.92l-5.69-.07.21-17.09Z"/><path class="uuid-3630413d-34a4-4059-a935-6fc867e3b324" d="M49.07,41.08l.11-9.32,6.54.08-.1,8.62c-.03,2.65,1.62,3.71,4.27,3.74s4.3-.99,4.33-3.64l.1-8.62,5.43.07-.11,9.32c-.07,5.56-3.92,8.03-10.36,7.95-6.41-.08-10.28-2.64-10.21-8.2Z"/><path class="uuid-3630413d-34a4-4059-a935-6fc867e3b324" d="M70.66,40.79c.06-4.99,3.69-9.05,11.25-8.95,7.71.09,9.91,3.37,9.87,6.61,0,.16,0,.42-.03.65l-5.4-.07v-.13c.02-1.17-1.06-2.45-4.15-2.49-3.12-.04-4.85,1.81-4.88,4.49-.03,2.57,1.35,4.56,4.72,4.6,2.91.04,3.96-1.41,3.98-2.32v-.05l-4.57-.06.03-2.65,10.54.13-.11,8.8-4.96-.06c.03-.68.07-1.97.09-3.04h-.05c-.62,1.94-2.54,3.32-6.43,3.27-7.17-.09-9.95-4.22-9.89-8.74Z"/><path class="uuid-3630413d-34a4-4059-a935-6fc867e3b324" d="M92.92,41.06c.06-4.99,3.69-9.05,11.25-8.95,7.71.09,9.91,3.37,9.87,6.61,0,.16,0,.42-.03.65l-5.4-.07v-.13c.02-1.17-1.06-2.45-4.15-2.49-3.12-.04-4.85,1.81-4.89,4.49-.03,2.57,1.35,4.56,4.72,4.6,2.91.04,3.96-1.41,3.97-2.32v-.05l-4.57-.06.03-2.65,10.54.13-.11,8.8-4.96-.06c.03-.67.07-1.97.09-3.04h-.05c-.62,1.94-2.54,3.32-6.43,3.27-7.17-.09-9.95-4.22-9.89-8.74Z"/><path class="uuid-3630413d-34a4-4059-a935-6fc867e3b324" d="M115.76,32.56l6.57.08-.15,12.15,8.99.11-.06,4.93-15.55-.19.21-17.09Z"/><path class="uuid-3630413d-34a4-4059-a935-6fc867e3b324" d="M132.25,32.76l16.28.2-.05,4.57-9.79-.12-.03,2.52,7.19.09-.03,2.83-7.19-.09-.03,2.6,10.05.12-.05,4.57-16.54-.2.21-17.09Z"/><path class="uuid-3630413d-34a4-4059-a935-6fc867e3b324" d="M149.59,44.32l5.69.07c-.02,1.22.8,2.22,4.1,2.26,3.45.04,4.01-.73,4.02-1.61,0-.57-.33-.94-1.13-1.13-.88-.19-3.09-.32-4.85-.47-2-.15-4.46-.5-5.8-1.21-1.32-.69-2.08-1.92-2.06-3.64.04-3.27,3.19-5.88,10.17-5.8,8.28.1,9.68,2.92,9.64,6.01l-5.53-.07c.02-1.27-1.2-2.07-3.95-2.1-2.7-.03-3.77.6-3.79,1.54,0,.49.28.83.87,1.02.78.27,2.93.37,4.82.55,2.47.21,4.39.44,5.73,1.03,1.63.7,2.55,2.03,2.53,3.8-.03,2.8-1.5,6.03-10.54,5.92-9.11-.11-9.95-3.86-9.92-6.17Z"/><path class="uuid-3630413d-34a4-4059-a935-6fc867e3b324" d="M48.55,67.93l-7.97-.1-1.5,3.83-3.22-.04,7.17-17,3.79.05,6.73,17.17-3.61-.04-1.38-3.86ZM47.8,65.85l-3.07-8.56h-.05s-3.3,8.48-3.3,8.48l6.41.08Z"/><path class="uuid-3630413d-34a4-4059-a935-6fc867e3b324" d="M55.21,54.77l3.12.04-.17,14.49,8.46.1-.03,2.6-11.58-.14.21-17.09Z"/><path class="uuid-3630413d-34a4-4059-a935-6fc867e3b324" d="M68.25,54.92l3.12.04-.17,14.49,8.46.1-.03,2.6-11.58-.14.21-17.09Z"/><path class="uuid-3630413d-34a4-4059-a935-6fc867e3b324" d="M80.58,63.54c.07-5.43,4-8.68,8.96-8.62,4.98.06,8.84,3.41,8.78,8.83-.07,5.53-4,8.83-8.99,8.77-4.96-.06-8.82-3.46-8.75-8.99ZM95.15,63.72c.05-3.82-2.47-6.16-5.64-6.2-3.14-.04-5.72,2.24-5.76,6.06-.05,3.92,2.47,6.32,5.61,6.35,3.17.04,5.74-2.29,5.79-6.22Z"/><path class="uuid-3630413d-34a4-4059-a935-6fc867e3b324" d="M99.23,55.3l3.35.04,3.73,13.27h.08s3.95-13.07,3.95-13.07l3.12.04,3.58,13.16h.08s4-13.17,4-13.17l3.09.04-5.58,17.02-3.43-.04-3.48-12.64h-.08s-3.89,12.55-3.89,12.55l-3.38-.04-5.14-17.15Z"/><path class="uuid-3630413d-34a4-4059-a935-6fc867e3b324" d="M125.6,55.62l11.69.14-.03,2.6-8.57-.1-.06,4.88,6.8.08-.02,2.03-6.8-.08-.06,4.99,8.8.11-.03,2.6-11.92-.14.21-17.09Z"/><path class="uuid-3630413d-34a4-4059-a935-6fc867e3b324" d="M139.15,55.78l6.54.08c5.35.06,8.61,3.19,8.54,8.62-.06,5.48-3.22,8.53-8.21,8.47l-7.09-.09.21-17.09ZM146.02,70.36c3.06.04,5.09-1.99,5.13-5.91.05-3.9-2.08-5.95-5.35-5.99l-3.56-.04-.14,11.89,3.92.05Z"/></g></svg>