<?xml version="1.0" encoding="UTF-8"?><svg id="uuid-d7bd06a3-6929-4e14-8497-630b81182cfa" xmlns="http://www.w3.org/2000/svg" viewBox="0 0 215.39 215.23"><defs><style>.uuid-c0cade21-b62d-4c17-860c-797d940c568c{fill:#006eff;}.uuid-1cef4240-902b-4017-8253-7605e8231fcf{fill:#f7f3eb;}</style></defs><g id="uuid-0e64457d-23f5-4e3b-8cf6-e8cf0c105bfa"><circle class="uuid-c0cade21-b62d-4c17-860c-797d940c568c" cx="107.62" cy="107.62" r="107.62"/><path class="uuid-c0cade21-b62d-4c17-860c-797d940c568c" d="M8.93,0h197.54C211.39,0,215.39,4,215.39,8.93v98.69H0V8.93C0,4,4,0,8.93,0Z"/><path class="uuid-1cef4240-902b-4017-8253-7605e8231fcf" d="M94.22,100.95c4-.42,7.76.71,10.82,3.04,1.52,1.16,3.61,1.2,5.14.04,1.4-1.07,2.91-1.97,4.66-2.5,14.37-4.33,25.63,12.73,15.65,24.32l-19.86,19.85c-1.65,1.64-4.31,1.64-5.96,0l-20.15-20.14c-.13-.13-.25-.26-.36-.4-7.29-9.06-1.44-23,10.05-24.21Z"/><path class="uuid-1cef4240-902b-4017-8253-7605e8231fcf" d="M39.45,103.73l.28,5.49-17.72.89.5,10.05-4.32.22-.78-15.54,22.04-1.1Z"/><path class="uuid-1cef4240-902b-4017-8253-7605e8231fcf" d="M26.93,122.54l12.88-4.08,1.66,5.24-12.69,4.02c-2.88.91-3.7,3.32-2.82,6.1.88,2.78,2.94,4.28,5.81,3.37l12.69-4.02,1.47,4.64-12.88,4.08c-5.37,1.7-9.67-1.09-11.53-6.97-1.86-5.88.04-10.67,5.41-12.37Z"/><path class="uuid-1cef4240-902b-4017-8253-7605e8231fcf" d="M47.35,139.81l8.87,12.87-3.56,2.45-5.75-8.34-4.09,2.82,4.45,6.46-2.76,1.9-4.45-6.46-4.2,2.89,5.92,8.59-3.56,2.45-9.04-13.12,18.17-12.52Z"/><path class="uuid-1cef4240-902b-4017-8253-7605e8231fcf" d="M49.21,162.27c4.62-5.71,11.2-5.95,16.46-1.69,4.33,3.5,5.92,8.62,2.75,12.53-.32.39-.68.79-.87.97l-3.73-3.02c.26-.27.47-.53.62-.71,1.65-2.03.7-4.65-1.33-6.29-2.92-2.36-6.66-1.85-9.57,1.75-2.76,3.41-2.3,7.15.36,9.31,1.93,1.56,4.81,1.95,6.39,0l.21-.26-4.43-3.58,1.96-2.42,8.5,6.87-7.02,8.68-3.31-2.68c.53-.6,1.57-1.79,2.46-2.88l-.03-.02c-2.12,1.61-5.07,1.2-7.86-1.05-4.9-3.96-5.93-10.1-1.56-15.5Z"/><path class="uuid-1cef4240-902b-4017-8253-7605e8231fcf" d="M70.1,177.97c2.37-6.67,8.63-8.89,14.92-6.66,6.29,2.23,9.75,7.91,7.39,14.58-2.41,6.79-8.7,9.08-14.99,6.85s-9.73-7.97-7.32-14.77ZM87.02,184.01c1.47-4.14-.16-7.46-3.45-8.62-3.29-1.17-6.65.38-8.12,4.52-1.49,4.2.12,7.58,3.41,8.75,3.29,1.17,6.67-.44,8.16-4.65Z"/><path class="uuid-1cef4240-902b-4017-8253-7605e8231fcf" d="M106.57,175.91l15.56-1.47.41,4.31-10.08.95.47,4.94,7.81-.74.31,3.34-7.81.74.48,5.08,10.38-.98.41,4.31-15.86,1.5-2.08-21.97Z"/><path class="uuid-1cef4240-902b-4017-8253-7605e8231fcf" d="M134.37,181.55l-10.8-7.02,6.44-2.68,6.9,5.16,1.09-8.48,5.7-2.37-2.55,12.72,11.27,7.55-6.41,2.67-7.08-5.41-1.06,8.79-6.07,2.52,2.57-13.46Z"/><path class="uuid-1cef4240-902b-4017-8253-7605e8231fcf" d="M145.34,164.13l4.44-3.24,13,17.83-4.44,3.24-13-17.83Z"/><path class="uuid-1cef4240-902b-4017-8253-7605e8231fcf" d="M163.31,169.09l3.22-3.69c1.79,1.56,3.59,1.85,6.02-.93,2.45-2.81,1.99-4.32.92-5.24-.71-.62-1.43-.71-2.23-.25-.89.51-2.64,2.01-4.06,3.22-1.69,1.42-3.47,2.8-4.94,3.21-1.61.47-3.25,0-4.85-1.38-3.13-2.73-3.17-7.08,1.02-11.88,4.6-5.28,8.3-5.08,12.04-1.82l-3.2,3.66c-1.9-1.65-3.79-1.57-5.77.7-1.96,2.25-1.96,3.94-.85,4.91.81.71,1.46.87,2.22.51.83-.39,2.63-1.89,4.09-3.11,1.93-1.61,3.47-2.76,4.86-3.28,1.67-.64,3.41-.23,4.97,1.13,2.83,2.47,3.97,6.26-1.21,12.2-4.98,5.71-9.21,4.69-12.26,2.03Z"/><path class="uuid-1cef4240-902b-4017-8253-7605e8231fcf" d="M172.36,139.77l-2.58,5.72-3.94-1.78,7.41-16.41,3.94,1.78-2.57,5.68,16.17,7.3-2.26,5.01-16.17-7.3Z"/><path class="uuid-1cef4240-902b-4017-8253-7605e8231fcf" d="M184.81,127.55c-7.04-.72-10.68-6.29-10-12.93s5.38-11.35,12.42-10.62c7.17.74,10.88,6.31,10.2,12.95s-5.45,11.34-12.62,10.6ZM186.68,109.68c-4.37-.45-7.21,1.92-7.57,5.39s1.94,6.37,6.31,6.82c4.44.46,7.34-1.91,7.7-5.38s-2.01-6.38-6.44-6.83Z"/><path class="uuid-1cef4240-902b-4017-8253-7605e8231fcf" d="M18.32,22.67h14.05l6.86,41.42h.33l6.62-41.42h12.42l-12.25,53.76h-15.85l-12.17-53.76Z"/><path class="uuid-1cef4240-902b-4017-8253-7605e8231fcf" d="M63.33,22.67h12.09v53.76h-12.09V22.67Z"/><path class="uuid-1cef4240-902b-4017-8253-7605e8231fcf" d="M104.92,65.97h-10.62l-1.72,10.46h-12.34l12.25-53.76h16.01l12.42,53.76h-14.38l-1.63-10.46ZM103.61,57.72l-3.84-24.02h-.33l-3.84,24.02h8.01Z"/><path class="uuid-1cef4240-902b-4017-8253-7605e8231fcf" d="M124.69,56.99c0-2.7.16-6.45.25-8.5h10.29c-.08,1.71-.16,4.98-.16,7.76,0,7.84.9,10.38,3.59,10.38,2.37,0,3.76-2.37,3.76-10.78V22.67h12.09v31.62c0,16.42-5.31,22.79-15.03,22.79s-14.79-6.37-14.79-20.1Z"/><path class="uuid-1cef4240-902b-4017-8253-7605e8231fcf" d="M159.66,49.31c0-18.71,5.72-27.29,18.22-27.29s18.14,8.58,18.14,27.29-5.72,27.78-18.14,27.78-18.22-8.74-18.22-27.78ZM183.67,49.31c0-11.52-1.8-16.83-5.8-16.83s-5.8,5.31-5.8,16.83,1.8,17.32,5.8,17.32,5.8-5.47,5.8-17.32Z"/></g></svg>