<?xml version="1.0" encoding="UTF-8"?><svg id="uuid-28b7779c-5868-4aae-8a83-980d78d2c7dd" xmlns="http://www.w3.org/2000/svg" viewBox="0 0 167.01 60.13"><defs><style>.uuid-4d4f41a9-95e5-4bcb-ad4a-6a109bbb76de{fill:#f7f3eb;}.uuid-f1a5bfc7-7375-45fe-90c9-e960a82f0f38{fill:#ff7345;}</style></defs><g id="uuid-744bc41e-1217-4525-80cf-ba1a3fec5aba"><path class="uuid-f1a5bfc7-7375-45fe-90c9-e960a82f0f38" d="M.81,7.66L0,55.2c-.04,2.46,1.93,4.48,4.38,4.5l158.16.42c2.49.02,4.51-2.01,4.47-4.51l-1-51.28c-.04-2.46-2.08-4.41-4.54-4.34L5.11,3.31c-2.37.06-4.27,1.98-4.31,4.35Z"/><path class="uuid-4d4f41a9-95e5-4bcb-ad4a-6a109bbb76de" d="M5.27,7.62l13.35-.1.14,18,8.33-.06-.14-18,13.42-.1.38,48.53-13.42.1-.15-19.1-8.33.06.15,19.1-13.35.1-.38-48.54Z"/><path class="uuid-f1a5bfc7-7375-45fe-90c9-e960a82f0f38" d="M45.59,31.35c-.13-16.52,5.27-24.68,17.73-24.78,12.39-.09,17.84,7.98,17.97,24.5.13,16.82-5.12,25.12-17.58,25.22-12.47.1-17.98-7.9-18.12-24.94ZM67.64,31.18c-.07-9.59-1.36-13.27-4.23-13.25-2.88.02-4.17,3.72-4.1,13.31.08,9.96,1.43,13.71,4.31,13.69,2.88-.02,4.1-3.79,4.03-13.75Z"/><path class="uuid-4d4f41a9-95e5-4bcb-ad4a-6a109bbb76de" d="M86.12,6.99l18.37-.14,3.88,24.9h.15s3.57-24.96,3.57-24.96l17.41-.14.38,48.54-13.42.1.35-31.8h-.22s-5.36,31.84-5.36,31.84l-8.41.06-5.85-31.75h-.15s.76,31.79.76,31.79l-11.06.09-.38-48.53Z"/><path class="uuid-4d4f41a9-95e5-4bcb-ad4a-6a109bbb76de" d="M135.17,6.61l25.37-.2.09,11.43-12.02.09.07,8.93,9.22-.07.06,7.6-9.22.07.07,9.15,12.54-.1.09,11.43-25.89.2-.38-48.53Z"/><path class="uuid-f1a5bfc7-7375-45fe-90c9-e960a82f0f38" d="M88.21,10.19c-3.68-3.4-8.45-4.47-12.76-2.89-3.95,1.45-6.74,4.92-7.29,9.04-.06.43-.08.86-.08,1.3-.3-.09-.48-.14-.62-.16-2.48-.46-5.98-.39-8.5.17-.06.01-.12.03-.18.04,0-.28,0-.56-.02-.85-.21-2.71-1.9-5.72-4.2-7.5h0c-3.27-2.53-7.39-3.15-11.32-1.71-4.43,1.62-7.8,5.5-8.78,10.1-.67,3.15-.09,6.26,1.62,8.78,1.75,2.56,4.5,4.28,7.75,4.82.3.05.6.08.9.09-.32,1.28-.51,2.51-.56,3.7-.29,6.64,2.78,12.89,8.21,16.72,3.38,2.39,7.35,3.6,11.35,3.57,2.42-.02,4.86-.49,7.18-1.43,8.98-3.63,13.93-13.58,11.48-22.84,4.53-.41,8.71-3.67,9.9-7.94,1.26-4.53-.3-9.51-4.08-13Z"/><path class="uuid-4d4f41a9-95e5-4bcb-ad4a-6a109bbb76de" d="M53.63,10.54c1.87,1.45,3.43,4.01,3.61,6.42.07.95-.09,1.88-.06,2.82.73-.09,1.41-.49,2.1-.65,2.3-.51,5.6-.58,7.89-.16.36.07,2.57.81,2.67.71-.24-1.04-.32-2.07-.18-3.14.47-3.57,2.95-6.58,6.31-7.82,8.27-3.05,17.18,5.73,14.85,14.06-1.16,4.15-5.64,7.11-9.92,6.86-.24-.01-.37-.2-.61-.08-.1.14.4,1.19.48,1.45,2.62,8.78-2.13,18.19-10.43,21.55-12.12,4.9-25.21-4.35-24.65-17.38.08-1.85.5-3.63,1.11-5.36-.88.05-1.84.15-2.72,0-5.75-.96-9.37-6-8.14-11.78,1.65-7.77,10.93-12.73,17.68-7.5Z"/></g></svg>