<?xml version="1.0" encoding="UTF-8"?><svg id="uuid-94b3bbe1-bf30-4d02-8350-767f83dc4084" xmlns="http://www.w3.org/2000/svg" viewBox="0 0 109.74 109.74"><defs><style>.uuid-f5478d71-ac54-43fc-a9c9-2026430d6c28{fill:#f7f3eb;}.uuid-3a615ec2-ea2b-4e9d-a334-1c1af139a07e{fill:#ff7345;}</style></defs><g id="uuid-6e8410b6-b34b-4364-abb2-f533079e1f63"><circle class="uuid-3a615ec2-ea2b-4e9d-a334-1c1af139a07e" cx="54.87" cy="54.87" r="54.87"/><path class="uuid-f5478d71-ac54-43fc-a9c9-2026430d6c28" d="M17.02,38.77l1.33.47-1.55,4.36-6.25-2.22,1.55-4.36,1.33.47-1.04,2.91,1.19.42.95-2.69,1.33.47-.96,2.69,1.08.38,1.04-2.91Z"/><path class="uuid-f5478d71-ac54-43fc-a9c9-2026430d6c28" d="M22.08,32.39l-.77,1.33-4.7.51,3.29,1.91-.77,1.33-5.73-3.33.73-1.25,4.87-.52-3.41-1.99.77-1.33,5.73,3.33Z"/><path class="uuid-f5478d71-ac54-43fc-a9c9-2026430d6c28" d="M22.61,21.66s1.84-1.81,3.51-.11c1.66,1.69-.17,3.5-.17,3.5l-.8.79,1.32,1.34-1.09,1.08-4.66-4.72,1.89-1.86ZM23.55,22.67l-.77.76,1.41,1.43.77-.76c.37-.37.48-.86-.02-1.38-.51-.52-1.01-.42-1.38-.05Z"/><path class="uuid-f5478d71-ac54-43fc-a9c9-2026430d6c28" d="M30.89,21.51l2.53-1.78.81,1.15-3.78,2.66-3.81-5.42,1.25-.88,3,4.27Z"/><path class="uuid-f5478d71-ac54-43fc-a9c9-2026430d6c28" d="M39.04,17.22l-2.18,1.01.1,1.18-1.55.72-.59-7.03,1.62-.75,4.97,5-1.55.72-.83-.84ZM38.02,16.14l-1.56-1.65.24,2.26,1.32-.61Z"/><path class="uuid-f5478d71-ac54-43fc-a9c9-2026430d6c28" d="M48.63,15.5l-1.49.36-3.61-3.04.89,3.7-1.49.36-1.54-6.45,1.4-.34,3.74,3.17-.92-3.84,1.49-.36,1.54,6.44Z"/><path class="uuid-f5478d71-ac54-43fc-a9c9-2026430d6c28" d="M54.19,8.39l2.61.12c1.97.09,3.25,1.58,3.17,3.46-.08,1.89-1.49,3.24-3.46,3.16l-2.61-.12.29-6.62ZM55.66,9.86l-.17,3.81,1.07.05c1.09.05,1.76-.72,1.81-1.82.05-1.1-.56-1.94-1.64-1.99l-1.07-.05Z"/><path class="uuid-f5478d71-ac54-43fc-a9c9-2026430d6c28" d="M66.48,15.22l-.31,1.37-4.51-1.01,1.44-6.47,4.51,1.01-.31,1.37-3.02-.67-.27,1.23,2.78.62-.31,1.37-2.78-.62-.25,1.12,3.02.67Z"/><path class="uuid-f5478d71-ac54-43fc-a9c9-2026430d6c28" d="M72.74,19.2l.93-6.99,1.51.79-.73,4.89,3.59-3.39,1.51.79-5.21,4.76-1.6-.84Z"/><path class="uuid-f5478d71-ac54-43fc-a9c9-2026430d6c28" d="M81.76,16.87l1.24.9-3.9,5.36-1.24-.9,3.9-5.36Z"/><path class="uuid-f5478d71-ac54-43fc-a9c9-2026430d6c28" d="M84.56,26.5l-1.72-1.68-1.07.51-1.22-1.19,6.37-3.05,1.27,1.25-2.91,6.43-1.22-1.19.49-1.07ZM85.21,25.16l.99-2.04-2.03,1.02,1.04,1.02Z"/><path class="uuid-f5478d71-ac54-43fc-a9c9-2026430d6c28" d="M89.29,31l3.82-2.74.89,1.25-3.9,2.8c-.84.61-2.15.34-2.98-.82-.9-1.25-.25-2.52-.25-2.52l1.29.6c-.13.31-.12.79.14,1.15.35.48.87.37,1,.29Z"/><path class="uuid-f5478d71-ac54-43fc-a9c9-2026430d6c28" d="M93.06,38.68l-1.26.63-2.07-4.14,5.93-2.96,2.07,4.14-1.26.63-1.38-2.76-1.13.56,1.27,2.55-1.26.63-1.27-2.55-1.02.51,1.38,2.76Z"/><path class="uuid-f5478d71-ac54-43fc-a9c9-2026430d6c28" d="M94.55,43.1c.24.78.67.82.78.78.96-.29-.54-3.52,1.82-4.24.62-.18,1.96-.1,2.51,1.73.54,1.8-.55,2.74-.55,2.74l-1.1-.79c.41-.42.38-1.07.23-1.59-.12-.39-.44-.68-.72-.6-1.12.34.55,3.52-1.81,4.23-.66.2-2.02-.03-2.59-1.9-.51-1.68.26-2.66.61-3.01l1.21.87c-.18.16-.65.88-.39,1.77Z"/><path class="uuid-f5478d71-ac54-43fc-a9c9-2026430d6c28" d="M15.55,67.14l1.31-.5,1.99,5.19-1.31.5-.72-1.87-4.87,1.87-.55-1.44,4.87-1.87-.72-1.87Z"/><path class="uuid-f5478d71-ac54-43fc-a9c9-2026430d6c28" d="M15.96,80.09l.8-2.3-.34-.56-1.61.97-.79-1.31,5.67-3.43,1.37,2.27s1.33,2.2-.7,3.44c-1.09.66-1.97.33-2.56-.11l-.95,2.53-.9-1.49ZM17.59,76.52l.56.93c.27.45.73.67,1.34.3.63-.38.64-.88.37-1.33l-.56-.93-1.71,1.04Z"/><path class="uuid-f5478d71-ac54-43fc-a9c9-2026430d6c28" d="M22.18,86.23l-1.61-1.78-1.09.45-1.14-1.27,6.54-2.64,1.2,1.33-3.3,6.23-1.14-1.27.56-1.04ZM22.91,84.94l1.12-1.98-2.09.9.97,1.08Z"/><path class="uuid-f5478d71-ac54-43fc-a9c9-2026430d6c28" d="M25.59,90.9l2.2-6.7,1.34,1.05-1.62,4.67,4.15-2.67,1.34,1.05-5.99,3.71-1.42-1.12Z"/><path class="uuid-f5478d71-ac54-43fc-a9c9-2026430d6c28" d="M36.09,95.89l-.66,1.25-4.09-2.16,3.1-5.87,4.09,2.16-.66,1.25-2.74-1.45-.59,1.12,2.52,1.33-.66,1.25-2.52-1.33-.54,1.01,2.74,1.45Z"/><path class="uuid-f5478d71-ac54-43fc-a9c9-2026430d6c28" d="M40.14,97.48l2.93.99-.45,1.33-4.38-1.48,2.12-6.28,1.45.49-1.67,4.94Z"/><path class="uuid-f5478d71-ac54-43fc-a9c9-2026430d6c28" d="M52.27,94.7s2.57.2,2.38,2.58c-.18,2.36-2.75,2.16-2.75,2.16l-1.12-.09-.15,1.87-1.53-.12.52-6.61,2.65.21ZM52.13,96.07l-1.09-.09-.16,2,1.09.08c.52.04.97-.2,1.02-.92.06-.73-.34-1.04-.87-1.08Z"/><path class="uuid-f5478d71-ac54-43fc-a9c9-2026430d6c28" d="M58.53,99.89l3.08-.28.13,1.4-4.61.41-.59-6.6,1.53-.14.47,5.2Z"/><path class="uuid-f5478d71-ac54-43fc-a9c9-2026430d6c28" d="M68.35,98.34l-2.31.64-.09,1.18-1.64.46.55-7.03,1.72-.48,4.1,5.74-1.64.46-.68-.96ZM67.52,97.11l-1.27-1.88-.13,2.27,1.4-.39Z"/><path class="uuid-f5478d71-ac54-43fc-a9c9-2026430d6c28" d="M78.59,95.14l-1.37.69-4.22-2.14,1.71,3.4-1.37.69-2.97-5.93,1.29-.65,4.36,2.24-1.77-3.53,1.37-.69,2.97,5.93Z"/><path class="uuid-f5478d71-ac54-43fc-a9c9-2026430d6c28" d="M86.08,89.69l-1.21.95-4.56-1.26,2.35,2.99-1.21.95-4.1-5.22,1.13-.89,4.72,1.32-2.44-3.11,1.21-.95,4.09,5.22Z"/><path class="uuid-f5478d71-ac54-43fc-a9c9-2026430d6c28" d="M90.45,82.97l1.06.93-3.06,3.47-4.98-4.38,3.06-3.47,1.06.93-2.04,2.32.95.83,1.89-2.14,1.06.93-1.89,2.14.86.76,2.04-2.32Z"/><path class="uuid-f5478d71-ac54-43fc-a9c9-2026430d6c28" d="M95.31,78.22l-2.41.35-.34.56,1.6.98-.8,1.31-5.65-3.46,1.39-2.27s1.35-2.2,3.38-.95c1.08.66,1.2,1.59,1.08,2.32l2.68-.32-.91,1.48ZM91.38,78.41l.57-.93c.27-.45.26-.95-.35-1.33-.63-.38-1.08-.16-1.36.29l-.57.93,1.71,1.05Z"/><path class="uuid-f5478d71-ac54-43fc-a9c9-2026430d6c28" d="M97.02,71.53c.3-.75-.01-1.05-.12-1.09-.93-.37-1.77,3.09-4.05,2.18-.6-.24-1.59-1.14-.89-2.91.69-1.74,2.13-1.8,2.13-1.8l.37,1.3c-.58.07-.96.6-1.16,1.1-.15.38-.08.8.19.91,1.08.43,1.76-3.09,4.04-2.18.64.25,1.56,1.28.84,3.09-.65,1.63-1.86,1.92-2.35,1.97l-.4-1.43c.24-.02,1.06-.28,1.4-1.14Z"/><path class="uuid-f5478d71-ac54-43fc-a9c9-2026430d6c28" d="M67.55,38.07l-6.24,3.2c-.68.35-1.49.35-2.17,0l-8.67-4.35c-.68-.34-1.49-.34-2.17,0l-8.41,4.31c-.8.41-1.31,1.24-1.3,2.14l.11,26.16c0,1.79,1.9,2.94,3.49,2.12l6.24-3.2c.68-.35,1.49-.35,2.17,0l8.67,4.35c.68.34,1.49.34,2.17,0l8.41-4.31c.8-.41,1.31-1.24,1.3-2.14l-.11-26.16c0-1.79-1.9-2.94-3.49-2.12ZM63.65,55.9c-4.52,1.39-6.34,3.22-7.68,7.75-.32,1.06-1.8,1.07-2.13,0-1.39-4.52-3.22-6.34-7.75-7.68-1.06-.32-1.07-1.8,0-2.13,4.52-1.39,6.34-3.22,7.68-7.75.32-1.06,1.8-1.07,2.13,0,1.39,4.52,3.22,6.34,7.75,7.68,1.06.32,1.07,1.8,0,2.13Z"/><path class="uuid-f5478d71-ac54-43fc-a9c9-2026430d6c28" d="M101.35,56.39c-1.61.49-2.26,1.15-2.74,2.76-.11.38-.64.38-.76,0-.49-1.61-1.15-2.26-2.76-2.74-.38-.11-.38-.64,0-.76,1.61-.49,2.26-1.15,2.74-2.76.11-.38.64-.38.76,0,.49,1.61,1.15,2.26,2.76,2.74.38.11.38.64,0,.76Z"/><path class="uuid-f5478d71-ac54-43fc-a9c9-2026430d6c28" d="M16.33,54.31c-1.61.49-2.26,1.15-2.74,2.76-.11.38-.64.38-.76,0-.49-1.61-1.15-2.26-2.76-2.74-.38-.11-.38-.64,0-.76,1.61-.49,2.26-1.15,2.74-2.76.11-.38.64-.38.76,0,.49,1.61,1.15,2.26,2.76,2.74.38.11.38.64,0,.76Z"/></g></svg>