<?xml version="1.0" encoding="UTF-8"?><svg id="uuid-d09789b9-440c-4978-b4df-e4b5faf8a22c" xmlns="http://www.w3.org/2000/svg" viewBox="0 0 340.45 114.71"><defs><style>.uuid-76933c23-9b83-4f58-a30b-cc2afd5465aa{fill:#f7f3eb;}.uuid-5d7151d2-bfe5-4179-8321-5d5ebb5f4829{fill:#ff7345;}</style></defs><g id="uuid-42a2e33a-1fe9-449f-ab3d-00c786c66455"><rect class="uuid-5d7151d2-bfe5-4179-8321-5d5ebb5f4829" x="0" y="0" width="340.45" height="114.71" rx="57.36" ry="57.36"/><circle class="uuid-76933c23-9b83-4f58-a30b-cc2afd5465aa" cx="281.01" cy="57.03" r="44.59"/><path class="uuid-76933c23-9b83-4f58-a30b-cc2afd5465aa" d="M35.29,27.6h18.47l5.66,34.9h.18l5.74-34.9h18.56v58.14h-13.08l.79-43.47h-.26l-8.04,43.47h-9.28l-8.04-43.47h-.18l.79,43.47h-11.31V27.6Z"/><path class="uuid-76933c23-9b83-4f58-a30b-cc2afd5465aa" d="M89.55,56.4c0-20.24,6.19-29.51,19.71-29.51s19.62,9.28,19.62,29.51-6.19,30.04-19.62,30.04-19.71-9.46-19.71-30.04ZM115.53,56.4c0-12.46-1.94-18.2-6.27-18.2s-6.27,5.74-6.27,18.2,1.94,18.73,6.27,18.73,6.27-5.92,6.27-18.73Z"/><path class="uuid-76933c23-9b83-4f58-a30b-cc2afd5465aa" d="M134.53,27.6h16.08c14.93,0,20.85,8.22,20.85,28.9s-5.66,29.25-19.71,29.25h-17.23V27.6ZM151.49,74.43c4.95,0,6.8-5.12,6.8-17.94s-1.94-17.58-7.25-17.58h-3.45v35.52h3.89Z"/><path class="uuid-76933c23-9b83-4f58-a30b-cc2afd5465aa" d="M176.33,56.4c0-20.24,6.19-29.51,19.71-29.51s19.62,9.28,19.62,29.51-6.19,30.04-19.62,30.04-19.71-9.46-19.71-30.04ZM202.31,56.4c0-12.46-1.94-18.2-6.27-18.2s-6.27,5.74-6.27,18.2,1.94,18.73,6.27,18.73,6.27-5.92,6.27-18.73Z"/><g id="uuid-8da0d086-8c97-4ff3-9b44-78b87f8ac3bb"><path class="uuid-5d7151d2-bfe5-4179-8321-5d5ebb5f4829" d="M295,56.21l-9.51,25.43c-.21.3-.83.54-1.2.61-.93.17-4.85.48-5.48.03l-.22-.4,1.49-17.05c.04-.48-.46-.82-.89-.6l-9.55,4.92c-2,1.03-4.15,1.77-6.37,2.19l-5.75,1.08c-.43-.02-.8-.51-1.08-.81-2.11-2.26-6.57-7.72-8.14-10.28-.49-.8-.75-1.02,0-1.82.23-.25,2.44-1.99,2.69-2.1.27-.12.52-.21.82-.16l8.02,4.41c.67.37,1.48.34,2.12-.06l10.19-6.44c.31-.2.31-.65,0-.85-2.04-1.32-8.59-5.13-11.64-7.31-2.56-1.84,1.3-3.04,3.07-4.12.37-.23.81-.31,1.24-.21l19.6,4.4c.35.08.73.06,1.05-.11,4.46-2.47,8.59-5.07,12.93-7.1,3.54-1.65,7.88-1.74,11.64-.77,1.46.38,2.97.93,3.57,2.44,1.18,2.98-.97,4.62-3.17,6.23l-14.65,7.59c-.36.19-.63.5-.77.87Z"/></g></g></svg>