<?xml version="1.0" encoding="UTF-8"?><svg id="uuid-9be27f28-e5a5-40f6-8921-fe4e1d357fa0" xmlns="http://www.w3.org/2000/svg" viewBox="0 0 289.85 210.33"><defs><style>.uuid-b003da80-fa8c-4872-a188-7cdb7b7c28be{fill:#f7f3eb;}.uuid-9b653719-bf8f-4632-9ace-1cfa11384004{fill:none;stroke:#f7f3eb;stroke-miterlimit:10;stroke-width:2.23px;}.uuid-3a673d05-9eb1-4396-bc3d-19c8429b5180{fill:#ff7345;}</style></defs><g id="uuid-ac684306-3410-44ce-8eea-d7c2df241b4c"><path class="uuid-3a673d05-9eb1-4396-bc3d-19c8429b5180" d="M276.84,210.04l-263.51.29c-7.21,0-13.09-5.89-13.12-13.18L0,146.41C-.34,65.64,64.22.09,144.2,0h0c79.98-.09,145.09,65.32,145.44,146.09l.21,50.74c.03,7.28-5.79,13.2-13.01,13.2Z"/><path class="uuid-b003da80-fa8c-4872-a188-7cdb7b7c28be" d="M113.53,40.91l3.43-.02.23,29.17-3.43.02-.23-29.17Z"/><path class="uuid-b003da80-fa8c-4872-a188-7cdb7b7c28be" d="M119.87,48.99c1.36-.27,1.97-1.07,2-3.16v-.09s-1.41,0-1.41,0l-.04-4.88,3.34-.02.03,3.5c.04,4.39-1.18,6.03-3.9,6.49v-1.86Z"/><path class="uuid-b003da80-fa8c-4872-a188-7cdb7b7c28be" d="M127.49,40.84l5.49-.03,4.83,22.36h.09s4.57-22.41,4.57-22.41l5.36-.03.23,29.17-3.43.02.06-26.24h-.13s-5.54,26.27-5.54,26.27h-2.59s-5.96-26.2-5.96-26.2h-.09s.51,26.24.51,26.24l-3.16.02-.23-29.17Z"/><path class="uuid-b003da80-fa8c-4872-a188-7cdb7b7c28be" d="M169.9,62.8l-7.33.04-1.31,7.01-3.6.02,6.27-29.2,4.57-.02,6.77,29.13-4,.02-1.37-7ZM169.4,60.23l-3.25-16.38h-.09s-3.03,16.42-3.03,16.42l6.37-.03Z"/><path class="uuid-b003da80-fa8c-4872-a188-7cdb7b7c28be" d="M53.72,82.47l-5.58.03-.03-3.19,14.62-.07.02,3.19-5.58.03.21,25.97-3.47.02-.21-25.97Z"/><path class="uuid-b003da80-fa8c-4872-a188-7cdb7b7c28be" d="M64.93,79.22l6.45-.03c5.4-.02,7.84,2.58,7.88,8.16.03,4.17-1.05,6.52-3.98,7.15v.04c2.9.47,3.97,2.51,3.99,5.34l.07,8.42-3.47.02-.07-8.38c-.02-2.48-1.13-3.85-4.16-3.84h-3.16s.1,12.25.1,12.25l-3.42.02-.23-29.17ZM71.24,93.56c3.38-.02,4.64-1.48,4.61-5.61-.03-3.77-1.36-5.58-4.44-5.56h-3.03s.09,11.18.09,11.18h2.77Z"/><path class="uuid-b003da80-fa8c-4872-a188-7cdb7b7c28be" d="M94.13,101.25l-7.33.04-1.31,7.01-3.6.02,6.27-29.2,4.57-.02,6.77,29.13-4,.02-1.37-7ZM93.62,98.68l-3.25-16.38h-.09s-3.03,16.42-3.03,16.42l6.37-.03Z"/><path class="uuid-b003da80-fa8c-4872-a188-7cdb7b7c28be" d="M100.67,79.05l3.86-.02,5.34,25.42h.17s4.76-25.47,4.76-25.47l3.6-.02-6.4,29.2-4.52.02-6.82-29.13Z"/><path class="uuid-b003da80-fa8c-4872-a188-7cdb7b7c28be" d="M120.81,78.95l11.72-.06.02,3.19-8.3.04.08,10.02,6.76-.03.02,2.57-6.76.03.08,10.19,8.61-.04.03,3.19-12.03.06-.23-29.17Z"/><path class="uuid-b003da80-fa8c-4872-a188-7cdb7b7c28be" d="M135.12,78.88l3.42-.02.21,25.98,7.29-.04.03,3.19-10.71.05-.23-29.16Z"/><path class="uuid-b003da80-fa8c-4872-a188-7cdb7b7c28be" d="M166.69,100.89l-7.33.03-1.31,7.01-3.6.02,6.27-29.2,4.57-.02,6.77,29.13-4,.02-1.37-7ZM166.19,98.32l-3.25-16.38h-.09s-3.03,16.41-3.03,16.41l6.37-.03Z"/><path class="uuid-b003da80-fa8c-4872-a188-7cdb7b7c28be" d="M174,93.59c-.08-10.46,2.43-15.26,7.96-15.29,4.83-.02,7.05,3.02,7.1,9.76,0,1.15-.02,2.44-.06,3.06h-3.07c0-.21.03-1.45.02-2.87-.04-4.65-1.28-6.78-3.96-6.76-3.2.02-4.63,3.84-4.56,12.12.06,7.8,1.54,11.38,4.66,11.37,2.72-.01,3.98-2.24,3.94-7.11v-1.46s-4.4.02-4.4.02l-.02-2.57,7.64-.04.11,13.96-2.99.02c.12-1.29.16-2.66.19-4.3h-.04c-.55,3.2-2.11,4.67-4.93,4.68-5.14.03-7.5-4.57-7.58-14.59Z"/><path class="uuid-b003da80-fa8c-4872-a188-7cdb7b7c28be" d="M192.28,78.61l11.72-.06.03,3.19-8.3.04.08,10.02,6.76-.03.02,2.57-6.76.03.08,10.19,8.61-.04.03,3.19-12.03.06-.23-29.17Z"/><path class="uuid-b003da80-fa8c-4872-a188-7cdb7b7c28be" d="M206.59,78.54l5.22-.03,8.53,23.54h.09s-.62-23.58-.62-23.58l3.25-.02.23,29.17-4.13.02-9.56-25.97h-.09s.56,26.02.56,26.02l-3.25.02-.23-29.17Z"/><path class="uuid-b003da80-fa8c-4872-a188-7cdb7b7c28be" d="M230.85,81.61l-5.58.03-.03-3.19,14.62-.07.02,3.19-5.58.03.21,25.97-3.47.02-.21-25.97Z"/><path class="uuid-b003da80-fa8c-4872-a188-7cdb7b7c28be" d="M32.11,117.47l9-.04,2.2,17.67h.13s2.05-17.74,2.05-17.74l7.25-.04,2.34,17.72h.18s1.88-17.7,1.88-17.7l7.55-.04-5.21,29.19-9,.04-2.06-15.9h-.18s-1.98,15.92-1.98,15.92l-8.52.04-5.63-29.14Z"/><path class="uuid-b003da80-fa8c-4872-a188-7cdb7b7c28be" d="M66.09,117.3l7.95-.04.09,10.82,4.96-.02-.09-10.82,7.99-.04.23,29.17-7.99.04-.09-11.48-4.96.02.09,11.48-7.95.04-.23-29.17Z"/><path class="uuid-b003da80-fa8c-4872-a188-7cdb7b7c28be" d="M102.06,141.2l-4.74.02-.66,5.1-8.03.04,6.31-29.2,10.63-.05,6.77,29.13-9.53.05-.74-5.09ZM101.36,136.32l-1.68-11.87h-.22s-1.53,11.89-1.53,11.89l3.43-.02Z"/><path class="uuid-b003da80-fa8c-4872-a188-7cdb7b7c28be" d="M117.42,123.97l-4.7.02-.05-6.91,17.3-.08.05,6.91-4.65.02.18,22.25-7.95.04-.18-22.25Z"/><path class="uuid-b003da80-fa8c-4872-a188-7cdb7b7c28be" d="M131.44,127.27c1.8-.1,2.58-.94,2.53-2.58v-.22s-2.46.01-2.46.01l-.06-7.49,6.5-.03.04,5.45c.05,5.98-2.48,7.99-6.52,8.14l-.03-3.28Z"/><path class="uuid-b003da80-fa8c-4872-a188-7cdb7b7c28be" d="M140.12,135.96l6.98-.03c.03,3.72.61,4.78,2.45,4.77,1.49,0,2.1-.94,2.09-2.67-.01-1.42-.32-2.04-1.03-2.48-.62-.4-1.76-.79-3.66-1.4-1.76-.61-3.48-1.36-4.58-2.33-1.41-1.1-2.35-3.23-2.38-6.24-.04-5.41,3.4-9.01,9.54-9.04,7.11-.04,9.38,3.23,9.44,10.5l-6.72.03c-.03-3.95-.65-4.83-2.28-4.82-1.27,0-2.01.98-2,2.54.01,1.55.37,2.22.9,2.66.62.53,2.03,1.01,3.88,1.62,2.07.65,3.43,1.27,4.63,2.24,1.41,1.23,2.26,3.31,2.29,6.06.04,5.41-3.18,9.01-9.9,9.05-7.68.04-9.61-4.17-9.65-10.46Z"/><path class="uuid-b003da80-fa8c-4872-a188-7cdb7b7c28be" d="M175.06,135.57l-7.39-18.76,9.62-.05,2.68,11.16h.09s2.46-11.18,2.46-11.18l7.95-.04-7.27,18.83.08,10.37-8.12.04-.08-10.37Z"/><path class="uuid-b003da80-fa8c-4872-a188-7cdb7b7c28be" d="M191.57,131.14c-.08-9.93,3.13-14.82,10.55-14.86,7.38-.04,10.62,4.82,10.7,14.75.08,10.11-3.04,15.09-10.46,15.12-7.42.03-10.71-4.78-10.79-15.02ZM204.7,131.08c-.05-5.76-.81-7.98-2.52-7.97-1.71,0-2.49,2.23-2.44,7.99.05,5.98.86,8.24,2.57,8.23,1.71,0,2.44-2.27,2.39-8.26Z"/><path class="uuid-b003da80-fa8c-4872-a188-7cdb7b7c28be" d="M214.57,135.55l-.15-18.97,7.95-.04.15,18.75c.02,2.57.91,3.63,2.49,3.62,1.49,0,2.32-1.08,2.3-3.65l-.15-18.75,6.59-.03.15,18.97c.06,7.27-3.25,10.57-9.58,10.6-6.28.03-9.68-3.23-9.74-10.5Z"/><path class="uuid-b003da80-fa8c-4872-a188-7cdb7b7c28be" d="M235.88,116.48l9.66-.05c7.46-.04,10.34,2.92,10.39,8.68.03,3.77-.96,6.03-3.94,6.93v.05c2.99.7,4.02,2.55,4.04,5.3l.07,8.16-7.99.04-.07-8.24c-.01-1.68-.72-2.35-2.26-2.34h-1.8s.08,10.6.08,10.6l-7.95.04-.23-29.17ZM245.61,130.53c1.71,0,2.54-.94,2.52-3.65-.02-2.75-.82-3.58-2.62-3.58h-1.62s.06,7.23.06,7.23h1.67Z"/><path class="uuid-b003da80-fa8c-4872-a188-7cdb7b7c28be" d="M28.68,174.58l6.98-.03c.03,3.72.61,4.78,2.45,4.78,1.49,0,2.1-.94,2.09-2.67-.01-1.42-.32-2.04-1.03-2.48-.62-.4-1.76-.79-3.66-1.4-1.76-.61-3.48-1.36-4.59-2.33-1.41-1.1-2.35-3.22-2.38-6.24-.04-5.41,3.4-9.01,9.55-9.04,7.11-.04,9.38,3.23,9.44,10.5l-6.72.03c-.03-3.94-.65-4.83-2.28-4.82-1.27,0-2.01.99-2,2.54.01,1.55.37,2.21.9,2.65.62.53,2.03,1.01,3.88,1.62,2.07.66,3.43,1.27,4.63,2.24,1.41,1.23,2.27,3.31,2.29,6.06.04,5.41-3.18,9.01-9.9,9.05-7.68.04-9.61-4.16-9.65-10.46Z"/><path class="uuid-b003da80-fa8c-4872-a188-7cdb7b7c28be" d="M49.93,174.44l-.15-18.97,7.95-.04.15,18.75c.02,2.57.91,3.63,2.49,3.62,1.49,0,2.32-1.07,2.3-3.65l-.15-18.75,6.59-.03.15,18.97c.06,7.27-3.26,10.57-9.58,10.6-6.28.03-9.69-3.23-9.74-10.5Z"/><path class="uuid-b003da80-fa8c-4872-a188-7cdb7b7c28be" d="M71.24,155.36l9.35-.05c6.5-.03,9.55,3.28,9.61,10.64.05,7-2.55,10.52-8.48,10.55h-2.37s.06,7.99.06,7.99l-7.95.04-.23-29.17ZM80.98,171.23c1.54,0,2.19-1.25,2.16-4.49-.03-3.24-.74-4.56-2.41-4.55h-1.49s.07,9.05.07,9.05h1.67Z"/><path class="uuid-b003da80-fa8c-4872-a188-7cdb7b7c28be" d="M91.83,155.26l15.1-.07.05,6.87-7.15.03.04,5.36,5.49-.03.04,4.56-5.49.03.04,5.5,7.46-.04.05,6.87-15.41.07-.23-29.17Z"/><path class="uuid-b003da80-fa8c-4872-a188-7cdb7b7c28be" d="M108.73,155.18l9.66-.05c7.47-.04,10.34,2.92,10.39,8.68.03,3.77-.96,6.03-3.94,6.93v.04c2.99.7,4.02,2.55,4.04,5.3l.06,8.16-7.99.04-.07-8.24c-.01-1.68-.72-2.35-2.26-2.34h-1.8s.08,10.6.08,10.6l-7.95.04-.23-29.17ZM118.46,169.23c1.71-.01,2.54-.95,2.52-3.65-.02-2.75-.82-3.59-2.62-3.58h-1.62s.06,7.23.06,7.23h1.67Z"/><path class="uuid-b003da80-fa8c-4872-a188-7cdb7b7c28be" d="M130.76,155.07l9.35-.05c6.5-.03,9.56,3.28,9.61,10.64.06,7-2.55,10.52-8.48,10.55h-2.37s.06,7.99.06,7.99l-7.95.04-.23-29.17ZM140.51,170.94c1.54,0,2.19-1.25,2.16-4.49-.03-3.24-.74-4.56-2.41-4.55h-1.49s.07,9.05.07,9.05h1.67Z"/><path class="uuid-b003da80-fa8c-4872-a188-7cdb7b7c28be" d="M151.03,169.42c-.08-9.93,3.13-14.82,10.55-14.86,7.38-.04,10.62,4.82,10.7,14.75.08,10.11-3.04,15.09-10.46,15.12-7.42.04-10.71-4.78-10.79-15.02ZM164.16,169.36c-.04-5.76-.81-7.97-2.52-7.97-1.71,0-2.49,2.23-2.44,7.99.05,5.98.86,8.24,2.57,8.23,1.71,0,2.44-2.27,2.39-8.26Z"/><path class="uuid-b003da80-fa8c-4872-a188-7cdb7b7c28be" d="M173.17,154.87l9-.04,2.2,17.67h.13s2.05-17.74,2.05-17.74l7.25-.04,2.34,17.72h.18s1.88-17.7,1.88-17.7l7.55-.04-5.21,29.19-9,.04-2.06-15.9h-.18s-1.98,15.92-1.98,15.92l-8.52.04-5.63-29.14Z"/><path class="uuid-b003da80-fa8c-4872-a188-7cdb7b7c28be" d="M207.15,154.7l15.1-.07.05,6.87-7.16.03.04,5.36,5.49-.03.04,4.57-5.49.03.04,5.5,7.46-.04.05,6.87-15.41.07-.23-29.17Z"/><path class="uuid-b003da80-fa8c-4872-a188-7cdb7b7c28be" d="M224.05,154.62l9.66-.05c7.47-.04,10.34,2.92,10.39,8.68.03,3.77-.96,6.03-3.94,6.93v.04c2.99.69,4.02,2.55,4.04,5.3l.06,8.16-7.99.04-.07-8.24c-.01-1.68-.72-2.35-2.26-2.34h-1.8s.08,10.6.08,10.6l-7.95.04-.23-29.17ZM233.77,168.67c1.71,0,2.54-.94,2.52-3.65-.02-2.75-.82-3.59-2.62-3.58h-1.63s.06,7.23.06,7.23h1.67Z"/><path class="uuid-b003da80-fa8c-4872-a188-7cdb7b7c28be" d="M246.87,176.18l6.5-.03.06,7.49-6.5.03-.06-7.49ZM247.54,167.18l4.61-.02c.23,1.37.63,2.08,1.42,2.08.88,0,1.35-1.11,1.32-4.79-.03-3.81-.39-5.05-1.44-5.05-.97,0-1.4.94-1.37,3.82,0,.36,0,.93.05,1.51l-5.8.03c-.09-.66-.15-1.59-.15-2.48-.05-6.07,2.61-8.39,7.18-8.41,5.14-.02,7.36,3.2,7.41,10.29.05,6.78-2.03,9.89-5.06,9.91-2.15,0-3.08-1.36-3.49-2.86h-.09s.03,3.1.03,3.1l-4.57.02-.06-7.14Z"/><path class="uuid-9b653719-bf8f-4632-9ace-1cfa11384004" d="M272.7,202.11l-256.14.69c-4.39.01-7.96-3.54-7.97-7.93l-.13-49.23C8.26,70.52,68.99,9.46,144.11,9.26h0c75.12-.2,136.18,60.53,136.38,135.66l.13,49.23c.01,4.39-3.54,7.96-7.93,7.97Z"/><path class="uuid-b003da80-fa8c-4872-a188-7cdb7b7c28be" d="M194.04,50.85l3.49-4.83c.34-.46,1.06-.31,1.19.24l1.3,5.81,5.67,1.83c.55.18.63.91.13,1.2l-5.13,3.03.02,5.96c0,.57-.67.88-1.1.5l-4.47-3.94-5.66,1.86c-.54.18-1.04-.37-.82-.9l2.37-5.47-3.51-4.81c-.34-.46.03-1.11.6-1.05l5.93.56Z"/><path class="uuid-b003da80-fa8c-4872-a188-7cdb7b7c28be" d="M88.23,53.12l1.48-5.77c.14-.56.87-.68,1.19-.21l3.33,4.94,5.94-.37c.57-.04.92.62.57,1.07l-3.67,4.69,2.19,5.54c.21.53-.31,1.07-.85.87l-5.6-2.04-4.59,3.8c-.44.37-1.11.04-1.09-.54l.21-5.95-5.03-3.19c-.48-.31-.38-1.04.17-1.2l5.73-1.64Z"/></g></svg>