<?xml version="1.0" encoding="UTF-8"?><svg id="uuid-8dde84ba-4bb7-4e96-98c6-414291c0749e" xmlns="http://www.w3.org/2000/svg" viewBox="0 0 666.28 747.96"><defs><style>.uuid-195799f4-a148-46fa-bd7b-fed9fbd92626{fill:#f7f3eb;}</style></defs><g id="uuid-ee426132-6c1c-4611-aaee-616250d8e603"><path class="uuid-195799f4-a148-46fa-bd7b-fed9fbd92626" d="M594.86,30.28l-128.41,65.16c-13.99,7.1-30.52,7.1-44.5,0L244.35,5.32c-13.99-7.1-30.52-7.1-44.5,0L26.92,93.07C10.41,101.45,0,118.4,0,136.92v536.91c0,36.68,38.71,60.45,71.43,43.85l128.41-65.16c13.99-7.1,30.52-7.1,44.5,0l177.59,90.11c13.99,7.1,30.52,7.1,44.5,0l172.92-87.74c16.52-8.38,26.92-25.33,26.92-43.85V74.13c0-36.68-38.71-60.45-71.43-43.85Z"/></g></svg>