<?xml version="1.0" encoding="UTF-8"?><svg id="uuid-525ace19-ae94-437c-8ce1-656bf159bde9" xmlns="http://www.w3.org/2000/svg" viewBox="0 0 429.43 206.12"><defs><style>.uuid-0b16879d-e746-4fae-861d-ce7f634b01d0{fill:#006eff;}.uuid-4b6e3261-0852-495b-ae9d-898812869f4a{fill:#f7f3eb;}.uuid-79709433-586a-48dc-b5e7-5383043f692a{fill:#ff7345;}</style></defs><g id="uuid-2adc7b18-df76-4410-8991-53ac146badf3"><path class="uuid-4b6e3261-0852-495b-ae9d-898812869f4a" d="M4.02,21.97L0,184.93c-.21,8.42,6.48,15.4,14.91,15.54l399.09,5.65c8.54.15,15.52-6.78,15.43-15.32l-2.06-175.78c-.09-8.43-7.03-15.17-15.45-15.01L18.91,7.18c-8.12.15-14.68,6.67-14.88,14.79Z"/><path class="uuid-0b16879d-e746-4fae-861d-ce7f634b01d0" d="M19.65,22.05h101.04v54.81h-35.36v14.9h26.77v35.62h-26.77v60.88H19.65V22.05Z"/><path class="uuid-0b16879d-e746-4fae-861d-ce7f634b01d0" d="M184.84,166.53h-14.15l-1.52,21.72h-64.41L141.14,22.05h88.15l36.37,166.21h-79.31l-1.52-21.72ZM182.57,133.44l-3.79-52.29h-1.77l-3.79,52.29h9.35Z"/><path class="uuid-0b16879d-e746-4fae-861d-ce7f634b01d0" d="M267.94,22.05h83.36l9.6,70.22h.5l-2.02-70.22h51.02v166.21h-82.6l-12.12-82.6h-.51l4.04,82.6h-51.28V22.05Z"/><ellipse class="uuid-4b6e3261-0852-495b-ae9d-898812869f4a" cx="269.86" cy="104.36" rx="63.87" ry="42.42"/><path class="uuid-79709433-586a-48dc-b5e7-5383043f692a" d="M264.44,99.54l-1.53,8.91h11.76v9.35h-13.36l-1.75,10.15h-6.06l1.75-10.15h-7.3l-1.75,10.15h-6.06l1.75-10.15h-8.62v-9.35h10.22l1.53-8.91h-11.75v-9.27h13.36l1.83-10.37h6.06l-1.82,10.37h7.3l1.83-10.37h6.06l-1.82,10.37h8.62v9.27h-10.22ZM258.38,99.54h-7.3l-1.53,8.91h7.3l1.53-8.91Z"/><path class="uuid-79709433-586a-48dc-b5e7-5383043f692a" d="M290.87,99.03h-10.44v-7.67l5.7-.15c4.89-.15,6.5-3.07,6.72-11.46h9.78v48.19h-11.75v-28.91Z"/></g></svg>