<?xml version="1.0" encoding="UTF-8"?><svg id="uuid-1c96e943-033c-4d18-b98d-f85baa6a9197" xmlns="http://www.w3.org/2000/svg" viewBox="0 0 474.92 194.9"><defs><style>.uuid-c2f76573-6fc2-4fa1-bc40-7ae5b3325e51{fill:#f7f3eb;}.uuid-8207d254-9fb8-4e06-93c6-6bb14721d5e6{fill:#ff7345;}</style></defs><g id="uuid-8d72e931-3040-4d56-ad58-151dfc2ca8bd"><path class="uuid-8207d254-9fb8-4e06-93c6-6bb14721d5e6" d="M474.92,97.45c0,7.75-17.3,10.84-22.01,18.01-3.95,6.03,2.29,22.55-4.61,28.02-5.75,4.56-21.3-4.5-28.86-.41-6.59,3.56-7,21.5-14.83,24.64-7.06,2.83-19.96-9.7-27.91-7.26-7.34,2.26-10.81,19.9-18.84,21.8-7.53,1.78-18.62-12.38-26.68-10.93-7.66,1.37-13.1,18.51-21.18,19.55-7.75,1-17.37-14.2-25.46-13.53-7.81.65-14.78,17.23-22.86,17.56-7.86.32-16.16-15.63-24.23-15.63s-16.37,15.95-24.22,15.63c-8.09-.33-15.05-16.91-22.87-17.56-8.09-.67-17.71,14.52-25.46,13.53-8.08-1.04-13.52-18.18-21.18-19.55-8.06-1.44-19.15,12.72-26.68,10.93-8.02-1.9-11.49-19.54-18.84-21.8-7.95-2.45-20.86,10.09-27.91,7.26-7.83-3.14-8.24-21.08-14.83-24.64-7.56-4.09-23.12,4.97-28.86.41-6.89-5.47-.65-21.99-4.6-28.02-4.7-7.17-22-10.26-22-18.01s17.3-10.84,22.01-18.01c3.95-6.03-2.29-22.55,4.61-28.02,5.75-4.56,21.3,4.5,28.86.41,6.59-3.56,7-21.5,14.83-24.64,7.06-2.83,19.96,9.7,27.91,7.26,7.34-2.26,10.81-19.9,18.84-21.8,7.53-1.78,18.62,12.38,26.68,10.93s13.1-18.51,21.18-19.55c7.75-1,17.37,14.2,25.46,13.53C198.18,16.91,205.15.33,213.24,0c7.86-.32,16.16,15.63,24.23,15.63S253.83-.31,261.68,0c8.09.33,15.05,16.91,22.87,17.56,8.09.67,17.71-14.52,25.46-13.53,8.08,1.04,13.52,18.18,21.18,19.55,8.06,1.44,19.15-12.72,26.68-10.93,8.02,1.9,11.49,19.54,18.84,21.8,7.95,2.45,20.86-10.09,27.91-7.26,7.83,3.14,8.24,21.08,14.83,24.64,7.56,4.09,23.12-4.97,28.86-.41,6.89,5.47.65,21.99,4.6,28.02,4.7,7.17,22,10.26,22,18.01Z"/><path class="uuid-c2f76573-6fc2-4fa1-bc40-7ae5b3325e51" d="M110.89,51.83h13.13l7.92,26.72h.06l-.97-26.72h8.75v42.36h-10.62l-10.3-31.48h-.06l.84,31.48h-8.75v-42.36Z"/><path class="uuid-c2f76573-6fc2-4fa1-bc40-7ae5b3325e51" d="M143.92,72.82c0-14.74,4.51-21.5,14.36-21.5s14.29,6.76,14.29,21.5-4.51,21.89-14.29,21.89-14.36-6.89-14.36-21.89ZM162.84,72.82c0-9.08-1.42-13.26-4.57-13.26s-4.57,4.18-4.57,13.26,1.42,13.65,4.57,13.65,4.57-4.31,4.57-13.65Z"/><path class="uuid-c2f76573-6fc2-4fa1-bc40-7ae5b3325e51" d="M176.11,79.38h8.43c0,6.12,1.09,7.85,4.51,7.85,2.77,0,3.93-1.61,3.93-4.31,0-2.25-.58-3.22-1.61-3.99-.84-.64-2.45-1.35-5.54-2.51-2.83-1.03-5.15-2.25-6.5-3.54-1.93-1.61-3.28-4.7-3.28-8.95,0-7.66,4.83-12.62,13-12.62,9.53,0,12.55,4.63,12.55,15.64h-8.3c0-6.7-1.09-8.18-4.05-8.18-2.25,0-3.67,1.61-3.67,4.25s.58,3.6,1.48,4.38c.9.77,3.03,1.67,5.67,2.7,3.03,1.16,4.76,2,6.44,3.41,2.12,1.8,3.35,4.83,3.35,8.69,0,7.53-4.63,12.49-13.45,12.49-10.43,0-12.94-5.99-12.94-15.32Z"/><path class="uuid-c2f76573-6fc2-4fa1-bc40-7ae5b3325e51" d="M216.67,51.83h11.07l5.41,32.64h.26l5.21-32.64h9.79l-9.66,42.36h-12.49l-9.59-42.36Z"/><path class="uuid-c2f76573-6fc2-4fa1-bc40-7ae5b3325e51" d="M252.08,51.83h9.53v42.36h-9.53v-42.36Z"/><path class="uuid-c2f76573-6fc2-4fa1-bc40-7ae5b3325e51" d="M266.56,51.83h13.45l4.12,25.43h.13l4.18-25.43h13.52v42.36h-9.53l.58-31.67h-.19l-5.86,31.67h-6.76l-5.86-31.67h-.13l.58,31.67h-8.24v-42.36Z"/><path class="uuid-c2f76573-6fc2-4fa1-bc40-7ae5b3325e51" d="M306.09,72.82c0-14.74,4.51-21.5,14.36-21.5s14.29,6.76,14.29,21.5-4.51,21.89-14.29,21.89-14.36-6.89-14.36-21.89ZM325.02,72.82c0-9.08-1.42-13.26-4.57-13.26s-4.57,4.18-4.57,13.26,1.42,13.65,4.57,13.65,4.57-4.31,4.57-13.65Z"/><path class="uuid-c2f76573-6fc2-4fa1-bc40-7ae5b3325e51" d="M338.28,79.38h8.43c0,6.12,1.09,7.85,4.51,7.85,2.77,0,3.93-1.61,3.93-4.31,0-2.25-.58-3.22-1.61-3.99-.84-.64-2.45-1.35-5.54-2.51-2.83-1.03-5.15-2.25-6.5-3.54-1.93-1.61-3.28-4.7-3.28-8.95,0-7.66,4.83-12.62,13-12.62,9.53,0,12.55,4.63,12.55,15.64h-8.3c0-6.7-1.09-8.18-4.06-8.18-2.25,0-3.67,1.61-3.67,4.25s.58,3.6,1.48,4.38c.9.77,3.03,1.67,5.66,2.7,3.03,1.16,4.76,2,6.44,3.41,2.12,1.8,3.35,4.83,3.35,8.69,0,7.53-4.63,12.49-13.45,12.49-10.43,0-12.94-5.99-12.94-15.32Z"/><path class="uuid-c2f76573-6fc2-4fa1-bc40-7ae5b3325e51" d="M121.84,102.49h20.6v8.24h-11.07v9.66h8.69v6.31h-8.69v9.91h11.52v8.24h-21.05v-42.36Z"/><path class="uuid-c2f76573-6fc2-4fa1-bc40-7ae5b3325e51" d="M146.3,102.49h13.13l7.92,26.72h.06l-.97-26.72h8.76v42.36h-10.62l-10.3-31.48h-.06l.84,31.48h-8.76v-42.36Z"/><path class="uuid-c2f76573-6fc2-4fa1-bc40-7ae5b3325e51" d="M191.3,102.49h11.72c10.88,0,15.19,5.99,15.19,21.05s-4.12,21.31-14.36,21.31h-12.55v-42.36ZM203.66,136.61c3.6,0,4.96-3.73,4.96-13.07s-1.42-12.81-5.28-12.81h-2.51v25.88h2.83Z"/><path class="uuid-c2f76573-6fc2-4fa1-bc40-7ae5b3325e51" d="M222.59,102.49h9.53v42.36h-9.53v-42.36Z"/><path class="uuid-c2f76573-6fc2-4fa1-bc40-7ae5b3325e51" d="M236.49,130.04h8.43c0,6.12,1.09,7.85,4.51,7.85,2.77,0,3.93-1.61,3.93-4.31,0-2.25-.58-3.22-1.61-3.99-.84-.64-2.45-1.35-5.54-2.51-2.83-1.03-5.15-2.25-6.5-3.54-1.93-1.61-3.28-4.7-3.28-8.95,0-7.66,4.83-12.62,13-12.62,9.53,0,12.55,4.63,12.55,15.64h-8.3c0-6.7-1.1-8.18-4.06-8.18-2.25,0-3.67,1.61-3.67,4.25s.58,3.6,1.48,4.38c.9.77,3.03,1.67,5.67,2.7,3.03,1.16,4.76,2,6.44,3.41,2.12,1.8,3.35,4.83,3.35,8.69,0,7.53-4.63,12.49-13.46,12.49-10.43,0-12.94-5.99-12.94-15.32Z"/><path class="uuid-c2f76573-6fc2-4fa1-bc40-7ae5b3325e51" d="M266.95,102.49h13.13l7.92,26.72h.06l-.97-26.72h8.76v42.36h-10.62l-10.3-31.48h-.06l.84,31.48h-8.76v-42.36Z"/><path class="uuid-c2f76573-6fc2-4fa1-bc40-7ae5b3325e51" d="M300.55,102.49h20.6v8.24h-11.07v9.66h8.69v6.31h-8.69v9.91h11.52v8.24h-21.05v-42.36Z"/><path class="uuid-c2f76573-6fc2-4fa1-bc40-7ae5b3325e51" d="M334.29,129.66l-10.56-27.17h11.72l4.44,17.51h.19l4.38-17.51h9.91l-10.56,27.17v15.19h-9.53v-15.19Z"/><path class="uuid-c2f76573-6fc2-4fa1-bc40-7ae5b3325e51" d="M50.74,81.91c2.71-.29,5.26.48,7.33,2.06,1.03.79,2.45.81,3.48.03.95-.72,1.97-1.33,3.16-1.69,9.74-2.94,17.37,8.63,10.61,16.48l-13.46,13.45c-1.11,1.11-2.92,1.11-4.04,0l-13.66-13.65c-.09-.09-.17-.17-.24-.27-4.94-6.14-.98-15.59,6.81-16.41Z"/><path class="uuid-c2f76573-6fc2-4fa1-bc40-7ae5b3325e51" d="M404.97,81.91c2.71-.29,5.26.48,7.33,2.06,1.03.79,2.45.81,3.48.03.95-.72,1.97-1.33,3.16-1.69,9.74-2.94,17.37,8.63,10.61,16.48l-13.46,13.45c-1.11,1.11-2.92,1.11-4.04,0l-13.66-13.65c-.09-.09-.17-.17-.24-.27-4.94-6.14-.98-15.59,6.81-16.41Z"/></g></svg>