<?xml version="1.0" encoding="UTF-8"?><svg id="uuid-09cc33b5-318f-40bc-9e6c-f5f1f4cf7c18" xmlns="http://www.w3.org/2000/svg" viewBox="0 0 297.57 297.57"><defs><style>.uuid-dd4ba285-308b-43dd-8420-f1c8f6cd3367{fill:#006eff;}.uuid-f1009f0d-59e9-4bbb-ac36-ca875e10cf5f{fill:#f7f3eb;}</style></defs><g id="uuid-58644c01-8e77-45ec-8d5a-be0cab949000"><path class="uuid-f1009f0d-59e9-4bbb-ac36-ca875e10cf5f" d="M297.57,148.79c0,4.76-9.73,9.01-10.19,13.66-.46,4.73,8.26,10.78,7.35,15.37-.92,4.66-11.3,6.93-12.65,11.41-1.37,4.54,5.99,12.18,4.19,16.51s-12.43,4.56-14.65,8.7c-2.23,4.17,3.49,13.11.88,17.02s-13.08,2.04-16.07,5.67c-2.99,3.64.88,13.53-2.45,16.86-3.33,3.33-13.22-.55-16.86,2.45-3.64,2.99-1.75,13.44-5.67,16.07-3.91,2.62-12.85-3.11-17.02-.88-4.14,2.22-4.33,12.84-8.7,14.65-4.33,1.8-11.98-5.57-16.51-4.19-4.48,1.36-6.75,11.73-11.41,12.65s-10.64-7.82-15.37-7.35-8.89,10.19-13.66,10.19-9.01-9.73-13.66-10.19c-4.73-.46-10.78,8.26-15.37,7.35-4.66-.92-6.93-11.3-11.41-12.65-4.54-1.37-12.18,5.99-16.51,4.19-4.37-1.81-4.56-12.43-8.7-14.65-4.17-2.23-13.11,3.49-17.02.88-3.92-2.63-2.04-13.08-5.67-16.07-3.64-2.99-13.53.88-16.86-2.45-3.33-3.33.55-13.22-2.45-16.86-2.99-3.64-13.44-1.75-16.07-5.67-2.62-3.91,3.11-12.85.88-17.02-2.22-4.14-12.84-4.33-14.65-8.7-1.8-4.33,5.57-11.98,4.19-16.51-1.36-4.48-11.73-6.75-12.65-11.41s7.82-10.64,7.35-15.37c-.45-4.65-10.19-8.89-10.19-13.66s9.73-9.01,10.19-13.66c.46-4.73-8.26-10.78-7.35-15.37.92-4.66,11.3-6.93,12.65-11.41,1.37-4.54-5.99-12.18-4.19-16.51s12.43-4.56,14.65-8.7c2.23-4.17-3.49-13.11-.88-17.02,2.63-3.92,13.08-2.04,16.07-5.67,2.99-3.64-.88-13.53,2.45-16.86,3.33-3.33,13.22.55,16.86-2.45,3.64-2.99,1.75-13.44,5.67-16.07,3.91-2.62,12.85,3.11,17.02.88,4.14-2.22,4.33-12.84,8.7-14.65,4.33-1.8,11.98,5.57,16.51,4.19,4.48-1.36,6.75-11.73,11.41-12.65,4.59-.91,10.64,7.82,15.37,7.35s8.89-10.19,13.66-10.19,9.01,9.73,13.66,10.19c4.73.46,10.78-8.26,15.37-7.35,4.66.92,6.93,11.3,11.41,12.65s12.18-5.99,16.51-4.19c4.37,1.81,4.56,12.43,8.7,14.65,4.17,2.23,13.11-3.49,17.02-.88,3.92,2.63,2.04,13.08,5.67,16.07,3.64,2.99,13.53-.88,16.86,2.45,3.33,3.33-.55,13.22,2.45,16.86s13.44,1.75,16.07,5.67c2.62,3.91-3.11,12.85-.88,17.02,2.22,4.14,12.84,4.33,14.65,8.7,1.8,4.33-5.57,11.98-4.19,16.51s11.73,6.75,12.65,11.41-7.82,10.64-7.35,15.37,10.19,8.89,10.19,13.66Z"/><path class="uuid-dd4ba285-308b-43dd-8420-f1c8f6cd3367" d="M64.65,133.08h-15.01v-36.77h73.05v36.77h-15.17v71.73h-42.87v-71.73Z"/><path class="uuid-dd4ba285-308b-43dd-8420-f1c8f6cd3367" d="M126.97,96.31h42.88v108.5h-42.88v-108.5Z"/><path class="uuid-dd4ba285-308b-43dd-8420-f1c8f6cd3367" d="M174.46,96.31h43.86c26.88,0,39.91,12.53,39.91,40.73,0,25.39-10.39,39.91-34.63,39.91h-6.27v27.87h-42.87v-108.5ZM218.99,152.54c2.64,0,3.96-.99,3.96-10.39,0-7.92-1.15-9.89-4.12-9.89h-1.48v20.28h1.65Z"/><circle class="uuid-dd4ba285-308b-43dd-8420-f1c8f6cd3367" cx="214.1" cy="135.51" r="26.6"/><path class="uuid-f1009f0d-59e9-4bbb-ac36-ca875e10cf5f" d="M221.24,132.98l-.81,4.62h7.72v7.53h-9.06l-1,5.77h-4.1l1-5.77h-4.81l-1,5.77h-4.15l1-5.77h-5.53v-7.53h6.86l.81-4.62h-7.67v-7.48h9.01l1.05-5.96h4.15l-1.05,5.96h4.77l1.05-5.96h4.15l-1.05,5.96h5.58v7.48h-6.91ZM217.14,132.98h-4.81l-.81,4.62h4.81l.81-4.62Z"/><path class="uuid-dd4ba285-308b-43dd-8420-f1c8f6cd3367" d="M102.68,57.71h6.54l3.94,13.3h.03l-.48-13.3h4.36v21.09h-5.29l-5.13-15.68h-.03l.42,15.68h-4.36v-21.09Z"/><path class="uuid-dd4ba285-308b-43dd-8420-f1c8f6cd3367" d="M119.34,71.88v-14.17h4.74v14.17c0,1.92.74,2.95,2.15,2.95s2.05-1.03,2.05-2.95v-14.17h4.1v14.17c0,4.71-2.24,7.18-6.51,7.18s-6.54-2.47-6.54-7.18Z"/><path class="uuid-dd4ba285-308b-43dd-8420-f1c8f6cd3367" d="M134.67,57.71h10.26v4.1h-5.51v4.81h4.33v3.14h-4.33v4.94h5.74v4.1h-10.48v-21.09Z"/><path class="uuid-dd4ba285-308b-43dd-8420-f1c8f6cd3367" d="M146.56,71.44h4.2c0,3.04.54,3.91,2.24,3.91,1.38,0,1.96-.8,1.96-2.15,0-1.12-.29-1.6-.8-1.99-.42-.32-1.22-.67-2.76-1.25-1.41-.51-2.56-1.12-3.24-1.76-.96-.8-1.64-2.34-1.64-4.46,0-3.82,2.41-6.28,6.48-6.28,4.74,0,6.25,2.31,6.25,7.79h-4.14c0-3.33-.54-4.07-2.02-4.07-1.12,0-1.83.8-1.83,2.12s.29,1.8.74,2.18c.45.38,1.51.83,2.82,1.35,1.51.58,2.37.99,3.21,1.7,1.06.9,1.67,2.4,1.67,4.33,0,3.75-2.31,6.22-6.7,6.22-5.19,0-6.44-2.98-6.44-7.63Z"/><path class="uuid-dd4ba285-308b-43dd-8420-f1c8f6cd3367" d="M164.64,61.82h-3.62v-4.1h11.96v4.1h-3.59v16.99h-4.75v-16.99Z"/><path class="uuid-dd4ba285-308b-43dd-8420-f1c8f6cd3367" d="M174.64,57.71h6.41c4.78,0,6.96,1.96,6.96,6.22,0,2.88-.77,4.42-2.79,5.03v.03c1.99.45,2.79,1.73,2.79,3.72v6.09h-4.78v-5.93c0-1.38-.64-1.99-2.05-1.99h-1.79v7.92h-4.75v-21.09ZM181.05,67.88c1.57,0,2.31-.9,2.31-3.08s-.74-2.98-2.37-2.98h-1.6v6.06h1.67Z"/><path class="uuid-dd4ba285-308b-43dd-8420-f1c8f6cd3367" d="M189.96,68.17c0-7.34,2.24-10.71,7.15-10.71s7.12,3.37,7.12,10.71-2.24,10.9-7.12,10.9-7.15-3.43-7.15-10.9ZM199.39,68.17c0-4.52-.71-6.6-2.28-6.6s-2.28,2.08-2.28,6.6.71,6.8,2.28,6.8,2.28-2.15,2.28-6.8Z"/><path class="uuid-dd4ba285-308b-43dd-8420-f1c8f6cd3367" d="M97.69,221.87h10.1v4.1h-5.35v5.23h4.39v3.4h-4.39v8.37h-4.74v-21.09Z"/><path class="uuid-dd4ba285-308b-43dd-8420-f1c8f6cd3367" d="M118.5,238.86h-4.17l-.67,4.1h-4.84l4.81-21.09h6.28l4.87,21.09h-5.64l-.64-4.1ZM117.98,235.62l-1.51-9.42h-.13l-1.51,9.42h3.14Z"/><path class="uuid-dd4ba285-308b-43dd-8420-f1c8f6cd3367" d="M125.84,221.87h5.51l2.69,16.25h.13l2.6-16.25h4.87l-4.81,21.09h-6.22l-4.78-21.09Z"/><path class="uuid-dd4ba285-308b-43dd-8420-f1c8f6cd3367" d="M143.05,232.32c0-7.34,2.24-10.71,7.15-10.71s7.12,3.37,7.12,10.71-2.24,10.9-7.12,10.9-7.15-3.43-7.15-10.9ZM152.47,232.32c0-4.52-.71-6.6-2.28-6.6s-2.28,2.08-2.28,6.6.71,6.8,2.28,6.8,2.28-2.15,2.28-6.8Z"/><path class="uuid-dd4ba285-308b-43dd-8420-f1c8f6cd3367" d="M159.37,221.87h6.41c4.78,0,6.96,1.96,6.96,6.22,0,2.88-.77,4.42-2.79,5.03v.03c1.99.45,2.79,1.73,2.79,3.72v6.09h-4.78v-5.93c0-1.38-.64-1.99-2.05-1.99h-1.79v7.92h-4.75v-21.09ZM165.78,232.03c1.57,0,2.31-.9,2.31-3.08s-.74-2.98-2.37-2.98h-1.6v6.06h1.67Z"/><path class="uuid-dd4ba285-308b-43dd-8420-f1c8f6cd3367" d="M175.11,221.87h4.74v21.09h-4.74v-21.09Z"/><path class="uuid-dd4ba285-308b-43dd-8420-f1c8f6cd3367" d="M185.23,225.97h-3.62v-4.1h11.96v4.1h-3.59v16.99h-4.75v-16.99Z"/><path class="uuid-dd4ba285-308b-43dd-8420-f1c8f6cd3367" d="M194.95,232.32c0-7.34,2.24-10.71,7.15-10.71s7.12,3.37,7.12,10.71-2.24,10.9-7.12,10.9-7.15-3.43-7.15-10.9ZM204.37,232.32c0-4.52-.71-6.6-2.28-6.6s-2.28,2.08-2.28,6.6.71,6.8,2.28,6.8,2.28-2.15,2.28-6.8Z"/></g></svg>