<?xml version="1.0" encoding="UTF-8"?><svg id="uuid-f6f8950f-2939-453e-bb06-697f590f4efb" xmlns="http://www.w3.org/2000/svg" viewBox="0 0 275.21 378.24"><defs><style>.uuid-22400bdc-6acf-40e6-a796-be0d21831609{fill:#006eff;}.uuid-d979bc05-982c-437d-b7ad-e8583f50b519{fill:#f7f3eb;}</style></defs><g id="uuid-790b143f-3f9d-4d44-a4af-2c2a60302328"><path class="uuid-d979bc05-982c-437d-b7ad-e8583f50b519" d="M137.6,378.24c-13.65,0-22.58-22.58-34.91-28.16-11.87-5.38-34.32,3.55-44.38-6.19-9.27-8.97-1.78-32.27-9.05-44.28-6.71-11.08-30.88-14.63-35.52-27.79-4.34-12.29,12.06-30.44,9.82-44.14-2.11-12.92-23.57-24.73-23.57-38.56s21.45-25.63,23.57-38.55c2.24-13.69-14.15-31.84-9.82-44.14,4.64-13.17,28.81-16.71,35.52-27.79,7.27-12.01-.22-35.32,9.05-44.28,10.06-9.74,32.51-.81,44.38-6.19C115.02,22.58,123.95,0,137.6,0s22.58,22.58,34.91,28.16c11.87,5.38,34.32-3.55,44.38,6.19,9.27,8.97,1.78,32.27,9.05,44.28,6.71,11.08,30.88,14.63,35.52,27.79,4.34,12.29-12.06,30.44-9.82,44.14,2.11,12.92,23.57,24.73,23.57,38.56s-21.45,25.63-23.57,38.55c-2.24,13.69,14.15,31.84,9.82,44.14-4.64,13.17-28.81,16.71-35.52,27.79-7.27,12.01.22,35.32-9.05,44.28-10.06,9.74-32.51.81-44.38,6.19s-21.26,28.16-34.91,28.16Z"/><path class="uuid-22400bdc-6acf-40e6-a796-be0d21831609" d="M94.07,115.68c14.89-1.57,28.7,3.47,39.3,13.38,2.25,2.11,5.71,2.24,8.06.24,5.88-4.99,12.04-9.45,19.64-11.74,46.6-14.05,83.16,41.17,51.04,78.85-.11.13-.23.26-.36.38l-55.44,55.41c-10.27,10.26-26.91,10.26-37.18,0l-56.85-56.83c-.22-.22-.44-.46-.64-.7-24.07-29.43-5.07-75.03,32.42-78.99Z"/><path class="uuid-d979bc05-982c-437d-b7ad-e8583f50b519" d="M84.3,149.39h15.37l7.51,45.3h.36l7.24-45.3h13.58l-13.4,58.79h-17.33l-13.31-58.79Z"/><path class="uuid-d979bc05-982c-437d-b7ad-e8583f50b519" d="M133.45,186.83h-7.51v-7.86h7.51v-9.51h7.86v9.51h7.51v7.86h-7.51v9.51h-7.86v-9.51Z"/><path class="uuid-d979bc05-982c-437d-b7ad-e8583f50b519" d="M153.55,149.39h16.26c15.1,0,21.09,8.31,21.09,29.22s-5.72,29.58-19.93,29.58h-17.42v-58.79ZM170.71,196.75c5,0,6.88-5.18,6.88-18.14s-1.97-17.78-7.33-17.78h-3.48v35.92h3.93Z"/><path class="uuid-22400bdc-6acf-40e6-a796-be0d21831609" d="M83.6,65.91h3.24l4.31,21.16h.15l4.17-21.16h3.02l-5.57,24.26h-3.8l-5.53-24.26Z"/><path class="uuid-22400bdc-6acf-40e6-a796-be0d21831609" d="M101.04,65.91h9.84v2.65h-6.97v8.33h5.68v2.14h-5.68v8.48h7.23v2.65h-10.1v-24.26Z"/><path class="uuid-22400bdc-6acf-40e6-a796-be0d21831609" d="M113.57,65.91h5.42c4.54,0,6.56,2.18,6.56,6.82,0,3.47-.92,5.42-3.39,5.94v.04c2.43.41,3.32,2.1,3.32,4.46v7h-2.91v-6.97c0-2.06-.92-3.21-3.46-3.21h-2.65v10.17h-2.88v-24.26ZM118.77,77.86c2.84,0,3.91-1.22,3.91-4.65,0-3.13-1.11-4.65-3.69-4.65h-2.54v9.29h2.32Z"/><path class="uuid-22400bdc-6acf-40e6-a796-be0d21831609" d="M138.45,84.35h-6.16l-1.14,5.82h-3.02l5.46-24.26h3.83l5.49,24.26h-3.35l-1.11-5.82ZM138.05,82.21l-2.62-13.64h-.07l-2.65,13.64h5.35Z"/><path class="uuid-22400bdc-6acf-40e6-a796-be0d21831609" d="M145.49,65.91h4.39l7,19.61h.07l-.37-19.61h2.73v24.26h-3.47l-7.85-21.64h-.07l.29,21.64h-2.73v-24.26Z"/><path class="uuid-22400bdc-6acf-40e6-a796-be0d21831609" d="M162.41,77.93c0-8.44,2.14-12.31,6.78-12.31s6.78,3.87,6.78,12.31-2.14,12.53-6.78,12.53-6.78-3.94-6.78-12.53ZM173.07,77.93c0-6.64-1.22-9.66-3.87-9.66s-3.91,3.02-3.91,9.66,1.22,9.88,3.91,9.88,3.87-3.1,3.87-9.88Z"/><path class="uuid-22400bdc-6acf-40e6-a796-be0d21831609" d="M178.67,81.76h2.65c0,4.53,1,6.19,3.47,6.19,2.29,0,3.46-1.4,3.46-3.87,0-1.58-.59-2.51-1.25-3.06-.7-.55-1.92-1.14-3.1-1.7-1.33-.63-2.54-1.29-3.39-2.06-.88-.77-1.88-2.25-1.88-5.09,0-4.2,2.36-6.56,6.12-6.56,4.53,0,5.86,2.43,5.86,9.11h-2.65c0-5.31-1-6.6-3.1-6.6s-3.35,1.25-3.35,3.83c0,2.03.59,2.95,1.18,3.5.74.66,1.99,1.25,3.21,1.81,1.33.63,2.54,1.22,3.39,2.03,1,.92,1.84,2.4,1.84,4.61,0,4.02-2.17,6.56-6.34,6.56-4.68,0-6.12-3.21-6.12-8.7Z"/><path class="uuid-22400bdc-6acf-40e6-a796-be0d21831609" d="M78.39,283.08h9.84v2.65h-6.97v8.33h5.68v2.14h-5.68v8.48h7.23v2.65h-10.1v-24.26Z"/><path class="uuid-22400bdc-6acf-40e6-a796-be0d21831609" d="M90.92,283.08h4.39l7,19.61h.07l-.37-19.61h2.73v24.26h-3.47l-7.85-21.64h-.07l.29,21.64h-2.73v-24.26Z"/><path class="uuid-22400bdc-6acf-40e6-a796-be0d21831609" d="M117.5,283.08h5.01c5.31,0,7.45,3.43,7.45,12.06s-2.03,12.2-7.08,12.2h-5.38v-24.26ZM122.95,304.68c2.91,0,4.09-2.73,4.09-9.55s-1.25-9.4-4.42-9.4h-2.25v18.95h2.58Z"/><path class="uuid-22400bdc-6acf-40e6-a796-be0d21831609" d="M133.16,283.08h2.88v24.26h-2.88v-24.26Z"/><path class="uuid-22400bdc-6acf-40e6-a796-be0d21831609" d="M139.24,298.93h2.65c0,4.53,1,6.19,3.46,6.19,2.29,0,3.47-1.4,3.47-3.87,0-1.58-.59-2.51-1.25-3.06-.7-.55-1.92-1.14-3.1-1.7-1.33-.63-2.54-1.29-3.39-2.06-.88-.77-1.88-2.25-1.88-5.09,0-4.2,2.36-6.56,6.12-6.56,4.53,0,5.86,2.43,5.86,9.11h-2.65c0-5.31-1-6.6-3.1-6.6s-3.35,1.25-3.35,3.83c0,2.03.59,2.95,1.18,3.5.74.66,1.99,1.25,3.21,1.81,1.33.63,2.54,1.22,3.39,2.03,1,.92,1.84,2.4,1.84,4.61,0,4.02-2.18,6.56-6.34,6.56-4.68,0-6.12-3.21-6.12-8.7Z"/><path class="uuid-22400bdc-6acf-40e6-a796-be0d21831609" d="M154.72,283.08h4.39l7,19.61h.07l-.37-19.61h2.73v24.26h-3.47l-7.85-21.64h-.07l.29,21.64h-2.73v-24.26Z"/><path class="uuid-22400bdc-6acf-40e6-a796-be0d21831609" d="M171.98,283.08h9.84v2.65h-6.97v8.33h5.68v2.14h-5.68v8.48h7.23v2.65h-10.1v-24.26Z"/><path class="uuid-22400bdc-6acf-40e6-a796-be0d21831609" d="M189.19,298.27l-5.57-15.19h3.39l3.83,11.98h.07l3.8-11.98h2.99l-5.64,15.19v9.07h-2.88v-9.07Z"/></g></svg>