<?xml version="1.0" encoding="UTF-8"?><svg id="uuid-fb578e96-c2cd-41b4-9e26-44256dec5925" xmlns="http://www.w3.org/2000/svg" viewBox="0 0 406.96 231.42"><defs><style>.uuid-27706a75-1abc-49c8-93da-fe9212cf30eb{stroke-dasharray:.11 9.71;}.uuid-27706a75-1abc-49c8-93da-fe9212cf30eb,.uuid-58f28652-5472-487d-a508-0268a33dc9fa,.uuid-b934b210-0f57-41cb-9297-1ceda59ebd01{fill:none;stroke:#006eff;stroke-linecap:round;stroke-miterlimit:10;stroke-width:4.05px;}.uuid-58f28652-5472-487d-a508-0268a33dc9fa{stroke-dasharray:0 7.56;}.uuid-2bea6a25-55b1-46f2-83e4-6ceb7095178f{fill:#006eff;}.uuid-b5f1062a-e29c-4391-981e-c46998c07f35{fill:#f7f3eb;}.uuid-bdc4a64e-20a3-43f4-9293-a4cc22b10491{fill:#ff7345;}</style></defs><g id="uuid-ca04a76f-00b2-4df1-a5ad-6e5e3fa61c72"><ellipse class="uuid-b5f1062a-e29c-4391-981e-c46998c07f35" cx="203.48" cy="132.42" rx="203.48" ry="99"/><path class="uuid-b934b210-0f57-41cb-9297-1ceda59ebd01" d="M107.77,213.52h-.04"/><path class="uuid-27706a75-1abc-49c8-93da-fe9212cf30eb" d="M98.39,210.87C43.63,194.39,7.3,165.41,7.3,132.42c0-51.3,87.83-92.89,196.18-92.89s196.18,41.59,196.18,92.89c0,34.39-39.47,64.41-98.13,80.47"/><path class="uuid-b934b210-0f57-41cb-9297-1ceda59ebd01" d="M296.83,214.14s-.02,0-.04,0"/><ellipse class="uuid-b5f1062a-e29c-4391-981e-c46998c07f35" cx="203.5" cy="41.52" rx="42.53" ry="41.52"/><path class="uuid-58f28652-5472-487d-a508-0268a33dc9fa" d="M166.46,40.21c0-19.6,16.57-35.49,37.02-35.49s37.02,15.89,37.02,35.49"/><path class="uuid-bdc4a64e-20a3-43f4-9293-a4cc22b10491" d="M102.15,92.67c.06.25,1.08,19.08,1,38.28.01,11.3-.42,20.59-1.26,27.48-1.2,9.99-3.01,14.86-6.1,16.33-.47.24-.95.47-1.45.58-1.38.31-2.87.11-4.09-.67-3.49-2.12-8.6-9.13-12.38-45.74-2.02-19.78-2.57-38.85-2.63-39.1-.03-1.31,1.03-2.46,2.46-2.52,1.31-.03,2.46,1.03,2.52,2.46.03.13.67,19.03,2.64,38.57,3.59,35.73,8.49,41.21,9.84,41.97.31.19.43.17.81.08.1-.15,2.06-1.38,3.46-12.85.74-6.73,1.1-15.75,1.15-26.8.1-19.08-.86-37.65-.89-37.78-.18-1.41,1-2.59,2.31-2.61,1.4-.18,2.56.88,2.61,2.31Z"/><path class="uuid-bdc4a64e-20a3-43f4-9293-a4cc22b10491" d="M135.17,140.72c-.29.57-8.67,15.07-18.2,23.32-1.85,1.56-3.41,1.99-4.55,1.99s-1.99-.28-2.56-.71c-2.56-1.56-3.55-5.69-3.41-12.37.14-4.98,1.14-10.95,2.56-15.64,1.99-6.82,4.55-10.24,7.82-10.24,2.7,0,4.83,1.56,5.97,4.12,1.42,3.7.28,8.67-2.7,11.52-1.85,1.85-4.41,2.56-7.11,2.13-.29.99-.43,2.13-.57,3.27-.85,6.97-.28,10.8.28,12.23.14-.14.43-.29.57-.43,8.82-7.68,17.06-21.9,17.06-22.04.85-1.28,2.56-1.7,3.84-.99,1.28.71,1.85,2.42,1,3.84ZM114.12,139.44c1.28,0,1.99-.57,2.13-.85,1.42-1.28,1.85-3.84,1.28-5.26-.14-.43-.28-.57-.42-.57-.43.43-1.42,1.71-2.42,4.83-.14.57-.29,1.14-.57,1.85Z"/><path class="uuid-bdc4a64e-20a3-43f4-9293-a4cc22b10491" d="M160.76,142.57c-3.7,2.27-7.25,2.98-10.66,1.99-2.84-.85-4.98-2.56-6.68-3.98-.57-.57-1.42-1.28-1.85-1.56-3.41,1.85-5.26,5.69-6.26,9.52l-.71,15.21c-.14,1.42-1.28,2.56-2.7,2.7h-.14c-1.28,0-2.56-1.14-2.7-2.42,0-.57-.99-8.53.71-16.35l1.14-20.47c0-1.56,1.28-2.7,2.84-2.7,1.42.14,2.7,1.42,2.7,2.84l-.29,8.67c1-.85,2.13-1.56,3.41-2.13,2.98-1.42,5.4.71,7.39,2.42,3.13,2.56,5.83,4.69,10.81,1.56,1.42-.85,3.13-.42,3.84.85.85,1.42.43,3.13-.85,3.84Z"/><path class="uuid-bdc4a64e-20a3-43f4-9293-a4cc22b10491" d="M159.4,162.99c-1.14,0-2.28-.29-3.41-1-3.56-2.27-5.54-7.11-5.26-12.8.14-2.7.71-5.4,1.85-7.54,1.14-2.56,2.98-4.55,5.12-5.54,2.28-1.28,5.97-1.85,10.81,1.42,1.28.85,1.71,2.56.85,3.84-.85,1.28-2.56,1.56-3.84.71-1.14-.71-1.99-1.14-2.85-1.28.14.14.29.28.43.43,2.13,2.42,3.41,6.11,3.55,10.24,0,3.7-.99,7.25-2.84,9.38-1.14,1.42-2.7,2.13-4.41,2.13ZM158.26,142.8c-1.14,1.56-1.85,3.98-1.99,6.68-.14,3.98,2.42,9.81,4.41,5.4,1.28-2.84.42-7.54-1.71-10.09-.57-.57-.85-1.28-.71-1.99Z"/><path class="uuid-bdc4a64e-20a3-43f4-9293-a4cc22b10491" d="M212.68,172.31c-.13,2.14-1.38,2.89-2.01,3.14-.38.12-.63.12-1,.12-1.76,0-3.15-1.51-3.9-2.26-2.26-2.64-5.78-7.92-9.05-14.46-1.63.5-3.27.88-4.78,1.01-4.78.75-8.17-.12-9.68-2.39-.88-1.26-1.51-3.39.25-6.54,1.26-2.14,3.39-4.53,6.66-7.29.38-.38.88-.75,1.38-1.13-1.38-5.66-1.88-11.57.25-15.97,1.51-3.27,5.15-7.17,13.58-6.79,3.27.13,4.4,2.01,4.78,3.14,1.01,2.64-.5,6.54-4.4,11.69-2.39,3.02-5.41,6.29-8.68,9.43.75,2.77,1.89,5.66,3.14,8.8,1.38-.63,2.64-1.26,3.65-2.01,3.27-2.01,6.66-5.15,5.03-8.93-.5-1.26.13-2.64,1.38-3.14,1.26-.63,2.64,0,3.15,1.26,1.38,3.14,1,6.41-1.01,9.56-1.51,2.26-4.15,4.53-7.42,6.41-.88.38-1.76.88-2.64,1.26,3.14,6.29,6.29,10.81,8.05,12.7.25-.13.63-.13.88-.13,1.38.13,2.39,1.26,2.39,2.51ZM194.58,154.33c-.25-.63-.5-1.26-.75-1.88-.63-1.51-1.26-3.14-1.76-4.78-5.41,4.65-5.78,6.79-5.78,7.04.38.38,2.39.88,5.91.25.88-.12,1.64-.38,2.39-.63ZM194.7,138.49c2.26-2.26,4.28-4.53,5.91-6.66,3.14-4.02,3.9-6.29,4.02-7.04-.13-.13-.25-.13-.5-.13h-1.01c-6.16,0-7.67,2.89-8.42,5.15-.63,2.26-.63,5.28,0,8.68Z"/><path class="uuid-bdc4a64e-20a3-43f4-9293-a4cc22b10491" d="M268.85,136.64c-.95,7.26-2.47,13.66-4.58,18.93-2.31,6.06-5.37,10.5-9.06,13.17-2.46,1.7-5.09,2.77-7.91,2.95-.38.02-.91-.07-1.29-.05-3.34-.05-7.02-1.22-10.89-3.42-1.2-.69-1.56-2.21-.86-3.42.69-1.2,2.22-1.56,3.42-.86,5.87,3.35,10.65,3.69,14.57.74,2.95-2.12,5.42-5.74,7.4-10.88,1.87-4.88,3.29-10.88,4.13-17.87,1.63-12.7,1.07-27.57-1.44-38.73-2.2-10.27-5.42-14.44-7.63-14.81-2.08-.38-3.98.12-5.81,1.65-3.55,2.8-6.51,8.77-9.02,17.8-2.1,7.46-3.68,16.94-4.89,28.08-.73,6.73-1.34,13.32-1.62,19l-.65,18.04c-.04,1.42-1.13,2.51-2.54,2.48-1.29-.05-2.38-1.13-2.35-2.55,0-.13.03-7.59.51-18.16l1.85-53.59c.04-1.42,1.25-2.52,2.54-2.47,1.42.04,2.52,1.25,2.47,2.54l-.16,5.54-.02-.26c2.83-10.08,6.26-16.72,10.66-20.35,2.92-2.5,6.34-3.36,9.98-2.69,2.87.59,5.32,2.75,7.35,6.47,1.73,2.97,3.15,7.12,4.25,12.2,2.54,11.66,3.15,27.18,1.55,40.52Z"/><path class="uuid-bdc4a64e-20a3-43f4-9293-a4cc22b10491" d="M274.03,164.18c-.29,0-.71,0-1-.14-1.14-.43-1.85-1.56-1.7-2.84l3.27-27.72c-.57-.71-.85-1.71-.57-2.56l1.56-4.98c.43-1.42,1.85-2.13,3.13-1.85,1.42.29,2.42,1.56,2.27,2.99l-2.84,23.03,8.39-12.65c.85-1.28,2.56-1.57,3.84-.85,1.28.85,1.71,2.56.85,3.84l-14.93,22.61c-.43.71-1.42,1.14-2.27,1.14ZM279.15,113.42c-2.13,0-3.84,1.71-3.84,3.84s1.71,3.7,3.84,3.7c1.99,0,3.7-1.56,3.7-3.7s-1.71-3.84-3.7-3.84Z"/><path class="uuid-bdc4a64e-20a3-43f4-9293-a4cc22b10491" d="M313.13,140.72c-.28.57-8.67,15.07-18.2,23.32-1.85,1.56-3.41,1.99-4.55,1.99s-1.99-.28-2.56-.71c-2.56-1.56-3.55-5.69-3.41-12.37.14-4.98,1.14-10.95,2.56-15.64,1.99-6.82,4.55-10.24,7.82-10.24,2.7,0,4.83,1.56,5.97,4.12,1.42,3.7.28,8.67-2.7,11.52-1.85,1.85-4.41,2.56-7.11,2.13-.28.99-.43,2.13-.57,3.27-.85,6.97-.29,10.8.28,12.23.14-.14.43-.29.57-.43,8.81-7.68,17.06-21.9,17.06-22.04.85-1.28,2.56-1.7,3.84-.99,1.28.71,1.85,2.42,1,3.84ZM292.08,139.44c1.28,0,1.99-.57,2.13-.85,1.42-1.28,1.85-3.84,1.28-5.26-.14-.43-.28-.57-.42-.57-.43.43-1.42,1.71-2.42,4.83-.14.57-.29,1.14-.57,1.85Z"/><path class="uuid-bdc4a64e-20a3-43f4-9293-a4cc22b10491" d="M308.59,192.11c-2.27-3.69,5.28-21.21,9.7-29.23,1.7-3.08,2.81-6.44,3.26-9.92.4-3.1.67-5.39.96-8.53,0,0,0,0,0,0-3.55,4.55-5.63,10.79-10.04,16.34-1,1.28-5.6,3.7-8.01,2.99-.71-.14-2.27-.71-2.56-2.98-.71-3.98,3.25-13.24,3.98-16.21,1.45-5.88,5.26-12.65,8.67-15.07,2.84-1.85,4.98-1.28,6.11-.57,1.42.85,2.27,2.56,2.56,5.12.43-.57.71-.85.71-.85.71-.99,2.13-1.42,3.27-.99s1.85,1.56,1.71,2.84c0,.71-.43,6.39-1.28,14.35,0,0,0,0,0,0,1.99-3.41,4.12-6.82,6.39-10.51.85-1.28,2.56-1.71,3.84-.85s1.71,2.56.85,3.84c-4.83,7.68-8.77,11.74-12.47,18.28,0,0,0,0,0,0-1.99,15.64-.74,18.33-4.44,27.57-.88,2.04-2.16,3.79-3.65,5.04-2.36,1.98-5.82,2.21-8.39.51-.5-.33-.93-.72-1.18-1.14ZM313.28,189.27s0,0,0,0c.71-.15,2.42-1.43,3.41-3.7,2.33-5.61,2.46-5.98,4-15.52.03-.19-.23-.29-.33-.12-3.28,5.92-8.05,16.77-7.08,19.33ZM310.99,146.55c-.49,1.26-2.22,6.15-2.68,7.9-.24.9.97,1.44,1.48.67,2.04-3.1,4.78-8.36,6.84-11.86.76-1.29,1.28-3.54,1.35-4.34.1-1.1.14-2.76-.23-3.6-.18-.41-.76-.44-1.04-.08-1.28,1.71-3.34,5.36-5.72,11.32Z"/><path class="uuid-bdc4a64e-20a3-43f4-9293-a4cc22b10491" d="M336.34,158.09c-1.85-2.13-2.84-5.69-2.84-9.38.14-4.12,1.42-7.82,3.55-10.24.14-.14.28-.29.43-.43-.85.14-1.71.57-2.84,1.28-1.28.85-2.98.57-3.84-.71s-.43-2.98.85-3.84c4.83-3.27,8.53-2.7,10.8-1.42,2.13,1,3.98,2.99,5.12,5.54,1.14,2.13,1.71,4.83,1.85,7.54.29,5.69-1.7,10.52-5.26,12.8-1.14.71-2.27,1-3.41,1-1.7,0-3.27-.71-4.41-2.13ZM341.18,142.02c-2.13,2.56-2.98,7.25-1.7,10.09,1.99,4.41,4.55-1.42,4.41-5.4-.14-2.7-.85-5.12-1.99-6.68.14.71-.14,1.42-.71,1.99Z"/><path class="uuid-bdc4a64e-20a3-43f4-9293-a4cc22b10491" d="M354.36,158.98c0,1.51-1.13,2.64-2.64,2.64-1.38,0-2.52-1.13-2.52-2.64,0-1.38,1.13-2.64,2.52-2.64,1.51,0,2.64,1.26,2.64,2.64Z"/><path class="uuid-2bea6a25-55b1-46f2-83e4-6ceb7095178f" d="M127.88,209.3l-3.01-.6.41-2.08,8.65,1.72-.41,2.08-3-.6-1.7,8.52-2.64-.53,1.7-8.52Z"/><path class="uuid-2bea6a25-55b1-46f2-83e4-6ceb7095178f" d="M135.34,208.6l4.97.83c2.82.47,4.15,1.89,3.81,3.9-.23,1.36-.95,2.12-2.01,2.25v.03c1.01.42,1.34,1.34,1.14,2.54l-.44,2.66-2.66-.44.43-2.58c.16-.97-.12-1.45-1.13-1.62l-2.58-.43-.66,3.97-2.66-.44,1.78-10.66ZM139.58,214.54c1.12.19,1.77-.22,1.93-1.21.16-.94-.33-1.6-1.56-1.81l-2.3-.38-.5,3,2.43.41Z"/><path class="uuid-2bea6a25-55b1-46f2-83e4-6ceb7095178f" d="M152.6,219.94l-4.28-.57-1.02,2.08-2.74-.36,5.56-10.16,3.32.44,2.71,11.26-3.11-.41-.44-2.28ZM152.27,218.2l-.96-4.9h-.03s-2.19,4.48-2.19,4.48l3.17.42Z"/><path class="uuid-2bea6a25-55b1-46f2-83e4-6ceb7095178f" d="M158.47,212.02l3.05.3,2.05,8.65h.03s3.64-8.09,3.64-8.09l2.75.27-5.17,10.35-3.33-.33-3.02-11.16Z"/><path class="uuid-2bea6a25-55b1-46f2-83e4-6ceb7095178f" d="M171.46,213.25l7.64.54-.15,2.11-4.95-.35-.17,2.43,3.83.27-.12,1.64-3.83-.27-.18,2.49,5.1.36-.15,2.11-7.78-.55.76-10.78Z"/><path class="uuid-2bea6a25-55b1-46f2-83e4-6ceb7095178f" d="M180.83,213.88l2.69.12-.4,8.68,4.93.23-.1,2.12-7.62-.35.5-10.8Z"/><path class="uuid-2bea6a25-55b1-46f2-83e4-6ceb7095178f" d="M194.46,214.42l4.65.05c2.76.03,4.41,1.35,4.38,3.96-.03,2.4-1.39,3.8-4.22,3.77l-2.2-.02-.03,3.09-2.69-.03.12-10.81ZM199.18,220.39c1.13.01,1.77-.59,1.78-1.85.01-1.23-.67-1.93-1.95-1.95l-1.87-.02-.04,3.8,2.09.02Z"/><path class="uuid-2bea6a25-55b1-46f2-83e4-6ceb7095178f" d="M205.28,214.5l2.69-.04.11,8.69,4.93-.06.03,2.12-7.62.1-.14-10.81Z"/><path class="uuid-2bea6a25-55b1-46f2-83e4-6ceb7095178f" d="M222.13,222.69l-4.32.17-.65,2.23-2.76.11,3.74-10.97,3.35-.13,4.6,10.64-3.14.13-.83-2.17ZM221.51,221.04l-1.78-4.67h-.03s-1.39,4.79-1.39,4.79l3.2-.13Z"/><path class="uuid-2bea6a25-55b1-46f2-83e4-6ceb7095178f" d="M227.08,213.85l3.87-.28,4.75,6.94h.02s-.6-7.24-.6-7.24l2.52-.18.77,10.78-3.18.23-5.5-8.01h-.02s.67,8.35.67,8.35l-2.52.18-.77-10.78Z"/><path class="uuid-2bea6a25-55b1-46f2-83e4-6ceb7095178f" d="M239.47,212.93l3.86-.4,4.97,6.78h.02s-.84-7.22-.84-7.22l2.52-.26,1.12,10.75-3.17.33-5.76-7.82h-.02s.94,8.33.94,8.33l-2.52.26-1.12-10.75Z"/><path class="uuid-2bea6a25-55b1-46f2-83e4-6ceb7095178f" d="M251.88,211.59l7.59-1.02.28,2.1-4.92.66.32,2.41,3.81-.51.22,1.63-3.81.51.33,2.47,5.06-.68.28,2.1-7.73,1.04-1.44-10.71Z"/><path class="uuid-2bea6a25-55b1-46f2-83e4-6ceb7095178f" d="M261.17,210.32l4.98-.82c2.82-.46,4.54.46,4.87,2.47.22,1.36-.22,2.32-1.18,2.77v.03c1.1.07,1.71.84,1.9,2.04l.44,2.66-2.66.44-.42-2.58c-.16-.97-.58-1.34-1.59-1.17l-2.58.42.65,3.97-2.66.44-1.75-10.67ZM267.1,214.58c1.12-.18,1.61-.78,1.44-1.77-.15-.94-.83-1.41-2.06-1.21l-2.3.38.49,3,2.43-.4Z"/><path class="uuid-2bea6a25-55b1-46f2-83e4-6ceb7095178f" d="M273.44,215.49l2.35-.46c.23,1.14.84,1.79,2.61,1.44,1.79-.35,2.06-1.08,1.93-1.75-.09-.45-.34-.7-.79-.77-.5-.07-1.63-.01-2.54.03-1.08.04-2.18.04-2.88-.24-.76-.3-1.26-.97-1.46-1.99-.39-2,.9-3.69,3.96-4.29,3.37-.66,4.74.52,5.21,2.91l-2.34.46c-.24-1.21-1-1.75-2.45-1.46-1.43.28-1.94.93-1.8,1.64.1.52.3.78.71.87.44.1,1.58.06,2.51.02,1.23-.04,2.17-.03,2.87.19.84.25,1.39.93,1.59,1.93.36,1.8-.34,3.62-4.13,4.36-3.64.72-4.97-.95-5.36-2.9Z"/><path class="uuid-2bea6a25-55b1-46f2-83e4-6ceb7095178f" d="M216.44,25.01l-6.36,3.23c-.69.35-1.51.35-2.2,0l-8.8-4.46c-.69-.35-1.51-.35-2.2,0l-8.57,4.35c-.82.42-1.33,1.25-1.33,2.17v26.59c0,1.82,1.92,2.99,3.54,2.17l6.36-3.23c.69-.35,1.51-.35,2.2,0l8.8,4.46c.69.35,1.51.35,2.2,0l8.57-4.35c.82-.42,1.33-1.25,1.33-2.17v-26.59c0-1.82-1.92-2.99-3.54-2.17ZM212.41,43.12c-4.6,1.39-6.45,3.24-7.84,7.84-.33,1.08-1.84,1.08-2.16,0-1.39-4.6-3.24-6.45-7.84-7.84-1.08-.33-1.08-1.84,0-2.16,4.6-1.39,6.45-3.24,7.84-7.84.33-1.08,1.84-1.08,2.16,0,1.39,4.6,3.24,6.45,7.84,7.84,1.08.33,1.08,1.84,0,2.16Z"/></g></svg>