<?xml version="1.0" encoding="UTF-8"?><svg id="uuid-4a66bd3e-26ee-4486-8394-40bf7d1097e1" xmlns="http://www.w3.org/2000/svg" viewBox="0 0 406.96 190.95"><defs><style>.uuid-f7ab99e2-f5a7-4720-8c7e-5ee2f89477eb{fill:#f7f3eb;}.uuid-6c390cff-b9f3-4575-a243-2df635e7320e{fill:#ff7345;}</style></defs><g id="uuid-dfb83bfe-b954-459e-8113-e35f02bbd786"><ellipse class="uuid-f7ab99e2-f5a7-4720-8c7e-5ee2f89477eb" cx="203.48" cy="95.47" rx="203.48" ry="95.47"/><path class="uuid-6c390cff-b9f3-4575-a243-2df635e7320e" d="M58.84,63.08h55.33v12.99h-37.77v13.35h31.37v11.16h-31.37v22.68h-17.56v-60.18Z"/><path class="uuid-6c390cff-b9f3-4575-a243-2df635e7320e" d="M164.29,111.01h-35.39l-6.22,12.26h-18.11l32.74-60.18h20.85l32.74,60.18h-20.39l-6.22-12.26ZM159.08,100.77l-12.53-24.51h-.09l-12.44,24.51h25.06Z"/><path class="uuid-6c390cff-b9f3-4575-a243-2df635e7320e" d="M197.03,63.08h24.51l32.1,36.22h.09v-36.22h17.01v60.18h-17.38l-39.24-44.27h-.09v44.27h-17.01v-60.18Z"/><path class="uuid-6c390cff-b9f3-4575-a243-2df635e7320e" d="M279.07,103.05h15.73c0,5.12,3.66,9.24,18.75,9.24,15.91,0,18.57-3.2,18.57-7.32,0-2.47-1.55-3.93-4.76-4.67-3.75-.82-12.99-1.19-19.66-1.55-7.96-.46-16.74-1.46-21.68-4.02-4.39-2.29-7.32-6.58-7.32-12.44,0-11.16,10.79-20.3,34.66-20.3,28.63,0,33.57,9.88,33.57,20.76h-15.73c0-5.49-5.4-8.69-17.84-8.69s-17.1,2.65-17.1,6.95c0,2.29,1.28,3.66,3.84,4.48,3.29,1.01,12.35,1.37,19.12,1.83,8.78.55,16.28,1.28,21.4,3.38,5.76,2.38,9.05,7.13,9.05,12.9,0,9.51-5.12,20.76-36.13,20.76s-34.48-13.26-34.48-21.31Z"/><path class="uuid-6c390cff-b9f3-4575-a243-2df635e7320e" d="M135.09,30.88h6.06l5.09,13.16h.06l5.09-13.16h5.65l5.01,13.16h.06l4.86-13.16h5.5l-7.69,19.16h-6.14l-4.75-12.37h-.06l-4.92,12.37h-6.14l-7.69-19.16Z"/><path class="uuid-6c390cff-b9f3-4575-a243-2df635e7320e" d="M176.17,30.88h5.59v7.22h12.29v-7.22h5.59v19.16h-5.59v-7.8h-12.29v7.8h-5.59v-19.16Z"/><path class="uuid-6c390cff-b9f3-4575-a243-2df635e7320e" d="M204.41,30.88h18.11v4.13h-12.52v3.76h9.61v3.26h-9.61v3.87h12.81v4.13h-18.4v-19.16Z"/><path class="uuid-6c390cff-b9f3-4575-a243-2df635e7320e" d="M226.95,30.88h12.05c7.1,0,9.32,2.24,9.32,5.68,0,1.92-.82,3.78-3.46,4.57v.06c3.03.7,3.35,2.82,3.35,4.83v4.02h-5.59v-4.02c0-1.98-.76-2.88-3.14-2.88h-6.93v6.9h-5.59v-19.16ZM239.26,39.88c2.77,0,3.76-1.02,3.76-2.5,0-1.37-1.02-2.36-4.25-2.36h-6.23v4.86h6.72Z"/><path class="uuid-6c390cff-b9f3-4575-a243-2df635e7320e" d="M253.04,30.88h18.11v4.13h-12.52v3.76h9.61v3.26h-9.61v3.87h12.81v4.13h-18.4v-19.16Z"/><path class="uuid-6c390cff-b9f3-4575-a243-2df635e7320e" d="M94.94,147.23c0-5.68,4.05-9.96,12.02-9.96,8.44,0,11.18,4.6,11.18,7.8,0,.06,0,.29-.03.47h-4.98v-.12c0-1.78-1.78-4.02-5.91-4.02s-6.41,2.53-6.41,5.82c0,3.06,1.8,5.76,6.43,5.76,3.96,0,5.97-1.8,5.97-3.93v-.17h4.98c.03.15.03.35.03.41,0,3.73-3.03,7.83-11.21,7.83-9.08,0-12.08-4.95-12.08-9.9Z"/><path class="uuid-6c390cff-b9f3-4575-a243-2df635e7320e" d="M121.72,147.11c0-5.3,3.93-9.84,12.58-9.84s12.58,4.54,12.58,9.84-3.64,10.02-12.58,10.02-12.58-4.28-12.58-10.02ZM141,147.14c0-3.12-2.16-5.74-6.7-5.74s-6.7,2.62-6.7,5.74c0,3.44,2.12,5.85,6.7,5.85s6.7-2.56,6.7-5.85Z"/><path class="uuid-6c390cff-b9f3-4575-a243-2df635e7320e" d="M151.01,137.62h9.29l5.18,13.33h.03l5.07-13.33h8.91v19.16h-5.59v-15.34h-.06l-6.06,15.34h-5.21l-6.08-15.34h-.06v15.34h-5.42v-19.16Z"/><path class="uuid-6c390cff-b9f3-4575-a243-2df635e7320e" d="M184.27,137.62h18.11v4.13h-12.52v3.76h9.61v3.26h-9.61v3.87h12.81v4.13h-18.4v-19.16Z"/><path class="uuid-6c390cff-b9f3-4575-a243-2df635e7320e" d="M223.6,141.76h-7.54v-4.13h20.67v4.13h-7.54v15.02h-5.59v-15.02Z"/><path class="uuid-6c390cff-b9f3-4575-a243-2df635e7320e" d="M240.57,137.62h12.05c7.1,0,9.32,2.24,9.32,5.68,0,1.92-.81,3.78-3.46,4.57v.06c3.03.7,3.35,2.82,3.35,4.83v4.02h-5.59v-4.02c0-1.98-.76-2.88-3.14-2.88h-6.93v6.9h-5.59v-19.16ZM252.89,146.62c2.77,0,3.76-1.02,3.76-2.5,0-1.37-1.02-2.36-4.25-2.36h-6.23v4.86h6.73Z"/><path class="uuid-6c390cff-b9f3-4575-a243-2df635e7320e" d="M266.46,148.22v-10.6h5.59v9.99c0,3.67,2.27,5.09,6,5.09s6-1.43,6-5.09v-9.99h5.01v10.6c0,6.06-4.25,8.91-11.27,8.91s-11.32-2.85-11.32-8.91Z"/><path class="uuid-6c390cff-b9f3-4575-a243-2df635e7320e" d="M293.62,137.62h18.11v4.13h-12.52v3.76h9.61v3.26h-9.61v3.87h12.81v4.13h-18.4v-19.16Z"/><path class="uuid-6c390cff-b9f3-4575-a243-2df635e7320e" d="M25.48,86.17l3.01-6.69c.29-.64,1.2-.64,1.49,0l3.01,6.69,7.29.79c.7.08.98.95.46,1.42l-5.43,4.93,1.5,7.18c.14.69-.6,1.23-1.21.88l-6.37-3.64-6.37,3.64c-.61.35-1.35-.19-1.21-.88l1.5-7.18-5.43-4.93c-.52-.47-.24-1.34.46-1.42l7.29-.79Z"/><path class="uuid-6c390cff-b9f3-4575-a243-2df635e7320e" d="M372.85,90.31l3.01-6.69c.29-.64,1.2-.64,1.49,0l3.01,6.69,7.29.79c.7.08.98.95.46,1.42l-5.43,4.93,1.5,7.18c.14.69-.6,1.23-1.21.88l-6.37-3.64-6.37,3.64c-.61.35-1.35-.19-1.21-.88l1.5-7.18-5.43-4.93c-.52-.47-.24-1.34.46-1.42l7.29-.79Z"/></g></svg>