<?xml version="1.0" encoding="UTF-8"?><svg id="uuid-7e26a7ac-0bf3-42a2-9a08-33edc89aefab" xmlns="http://www.w3.org/2000/svg" viewBox="0 0 341.03 145.46"><defs><style>.uuid-ab7041f8-5d07-49de-98bb-0c7780282e3c{fill:#f7f3eb;}.uuid-fdc055ab-90af-422d-88a6-2b14f2c6f98e{fill:#ff7345;}</style></defs><g id="uuid-ddda6fc7-2c61-402b-a0ca-6481d0239f84"><path class="uuid-ab7041f8-5d07-49de-98bb-0c7780282e3c" d="M0,15.67l18.23,116.23c-.15,6.01,4.63,10.98,10.63,11.09l283.1,2.47c6.09.1,11.07-4.84,11-10.93l18.07-123.82c-.06-6.01-5.01-10.82-11.02-10.71L10.61,5.12C4.82,5.23.14,9.88,0,15.67Z"/><path class="uuid-fdc055ab-90af-422d-88a6-2b14f2c6f98e" d="M11.18,13.74h46.12l3.24,54.05h.72l2.52-54.05h33.15l2.52,54.05h.9l3.24-54.05h35.13l-18.92,118.56h-43.78l-2.16-42.34h-.72l-2.34,42.34H30.1L11.18,13.74Z"/><path class="uuid-fdc055ab-90af-422d-88a6-2b14f2c6f98e" d="M127.57,72.3c0-39.28,11.35-60,41.44-60s41.44,20.72,41.44,60-10.27,61.44-41.44,61.44-41.44-19.1-41.44-61.44ZM170.81,72.66c0-21.62-.36-23.24-1.8-23.24s-1.8,1.62-1.8,23.24.36,23.96,1.8,23.96,1.8-1.44,1.8-23.96Z"/><path class="uuid-fdc055ab-90af-422d-88a6-2b14f2c6f98e" d="M199.28,13.74h46.12l3.24,54.05h.72l2.52-54.05h33.15l2.52,54.05h.9l3.24-54.05h35.13l-18.92,118.56h-43.78l-2.16-42.34h-.72l-2.34,42.34h-40.72l-18.92-118.56Z"/></g></svg>