<?xml version="1.0" encoding="UTF-8"?>
<svg id="Capa_1" data-name="Capa 1" xmlns="http://www.w3.org/2000/svg" viewBox="0 0 2014.21 949.96">
  <g>
    <path d="M161.29,703.07c-8.9,0-13.35-4.45-13.35-13.35v-418.34c0-8.9,4.45-13.35,13.35-13.35h287.37c8.9,0,13.35,4.45,13.35,13.35v103.63c0,8.9-4.45,13.35-13.35,13.35h-137.96c-8.9,0-13.35,4.45-13.35,13.35v6.99c0,8.9,4.45,13.35,13.35,13.35h120.8c8.9,0,13.35,4.45,13.35,13.35v92.82c0,8.9-4.45,13.35-13.35,13.35h-120.8c-8.9,0-13.35,4.45-13.35,13.35v4.45c0,8.9,4.45,13.35,13.35,13.35h137.96c8.9,0,13.35,4.45,13.35,13.35v103.63c0,8.9-4.45,13.35-13.35,13.35H161.29Z"/>
    <path d="M519.86,703.07c-8.9,0-13.35-4.45-13.35-13.35v-418.34c0-8.9,4.45-13.35,13.35-13.35h168.48c129.06,0,200.27,54.68,200.27,153.22s-68.03,154.49-199.63,154.49h-19.71c-8.9,0-13.35,5.09-13.35,15.89v108.08c0,8.9-4.45,13.35-13.35,13.35h-122.71ZM684.53,451.3c49.59,0,55.31-16.53,55.31-31.79s-5.72-31.79-55.31-31.79h-19.07c-6.36,0-9.54,4.45-9.54,13.35v50.23h28.61Z"/>
    <path d="M930.57,703.07c-8.9,0-13.35-4.45-13.35-13.35v-418.34c0-8.9,4.45-13.35,13.35-13.35h188.19c131.61,0,221.88,86.46,221.88,222.52s-90.92,222.52-221.25,222.52h-188.83ZM1114.31,572.74c47.68,0,70.57-48.32,70.57-92.19,0-47.05-23.52-92.19-69.3-92.19h-32.42c-12.08,0-16.53,6.99-16.53,19.07v145.59c0,13.35,5.72,19.71,16.53,19.71h31.15Z"/>
    <path d="M1478.61,258.03c9.54,0,10.81,3.81,13.35,13.35l59.76,172.29c5.72,17.17,11.44,13.99,12.08,13.99,3.81,0,7.63-4.45,10.81-13.99l59.76-172.29c3.18-9.54,3.81-13.35,13.35-13.35h132.24c9.54,0,13.99,3.81,13.99,8.9,0,1.27,0,2.54-.64,4.45l-145.59,418.34c-3.18,9.54-3.81,13.35-13.35,13.35h-142.41c-9.54,0-10.81-3.81-13.35-13.35l-145.59-418.34c-.64-1.27-.64-2.54-.64-3.81,0-5.72,4.45-9.54,13.99-9.54h132.24Z"/>
  </g>
  <path d="M1878.69,632.59c-37.91,11.45-53.19,26.73-64.64,64.64-2.68,8.87-15.16,8.87-17.84,0-11.45-37.91-26.73-53.19-64.64-64.64-8.87-2.68-8.87-15.16,0-17.84,37.91-11.45,53.19-26.73,64.64-64.64,2.68-8.87,15.16-8.87,17.84,0,11.45,37.91,26.73,53.19,64.64,64.64,8.87,2.68,8.87,15.16,0,17.84Z"/>
</svg>