<?xml version="1.0" encoding="UTF-8"?>
<svg id="Capa_1" data-name="Capa 1" xmlns="http://www.w3.org/2000/svg" viewBox="0 0 1829.99 1720.36">
  <defs>
    <style>
      .cls-1 {
        fill: #ff7345;
      }
    </style>
  </defs>
  <g>
    <g>
      <path class="cls-1" d="M94.74,662.2c-2.1,0-3.15-1.05-3.15-3.15v-98.7c0-2.1,1.05-3.15,3.15-3.15h67.8c2.1,0,3.15,1.05,3.15,3.15v24.45c0,2.1-1.05,3.15-3.15,3.15h-32.55c-2.1,0-3.15,1.05-3.15,3.15v1.65c0,2.1,1.05,3.15,3.15,3.15h28.5c2.1,0,3.15,1.05,3.15,3.15v21.9c0,2.1-1.05,3.15-3.15,3.15h-28.5c-2.1,0-3.15,1.05-3.15,3.15v1.05c0,2.1,1.05,3.15,3.15,3.15h32.55c2.1,0,3.15,1.05,3.15,3.15v24.45c0,2.1-1.05,3.15-3.15,3.15h-67.8Z"/>
      <path class="cls-1" d="M235.29,590.79c.15.3.6.45,1.05.45.15,0,1.35.15,1.35-.9v-29.55c0-2.4,1.05-3.6,3.15-3.6h28.95c2.1,0,3.15,1.05,3.15,3.15v98.7c0,2.1-1.2,3.15-3.45,3.15h-27.15c-.75,0-2.4-1.05-2.85-1.65l-25.35-32.85c-.45-.6-.9-.9-1.5-.9-.15,0-1.2-.15-1.2,1.2v31.05c0,2.55-2.25,3.15-4.5,3.15h-27.6c-2.1,0-3.15-1.05-3.15-3.15v-98.7c0-2.1,1.2-3.15,3.6-3.15h26.4c3,0,3.3.15,6.15,3.75l22.95,29.85Z"/>
    </g>
    <g>
      <path class="cls-1" d="M346.3,741.99c-6.36,0-9.54-3.18-9.54-9.53v-298.76c0-6.36,3.18-9.53,9.54-9.53h120.32c92.17,0,143.02,39.05,143.02,109.42s-48.58,110.33-142.57,110.33h-14.08c-6.36,0-9.53,3.63-9.53,11.35v77.19c0,6.36-3.18,9.53-9.53,9.53h-87.63ZM463.89,562.19c35.41,0,39.5-11.81,39.5-22.7s-4.09-22.7-39.5-22.7h-13.62c-4.54,0-6.81,3.18-6.81,9.53v35.87h20.43Z"/>
      <path class="cls-1" d="M630.08,433.7c0-6.36,3.18-9.53,9.54-9.53h88.08c5.9,0,9.08,3.18,9.08,9.53v205.68c0,6.36,3.18,9.53,9.53,9.53h79.46c6.36,0,9.54,3.18,9.54,9.54v74.01c0,6.36-3.18,9.53-9.54,9.53h-186.16c-2.27,0-4.99-.91-7.27-2.27-1.36-1.36-2.27-4.09-2.27-7.26v-298.76Z"/>
      <path class="cls-1" d="M858.92,741.99c-6.81,0-9.99-2.72-9.99-6.81,0-.91,0-1.82.45-2.72l99.44-298.76c2.27-6.81,2.72-9.53,9.53-9.53h106.25c6.81,0,7.26,2.72,9.53,9.53l99.44,298.76c.45,1.36.45,2.27.45,3.18,0,3.63-3.18,6.36-9.99,6.36h-92.17c-6.81,0-7.26-2.72-9.53-9.53l-7.26-24.06c-.91-2.27-2.27-3.63-4.54-3.63h-77.19c-4.09,0-4.09.91-5.45,4.09l-7.27,23.61c-1.82,6.81-2.72,9.53-9.53,9.53h-92.17ZM995.13,620.76c-.45,1.36-.45,2.27-.45,3.18,0,1.36.91,2.27,2.27,2.27h28.15c2.27,0,3.18-.91,3.18-3.18,0-.45,0-1.36-.45-2.72l-12.71-40.86c-.91-3.18-1.82-4.99-3.18-4.99,0,0-1.82-1.36-4.09,5.45l-12.71,40.86Z"/>
      <path class="cls-1" d="M1376.08,525.87c.45.91,1.82,1.36,3.18,1.36.45,0,4.09.45,4.09-2.72v-89.45c0-7.26,3.18-10.9,9.53-10.9h87.63c6.36,0,9.53,3.18,9.53,9.53v298.76c0,6.36-3.63,9.53-10.44,9.53h-82.18c-2.27,0-7.27-3.18-8.63-4.99l-76.73-99.44c-1.36-1.82-2.72-2.72-4.54-2.72-.45,0-3.63-.45-3.63,3.63v93.99c0,7.72-6.81,9.53-13.62,9.53h-83.54c-6.36,0-9.54-3.18-9.54-9.53v-298.76c0-6.36,3.63-9.53,10.9-9.53h79.91c9.08,0,9.99.45,18.62,11.35l69.47,90.35Z"/>
    </g>
    <g>
      <path class="cls-1" d="M1553.36,662.2c-2.1,0-3.15-1.05-3.15-3.15v-98.7c0-2.1,1.05-3.15,3.15-3.15h44.4c31.05,0,52.35,20.4,52.35,52.5s-21.45,52.5-52.2,52.5h-44.55ZM1596.72,631.44c11.25,0,16.65-11.4,16.65-21.75,0-11.1-5.55-21.75-16.35-21.75h-7.65c-2.85,0-3.9,1.65-3.9,4.5v34.35c0,3.15,1.35,4.65,3.9,4.65h7.35Z"/>
      <path class="cls-1" d="M1661.51,662.2c-2.1,0-3.15-1.05-3.15-3.15v-98.7c0-2.1,1.05-3.15,3.15-3.15h67.8c2.1,0,3.15,1.05,3.15,3.15v24.45c0,2.1-1.05,3.15-3.15,3.15h-32.55c-2.1,0-3.15,1.05-3.15,3.15v1.65c0,2.1,1.05,3.15,3.15,3.15h28.5c2.1,0,3.15,1.05,3.15,3.15v21.9c0,2.1-1.05,3.15-3.15,3.15h-28.5c-2.1,0-3.15,1.05-3.15,3.15v1.05c0,2.1,1.05,3.15,3.15,3.15h32.55c2.1,0,3.15,1.05,3.15,3.15v24.45c0,2.1-1.05,3.15-3.15,3.15h-67.8Z"/>
    </g>
    <g>
      <path class="cls-1" d="M197.56,810.47c6.87-.03,7.78,3.06,9.57,10.75,14.14,46.26,28.23,91.27,42.28,135.16,4.03,13.12,8.15,10.19,8.61,10.16,2.74-.27,5.5-4.01,7.83-11.65,14.59-46.04,29.23-90.9,43.89-134.69,2.34-7.27,2.82-10.16,9.7-10.18,31.77-.11,63.54-.21,95.31-.29,6.87-.02,10.06,2.7,10.03,6.34,0,.91-.02,1.81-.49,3.19-35.84,100.04-71.67,205.22-107.26,317.16-2.34,7.64-2.81,10.63-9.65,11.95-34.03,6.67-67.97,13.9-101.82,21.7-6.8,1.57-7.69-1.31-9.47-8.65-34.12-105.52-68.51-217.93-103.46-338.87-.46-1.1-.46-2.21-.46-3.32,0-4.99,3.21-8.32,10.08-8.35,31.76-.14,63.53-.28,95.29-.41Z"/>
      <path class="cls-1" d="M450.93,1123.67c-6.42.96-9.6-1.71-9.54-8.02.87-98.84,1.73-197.69,2.6-296.53.05-6.31,3.29-9.47,9.71-9.49,29.48-.08,58.96-.15,88.45-.21,6.42-.02,9.6,3,9.55,9.02-.8,94.39-1.6,188.78-2.4,283.18-.05,6.03-3.3,9.4-9.73,10.18-29.58,3.54-59.13,7.5-88.62,11.88Z"/>
      <path class="cls-1" d="M582.33,1106.96c-6.91.73-10.1-1.47-10.07-5.31,0-.85.01-1.71.48-2.61,34.37-97.13,68.64-190.36,102.7-281.17,2.33-6.21,2.81-8.69,9.68-8.7,35.75-.05,71.5-.08,107.25-.11,6.88,0,7.32,2.42,9.6,8.47,33.16,88.43,66.59,175.75,100.29,263.47.46,1.21.46,2.01.46,2.8,0,3.2-3.24,5.62-10.17,5.67-31.28.22-62.57.92-93.83,2.07-6.93.26-7.39-2.15-9.67-8.11-2.44-7.04-4.87-14.09-7.31-21.14-.91-1.99-2.3-3.16-4.6-3.06-26.16,1.01-52.3,2.32-78.43,3.91-4.15.25-4.15,1.08-5.56,4.04-2.5,7.29-5.01,14.59-7.51,21.91-1.89,6.32-2.82,8.86-9.74,9.38-31.22,2.37-62.41,5.2-93.56,8.5ZM721.26,986.19c-.47,1.24-.47,2.06-.48,2.88,0,1.23.91,2,2.29,1.95,9.52-.37,19.03-.72,28.55-1.04,2.3-.08,3.23-.92,3.24-2.95,0-.41,0-1.21-.45-2.42-4.24-12.05-8.48-24.12-12.71-36.22-.91-2.82-1.82-4.43-3.2-4.39,0,0-1.83-1.18-4.17,5.01-4.36,12.36-8.72,24.75-13.08,37.19Z"/>
      <path class="cls-1" d="M1009.39,891.56c-8.73-.08-11.03-2.91-11.05-8.14-.06-22.25-.11-44.49-.17-66.74-.02-6.04,2.73-7.63,12.35-7.63,55.15.03,110.3.08,165.45.17,7.79,0,11.94,3.36,11.99,9.62.49,67.46.98,134.93,1.47,202.39.4,52.6-49.14,79.57-130.02,75.5-96.61-4.25-142.42-37.9-142.38-111.47,0-6.81,0-13.62,0-20.43,0-5.61,3.22-8.42,9.67-8.4,28.24.05,56.48.31,84.71.78,6.45.1,9.68,3,9.69,8.63.02,4.97.03,9.94.05,14.91.07,23.78,14.39,32.17,30.53,32.69,12.91.39,29.5.64,29.39-22.15-.15-31.72-.31-63.44-.46-95.16-.01-2.44-1.4-3.69-3.69-3.72-22.51-.36-45.02-.64-67.53-.84Z"/>
      <path class="cls-1" d="M1231.93,1105.27c-6.45-.66-9.7-3.91-9.74-9.81-.72-92.44-1.44-184.89-2.16-277.33-.05-5.89,3.14-8.84,9.56-8.84,69.05.12,138.1.29,207.14.49,6.42.02,9.65,3.27,9.7,9.78.21,25.22.42,50.44.63,75.66.06,6.5-3.12,9.58-9.54,9.25-33.13-1.7-66.28-3.24-99.45-4.61-6.42-.26-9.6,2.68-9.55,8.82.01,1.61.03,3.22.04,4.83.05,6.15,3.29,9.38,9.71,9.71,29.04,1.5,58.07,3.15,87.08,4.95,6.41.4,9.65,3.83,9.7,10.29.19,22.45.38,44.9.57,67.35.05,6.47-3.12,9.34-9.53,8.66-29-3.06-58.03-5.86-87.09-8.39-6.42-.56-9.61,2.24-9.55,8.39,0,1.03.02,2.05.03,3.07.05,6.15,3.29,9.52,9.72,10.14,33.19,3.21,66.34,6.79,99.45,10.75,6.41.76,9.64,4.41,9.69,10.91.21,25.22.42,50.44.63,75.66.05,6.51-3.12,9.2-9.52,8.12-68.92-11.59-138.13-20.87-207.52-27.85Z"/>
      <path class="cls-1" d="M1594.91,908.02c-1.67-.02-3.35-.04-5.02-.06-6.84-.08-15.38,1.84-14.89,8.82.65,9.54,14.69,14.62,51.84,26.66,79.39,25.93,107.8,59.11,111.25,121.1,4.58,85.45-40.26,123.28-126.64,106.92-54.32-9.73-105.1-33.96-136.29-64.21-2.45-2.63-3.54-5.11-3.72-7.48-.11-1.42.21-3.27.98-5.07,12.39-22.03,24.79-44.49,37.19-67.41,2.04-3.21,4.18-4.98,6.91-4.78,2.28.17,4.63,1.31,7.05,3.43,28.87,23.49,58.73,37.72,89.15,41.11,17.71,1.98,24.27-.88,23.91-6.63-.47-7.23-7.38-10.32-44.85-23.37-81.59-29.8-110.35-53.45-114.47-109.37-5.59-74.54,38.78-118.54,119.76-123.45,60.85-3.55,104.41,25.56,124.75,45.65,2.9,2.67,4.43,5.39,4.58,8.13.16,2.76-.63,4.96-2.29,7.74-15.14,25.12-30.24,49.48-45.3,73.14-2.08,3.13-4.26,4.64-6.99,4.54-2.28-.09-4.62-1.22-7.06-3.95-21.24-20.26-46.58-31.23-69.85-31.49Z"/>
    </g>
  </g>
  <g>
    <path class="cls-1" d="M490.14,1550.39c-2.34,9.24-10.94,16.13-21.32,16.13-12.22,0-21.96-9.59-21.96-21.32s9.74-21.32,21.96-21.32c10.38,0,18.98,6.82,21.32,16.13h-10.23c-1.92-4.33-6.11-7.39-11.09-7.39-6.75,0-12.08,5.61-12.08,12.58s5.33,12.58,12.08,12.58c4.97,0,9.17-3.06,11.01-7.39h10.3Z"/>
    <path class="cls-1" d="M548.14,1545.2c0,11.73-9.74,21.32-21.96,21.32s-21.96-9.59-21.96-21.32,9.74-21.32,21.96-21.32,21.96,9.52,21.96,21.32ZM514.1,1545.2c0,6.82,5.33,12.58,12.08,12.58s12.08-5.76,12.08-12.58-5.33-12.58-12.08-12.58-12.08,5.61-12.08,12.58Z"/>
    <path class="cls-1" d="M600.67,1565.74h-9.52l-17.41-23.59v23.59h-9.52v-41.15h8.95l17.98,24.52v-24.52h9.52v41.15Z"/>
    <path class="cls-1" d="M629.46,1565.74l-15-41.15h10.59l10.02,28.99,10.02-28.99h10.59l-14.99,41.15h-11.23Z"/>
    <path class="cls-1" d="M669.48,1524.59h9.52v41.15h-9.52v-41.15Z"/>
    <path class="cls-1" d="M719.02,1565.74l-9.67-11.65h-4.05v11.65h-9.52v-41.15h16.49s15.99,0,15.99,14.78c0,7.89-4.55,11.51-8.81,13.22l10.38,13.15h-10.8ZM705.3,1545.56h6.75c3.27,0,5.9-1.71,5.9-6.18s-2.63-6.25-5.9-6.25h-6.75v12.44Z"/>
    <path class="cls-1" d="M740.42,1533.33v-8.74h34.47v8.74h-12.44v32.41h-9.59v-32.41h-12.44Z"/>
    <path class="cls-1" d="M789.89,1524.59h9.52v41.15h-9.52v-41.15Z"/>
    <path class="cls-1" d="M844.9,1557v8.74h-28.71v-41.15h28.71v8.74h-19.19v7.82h17.7v8.74h-17.7v7.11h19.19Z"/>
    <path class="cls-1" d="M897,1565.74h-9.52l-17.41-23.59v23.59h-9.52v-41.15h8.95l17.98,24.52v-24.52h9.52v41.15Z"/>
    <path class="cls-1" d="M913.78,1524.59h16.2c12.22,0,20.61,8.88,20.61,20.61s-8.39,20.54-20.61,20.54h-16.2v-41.15ZM923.31,1533.33v23.66h6.68c6.75,0,10.73-4.97,10.73-11.8s-3.98-11.87-10.73-11.87h-6.68Z"/>
    <path class="cls-1" d="M1009.16,1545.2c0,11.73-9.74,21.32-21.96,21.32s-21.96-9.59-21.96-21.32,9.74-21.32,21.96-21.32,21.96,9.52,21.96,21.32ZM975.12,1545.2c0,6.82,5.33,12.58,12.08,12.58s12.08-5.76,12.08-12.58-5.33-12.58-12.08-12.58-12.08,5.61-12.08,12.58Z"/>
    <path class="cls-1" d="M1058.71,1565.74l-14.99-41.15h10.59l10.02,28.99,10.02-28.99h10.59l-14.99,41.15h-11.23Z"/>
    <path class="cls-1" d="M1098.73,1524.59h9.52v41.15h-9.52v-41.15Z"/>
    <path class="cls-1" d="M1150.05,1558.84h-14.92l-2.49,6.89h-10.59l15-41.15h11.09l15,41.15h-10.59l-2.49-6.89ZM1147.13,1550.1l-4.48-13.36-4.55,13.36h9.02Z"/>
    <path class="cls-1" d="M1192.41,1553.8v-29.21h9.52v29.85c0,6.47-6.04,12.08-14.92,12.08-9.59,0-13.64-7.89-13.64-7.89l7.68-4.34c1.07,1.78,3.55,3.48,6.32,3.48,3.7,0,5.05-3.06,5.05-3.98Z"/>
    <path class="cls-1" d="M1247.07,1557v8.74h-28.71v-41.15h28.71v8.74h-19.19v7.82h17.7v8.74h-17.7v7.11h19.19Z"/>
    <path class="cls-1" d="M1285.95,1565.74l-9.67-11.65h-4.05v11.65h-9.52v-41.15h16.49s15.99,0,15.99,14.78c0,7.89-4.55,11.51-8.81,13.22l10.38,13.15h-10.8ZM1272.23,1545.56h6.75c3.27,0,5.9-1.71,5.9-6.18s-2.63-6.25-5.9-6.25h-6.75v12.44Z"/>
    <path class="cls-1" d="M1353.04,1545.2c0,11.73-9.74,21.32-21.96,21.32s-21.96-9.59-21.96-21.32,9.74-21.32,21.96-21.32,21.96,9.52,21.96,21.32ZM1319,1545.2c0,6.82,5.33,12.58,12.08,12.58s12.08-5.76,12.08-12.58-5.33-12.58-12.08-12.58-12.08,5.61-12.08,12.58Z"/>
    <path class="cls-1" d="M1384.4,1557.28c5.05,0,6.04-2.49,6.04-3.2,0-6.25-21.89-3.13-21.89-18.41,0-3.98,2.91-11.8,14.78-11.8s15.28,8.17,15.28,8.17l-6.68,5.12c-1.78-3.2-5.68-4.19-9.02-4.19-2.56,0-4.83,1.35-4.83,3.2,0,7.25,21.89,3.06,21.89,18.34,0,4.26-3.84,11.94-15.92,11.94-10.87,0-15.35-6.33-16.77-9.03l7.32-5.61c.64,1.35,4.05,5.47,9.81,5.47Z"/>
    <path class="cls-1" d="M804.7,1643.31v8.74h-28.71v-41.15h28.71v8.74h-19.19v7.82h17.7v8.74h-17.7v7.11h19.19Z"/>
    <path class="cls-1" d="M856.8,1652.05h-9.52l-17.41-23.59v23.59h-9.52v-41.15h8.95l17.98,24.52v-24.52h9.52v41.15Z"/>
    <path class="cls-1" d="M904.57,1619.64v9.38h17.7v8.74h-17.7v14.28h-9.52v-41.15h28.71v8.74h-19.19Z"/>
    <path class="cls-1" d="M960.58,1645.16h-14.92l-2.49,6.89h-10.59l15-41.15h11.09l15,41.15h-10.59l-2.49-6.89ZM957.67,1636.41l-4.48-13.36-4.55,13.36h9.02Z"/>
    <path class="cls-1" d="M1023.91,1652.05h-9.52l-17.41-23.59v23.59h-9.52v-41.15h8.95l17.98,24.52v-24.52h9.52v41.15Z"/>
    <path class="cls-1" d="M1055.97,1643.59c5.05,0,6.04-2.49,6.04-3.2,0-6.25-21.89-3.13-21.89-18.41,0-3.98,2.91-11.8,14.78-11.8s15.28,8.17,15.28,8.17l-6.68,5.12c-1.78-3.2-5.68-4.19-9.02-4.19-2.56,0-4.83,1.35-4.83,3.2,0,7.25,21.89,3.06,21.89,18.34,0,4.26-3.84,11.94-15.92,11.94-10.87,0-15.35-6.33-16.77-9.03l7.32-5.61c.64,1.35,4.05,5.47,9.81,5.47Z"/>
  </g>
  <g>
    <path class="cls-1" d="M600.73,1310.28h17.02v10.91h-17.02v4.44h18.48v10.91h-30.19v-42.12h30.19v10.91h-18.48v4.95Z"/>
    <path class="cls-1" d="M640.37,1321.77c2.26,2.4,5.82,4.66,10.18,4.66,3.71,0,4.44-1.38,4.44-2.4,0-3.86-20.95-3.64-20.95-17.68,0-4.22,3.13-12.66,15.57-12.66s16.51,8.66,16.51,8.66l-7.64,6.04c-3.35-3.78-6.55-3.78-9.31-3.78-1.75,0-3.27.73-3.27,2.04,0,4.8,20.95,3.56,20.95,17.82,0,4.58-4,12.88-16.66,12.88-10.98,0-16.15-6.4-17.75-9.6l7.93-5.97Z"/>
    <path class="cls-1" d="M678.84,1305.33v-10.91h35.72v10.91h-12v31.21h-11.71v-31.21h-12Z"/>
    <path class="cls-1" d="M726.55,1324.17c3.64,0,6.55,2.91,6.55,6.62s-2.91,6.55-6.55,6.55-6.55-2.91-6.55-6.55,2.84-6.62,6.55-6.62Z"/>
    <path class="cls-1" d="M1099.05,1308.09c0-1.46.15-14.4,14.11-14.4s15.06,12,15.06,14.4c0,6.55-6.11,13.6-10.33,17.53h10.77v10.91h-28.74v-9.67c15.35-13.09,16.59-17.02,16.59-18.99s-.8-3.27-2.98-3.27c-1.75,0-2.69,1.38-2.69,3.49v3.13h-11.78v-3.13Z"/>
    <path class="cls-1" d="M1179.35,1315.51c0,12.15-5.67,21.82-18.26,21.82s-18.26-9.68-18.26-21.82,5.68-21.82,18.26-21.82,18.26,9.75,18.26,21.82ZM1154.91,1315.51c0,5.31,1.02,10.91,6.18,10.91s6.18-5.6,6.18-10.91-1.02-10.91-6.18-10.91-6.18,5.6-6.18,10.91Z"/>
    <path class="cls-1" d="M1211.64,1294.42v42.12h-11.71v-30.33c-2.98.8-6.69,1.82-9.53,2.47v-11.13l11.13-3.13h10.11Z"/>
    <path class="cls-1" d="M1239.12,1323.88c-7.78-1.02-12.95-7.57-12.95-15.2,0-8.37,7.2-15.06,16.15-15.06s16.22,6.69,16.22,15.06c0,3.35-1.16,6.69-3.05,9.75l-11.35,18.11h-12.88l7.86-12.66ZM1246.76,1308.97c0-2.4-2.04-4.29-4.44-4.29s-4.44,1.89-4.44,4.29c0,2.26,2.04,4.15,4.44,4.15s4.44-1.89,4.44-4.15Z"/>
  </g>
  <g>
    <path class="cls-1" d="M513.17,271.97l-8.7-7.11,28.04-34.32,8.7,7.11-10.12,12.38,32.27,26.37-7.81,9.55-32.27-26.37-10.12,12.38Z"/>
    <path class="cls-1" d="M608.97,230.57l-19.26-2.88-3.88,3.47,10,11.17-9.12,8.17-35.29-39.42,15.79-14.14s15.32-13.72,28,.45c6.77,7.56,5.52,14.93,2.9,20.22l21.22,3.7-10.35,9.27ZM578.52,223l6.47-5.79c3.13-2.8,4.19-6.69.35-10.98-3.9-4.36-7.88-3.74-11.01-.93l-6.47,5.79,10.67,11.91Z"/>
    <path class="cls-1" d="M656.02,185.31l-16.08,10.49,2.17,9.17-11.41,7.44-12.77-54.86,11.94-7.79,45.07,33.78-11.41,7.44-7.53-5.68ZM646.74,177.94l-14.21-11.24,4.49,17.59,9.72-6.34Z"/>
    <path class="cls-1" d="M697.3,172.4l-40.35-39.3,12.27-5.91,27.8,28-4.59-39.19,12.27-5.91,5.61,56.05-13.01,6.27Z"/>
    <path class="cls-1" d="M775.8,129.38l3.54,10.67-35.04,11.62-16.65-50.22,35.04-11.62,3.54,10.67-23.42,7.77,3.16,9.54,21.6-7.16,3.54,10.67-21.6,7.16,2.88,8.67,23.42-7.77Z"/>
    <path class="cls-1" d="M808.65,121.37l24.14-5.09,2.32,11-36.13,7.61-10.91-51.77,11.98-2.52,8.59,40.78Z"/>
    <path class="cls-1" d="M900.98,67.82s20.55-.85,21.33,18.15c.78,18.9-19.77,19.75-19.77,19.75l-8.95.37.62,14.98-12.24.5-2.18-52.88,21.19-.87ZM901.16,78.79l-8.68.36.66,15.98,8.68-.36c4.2-.17,7.49-2.5,7.25-8.26-.24-5.84-3.71-7.9-7.91-7.72Z"/>
    <path class="cls-1" d="M954.83,110l24.62,1.65-.75,11.21-36.83-2.47,3.54-52.79,12.22.82-2.79,41.58Z"/>
    <path class="cls-1" d="M1031.67,122.49l-18.86-3.57-4.79,8.11-13.38-2.53,28.8-48.4,14.01,2.65,9.1,55.58-13.38-2.53-1.49-9.3ZM1030.08,110.75l-2.46-17.95-8.94,15.79,11.4,2.16Z"/>
    <path class="cls-1" d="M1108.09,153.78l-11.62-3.87-11.64-35.87-9.6,28.78-11.62-3.87,16.74-50.2,10.92,3.64,11.96,37.23,9.98-29.91,11.62,3.87-16.74,50.2Z"/>
    <path class="cls-1" d="M1169.72,182.95l-10.95-5.49-6.42-37.16-13.6,27.12-10.95-5.49,23.72-47.3,10.29,5.16,6.54,38.55,14.13-28.19,10.95,5.49-23.72,47.3Z"/>
    <path class="cls-1" d="M1224.76,205.85l-6.38,9.25-30.4-20.95,30.02-43.57,30.4,20.95-6.38,9.26-20.32-14-5.71,8.28,18.74,12.91-6.38,9.26-18.74-12.91-5.19,7.52,20.32,14Z"/>
    <path class="cls-1" d="M1255.98,247.67l1-19.45-3.83-3.53-10.15,11.03-9.01-8.29,35.83-38.94,15.61,14.36s15.13,13.93,2.26,27.92c-6.87,7.47-14.33,6.94-19.85,4.84l-1.63,21.48-10.22-9.41ZM1260.57,216.62l6.39,5.88c3.09,2.85,7.07,3.52,10.97-.72,3.96-4.3,2.96-8.21-.14-11.06l-6.39-5.88-10.83,11.77Z"/>
    <path class="cls-1" d="M1297.97,277.88c4.05,5.07,7.35,4.07,8.06,3.5,6.28-5.02-14.44-24.49.9-36.76,4-3.2,14.19-6.55,23.72,5.37,9.36,11.7,4.06,21.91,4.06,21.91l-10.5-2.6c1.78-4.35-.36-9.08-3.04-12.43-2.05-2.57-5.24-3.77-7.09-2.28-7.28,5.82,14.51,24.43-.83,36.71-4.28,3.42-15.07,5.74-24.77-6.4-8.73-10.92-5.98-20.49-4.41-24.09l11.52,2.84c-.84,1.73-2.24,8.46,2.38,14.24Z"/>
  </g>
  <path class="cls-1" d="M985.38,1222.49l-30.58,15.52c-3.33,1.69-7.27,1.69-10.6,0l-42.29-21.46c-3.33-1.69-7.27-1.69-10.6,0l-41.17,20.89c-3.93,2-6.41,6.03-6.41,10.44v127.84c0,8.73,9.22,14.39,17.01,10.44l30.58-15.52c3.33-1.69,7.27-1.69,10.6,0l42.29,21.46c3.33,1.69,7.27,1.69,10.6,0l41.17-20.89c3.93-2,6.41-6.03,6.41-10.44v-127.84c0-8.73-9.22-14.39-17.01-10.44ZM965.97,1309.53c-22.12,6.68-31.03,15.59-37.71,37.71-1.56,5.17-8.84,5.17-10.4,0-6.68-22.12-15.59-31.03-37.71-37.71-5.17-1.56-5.17-8.84,0-10.4,22.12-6.68,31.03-15.59,37.71-37.71,1.56-5.17,8.84-5.17,10.4,0,6.68,22.12,15.59,31.03,37.71,37.71,5.17,1.56,5.17,8.84,0,10.4Z"/>
  <path class="cls-1" d="M965.97,269.07c-22.12,6.68-31.03,15.59-37.71,37.71-1.56,5.17-8.84,5.17-10.4,0-6.68-22.12-15.59-31.03-37.71-37.71-5.17-1.56-5.17-8.84,0-10.4,22.12-6.68,31.03-15.59,37.71-37.71,1.56-5.17,8.84-5.17,10.4,0,6.68,22.12,15.59,31.03,37.71,37.71,5.17,1.56,5.17,8.84,0,10.4Z"/>
</svg>