<?xml version="1.0" encoding="UTF-8"?>
<svg id="Capa_1" data-name="Capa 1" xmlns="http://www.w3.org/2000/svg" viewBox="0 0 3316.25 607.71">
  <defs>
    <style>
      .cls-1 {
        fill: #1b2e4d;
      }
    </style>
  </defs>
  <g>
    <path class="cls-1" d="M510.96,400.06c-3.97,0-5.96-1.99-5.96-5.96v-186.65c0-3.97,1.99-5.96,5.96-5.96h128.21c3.97,0,5.96,1.99,5.96,5.96v46.24c0,3.97-1.99,5.96-5.96,5.96h-61.55c-3.97,0-5.96,1.99-5.96,5.96v3.12c0,3.97,1.99,5.96,5.96,5.96h53.9c3.97,0,5.96,1.99,5.96,5.96v41.41c0,3.97-1.99,5.96-5.96,5.96h-53.9c-3.97,0-5.96,1.99-5.96,5.96v1.99c0,3.97,1.99,5.96,5.96,5.96h61.55c3.97,0,5.96,1.99,5.96,5.96v46.24c0,3.97-1.99,5.96-5.96,5.96h-128.21Z"/>
    <path class="cls-1" d="M776.75,265.04c.28.57,1.13.85,1.99.85.28,0,2.55.28,2.55-1.7v-55.88c0-4.54,1.99-6.81,5.96-6.81h54.75c3.97,0,5.96,1.99,5.96,5.96v186.65c0,3.97-2.27,5.96-6.52,5.96h-51.34c-1.42,0-4.54-1.99-5.39-3.12l-47.94-62.12c-.85-1.13-1.7-1.7-2.84-1.7-.28,0-2.27-.28-2.27,2.27v58.72c0,4.82-4.25,5.96-8.51,5.96h-52.19c-3.97,0-5.96-1.99-5.96-5.96v-186.65c0-3.97,2.27-5.96,6.81-5.96h49.92c5.67,0,6.24.28,11.63,7.09l43.4,56.45Z"/>
    <path class="cls-1" d="M950.34,400.06c-3.97,0-5.96-1.99-5.96-5.96v-186.65c0-3.97,1.99-5.96,5.96-5.96h75.17c57.58,0,89.35,24.39,89.35,68.36s-30.35,68.93-89.07,68.93h-8.79c-3.97,0-5.96,2.27-5.96,7.09v48.22c0,3.97-1.99,5.96-5.96,5.96h-54.75ZM1023.81,287.73c22.13,0,24.68-7.38,24.68-14.18s-2.55-14.18-24.68-14.18h-8.51c-2.84,0-4.25,1.99-4.25,5.96v22.41h12.76Z"/>
    <path class="cls-1" d="M1127.63,207.46c0-3.97,1.99-5.96,5.96-5.96h55.03c3.69,0,5.67,1.99,5.67,5.96v128.5c0,3.97,1.99,5.96,5.96,5.96h49.64c3.97,0,5.96,1.99,5.96,5.96v46.24c0,3.97-1.99,5.96-5.96,5.96h-116.3c-1.42,0-3.12-.57-4.54-1.42-.85-.85-1.42-2.55-1.42-4.54v-186.65Z"/>
    <path class="cls-1" d="M1270.59,400.06c-4.25,0-6.24-1.7-6.24-4.25,0-.57,0-1.13.28-1.7l62.12-186.65c1.42-4.25,1.7-5.96,5.96-5.96h66.38c4.25,0,4.54,1.7,5.96,5.96l62.12,186.65c.28.85.28,1.42.28,1.99,0,2.27-1.99,3.97-6.24,3.97h-57.58c-4.25,0-4.54-1.7-5.96-5.96l-4.54-15.03c-.57-1.42-1.42-2.27-2.84-2.27h-48.22c-2.55,0-2.55.57-3.4,2.55l-4.54,14.75c-1.13,4.25-1.7,5.96-5.96,5.96h-57.58ZM1355.69,324.33c-.28.85-.28,1.42-.28,1.99,0,.85.57,1.42,1.42,1.42h17.59c1.42,0,1.99-.57,1.99-1.99,0-.28,0-.85-.28-1.7l-7.94-25.53c-.57-1.99-1.13-3.12-1.99-3.12,0,0-1.13-.85-2.55,3.4l-7.94,25.53Z"/>
    <path class="cls-1" d="M1593.68,265.04c.28.57,1.13.85,1.99.85.28,0,2.55.28,2.55-1.7v-55.88c0-4.54,1.99-6.81,5.96-6.81h54.75c3.97,0,5.96,1.99,5.96,5.96v186.65c0,3.97-2.27,5.96-6.52,5.96h-51.34c-1.42,0-4.54-1.99-5.39-3.12l-47.94-62.12c-.85-1.13-1.7-1.7-2.84-1.7-.28,0-2.27-.28-2.27,2.27v58.72c0,4.82-4.25,5.96-8.51,5.96h-52.19c-3.97,0-5.96-1.99-5.96-5.96v-186.65c0-3.97,2.27-5.96,6.81-5.96h49.92c5.67,0,6.24.28,11.63,7.09l43.4,56.45Z"/>
    <path class="cls-1" d="M1767.27,400.06c-3.97,0-5.96-1.99-5.96-5.96v-186.65c0-3.97,1.99-5.96,5.96-5.96h83.96c58.72,0,99,38.58,99,99.28s-40.56,99.28-98.71,99.28h-84.25ZM1849.25,341.91c21.27,0,31.49-21.56,31.49-41.13,0-20.99-10.5-41.13-30.92-41.13h-14.47c-5.39,0-7.38,3.12-7.38,8.51v64.96c0,5.96,2.55,8.79,7.38,8.79h13.9Z"/>
    <path class="cls-1" d="M1971.79,400.06c-3.97,0-5.96-1.99-5.96-5.96v-186.65c0-3.97,1.99-5.96,5.96-5.96h128.21c3.97,0,5.96,1.99,5.96,5.96v46.24c0,3.97-1.99,5.96-5.96,5.96h-61.55c-3.97,0-5.96,1.99-5.96,5.96v3.12c0,3.97,1.99,5.96,5.96,5.96h53.9c3.97,0,5.96,1.99,5.96,5.96v41.41c0,3.97-1.99,5.96-5.96,5.96h-53.9c-3.97,0-5.96,1.99-5.96,5.96v1.99c0,3.97,1.99,5.96,5.96,5.96h61.55c3.97,0,5.96,1.99,5.96,5.96v46.24c0,3.97-1.99,5.96-5.96,5.96h-128.21Z"/>
    <path class="cls-1" d="M2261.97,201.5c4.25,0,4.82,1.7,5.96,5.96l26.66,76.87c2.55,7.66,5.11,6.24,5.39,6.24,1.7,0,3.4-1.99,4.82-6.24l26.66-76.87c1.42-4.25,1.7-5.96,5.96-5.96h59c4.25,0,6.24,1.7,6.24,3.97,0,.57,0,1.13-.28,1.99l-64.96,186.65c-1.42,4.25-1.7,5.96-5.96,5.96h-63.54c-4.25,0-4.82-1.7-5.96-5.96l-64.96-186.65c-.28-.57-.28-1.13-.28-1.7,0-2.55,1.99-4.25,6.24-4.25h59Z"/>
    <path class="cls-1" d="M2420.53,400.06c-3.97,0-5.96-1.99-5.96-5.96v-186.65c0-3.97,1.99-5.96,5.96-5.96h54.75c3.97,0,5.96,1.99,5.96,5.96v186.65c0,3.97-1.99,5.96-5.96,5.96h-54.75Z"/>
    <path class="cls-1" d="M2501.66,400.06c-4.25,0-6.24-1.7-6.24-4.25,0-.57,0-1.13.28-1.7l62.12-186.65c1.42-4.25,1.7-5.96,5.96-5.96h66.38c4.25,0,4.54,1.7,5.96,5.96l62.12,186.65c.28.85.28,1.42.28,1.99,0,2.27-1.99,3.97-6.24,3.97h-57.58c-4.25,0-4.54-1.7-5.96-5.96l-4.54-15.03c-.57-1.42-1.42-2.27-2.84-2.27h-48.22c-2.55,0-2.55.57-3.4,2.55l-4.54,14.75c-1.13,4.25-1.7,5.96-5.96,5.96h-57.58ZM2586.76,324.33c-.28.85-.28,1.42-.28,1.99,0,.85.57,1.42,1.42,1.42h17.59c1.42,0,1.99-.57,1.99-1.99,0-.28,0-.85-.28-1.7l-7.94-25.53c-.57-1.99-1.13-3.12-1.99-3.12,0,0-1.13-.85-2.55,3.4l-7.94,25.53Z"/>
    <path class="cls-1" d="M2764.33,259.65c-5.39,0-6.81-1.99-6.81-5.67v-47.09c0-4.25,1.7-5.39,7.66-5.39h102.4c4.82,0,7.38,2.27,7.38,6.52v137.58c0,35.46-30.64,57.3-80.28,57.3-59.29,0-87.37-24.68-87.37-76.59v-14.47c0-3.97,1.99-5.96,5.96-5.96h52.19c3.97,0,5.96,1.99,5.96,5.96v10.5c0,16.74,8.79,22.41,18.72,22.41,7.94,0,18.15-.28,18.15-16.17v-66.38c0-1.7-.85-2.55-2.27-2.55h-41.7Z"/>
    <path class="cls-1" d="M2900.77,400.06c-3.97,0-5.96-1.99-5.96-5.96v-186.65c0-3.97,1.99-5.96,5.96-5.96h128.21c3.97,0,5.96,1.99,5.96,5.96v46.24c0,3.97-1.99,5.96-5.96,5.96h-61.55c-3.97,0-5.96,1.99-5.96,5.96v3.12c0,3.97,1.99,5.96,5.96,5.96h53.9c3.97,0,5.96,1.99,5.96,5.96v41.41c0,3.97-1.99,5.96-5.96,5.96h-53.9c-3.97,0-5.96,1.99-5.96,5.96v1.99c0,3.97,1.99,5.96,5.96,5.96h61.55c3.97,0,5.96,1.99,5.96,5.96v46.24c0,3.97-1.99,5.96-5.96,5.96h-128.21Z"/>
    <path class="cls-1" d="M3137.9,256.81h-3.12c-4.26,0-9.64,1.13-9.64,5.11,0,5.39,8.51,8.23,31.2,14.18,48.51,12.76,65.24,28.37,65.24,59.85,0,42.83-30.07,67.23-84.25,67.23-34.04,0-64.96-9.64-83.11-25.81-1.42-1.42-1.99-2.84-1.99-4.26,0-.85.28-1.99.85-3.12l26.38-42.27c1.42-1.99,2.84-3.12,4.54-3.12,1.42,0,2.84.57,4.25,1.7,17.02,12.48,35.17,18.72,54.18,18.72,11.06,0,15.32-1.99,15.32-5.11,0-3.97-4.25-5.11-27.23-10.5-49.92-12.76-66.66-26.66-66.66-60.14,0-45.1,29.5-70.63,79.71-70.63,37.73,0,63.54,16.74,75.45,27.23,1.7,1.42,2.55,2.84,2.55,4.25s-.57,2.55-1.7,3.97l-30.92,38.58c-1.42,1.7-2.84,2.55-4.54,2.55-1.42,0-2.84-.57-4.25-1.99-12.48-10.5-27.8-16.45-42.27-16.45Z"/>
  </g>
  <path class="cls-1" d="M360.8,144.89l-58.68,29.77c-6.39,3.24-13.94,3.24-20.33,0l-81.14-41.18c-6.39-3.24-13.94-3.24-20.33,0l-79.01,40.09c-7.55,3.83-12.3,11.58-12.3,20.04v245.33c0,16.76,17.69,27.62,32.64,20.04l58.68-29.77c6.39-3.24,13.94-3.24,20.33,0l81.14,41.17c6.39,3.24,13.94,3.24,20.33,0l79.01-40.09c7.55-3.83,12.3-11.57,12.3-20.04v-245.33c0-16.76-17.69-27.62-32.64-20.04ZM323.56,311.92c-42.44,12.82-59.54,29.92-72.36,72.36-3,9.93-16.97,9.93-19.97,0-12.82-42.44-29.92-59.54-72.36-72.36-9.93-3-9.93-16.97,0-19.97,42.44-12.82,59.54-29.92,72.36-72.36,3-9.93,16.97-9.93,19.97,0,12.82,42.44,29.92,59.54,72.36,72.36,9.93,3,9.93,16.97,0,19.97Z"/>
</svg>