<?xml version="1.0" encoding="UTF-8"?>
<svg id="Capa_1" data-name="Capa 1" xmlns="http://www.w3.org/2000/svg" viewBox="0 0 1384.54 1277.06">
  <defs>
    <style>
      .cls-1 {
        fill: #1b2e4d;
      }
    </style>
  </defs>
  <path class="cls-1" d="M1029.28,195.95l-165.36,83.91c-18.01,9.14-39.3,9.14-57.31,0l-228.68-116.04c-18.01-9.14-39.3-9.14-57.31,0l-222.67,112.99c-21.27,10.79-34.67,32.62-34.67,56.47v691.37c0,47.24,49.85,77.84,91.98,56.47l165.36-83.91c18.01-9.14,39.3-9.14,57.31,0l228.68,116.04c18.01,9.14,39.3,9.14,57.31,0l222.67-112.99c21.27-10.79,34.67-32.62,34.67-56.47V252.42c0-47.24-49.85-77.84-91.98-56.47ZM924.33,666.66c-119.6,36.13-167.79,84.32-203.92,203.92-8.45,27.97-47.82,27.97-56.27,0-36.13-119.6-84.32-167.79-203.92-203.92-27.97-8.45-27.97-47.82,0-56.27,119.6-36.13,167.79-84.32,203.92-203.92,8.45-27.97,47.82-27.97,56.27,0,36.13,119.6,84.32,167.79,203.92,203.92,27.97,8.45,27.97,47.82,0,56.27Z"/>
</svg>